<?xml version="1.0" encoding="utf-8" standalone="no"?>
<!DOCTYPE svg PUBLIC "-//W3C//DTD SVG 1.1//EN"
  "http://www.w3.org/Graphics/SVG/1.1/DTD/svg11.dtd">
<svg xmlns:xlink="http://www.w3.org/1999/xlink" width="460.8pt" height="345.6pt" viewBox="0 0 460.8 345.6" xmlns="http://www.w3.org/2000/svg" version="1.1">
 <metadata>
  <rdf:RDF xmlns:dc="http://purl.org/dc/elements/1.1/" xmlns:cc="http://creativecommons.org/ns#" xmlns:rdf="http://www.w3.org/1999/02/22-rdf-syntax-ns#">
   <cc:Work>
    <dc:type rdf:resource="http://purl.org/dc/dcmitype/StillImage"/>
    <dc:date>2024-01-23T11:01:02.743868</dc:date>
    <dc:format>image/svg+xml</dc:format>
    <dc:creator>
     <cc:Agent>
      <dc:title>Matplotlib v3.7.1, https://matplotlib.org/</dc:title>
     </cc:Agent>
    </dc:creator>
   </cc:Work>
  </rdf:RDF>
 </metadata>
 <defs>
  <style type="text/css">*{stroke-linejoin: round; stroke-linecap: butt}</style>
 </defs>
 <g id="figure_1">
  <g id="patch_1">
   <path d="M 0 345.6 
L 460.8 345.6 
L 460.8 0 
L 0 0 
L 0 345.6 
z
" style="fill: none"/>
  </g>
  <g id="axes_1">
   <g id="patch_2">
    <path d="M 57.6 307.584 
L 414.72 307.584 
L 414.72 41.472 
L 57.6 41.472 
z
" style="fill: #ffffff"/>
   </g>
   <g id="matplotlib.axis_1">
    <g id="xtick_1">
     <g id="line2d_1">
      <defs>
       <path id="m99bd131ab0" d="M 0 0 
L 0 3.5 
" style="stroke: #000000; stroke-width: 0.8"/>
      </defs>
      <g>
       <use xlink:href="#m99bd131ab0" x="57.6" y="307.584" style="stroke: #000000; stroke-width: 0.8"/>
      </g>
     </g>
     <g id="text_1">
      <!-- 0 -->
      <g transform="translate(54.41875 322.182437) scale(0.1 -0.1)">
       <defs>
        <path id="DejaVuSans-30" d="M 2034 4250 
Q 1547 4250 1301 3770 
Q 1056 3291 1056 2328 
Q 1056 1369 1301 889 
Q 1547 409 2034 409 
Q 2525 409 2770 889 
Q 3016 1369 3016 2328 
Q 3016 3291 2770 3770 
Q 2525 4250 2034 4250 
z
M 2034 4750 
Q 2819 4750 3233 4129 
Q 3647 3509 3647 2328 
Q 3647 1150 3233 529 
Q 2819 -91 2034 -91 
Q 1250 -91 836 529 
Q 422 1150 422 2328 
Q 422 3509 836 4129 
Q 1250 4750 2034 4750 
z
" transform="scale(0.015625)"/>
       </defs>
       <use xlink:href="#DejaVuSans-30"/>
      </g>
     </g>
    </g>
    <g id="xtick_2">
     <g id="line2d_2">
      <g>
       <use xlink:href="#m99bd131ab0" x="129.024" y="307.584" style="stroke: #000000; stroke-width: 0.8"/>
      </g>
     </g>
     <g id="text_2">
      <!-- 500 -->
      <g transform="translate(119.48025 322.182437) scale(0.1 -0.1)">
       <defs>
        <path id="DejaVuSans-35" d="M 691 4666 
L 3169 4666 
L 3169 4134 
L 1269 4134 
L 1269 2991 
Q 1406 3038 1543 3061 
Q 1681 3084 1819 3084 
Q 2600 3084 3056 2656 
Q 3513 2228 3513 1497 
Q 3513 744 3044 326 
Q 2575 -91 1722 -91 
Q 1428 -91 1123 -41 
Q 819 9 494 109 
L 494 744 
Q 775 591 1075 516 
Q 1375 441 1709 441 
Q 2250 441 2565 725 
Q 2881 1009 2881 1497 
Q 2881 1984 2565 2268 
Q 2250 2553 1709 2553 
Q 1456 2553 1204 2497 
Q 953 2441 691 2322 
L 691 4666 
z
" transform="scale(0.015625)"/>
       </defs>
       <use xlink:href="#DejaVuSans-35"/>
       <use xlink:href="#DejaVuSans-30" x="63.623047"/>
       <use xlink:href="#DejaVuSans-30" x="127.246094"/>
      </g>
     </g>
    </g>
    <g id="xtick_3">
     <g id="line2d_3">
      <g>
       <use xlink:href="#m99bd131ab0" x="200.448" y="307.584" style="stroke: #000000; stroke-width: 0.8"/>
      </g>
     </g>
     <g id="text_3">
      <!-- 1000 -->
      <g transform="translate(187.723 322.182437) scale(0.1 -0.1)">
       <defs>
        <path id="DejaVuSans-31" d="M 794 531 
L 1825 531 
L 1825 4091 
L 703 3866 
L 703 4441 
L 1819 4666 
L 2450 4666 
L 2450 531 
L 3481 531 
L 3481 0 
L 794 0 
L 794 531 
z
" transform="scale(0.015625)"/>
       </defs>
       <use xlink:href="#DejaVuSans-31"/>
       <use xlink:href="#DejaVuSans-30" x="63.623047"/>
       <use xlink:href="#DejaVuSans-30" x="127.246094"/>
       <use xlink:href="#DejaVuSans-30" x="190.869141"/>
      </g>
     </g>
    </g>
    <g id="xtick_4">
     <g id="line2d_4">
      <g>
       <use xlink:href="#m99bd131ab0" x="271.872" y="307.584" style="stroke: #000000; stroke-width: 0.8"/>
      </g>
     </g>
     <g id="text_4">
      <!-- 1500 -->
      <g transform="translate(259.147 322.182437) scale(0.1 -0.1)">
       <use xlink:href="#DejaVuSans-31"/>
       <use xlink:href="#DejaVuSans-35" x="63.623047"/>
       <use xlink:href="#DejaVuSans-30" x="127.246094"/>
       <use xlink:href="#DejaVuSans-30" x="190.869141"/>
      </g>
     </g>
    </g>
    <g id="xtick_5">
     <g id="line2d_5">
      <g>
       <use xlink:href="#m99bd131ab0" x="343.296" y="307.584" style="stroke: #000000; stroke-width: 0.8"/>
      </g>
     </g>
     <g id="text_5">
      <!-- 2000 -->
      <g transform="translate(330.571 322.182437) scale(0.1 -0.1)">
       <defs>
        <path id="DejaVuSans-32" d="M 1228 531 
L 3431 531 
L 3431 0 
L 469 0 
L 469 531 
Q 828 903 1448 1529 
Q 2069 2156 2228 2338 
Q 2531 2678 2651 2914 
Q 2772 3150 2772 3378 
Q 2772 3750 2511 3984 
Q 2250 4219 1831 4219 
Q 1534 4219 1204 4116 
Q 875 4013 500 3803 
L 500 4441 
Q 881 4594 1212 4672 
Q 1544 4750 1819 4750 
Q 2544 4750 2975 4387 
Q 3406 4025 3406 3419 
Q 3406 3131 3298 2873 
Q 3191 2616 2906 2266 
Q 2828 2175 2409 1742 
Q 1991 1309 1228 531 
z
" transform="scale(0.015625)"/>
       </defs>
       <use xlink:href="#DejaVuSans-32"/>
       <use xlink:href="#DejaVuSans-30" x="63.623047"/>
       <use xlink:href="#DejaVuSans-30" x="127.246094"/>
       <use xlink:href="#DejaVuSans-30" x="190.869141"/>
      </g>
     </g>
    </g>
    <g id="xtick_6">
     <g id="line2d_6">
      <g>
       <use xlink:href="#m99bd131ab0" x="414.72" y="307.584" style="stroke: #000000; stroke-width: 0.8"/>
      </g>
     </g>
     <g id="text_6">
      <!-- 2500 -->
      <g transform="translate(401.995 322.182437) scale(0.1 -0.1)">
       <use xlink:href="#DejaVuSans-32"/>
       <use xlink:href="#DejaVuSans-35" x="63.623047"/>
       <use xlink:href="#DejaVuSans-30" x="127.246094"/>
       <use xlink:href="#DejaVuSans-30" x="190.869141"/>
      </g>
     </g>
    </g>
    <g id="text_7">
     <!-- component -->
     <g transform="translate(207.873281 335.860562) scale(0.1 -0.1)">
      <defs>
       <path id="DejaVuSans-63" d="M 3122 3366 
L 3122 2828 
Q 2878 2963 2633 3030 
Q 2388 3097 2138 3097 
Q 1578 3097 1268 2742 
Q 959 2388 959 1747 
Q 959 1106 1268 751 
Q 1578 397 2138 397 
Q 2388 397 2633 464 
Q 2878 531 3122 666 
L 3122 134 
Q 2881 22 2623 -34 
Q 2366 -91 2075 -91 
Q 1284 -91 818 406 
Q 353 903 353 1747 
Q 353 2603 823 3093 
Q 1294 3584 2113 3584 
Q 2378 3584 2631 3529 
Q 2884 3475 3122 3366 
z
" transform="scale(0.015625)"/>
       <path id="DejaVuSans-6f" d="M 1959 3097 
Q 1497 3097 1228 2736 
Q 959 2375 959 1747 
Q 959 1119 1226 758 
Q 1494 397 1959 397 
Q 2419 397 2687 759 
Q 2956 1122 2956 1747 
Q 2956 2369 2687 2733 
Q 2419 3097 1959 3097 
z
M 1959 3584 
Q 2709 3584 3137 3096 
Q 3566 2609 3566 1747 
Q 3566 888 3137 398 
Q 2709 -91 1959 -91 
Q 1206 -91 779 398 
Q 353 888 353 1747 
Q 353 2609 779 3096 
Q 1206 3584 1959 3584 
z
" transform="scale(0.015625)"/>
       <path id="DejaVuSans-6d" d="M 3328 2828 
Q 3544 3216 3844 3400 
Q 4144 3584 4550 3584 
Q 5097 3584 5394 3201 
Q 5691 2819 5691 2113 
L 5691 0 
L 5113 0 
L 5113 2094 
Q 5113 2597 4934 2840 
Q 4756 3084 4391 3084 
Q 3944 3084 3684 2787 
Q 3425 2491 3425 1978 
L 3425 0 
L 2847 0 
L 2847 2094 
Q 2847 2600 2669 2842 
Q 2491 3084 2119 3084 
Q 1678 3084 1418 2786 
Q 1159 2488 1159 1978 
L 1159 0 
L 581 0 
L 581 3500 
L 1159 3500 
L 1159 2956 
Q 1356 3278 1631 3431 
Q 1906 3584 2284 3584 
Q 2666 3584 2933 3390 
Q 3200 3197 3328 2828 
z
" transform="scale(0.015625)"/>
       <path id="DejaVuSans-70" d="M 1159 525 
L 1159 -1331 
L 581 -1331 
L 581 3500 
L 1159 3500 
L 1159 2969 
Q 1341 3281 1617 3432 
Q 1894 3584 2278 3584 
Q 2916 3584 3314 3078 
Q 3713 2572 3713 1747 
Q 3713 922 3314 415 
Q 2916 -91 2278 -91 
Q 1894 -91 1617 61 
Q 1341 213 1159 525 
z
M 3116 1747 
Q 3116 2381 2855 2742 
Q 2594 3103 2138 3103 
Q 1681 3103 1420 2742 
Q 1159 2381 1159 1747 
Q 1159 1113 1420 752 
Q 1681 391 2138 391 
Q 2594 391 2855 752 
Q 3116 1113 3116 1747 
z
" transform="scale(0.015625)"/>
       <path id="DejaVuSans-6e" d="M 3513 2113 
L 3513 0 
L 2938 0 
L 2938 2094 
Q 2938 2591 2744 2837 
Q 2550 3084 2163 3084 
Q 1697 3084 1428 2787 
Q 1159 2491 1159 1978 
L 1159 0 
L 581 0 
L 581 3500 
L 1159 3500 
L 1159 2956 
Q 1366 3272 1645 3428 
Q 1925 3584 2291 3584 
Q 2894 3584 3203 3211 
Q 3513 2838 3513 2113 
z
" transform="scale(0.015625)"/>
       <path id="DejaVuSans-65" d="M 3597 1894 
L 3597 1613 
L 953 1613 
Q 991 1019 1311 708 
Q 1631 397 2203 397 
Q 2534 397 2845 478 
Q 3156 559 3463 722 
L 3463 178 
Q 3153 47 2828 -22 
Q 2503 -91 2169 -91 
Q 1331 -91 842 396 
Q 353 884 353 1716 
Q 353 2575 817 3079 
Q 1281 3584 2069 3584 
Q 2775 3584 3186 3129 
Q 3597 2675 3597 1894 
z
M 3022 2063 
Q 3016 2534 2758 2815 
Q 2500 3097 2075 3097 
Q 1594 3097 1305 2825 
Q 1016 2553 972 2059 
L 3022 2063 
z
" transform="scale(0.015625)"/>
       <path id="DejaVuSans-74" d="M 1172 4494 
L 1172 3500 
L 2356 3500 
L 2356 3053 
L 1172 3053 
L 1172 1153 
Q 1172 725 1289 603 
Q 1406 481 1766 481 
L 2356 481 
L 2356 0 
L 1766 0 
Q 1100 0 847 248 
Q 594 497 594 1153 
L 594 3053 
L 172 3053 
L 172 3500 
L 594 3500 
L 594 4494 
L 1172 4494 
z
" transform="scale(0.015625)"/>
      </defs>
      <use xlink:href="#DejaVuSans-63"/>
      <use xlink:href="#DejaVuSans-6f" x="54.980469"/>
      <use xlink:href="#DejaVuSans-6d" x="116.162109"/>
      <use xlink:href="#DejaVuSans-70" x="213.574219"/>
      <use xlink:href="#DejaVuSans-6f" x="277.050781"/>
      <use xlink:href="#DejaVuSans-6e" x="338.232422"/>
      <use xlink:href="#DejaVuSans-65" x="401.611328"/>
      <use xlink:href="#DejaVuSans-6e" x="463.134766"/>
      <use xlink:href="#DejaVuSans-74" x="526.513672"/>
     </g>
    </g>
   </g>
   <g id="matplotlib.axis_2">
    <g id="ytick_1">
     <g id="line2d_7">
      <defs>
       <path id="m762bc42e8b" d="M 0 0 
L -3.5 0 
" style="stroke: #000000; stroke-width: 0.8"/>
      </defs>
      <g>
       <use xlink:href="#m762bc42e8b" x="57.6" y="307.584" style="stroke: #000000; stroke-width: 0.8"/>
      </g>
     </g>
     <g id="text_8">
      <!-- 0 -->
      <g transform="translate(44.2375 311.383219) scale(0.1 -0.1)">
       <use xlink:href="#DejaVuSans-30"/>
      </g>
     </g>
    </g>
    <g id="ytick_2">
     <g id="line2d_8">
      <g>
       <use xlink:href="#m762bc42e8b" x="57.6" y="263.232" style="stroke: #000000; stroke-width: 0.8"/>
      </g>
     </g>
     <g id="text_9">
      <!-- 5000 -->
      <g transform="translate(25.15 267.031219) scale(0.1 -0.1)">
       <use xlink:href="#DejaVuSans-35"/>
       <use xlink:href="#DejaVuSans-30" x="63.623047"/>
       <use xlink:href="#DejaVuSans-30" x="127.246094"/>
       <use xlink:href="#DejaVuSans-30" x="190.869141"/>
      </g>
     </g>
    </g>
    <g id="ytick_3">
     <g id="line2d_9">
      <g>
       <use xlink:href="#m762bc42e8b" x="57.6" y="218.88" style="stroke: #000000; stroke-width: 0.8"/>
      </g>
     </g>
     <g id="text_10">
      <!-- 10000 -->
      <g transform="translate(18.7875 222.679219) scale(0.1 -0.1)">
       <use xlink:href="#DejaVuSans-31"/>
       <use xlink:href="#DejaVuSans-30" x="63.623047"/>
       <use xlink:href="#DejaVuSans-30" x="127.246094"/>
       <use xlink:href="#DejaVuSans-30" x="190.869141"/>
       <use xlink:href="#DejaVuSans-30" x="254.492188"/>
      </g>
     </g>
    </g>
    <g id="ytick_4">
     <g id="line2d_10">
      <g>
       <use xlink:href="#m762bc42e8b" x="57.6" y="174.528" style="stroke: #000000; stroke-width: 0.8"/>
      </g>
     </g>
     <g id="text_11">
      <!-- 15000 -->
      <g transform="translate(18.7875 178.327219) scale(0.1 -0.1)">
       <use xlink:href="#DejaVuSans-31"/>
       <use xlink:href="#DejaVuSans-35" x="63.623047"/>
       <use xlink:href="#DejaVuSans-30" x="127.246094"/>
       <use xlink:href="#DejaVuSans-30" x="190.869141"/>
       <use xlink:href="#DejaVuSans-30" x="254.492188"/>
      </g>
     </g>
    </g>
    <g id="ytick_5">
     <g id="line2d_11">
      <g>
       <use xlink:href="#m762bc42e8b" x="57.6" y="130.176" style="stroke: #000000; stroke-width: 0.8"/>
      </g>
     </g>
     <g id="text_12">
      <!-- 20000 -->
      <g transform="translate(18.7875 133.975219) scale(0.1 -0.1)">
       <use xlink:href="#DejaVuSans-32"/>
       <use xlink:href="#DejaVuSans-30" x="63.623047"/>
       <use xlink:href="#DejaVuSans-30" x="127.246094"/>
       <use xlink:href="#DejaVuSans-30" x="190.869141"/>
       <use xlink:href="#DejaVuSans-30" x="254.492188"/>
      </g>
     </g>
    </g>
    <g id="ytick_6">
     <g id="line2d_12">
      <g>
       <use xlink:href="#m762bc42e8b" x="57.6" y="85.824" style="stroke: #000000; stroke-width: 0.8"/>
      </g>
     </g>
     <g id="text_13">
      <!-- 25000 -->
      <g transform="translate(18.7875 89.623219) scale(0.1 -0.1)">
       <use xlink:href="#DejaVuSans-32"/>
       <use xlink:href="#DejaVuSans-35" x="63.623047"/>
       <use xlink:href="#DejaVuSans-30" x="127.246094"/>
       <use xlink:href="#DejaVuSans-30" x="190.869141"/>
       <use xlink:href="#DejaVuSans-30" x="254.492188"/>
      </g>
     </g>
    </g>
    <g id="ytick_7">
     <g id="line2d_13">
      <g>
       <use xlink:href="#m762bc42e8b" x="57.6" y="41.472" style="stroke: #000000; stroke-width: 0.8"/>
      </g>
     </g>
     <g id="text_14">
      <!-- 30000 -->
      <g transform="translate(18.7875 45.271219) scale(0.1 -0.1)">
       <defs>
        <path id="DejaVuSans-33" d="M 2597 2516 
Q 3050 2419 3304 2112 
Q 3559 1806 3559 1356 
Q 3559 666 3084 287 
Q 2609 -91 1734 -91 
Q 1441 -91 1130 -33 
Q 819 25 488 141 
L 488 750 
Q 750 597 1062 519 
Q 1375 441 1716 441 
Q 2309 441 2620 675 
Q 2931 909 2931 1356 
Q 2931 1769 2642 2001 
Q 2353 2234 1838 2234 
L 1294 2234 
L 1294 2753 
L 1863 2753 
Q 2328 2753 2575 2939 
Q 2822 3125 2822 3475 
Q 2822 3834 2567 4026 
Q 2313 4219 1838 4219 
Q 1578 4219 1281 4162 
Q 984 4106 628 3988 
L 628 4550 
Q 988 4650 1302 4700 
Q 1616 4750 1894 4750 
Q 2613 4750 3031 4423 
Q 3450 4097 3450 3541 
Q 3450 3153 3228 2886 
Q 3006 2619 2597 2516 
z
" transform="scale(0.015625)"/>
       </defs>
       <use xlink:href="#DejaVuSans-33"/>
       <use xlink:href="#DejaVuSans-30" x="63.623047"/>
       <use xlink:href="#DejaVuSans-30" x="127.246094"/>
       <use xlink:href="#DejaVuSans-30" x="190.869141"/>
       <use xlink:href="#DejaVuSans-30" x="254.492188"/>
      </g>
     </g>
    </g>
    <g id="text_15">
     <!-- size -->
     <g transform="translate(12.707813 184.222531) rotate(-90) scale(0.1 -0.1)">
      <defs>
       <path id="DejaVuSans-73" d="M 2834 3397 
L 2834 2853 
Q 2591 2978 2328 3040 
Q 2066 3103 1784 3103 
Q 1356 3103 1142 2972 
Q 928 2841 928 2578 
Q 928 2378 1081 2264 
Q 1234 2150 1697 2047 
L 1894 2003 
Q 2506 1872 2764 1633 
Q 3022 1394 3022 966 
Q 3022 478 2636 193 
Q 2250 -91 1575 -91 
Q 1294 -91 989 -36 
Q 684 19 347 128 
L 347 722 
Q 666 556 975 473 
Q 1284 391 1588 391 
Q 1994 391 2212 530 
Q 2431 669 2431 922 
Q 2431 1156 2273 1281 
Q 2116 1406 1581 1522 
L 1381 1569 
Q 847 1681 609 1914 
Q 372 2147 372 2553 
Q 372 3047 722 3315 
Q 1072 3584 1716 3584 
Q 2034 3584 2315 3537 
Q 2597 3491 2834 3397 
z
" transform="scale(0.015625)"/>
       <path id="DejaVuSans-69" d="M 603 3500 
L 1178 3500 
L 1178 0 
L 603 0 
L 603 3500 
z
M 603 4863 
L 1178 4863 
L 1178 4134 
L 603 4134 
L 603 4863 
z
" transform="scale(0.015625)"/>
       <path id="DejaVuSans-7a" d="M 353 3500 
L 3084 3500 
L 3084 2975 
L 922 459 
L 3084 459 
L 3084 0 
L 275 0 
L 275 525 
L 2438 3041 
L 353 3041 
L 353 3500 
z
" transform="scale(0.015625)"/>
      </defs>
      <use xlink:href="#DejaVuSans-73"/>
      <use xlink:href="#DejaVuSans-69" x="52.099609"/>
      <use xlink:href="#DejaVuSans-7a" x="79.882812"/>
      <use xlink:href="#DejaVuSans-65" x="132.373047"/>
     </g>
    </g>
   </g>
   <g id="line2d_14">
    <path d="M 57.6 51.797146 
L 57.742848 306.856627 
L 58.028544 307.078387 
L 58.742784 307.273536 
L 60.45696 307.388851 
L 68.599296 307.495296 
L 70.45632 307.504166 
L 382.007808 307.57513 
L 382.007808 307.57513 
" clip-path="url(#pcc7391ca4b)" style="fill: none; stroke: #1f77b4"/>
   </g>
   <g id="patch_3">
    <path d="M 57.6 307.584 
L 57.6 41.472 
" style="fill: none; stroke: #000000; stroke-width: 0.8; stroke-linejoin: miter; stroke-linecap: square"/>
   </g>
   <g id="patch_4">
    <path d="M 414.72 307.584 
L 414.72 41.472 
" style="fill: none; stroke: #000000; stroke-width: 0.8; stroke-linejoin: miter; stroke-linecap: square"/>
   </g>
   <g id="patch_5">
    <path d="M 57.6 307.584 
L 414.72 307.584 
" style="fill: none; stroke: #000000; stroke-width: 0.8; stroke-linejoin: miter; stroke-linecap: square"/>
   </g>
   <g id="patch_6">
    <path d="M 57.6 41.472 
L 414.72 41.472 
" style="fill: none; stroke: #000000; stroke-width: 0.8; stroke-linejoin: miter; stroke-linecap: square"/>
   </g>
   <g id="axes_2">
    <g id="patch_7">
     <path d="M 146.88 241.056 
L 404.0064 241.056 
L 404.0064 49.45536 
L 146.88 49.45536 
z
" style="fill: #ffffff"/>
    </g>
    <g id="matplotlib.axis_3">
     <g id="xtick_7">
      <g id="line2d_15">
       <g>
        <use xlink:href="#m99bd131ab0" x="146.88" y="241.056" style="stroke: #000000; stroke-width: 0.8"/>
       </g>
      </g>
      <g id="text_16">
       <!-- 0 -->
       <g transform="translate(143.69875 255.654437) scale(0.1 -0.1)">
        <use xlink:href="#DejaVuSans-30"/>
       </g>
      </g>
     </g>
     <g id="xtick_8">
      <g id="line2d_16">
       <g>
        <use xlink:href="#m99bd131ab0" x="198.30528" y="241.056" style="stroke: #000000; stroke-width: 0.8"/>
       </g>
      </g>
      <g id="text_17">
       <!-- 50 -->
       <g transform="translate(191.94278 255.654437) scale(0.1 -0.1)">
        <use xlink:href="#DejaVuSans-35"/>
        <use xlink:href="#DejaVuSans-30" x="63.623047"/>
       </g>
      </g>
     </g>
     <g id="xtick_9">
      <g id="line2d_17">
       <g>
        <use xlink:href="#m99bd131ab0" x="249.73056" y="241.056" style="stroke: #000000; stroke-width: 0.8"/>
       </g>
      </g>
      <g id="text_18">
       <!-- 100 -->
       <g transform="translate(240.18681 255.654437) scale(0.1 -0.1)">
        <use xlink:href="#DejaVuSans-31"/>
        <use xlink:href="#DejaVuSans-30" x="63.623047"/>
        <use xlink:href="#DejaVuSans-30" x="127.246094"/>
       </g>
      </g>
     </g>
     <g id="xtick_10">
      <g id="line2d_18">
       <g>
        <use xlink:href="#m99bd131ab0" x="301.15584" y="241.056" style="stroke: #000000; stroke-width: 0.8"/>
       </g>
      </g>
      <g id="text_19">
       <!-- 150 -->
       <g transform="translate(291.61209 255.654437) scale(0.1 -0.1)">
        <use xlink:href="#DejaVuSans-31"/>
        <use xlink:href="#DejaVuSans-35" x="63.623047"/>
        <use xlink:href="#DejaVuSans-30" x="127.246094"/>
       </g>
      </g>
     </g>
     <g id="xtick_11">
      <g id="line2d_19">
       <g>
        <use xlink:href="#m99bd131ab0" x="352.58112" y="241.056" style="stroke: #000000; stroke-width: 0.8"/>
       </g>
      </g>
      <g id="text_20">
       <!-- 200 -->
       <g transform="translate(343.03737 255.654437) scale(0.1 -0.1)">
        <use xlink:href="#DejaVuSans-32"/>
        <use xlink:href="#DejaVuSans-30" x="63.623047"/>
        <use xlink:href="#DejaVuSans-30" x="127.246094"/>
       </g>
      </g>
     </g>
     <g id="xtick_12">
      <g id="line2d_20">
       <g>
        <use xlink:href="#m99bd131ab0" x="404.0064" y="241.056" style="stroke: #000000; stroke-width: 0.8"/>
       </g>
      </g>
      <g id="text_21">
       <!-- 250 -->
       <g transform="translate(394.46265 255.654437) scale(0.1 -0.1)">
        <use xlink:href="#DejaVuSans-32"/>
        <use xlink:href="#DejaVuSans-35" x="63.623047"/>
        <use xlink:href="#DejaVuSans-30" x="127.246094"/>
       </g>
      </g>
     </g>
    </g>
    <g id="matplotlib.axis_4">
     <g id="ytick_8">
      <g id="line2d_21">
       <g>
        <use xlink:href="#m762bc42e8b" x="146.88" y="241.056" style="stroke: #000000; stroke-width: 0.8"/>
       </g>
      </g>
      <g id="text_22">
       <!-- 0 -->
       <g transform="translate(133.5175 244.855219) scale(0.1 -0.1)">
        <use xlink:href="#DejaVuSans-30"/>
       </g>
      </g>
     </g>
     <g id="ytick_9">
      <g id="line2d_22">
       <g>
        <use xlink:href="#m762bc42e8b" x="146.88" y="202.735872" style="stroke: #000000; stroke-width: 0.8"/>
       </g>
      </g>
      <g id="text_23">
       <!-- 20 -->
       <g transform="translate(127.155 206.535091) scale(0.1 -0.1)">
        <use xlink:href="#DejaVuSans-32"/>
        <use xlink:href="#DejaVuSans-30" x="63.623047"/>
       </g>
      </g>
     </g>
     <g id="ytick_10">
      <g id="line2d_23">
       <g>
        <use xlink:href="#m762bc42e8b" x="146.88" y="164.415744" style="stroke: #000000; stroke-width: 0.8"/>
       </g>
      </g>
      <g id="text_24">
       <!-- 40 -->
       <g transform="translate(127.155 168.214963) scale(0.1 -0.1)">
        <defs>
         <path id="DejaVuSans-34" d="M 2419 4116 
L 825 1625 
L 2419 1625 
L 2419 4116 
z
M 2253 4666 
L 3047 4666 
L 3047 1625 
L 3713 1625 
L 3713 1100 
L 3047 1100 
L 3047 0 
L 2419 0 
L 2419 1100 
L 313 1100 
L 313 1709 
L 2253 4666 
z
" transform="scale(0.015625)"/>
        </defs>
        <use xlink:href="#DejaVuSans-34"/>
        <use xlink:href="#DejaVuSans-30" x="63.623047"/>
       </g>
      </g>
     </g>
     <g id="ytick_11">
      <g id="line2d_24">
       <g>
        <use xlink:href="#m762bc42e8b" x="146.88" y="126.095616" style="stroke: #000000; stroke-width: 0.8"/>
       </g>
      </g>
      <g id="text_25">
       <!-- 60 -->
       <g transform="translate(127.155 129.894835) scale(0.1 -0.1)">
        <defs>
         <path id="DejaVuSans-36" d="M 2113 2584 
Q 1688 2584 1439 2293 
Q 1191 2003 1191 1497 
Q 1191 994 1439 701 
Q 1688 409 2113 409 
Q 2538 409 2786 701 
Q 3034 994 3034 1497 
Q 3034 2003 2786 2293 
Q 2538 2584 2113 2584 
z
M 3366 4563 
L 3366 3988 
Q 3128 4100 2886 4159 
Q 2644 4219 2406 4219 
Q 1781 4219 1451 3797 
Q 1122 3375 1075 2522 
Q 1259 2794 1537 2939 
Q 1816 3084 2150 3084 
Q 2853 3084 3261 2657 
Q 3669 2231 3669 1497 
Q 3669 778 3244 343 
Q 2819 -91 2113 -91 
Q 1303 -91 875 529 
Q 447 1150 447 2328 
Q 447 3434 972 4092 
Q 1497 4750 2381 4750 
Q 2619 4750 2861 4703 
Q 3103 4656 3366 4563 
z
" transform="scale(0.015625)"/>
        </defs>
        <use xlink:href="#DejaVuSans-36"/>
        <use xlink:href="#DejaVuSans-30" x="63.623047"/>
       </g>
      </g>
     </g>
     <g id="ytick_12">
      <g id="line2d_25">
       <g>
        <use xlink:href="#m762bc42e8b" x="146.88" y="87.775488" style="stroke: #000000; stroke-width: 0.8"/>
       </g>
      </g>
      <g id="text_26">
       <!-- 80 -->
       <g transform="translate(127.155 91.574707) scale(0.1 -0.1)">
        <defs>
         <path id="DejaVuSans-38" d="M 2034 2216 
Q 1584 2216 1326 1975 
Q 1069 1734 1069 1313 
Q 1069 891 1326 650 
Q 1584 409 2034 409 
Q 2484 409 2743 651 
Q 3003 894 3003 1313 
Q 3003 1734 2745 1975 
Q 2488 2216 2034 2216 
z
M 1403 2484 
Q 997 2584 770 2862 
Q 544 3141 544 3541 
Q 544 4100 942 4425 
Q 1341 4750 2034 4750 
Q 2731 4750 3128 4425 
Q 3525 4100 3525 3541 
Q 3525 3141 3298 2862 
Q 3072 2584 2669 2484 
Q 3125 2378 3379 2068 
Q 3634 1759 3634 1313 
Q 3634 634 3220 271 
Q 2806 -91 2034 -91 
Q 1263 -91 848 271 
Q 434 634 434 1313 
Q 434 1759 690 2068 
Q 947 2378 1403 2484 
z
M 1172 3481 
Q 1172 3119 1398 2916 
Q 1625 2713 2034 2713 
Q 2441 2713 2670 2916 
Q 2900 3119 2900 3481 
Q 2900 3844 2670 4047 
Q 2441 4250 2034 4250 
Q 1625 4250 1398 4047 
Q 1172 3844 1172 3481 
z
" transform="scale(0.015625)"/>
        </defs>
        <use xlink:href="#DejaVuSans-38"/>
        <use xlink:href="#DejaVuSans-30" x="63.623047"/>
       </g>
      </g>
     </g>
     <g id="ytick_13">
      <g id="line2d_26">
       <g>
        <use xlink:href="#m762bc42e8b" x="146.88" y="49.45536" style="stroke: #000000; stroke-width: 0.8"/>
       </g>
      </g>
      <g id="text_27">
       <!-- 100 -->
       <g transform="translate(120.7925 53.254579) scale(0.1 -0.1)">
        <use xlink:href="#DejaVuSans-31"/>
        <use xlink:href="#DejaVuSans-30" x="63.623047"/>
        <use xlink:href="#DejaVuSans-30" x="127.246094"/>
       </g>
      </g>
     </g>
    </g>
    <g id="line2d_27">
     <path d="M 147.90692 -1 
L 147.908506 83.943475 
L 148.937011 128.011622 
L 149.965517 131.843635 
L 150.994022 145.25568 
L 152.022528 166.33175 
L 153.051034 166.33175 
L 154.079539 172.07977 
L 155.108045 173.995776 
L 157.165056 181.659802 
L 159.222067 185.491814 
L 160.250573 189.323827 
L 161.279078 189.323827 
L 162.307584 191.239834 
L 163.33609 191.239834 
L 164.364595 193.15584 
L 165.393101 193.15584 
L 166.421606 195.071846 
L 167.450112 198.903859 
L 169.507123 198.903859 
L 170.535629 202.735872 
L 175.678157 202.735872 
L 176.706662 204.651878 
L 177.735168 208.483891 
L 179.792179 208.483891 
L 180.820685 210.399898 
L 183.906202 210.399898 
L 184.934707 212.315904 
L 188.020224 212.315904 
L 189.04873 214.23191 
L 192.134246 214.23191 
L 193.162752 216.147917 
L 195.219763 216.147917 
L 196.248269 218.063923 
L 204.476314 218.063923 
L 205.504819 219.97993 
L 212.704358 219.97993 
L 213.732864 221.895936 
L 226.074931 221.895936 
L 227.103437 223.811942 
L 245.616538 223.811942 
L 246.645043 225.727949 
L 266.18665 225.727949 
L 267.215155 227.643955 
L 297.041818 227.643955 
L 298.070323 229.559962 
L 353.609626 229.559962 
L 354.638131 231.475968 
L 405.034906 231.475968 
L 405.034906 231.475968 
" clip-path="url(#pca8df96b9c)" style="fill: none; stroke: #1f77b4"/>
    </g>
    <g id="patch_8">
     <path d="M 146.88 241.056 
L 146.88 49.45536 
" style="fill: none; stroke: #000000; stroke-width: 0.8; stroke-linejoin: miter; stroke-linecap: square"/>
    </g>
    <g id="patch_9">
     <path d="M 404.0064 241.056 
L 404.0064 49.45536 
" style="fill: none; stroke: #000000; stroke-width: 0.8; stroke-linejoin: miter; stroke-linecap: square"/>
    </g>
    <g id="patch_10">
     <path d="M 146.88 241.056 
L 404.0064 241.056 
" style="fill: none; stroke: #000000; stroke-width: 0.8; stroke-linejoin: miter; stroke-linecap: square"/>
    </g>
    <g id="patch_11">
     <path d="M 146.88 49.45536 
L 404.0064 49.45536 
" style="fill: none; stroke: #000000; stroke-width: 0.8; stroke-linejoin: miter; stroke-linecap: square"/>
    </g>
   </g>
  </g>
 </g>
 <defs>
  <clipPath id="pcc7391ca4b">
   <rect x="57.6" y="41.472" width="357.12" height="266.112"/>
  </clipPath>
  <clipPath id="pca8df96b9c">
   <rect x="146.88" y="49.45536" width="257.1264" height="191.60064"/>
  </clipPath>
 </defs>
</svg>
