<?xml version="1.0" encoding="utf-8" standalone="no"?>
<!DOCTYPE svg PUBLIC "-//W3C//DTD SVG 1.1//EN"
  "http://www.w3.org/Graphics/SVG/1.1/DTD/svg11.dtd">
<svg xmlns:xlink="http://www.w3.org/1999/xlink" width="1080pt" height="216pt" viewBox="0 0 1080 216" xmlns="http://www.w3.org/2000/svg" version="1.1">
 <metadata>
  <rdf:RDF xmlns:dc="http://purl.org/dc/elements/1.1/" xmlns:cc="http://creativecommons.org/ns#" xmlns:rdf="http://www.w3.org/1999/02/22-rdf-syntax-ns#">
   <cc:Work>
    <dc:type rdf:resource="http://purl.org/dc/dcmitype/StillImage"/>
    <dc:date>2024-11-11T11:58:49.516296</dc:date>
    <dc:format>image/svg+xml</dc:format>
    <dc:creator>
     <cc:Agent>
      <dc:title>Matplotlib v3.9.0, https://matplotlib.org/</dc:title>
     </cc:Agent>
    </dc:creator>
   </cc:Work>
  </rdf:RDF>
 </metadata>
 <defs>
  <style type="text/css">*{stroke-linejoin: round; stroke-linecap: butt}</style>
 </defs>
 <g id="figure_1">
  <g id="patch_1">
   <path d="M 0 216 
L 1080 216 
L 1080 0 
L 0 0 
L 0 216 
z
" style="fill: none"/>
  </g>
  <g id="axes_1">
   <g id="patch_2">
    <path d="M 48.17524 182.64351 
L 247.762434 182.64351 
L 247.762434 27.79649 
L 48.17524 27.79649 
z
" style="fill: #ffffff"/>
   </g>
   <g id="matplotlib.axis_1">
    <g id="xtick_1">
     <g id="line2d_1">
      <defs>
       <path id="m9e07796bb9" d="M 0 0 
L 0 3.5 
" style="stroke: #000000; stroke-width: 0.8"/>
      </defs>
      <g>
       <use xlink:href="#m9e07796bb9" x="86.479853" y="182.64351" style="stroke: #000000; stroke-width: 0.8"/>
      </g>
     </g>
     <g id="text_1">
      <!-- 20 -->
      <g transform="translate(80.117353 197.241948) scale(0.1 -0.1)">
       <defs>
        <path id="DejaVuSans-32" d="M 1228 531 
L 3431 531 
L 3431 0 
L 469 0 
L 469 531 
Q 828 903 1448 1529 
Q 2069 2156 2228 2338 
Q 2531 2678 2651 2914 
Q 2772 3150 2772 3378 
Q 2772 3750 2511 3984 
Q 2250 4219 1831 4219 
Q 1534 4219 1204 4116 
Q 875 4013 500 3803 
L 500 4441 
Q 881 4594 1212 4672 
Q 1544 4750 1819 4750 
Q 2544 4750 2975 4387 
Q 3406 4025 3406 3419 
Q 3406 3131 3298 2873 
Q 3191 2616 2906 2266 
Q 2828 2175 2409 1742 
Q 1991 1309 1228 531 
z
" transform="scale(0.015625)"/>
        <path id="DejaVuSans-30" d="M 2034 4250 
Q 1547 4250 1301 3770 
Q 1056 3291 1056 2328 
Q 1056 1369 1301 889 
Q 1547 409 2034 409 
Q 2525 409 2770 889 
Q 3016 1369 3016 2328 
Q 3016 3291 2770 3770 
Q 2525 4250 2034 4250 
z
M 2034 4750 
Q 2819 4750 3233 4129 
Q 3647 3509 3647 2328 
Q 3647 1150 3233 529 
Q 2819 -91 2034 -91 
Q 1250 -91 836 529 
Q 422 1150 422 2328 
Q 422 3509 836 4129 
Q 1250 4750 2034 4750 
z
" transform="scale(0.015625)"/>
       </defs>
       <use xlink:href="#DejaVuSans-32"/>
       <use xlink:href="#DejaVuSans-30" x="63.623047"/>
      </g>
     </g>
    </g>
    <g id="xtick_2">
     <g id="line2d_2">
      <g>
       <use xlink:href="#m9e07796bb9" x="126.800498" y="182.64351" style="stroke: #000000; stroke-width: 0.8"/>
      </g>
     </g>
     <g id="text_2">
      <!-- 40 -->
      <g transform="translate(120.437998 197.241948) scale(0.1 -0.1)">
       <defs>
        <path id="DejaVuSans-34" d="M 2419 4116 
L 825 1625 
L 2419 1625 
L 2419 4116 
z
M 2253 4666 
L 3047 4666 
L 3047 1625 
L 3713 1625 
L 3713 1100 
L 3047 1100 
L 3047 0 
L 2419 0 
L 2419 1100 
L 313 1100 
L 313 1709 
L 2253 4666 
z
" transform="scale(0.015625)"/>
       </defs>
       <use xlink:href="#DejaVuSans-34"/>
       <use xlink:href="#DejaVuSans-30" x="63.623047"/>
      </g>
     </g>
    </g>
    <g id="xtick_3">
     <g id="line2d_3">
      <g>
       <use xlink:href="#m9e07796bb9" x="167.121143" y="182.64351" style="stroke: #000000; stroke-width: 0.8"/>
      </g>
     </g>
     <g id="text_3">
      <!-- 60 -->
      <g transform="translate(160.758643 197.241948) scale(0.1 -0.1)">
       <defs>
        <path id="DejaVuSans-36" d="M 2113 2584 
Q 1688 2584 1439 2293 
Q 1191 2003 1191 1497 
Q 1191 994 1439 701 
Q 1688 409 2113 409 
Q 2538 409 2786 701 
Q 3034 994 3034 1497 
Q 3034 2003 2786 2293 
Q 2538 2584 2113 2584 
z
M 3366 4563 
L 3366 3988 
Q 3128 4100 2886 4159 
Q 2644 4219 2406 4219 
Q 1781 4219 1451 3797 
Q 1122 3375 1075 2522 
Q 1259 2794 1537 2939 
Q 1816 3084 2150 3084 
Q 2853 3084 3261 2657 
Q 3669 2231 3669 1497 
Q 3669 778 3244 343 
Q 2819 -91 2113 -91 
Q 1303 -91 875 529 
Q 447 1150 447 2328 
Q 447 3434 972 4092 
Q 1497 4750 2381 4750 
Q 2619 4750 2861 4703 
Q 3103 4656 3366 4563 
z
" transform="scale(0.015625)"/>
       </defs>
       <use xlink:href="#DejaVuSans-36"/>
       <use xlink:href="#DejaVuSans-30" x="63.623047"/>
      </g>
     </g>
    </g>
    <g id="xtick_4">
     <g id="line2d_4">
      <g>
       <use xlink:href="#m9e07796bb9" x="207.441789" y="182.64351" style="stroke: #000000; stroke-width: 0.8"/>
      </g>
     </g>
     <g id="text_4">
      <!-- 80 -->
      <g transform="translate(201.079289 197.241948) scale(0.1 -0.1)">
       <defs>
        <path id="DejaVuSans-38" d="M 2034 2216 
Q 1584 2216 1326 1975 
Q 1069 1734 1069 1313 
Q 1069 891 1326 650 
Q 1584 409 2034 409 
Q 2484 409 2743 651 
Q 3003 894 3003 1313 
Q 3003 1734 2745 1975 
Q 2488 2216 2034 2216 
z
M 1403 2484 
Q 997 2584 770 2862 
Q 544 3141 544 3541 
Q 544 4100 942 4425 
Q 1341 4750 2034 4750 
Q 2731 4750 3128 4425 
Q 3525 4100 3525 3541 
Q 3525 3141 3298 2862 
Q 3072 2584 2669 2484 
Q 3125 2378 3379 2068 
Q 3634 1759 3634 1313 
Q 3634 634 3220 271 
Q 2806 -91 2034 -91 
Q 1263 -91 848 271 
Q 434 634 434 1313 
Q 434 1759 690 2068 
Q 947 2378 1403 2484 
z
M 1172 3481 
Q 1172 3119 1398 2916 
Q 1625 2713 2034 2713 
Q 2441 2713 2670 2916 
Q 2900 3119 2900 3481 
Q 2900 3844 2670 4047 
Q 2441 4250 2034 4250 
Q 1625 4250 1398 4047 
Q 1172 3844 1172 3481 
z
" transform="scale(0.015625)"/>
       </defs>
       <use xlink:href="#DejaVuSans-38"/>
       <use xlink:href="#DejaVuSans-30" x="63.623047"/>
      </g>
     </g>
    </g>
    <g id="xtick_5">
     <g id="line2d_5">
      <g>
       <use xlink:href="#m9e07796bb9" x="247.762434" y="182.64351" style="stroke: #000000; stroke-width: 0.8"/>
      </g>
     </g>
     <g id="text_5">
      <!-- 100 -->
      <g transform="translate(238.218684 197.241948) scale(0.1 -0.1)">
       <defs>
        <path id="DejaVuSans-31" d="M 794 531 
L 1825 531 
L 1825 4091 
L 703 3866 
L 703 4441 
L 1819 4666 
L 2450 4666 
L 2450 531 
L 3481 531 
L 3481 0 
L 794 0 
L 794 531 
z
" transform="scale(0.015625)"/>
       </defs>
       <use xlink:href="#DejaVuSans-31"/>
       <use xlink:href="#DejaVuSans-30" x="63.623047"/>
       <use xlink:href="#DejaVuSans-30" x="127.246094"/>
      </g>
     </g>
    </g>
    <g id="text_6">
     <!-- epochs -->
     <g transform="translate(130.136024 210.920073) scale(0.1 -0.1)">
      <defs>
       <path id="DejaVuSans-65" d="M 3597 1894 
L 3597 1613 
L 953 1613 
Q 991 1019 1311 708 
Q 1631 397 2203 397 
Q 2534 397 2845 478 
Q 3156 559 3463 722 
L 3463 178 
Q 3153 47 2828 -22 
Q 2503 -91 2169 -91 
Q 1331 -91 842 396 
Q 353 884 353 1716 
Q 353 2575 817 3079 
Q 1281 3584 2069 3584 
Q 2775 3584 3186 3129 
Q 3597 2675 3597 1894 
z
M 3022 2063 
Q 3016 2534 2758 2815 
Q 2500 3097 2075 3097 
Q 1594 3097 1305 2825 
Q 1016 2553 972 2059 
L 3022 2063 
z
" transform="scale(0.015625)"/>
       <path id="DejaVuSans-70" d="M 1159 525 
L 1159 -1331 
L 581 -1331 
L 581 3500 
L 1159 3500 
L 1159 2969 
Q 1341 3281 1617 3432 
Q 1894 3584 2278 3584 
Q 2916 3584 3314 3078 
Q 3713 2572 3713 1747 
Q 3713 922 3314 415 
Q 2916 -91 2278 -91 
Q 1894 -91 1617 61 
Q 1341 213 1159 525 
z
M 3116 1747 
Q 3116 2381 2855 2742 
Q 2594 3103 2138 3103 
Q 1681 3103 1420 2742 
Q 1159 2381 1159 1747 
Q 1159 1113 1420 752 
Q 1681 391 2138 391 
Q 2594 391 2855 752 
Q 3116 1113 3116 1747 
z
" transform="scale(0.015625)"/>
       <path id="DejaVuSans-6f" d="M 1959 3097 
Q 1497 3097 1228 2736 
Q 959 2375 959 1747 
Q 959 1119 1226 758 
Q 1494 397 1959 397 
Q 2419 397 2687 759 
Q 2956 1122 2956 1747 
Q 2956 2369 2687 2733 
Q 2419 3097 1959 3097 
z
M 1959 3584 
Q 2709 3584 3137 3096 
Q 3566 2609 3566 1747 
Q 3566 888 3137 398 
Q 2709 -91 1959 -91 
Q 1206 -91 779 398 
Q 353 888 353 1747 
Q 353 2609 779 3096 
Q 1206 3584 1959 3584 
z
" transform="scale(0.015625)"/>
       <path id="DejaVuSans-63" d="M 3122 3366 
L 3122 2828 
Q 2878 2963 2633 3030 
Q 2388 3097 2138 3097 
Q 1578 3097 1268 2742 
Q 959 2388 959 1747 
Q 959 1106 1268 751 
Q 1578 397 2138 397 
Q 2388 397 2633 464 
Q 2878 531 3122 666 
L 3122 134 
Q 2881 22 2623 -34 
Q 2366 -91 2075 -91 
Q 1284 -91 818 406 
Q 353 903 353 1747 
Q 353 2603 823 3093 
Q 1294 3584 2113 3584 
Q 2378 3584 2631 3529 
Q 2884 3475 3122 3366 
z
" transform="scale(0.015625)"/>
       <path id="DejaVuSans-68" d="M 3513 2113 
L 3513 0 
L 2938 0 
L 2938 2094 
Q 2938 2591 2744 2837 
Q 2550 3084 2163 3084 
Q 1697 3084 1428 2787 
Q 1159 2491 1159 1978 
L 1159 0 
L 581 0 
L 581 4863 
L 1159 4863 
L 1159 2956 
Q 1366 3272 1645 3428 
Q 1925 3584 2291 3584 
Q 2894 3584 3203 3211 
Q 3513 2838 3513 2113 
z
" transform="scale(0.015625)"/>
       <path id="DejaVuSans-73" d="M 2834 3397 
L 2834 2853 
Q 2591 2978 2328 3040 
Q 2066 3103 1784 3103 
Q 1356 3103 1142 2972 
Q 928 2841 928 2578 
Q 928 2378 1081 2264 
Q 1234 2150 1697 2047 
L 1894 2003 
Q 2506 1872 2764 1633 
Q 3022 1394 3022 966 
Q 3022 478 2636 193 
Q 2250 -91 1575 -91 
Q 1294 -91 989 -36 
Q 684 19 347 128 
L 347 722 
Q 666 556 975 473 
Q 1284 391 1588 391 
Q 1994 391 2212 530 
Q 2431 669 2431 922 
Q 2431 1156 2273 1281 
Q 2116 1406 1581 1522 
L 1381 1569 
Q 847 1681 609 1914 
Q 372 2147 372 2553 
Q 372 3047 722 3315 
Q 1072 3584 1716 3584 
Q 2034 3584 2315 3537 
Q 2597 3491 2834 3397 
z
" transform="scale(0.015625)"/>
      </defs>
      <use xlink:href="#DejaVuSans-65"/>
      <use xlink:href="#DejaVuSans-70" x="61.523438"/>
      <use xlink:href="#DejaVuSans-6f" x="125"/>
      <use xlink:href="#DejaVuSans-63" x="186.181641"/>
      <use xlink:href="#DejaVuSans-68" x="241.162109"/>
      <use xlink:href="#DejaVuSans-73" x="304.541016"/>
     </g>
    </g>
   </g>
   <g id="matplotlib.axis_2">
    <g id="ytick_1">
     <g id="line2d_6">
      <defs>
       <path id="m020f870965" d="M 0 0 
L -3.5 0 
" style="stroke: #000000; stroke-width: 0.8"/>
      </defs>
      <g>
       <use xlink:href="#m020f870965" x="48.17524" y="182.64351" style="stroke: #000000; stroke-width: 0.8"/>
      </g>
     </g>
     <g id="text_7">
      <!-- 0 -->
      <g transform="translate(34.81274 186.442729) scale(0.1 -0.1)">
       <use xlink:href="#DejaVuSans-30"/>
      </g>
     </g>
    </g>
    <g id="ytick_2">
     <g id="line2d_7">
      <g>
       <use xlink:href="#m020f870965" x="48.17524" y="143.931755" style="stroke: #000000; stroke-width: 0.8"/>
      </g>
     </g>
     <g id="text_8">
      <!-- 50000 -->
      <g transform="translate(9.36274 147.730974) scale(0.1 -0.1)">
       <defs>
        <path id="DejaVuSans-35" d="M 691 4666 
L 3169 4666 
L 3169 4134 
L 1269 4134 
L 1269 2991 
Q 1406 3038 1543 3061 
Q 1681 3084 1819 3084 
Q 2600 3084 3056 2656 
Q 3513 2228 3513 1497 
Q 3513 744 3044 326 
Q 2575 -91 1722 -91 
Q 1428 -91 1123 -41 
Q 819 9 494 109 
L 494 744 
Q 775 591 1075 516 
Q 1375 441 1709 441 
Q 2250 441 2565 725 
Q 2881 1009 2881 1497 
Q 2881 1984 2565 2268 
Q 2250 2553 1709 2553 
Q 1456 2553 1204 2497 
Q 953 2441 691 2322 
L 691 4666 
z
" transform="scale(0.015625)"/>
       </defs>
       <use xlink:href="#DejaVuSans-35"/>
       <use xlink:href="#DejaVuSans-30" x="63.623047"/>
       <use xlink:href="#DejaVuSans-30" x="127.246094"/>
       <use xlink:href="#DejaVuSans-30" x="190.869141"/>
       <use xlink:href="#DejaVuSans-30" x="254.492188"/>
      </g>
     </g>
    </g>
    <g id="ytick_3">
     <g id="line2d_8">
      <g>
       <use xlink:href="#m020f870965" x="48.17524" y="105.22" style="stroke: #000000; stroke-width: 0.8"/>
      </g>
     </g>
     <g id="text_9">
      <!-- 100000 -->
      <g transform="translate(3.00024 109.019219) scale(0.1 -0.1)">
       <use xlink:href="#DejaVuSans-31"/>
       <use xlink:href="#DejaVuSans-30" x="63.623047"/>
       <use xlink:href="#DejaVuSans-30" x="127.246094"/>
       <use xlink:href="#DejaVuSans-30" x="190.869141"/>
       <use xlink:href="#DejaVuSans-30" x="254.492188"/>
       <use xlink:href="#DejaVuSans-30" x="318.115234"/>
      </g>
     </g>
    </g>
    <g id="ytick_4">
     <g id="line2d_9">
      <g>
       <use xlink:href="#m020f870965" x="48.17524" y="66.508245" style="stroke: #000000; stroke-width: 0.8"/>
      </g>
     </g>
     <g id="text_10">
      <!-- 150000 -->
      <g transform="translate(3.00024 70.307464) scale(0.1 -0.1)">
       <use xlink:href="#DejaVuSans-31"/>
       <use xlink:href="#DejaVuSans-35" x="63.623047"/>
       <use xlink:href="#DejaVuSans-30" x="127.246094"/>
       <use xlink:href="#DejaVuSans-30" x="190.869141"/>
       <use xlink:href="#DejaVuSans-30" x="254.492188"/>
       <use xlink:href="#DejaVuSans-30" x="318.115234"/>
      </g>
     </g>
    </g>
    <g id="ytick_5">
     <g id="line2d_10">
      <g>
       <use xlink:href="#m020f870965" x="48.17524" y="27.79649" style="stroke: #000000; stroke-width: 0.8"/>
      </g>
     </g>
     <g id="text_11">
      <!-- 200000 -->
      <g transform="translate(3.00024 31.595709) scale(0.1 -0.1)">
       <use xlink:href="#DejaVuSans-32"/>
       <use xlink:href="#DejaVuSans-30" x="63.623047"/>
       <use xlink:href="#DejaVuSans-30" x="127.246094"/>
       <use xlink:href="#DejaVuSans-30" x="190.869141"/>
       <use xlink:href="#DejaVuSans-30" x="254.492188"/>
       <use xlink:href="#DejaVuSans-30" x="318.115234"/>
      </g>
     </g>
    </g>
   </g>
   <g id="line2d_11">
    <path d="M 49.208947 -1 
L 50.191272 141.974353 
L 52.207305 157.883146 
L 54.223337 161.910648 
L 56.239369 162.101482 
L 58.255401 164.246397 
L 60.271434 163.253997 
L 62.287466 165.174006 
L 64.303498 142.983731 
L 66.31953 165.333534 
L 68.335563 165.320877 
L 70.351595 161.487994 
L 72.367627 166.020675 
L 74.383659 166.325832 
L 76.399692 155.196002 
L 78.415724 166.478438 
L 80.431756 166.356889 
L 82.447788 165.977331 
L 84.463821 159.567998 
L 86.479853 166.76819 
L 88.495885 166.515594 
L 90.511918 166.847124 
L 92.52795 161.099535 
L 94.543982 167.022715 
L 96.560014 167.07156 
L 98.576047 161.888806 
L 100.592079 166.987852 
L 102.608111 166.881155 
L 104.624143 161.57525 
L 106.640176 165.236868 
L 108.656208 167.330796 
L 110.67224 160.663304 
L 112.688272 167.237242 
L 114.704305 166.050884 
L 116.720337 167.394071 
L 118.736369 167.423215 
L 120.752401 166.090061 
L 122.768434 167.504861 
L 124.784466 146.405684 
L 126.800498 167.333058 
L 128.81653 167.487855 
L 130.832563 155.378996 
L 132.848595 162.49448 
L 134.864627 164.870382 
L 136.88066 147.468797 
L 138.896692 165.03775 
L 140.912724 154.018823 
L 142.928756 161.859132 
L 144.944789 153.403215 
L 146.960821 163.051408 
L 148.976853 167.079635 
L 150.992885 167.271833 
L 153.008918 167.263475 
L 155.02495 165.172089 
L 157.040982 164.400373 
L 159.057014 167.389377 
L 161.073047 167.549753 
L 163.089079 164.703754 
L 165.105111 149.540163 
L 167.121143 167.645316 
L 169.137176 165.654652 
L 171.153208 167.864605 
L 173.16924 167.015221 
L 175.185273 167.34817 
L 177.201305 166.070382 
L 179.217337 167.690109 
L 181.233369 160.435378 
L 183.12352 -1 
M 183.379422 -1 
L 185.265434 154.953935 
L 187.281466 165.950845 
L 189.297498 109.831387 
L 191.313531 166.887584 
L 193.329563 167.089751 
L 195.345595 163.562551 
L 197.361627 164.909581 
L 199.37766 167.036031 
L 201.393692 166.527524 
L 203.409724 167.481821 
L 205.425756 164.850062 
L 207.441789 165.68905 
L 209.457821 167.519567 
L 211.473853 149.257122 
L 213.489886 164.510823 
L 215.505918 94.15047 
L 217.52195 159.546742 
L 219.537982 166.532887 
L 221.554015 162.270044 
L 223.570047 166.792548 
L 225.586079 166.607959 
L 227.602111 114.626388 
L 229.618144 161.780467 
L 231.634176 147.204178 
L 233.650208 165.792468 
L 235.66624 166.647312 
L 237.682273 167.348592 
L 239.698305 165.925389 
L 241.714337 167.340877 
L 243.730369 167.621031 
L 245.746402 167.657134 
L 247.762434 167.696939 
" clip-path="url(#p813974ff7e)" style="fill: none; stroke: #1f77b4"/>
   </g>
   <g id="line2d_12">
    <path d="M 48.17524 124.07721 
L 50.191272 150.925929 
L 52.207305 156.83921 
L 54.223337 159.479371 
L 56.239369 160.805069 
L 58.255401 161.977646 
L 60.271434 162.676924 
L 62.287466 163.049256 
L 64.303498 163.628818 
L 66.31953 163.946526 
L 68.335563 164.260733 
L 70.351595 164.371382 
L 72.367627 164.63583 
L 74.383659 164.941772 
L 76.399692 164.994469 
L 78.415724 165.21003 
L 80.431756 165.373879 
L 82.447788 165.44157 
L 84.463821 165.430095 
L 86.479853 165.690681 
L 88.495885 165.835241 
L 90.511918 165.688368 
L 92.52795 165.962637 
L 94.543982 166.03309 
L 96.560014 165.998279 
L 98.576047 166.064325 
L 100.592079 166.085494 
L 102.608111 166.200604 
L 104.624143 166.321482 
L 106.640176 166.323369 
L 108.656208 166.385961 
L 110.67224 166.475624 
L 112.688272 166.424706 
L 114.704305 166.616428 
L 116.720337 166.621701 
L 118.736369 166.609567 
L 120.752401 166.763895 
L 122.768434 166.828825 
L 124.784466 166.727875 
L 126.800498 166.831316 
L 128.81653 166.689983 
L 130.832563 166.87047 
L 132.848595 166.977006 
L 134.864627 167.100043 
L 136.88066 167.076517 
L 138.896692 167.028741 
L 140.912724 167.162555 
L 142.928756 167.175415 
L 144.944789 167.232481 
L 146.960821 167.057919 
L 148.976853 167.245259 
L 150.992885 167.33633 
L 153.008918 167.22546 
L 155.02495 167.351458 
L 157.040982 167.377783 
L 159.057014 167.412302 
L 161.073047 167.435233 
L 163.089079 167.371467 
L 165.105111 167.440363 
L 167.121143 167.542402 
L 169.137176 167.506179 
L 171.153208 167.59053 
L 173.16924 167.611247 
L 175.185273 167.561506 
L 177.201305 167.644704 
L 179.217337 167.548697 
L 181.233369 167.576579 
L 183.249402 167.688421 
L 185.265434 167.690673 
L 187.281466 167.749651 
L 189.297498 167.817694 
L 191.313531 167.723454 
L 193.329563 167.733289 
L 195.345595 167.787718 
L 197.361627 167.600031 
L 199.37766 167.802648 
L 201.393692 167.824225 
L 203.409724 167.740715 
L 205.425756 167.856838 
L 207.441789 167.80465 
L 209.457821 167.876196 
L 211.473853 167.886432 
L 213.489886 167.880241 
L 215.505918 167.890235 
L 217.52195 167.936444 
L 219.537982 167.923959 
L 221.554015 167.919495 
L 223.570047 167.855111 
L 225.586079 168.014049 
L 227.602111 167.99384 
L 229.618144 168.045153 
L 231.634176 167.957149 
L 233.650208 167.930714 
L 235.66624 168.007962 
L 237.682273 167.972971 
L 239.698305 168.030175 
L 241.714337 167.986331 
L 243.730369 168.074017 
L 245.746402 168.141864 
L 247.762434 168.09009 
" clip-path="url(#p813974ff7e)" style="fill: none; stroke: #ff7f0e"/>
   </g>
   <g id="line2d_13">
    <path d="M 48.17524 72.635965 
L 50.191272 116.292469 
L 52.207305 126.982212 
L 54.223337 133.346461 
L 56.239369 137.845375 
L 58.255401 141.758078 
L 60.271434 144.678417 
L 62.287466 147.033087 
L 64.303498 149.185784 
L 66.31953 150.722471 
L 68.335563 152.137192 
L 70.351595 153.298699 
L 72.367627 154.289028 
L 74.383659 155.281252 
L 76.399692 155.988129 
L 78.415724 156.62732 
L 80.431756 157.284115 
L 82.447788 157.618372 
L 84.463821 158.097094 
L 86.479853 158.587706 
L 88.495885 159.045099 
L 90.511918 159.228129 
L 92.52795 159.669883 
L 94.543982 159.857236 
L 96.560014 160.117574 
L 98.576047 160.365326 
L 100.592079 160.543211 
L 102.608111 160.842326 
L 104.624143 161.043719 
L 106.640176 161.172696 
L 108.656208 161.409789 
L 110.67224 161.572744 
L 112.688272 161.622667 
L 114.704305 161.78444 
L 116.720337 161.969946 
L 118.736369 162.01725 
L 120.752401 162.251465 
L 122.768434 162.322542 
L 124.784466 162.302116 
L 126.800498 162.484199 
L 128.81653 162.587016 
L 130.832563 162.667543 
L 132.848595 162.831476 
L 134.864627 162.928324 
L 136.88066 162.94826 
L 138.896692 163.021023 
L 140.912724 163.172881 
L 142.928756 163.148762 
L 144.944789 163.295224 
L 146.960821 163.300605 
L 148.976853 163.417141 
L 150.992885 163.468144 
L 153.008918 163.446402 
L 155.02495 163.580342 
L 157.040982 163.643599 
L 159.057014 163.67299 
L 161.073047 163.740772 
L 163.089079 163.84257 
L 165.105111 163.80767 
L 167.121143 163.962873 
L 169.137176 163.916077 
L 171.153208 164.110418 
L 173.16924 164.103292 
L 175.185273 164.089655 
L 177.201305 164.20562 
L 179.217337 164.133862 
L 181.233369 164.256995 
L 183.249402 164.328351 
L 185.265434 164.304928 
L 187.281466 164.365387 
L 189.297498 164.495861 
L 191.313531 164.602925 
L 193.329563 164.419962 
L 195.345595 164.579503 
L 197.361627 164.537662 
L 199.37766 164.675496 
L 201.393692 164.642704 
L 203.409724 164.642223 
L 205.425756 164.691407 
L 207.441789 164.681824 
L 209.457821 164.759868 
L 211.473853 164.810311 
L 213.489886 164.73262 
L 215.505918 164.820279 
L 217.52195 164.901799 
L 219.537982 164.955696 
L 221.554015 164.885069 
L 223.570047 164.945066 
L 225.586079 164.985808 
L 227.602111 164.998006 
L 229.618144 165.071168 
L 231.634176 165.043979 
L 233.650208 165.002265 
L 235.66624 165.050982 
L 237.682273 165.05731 
L 239.698305 165.099102 
L 241.714337 165.054638 
L 243.730369 165.192233 
L 245.746402 165.217454 
L 247.762434 165.233802 
" clip-path="url(#p813974ff7e)" style="fill: none; stroke: #2ca02c"/>
   </g>
   <g id="patch_3">
    <path d="M 48.17524 182.64351 
L 48.17524 27.79649 
" style="fill: none; stroke: #000000; stroke-width: 0.8; stroke-linejoin: miter; stroke-linecap: square"/>
   </g>
   <g id="patch_4">
    <path d="M 247.762434 182.64351 
L 247.762434 27.79649 
" style="fill: none; stroke: #000000; stroke-width: 0.8; stroke-linejoin: miter; stroke-linecap: square"/>
   </g>
   <g id="patch_5">
    <path d="M 48.17524 182.64351 
L 247.762434 182.64351 
" style="fill: none; stroke: #000000; stroke-width: 0.8; stroke-linejoin: miter; stroke-linecap: square"/>
   </g>
   <g id="patch_6">
    <path d="M 48.17524 27.79649 
L 247.762434 27.79649 
" style="fill: none; stroke: #000000; stroke-width: 0.8; stroke-linejoin: miter; stroke-linecap: square"/>
   </g>
   <g id="text_12">
    <!-- Training Loss -->
    <g transform="translate(115.686806 21.79649) scale(0.1 -0.1)">
     <defs>
      <path id="DejaVuSans-54" d="M -19 4666 
L 3928 4666 
L 3928 4134 
L 2272 4134 
L 2272 0 
L 1638 0 
L 1638 4134 
L -19 4134 
L -19 4666 
z
" transform="scale(0.015625)"/>
      <path id="DejaVuSans-72" d="M 2631 2963 
Q 2534 3019 2420 3045 
Q 2306 3072 2169 3072 
Q 1681 3072 1420 2755 
Q 1159 2438 1159 1844 
L 1159 0 
L 581 0 
L 581 3500 
L 1159 3500 
L 1159 2956 
Q 1341 3275 1631 3429 
Q 1922 3584 2338 3584 
Q 2397 3584 2469 3576 
Q 2541 3569 2628 3553 
L 2631 2963 
z
" transform="scale(0.015625)"/>
      <path id="DejaVuSans-61" d="M 2194 1759 
Q 1497 1759 1228 1600 
Q 959 1441 959 1056 
Q 959 750 1161 570 
Q 1363 391 1709 391 
Q 2188 391 2477 730 
Q 2766 1069 2766 1631 
L 2766 1759 
L 2194 1759 
z
M 3341 1997 
L 3341 0 
L 2766 0 
L 2766 531 
Q 2569 213 2275 61 
Q 1981 -91 1556 -91 
Q 1019 -91 701 211 
Q 384 513 384 1019 
Q 384 1609 779 1909 
Q 1175 2209 1959 2209 
L 2766 2209 
L 2766 2266 
Q 2766 2663 2505 2880 
Q 2244 3097 1772 3097 
Q 1472 3097 1187 3025 
Q 903 2953 641 2809 
L 641 3341 
Q 956 3463 1253 3523 
Q 1550 3584 1831 3584 
Q 2591 3584 2966 3190 
Q 3341 2797 3341 1997 
z
" transform="scale(0.015625)"/>
      <path id="DejaVuSans-69" d="M 603 3500 
L 1178 3500 
L 1178 0 
L 603 0 
L 603 3500 
z
M 603 4863 
L 1178 4863 
L 1178 4134 
L 603 4134 
L 603 4863 
z
" transform="scale(0.015625)"/>
      <path id="DejaVuSans-6e" d="M 3513 2113 
L 3513 0 
L 2938 0 
L 2938 2094 
Q 2938 2591 2744 2837 
Q 2550 3084 2163 3084 
Q 1697 3084 1428 2787 
Q 1159 2491 1159 1978 
L 1159 0 
L 581 0 
L 581 3500 
L 1159 3500 
L 1159 2956 
Q 1366 3272 1645 3428 
Q 1925 3584 2291 3584 
Q 2894 3584 3203 3211 
Q 3513 2838 3513 2113 
z
" transform="scale(0.015625)"/>
      <path id="DejaVuSans-67" d="M 2906 1791 
Q 2906 2416 2648 2759 
Q 2391 3103 1925 3103 
Q 1463 3103 1205 2759 
Q 947 2416 947 1791 
Q 947 1169 1205 825 
Q 1463 481 1925 481 
Q 2391 481 2648 825 
Q 2906 1169 2906 1791 
z
M 3481 434 
Q 3481 -459 3084 -895 
Q 2688 -1331 1869 -1331 
Q 1566 -1331 1297 -1286 
Q 1028 -1241 775 -1147 
L 775 -588 
Q 1028 -725 1275 -790 
Q 1522 -856 1778 -856 
Q 2344 -856 2625 -561 
Q 2906 -266 2906 331 
L 2906 616 
Q 2728 306 2450 153 
Q 2172 0 1784 0 
Q 1141 0 747 490 
Q 353 981 353 1791 
Q 353 2603 747 3093 
Q 1141 3584 1784 3584 
Q 2172 3584 2450 3431 
Q 2728 3278 2906 2969 
L 2906 3500 
L 3481 3500 
L 3481 434 
z
" transform="scale(0.015625)"/>
      <path id="DejaVuSans-20" transform="scale(0.015625)"/>
      <path id="DejaVuSans-4c" d="M 628 4666 
L 1259 4666 
L 1259 531 
L 3531 531 
L 3531 0 
L 628 0 
L 628 4666 
z
" transform="scale(0.015625)"/>
     </defs>
     <use xlink:href="#DejaVuSans-54"/>
     <use xlink:href="#DejaVuSans-72" x="46.333984"/>
     <use xlink:href="#DejaVuSans-61" x="87.447266"/>
     <use xlink:href="#DejaVuSans-69" x="148.726562"/>
     <use xlink:href="#DejaVuSans-6e" x="176.509766"/>
     <use xlink:href="#DejaVuSans-69" x="239.888672"/>
     <use xlink:href="#DejaVuSans-6e" x="267.671875"/>
     <use xlink:href="#DejaVuSans-67" x="331.050781"/>
     <use xlink:href="#DejaVuSans-20" x="394.527344"/>
     <use xlink:href="#DejaVuSans-4c" x="426.314453"/>
     <use xlink:href="#DejaVuSans-6f" x="480.277344"/>
     <use xlink:href="#DejaVuSans-73" x="541.458984"/>
     <use xlink:href="#DejaVuSans-73" x="593.558594"/>
    </g>
   </g>
  </g>
  <g id="axes_2">
   <g id="patch_7">
    <path d="M 308.481664 182.64351 
L 508.068858 182.64351 
L 508.068858 27.79649 
L 308.481664 27.79649 
z
" style="fill: #ffffff"/>
   </g>
   <g id="matplotlib.axis_3">
    <g id="xtick_6">
     <g id="line2d_14">
      <g>
       <use xlink:href="#m9e07796bb9" x="346.786277" y="182.64351" style="stroke: #000000; stroke-width: 0.8"/>
      </g>
     </g>
     <g id="text_13">
      <!-- 20 -->
      <g transform="translate(340.423777 197.241948) scale(0.1 -0.1)">
       <use xlink:href="#DejaVuSans-32"/>
       <use xlink:href="#DejaVuSans-30" x="63.623047"/>
      </g>
     </g>
    </g>
    <g id="xtick_7">
     <g id="line2d_15">
      <g>
       <use xlink:href="#m9e07796bb9" x="387.106922" y="182.64351" style="stroke: #000000; stroke-width: 0.8"/>
      </g>
     </g>
     <g id="text_14">
      <!-- 40 -->
      <g transform="translate(380.744422 197.241948) scale(0.1 -0.1)">
       <use xlink:href="#DejaVuSans-34"/>
       <use xlink:href="#DejaVuSans-30" x="63.623047"/>
      </g>
     </g>
    </g>
    <g id="xtick_8">
     <g id="line2d_16">
      <g>
       <use xlink:href="#m9e07796bb9" x="427.427567" y="182.64351" style="stroke: #000000; stroke-width: 0.8"/>
      </g>
     </g>
     <g id="text_15">
      <!-- 60 -->
      <g transform="translate(421.065067 197.241948) scale(0.1 -0.1)">
       <use xlink:href="#DejaVuSans-36"/>
       <use xlink:href="#DejaVuSans-30" x="63.623047"/>
      </g>
     </g>
    </g>
    <g id="xtick_9">
     <g id="line2d_17">
      <g>
       <use xlink:href="#m9e07796bb9" x="467.748213" y="182.64351" style="stroke: #000000; stroke-width: 0.8"/>
      </g>
     </g>
     <g id="text_16">
      <!-- 80 -->
      <g transform="translate(461.385713 197.241948) scale(0.1 -0.1)">
       <use xlink:href="#DejaVuSans-38"/>
       <use xlink:href="#DejaVuSans-30" x="63.623047"/>
      </g>
     </g>
    </g>
    <g id="xtick_10">
     <g id="line2d_18">
      <g>
       <use xlink:href="#m9e07796bb9" x="508.068858" y="182.64351" style="stroke: #000000; stroke-width: 0.8"/>
      </g>
     </g>
     <g id="text_17">
      <!-- 100 -->
      <g transform="translate(498.525108 197.241948) scale(0.1 -0.1)">
       <use xlink:href="#DejaVuSans-31"/>
       <use xlink:href="#DejaVuSans-30" x="63.623047"/>
       <use xlink:href="#DejaVuSans-30" x="127.246094"/>
      </g>
     </g>
    </g>
    <g id="text_18">
     <!-- epochs -->
     <g transform="translate(390.442448 210.920073) scale(0.1 -0.1)">
      <use xlink:href="#DejaVuSans-65"/>
      <use xlink:href="#DejaVuSans-70" x="61.523438"/>
      <use xlink:href="#DejaVuSans-6f" x="125"/>
      <use xlink:href="#DejaVuSans-63" x="186.181641"/>
      <use xlink:href="#DejaVuSans-68" x="241.162109"/>
      <use xlink:href="#DejaVuSans-73" x="304.541016"/>
     </g>
    </g>
   </g>
   <g id="matplotlib.axis_4">
    <g id="ytick_6">
     <g id="line2d_19">
      <g>
       <use xlink:href="#m020f870965" x="308.481664" y="182.64351" style="stroke: #000000; stroke-width: 0.8"/>
      </g>
     </g>
     <g id="text_19">
      <!-- 0 -->
      <g transform="translate(295.119164 186.442729) scale(0.1 -0.1)">
       <use xlink:href="#DejaVuSans-30"/>
      </g>
     </g>
    </g>
    <g id="ytick_7">
     <g id="line2d_20">
      <g>
       <use xlink:href="#m020f870965" x="308.481664" y="143.931755" style="stroke: #000000; stroke-width: 0.8"/>
      </g>
     </g>
     <g id="text_20">
      <!-- 50000 -->
      <g transform="translate(269.669164 147.730974) scale(0.1 -0.1)">
       <use xlink:href="#DejaVuSans-35"/>
       <use xlink:href="#DejaVuSans-30" x="63.623047"/>
       <use xlink:href="#DejaVuSans-30" x="127.246094"/>
       <use xlink:href="#DejaVuSans-30" x="190.869141"/>
       <use xlink:href="#DejaVuSans-30" x="254.492188"/>
      </g>
     </g>
    </g>
    <g id="ytick_8">
     <g id="line2d_21">
      <g>
       <use xlink:href="#m020f870965" x="308.481664" y="105.22" style="stroke: #000000; stroke-width: 0.8"/>
      </g>
     </g>
     <g id="text_21">
      <!-- 100000 -->
      <g transform="translate(263.306664 109.019219) scale(0.1 -0.1)">
       <use xlink:href="#DejaVuSans-31"/>
       <use xlink:href="#DejaVuSans-30" x="63.623047"/>
       <use xlink:href="#DejaVuSans-30" x="127.246094"/>
       <use xlink:href="#DejaVuSans-30" x="190.869141"/>
       <use xlink:href="#DejaVuSans-30" x="254.492188"/>
       <use xlink:href="#DejaVuSans-30" x="318.115234"/>
      </g>
     </g>
    </g>
    <g id="ytick_9">
     <g id="line2d_22">
      <g>
       <use xlink:href="#m020f870965" x="308.481664" y="66.508245" style="stroke: #000000; stroke-width: 0.8"/>
      </g>
     </g>
     <g id="text_22">
      <!-- 150000 -->
      <g transform="translate(263.306664 70.307464) scale(0.1 -0.1)">
       <use xlink:href="#DejaVuSans-31"/>
       <use xlink:href="#DejaVuSans-35" x="63.623047"/>
       <use xlink:href="#DejaVuSans-30" x="127.246094"/>
       <use xlink:href="#DejaVuSans-30" x="190.869141"/>
       <use xlink:href="#DejaVuSans-30" x="254.492188"/>
       <use xlink:href="#DejaVuSans-30" x="318.115234"/>
      </g>
     </g>
    </g>
    <g id="ytick_10">
     <g id="line2d_23">
      <g>
       <use xlink:href="#m020f870965" x="308.481664" y="27.79649" style="stroke: #000000; stroke-width: 0.8"/>
      </g>
     </g>
     <g id="text_23">
      <!-- 200000 -->
      <g transform="translate(263.306664 31.595709) scale(0.1 -0.1)">
       <use xlink:href="#DejaVuSans-32"/>
       <use xlink:href="#DejaVuSans-30" x="63.623047"/>
       <use xlink:href="#DejaVuSans-30" x="127.246094"/>
       <use xlink:href="#DejaVuSans-30" x="190.869141"/>
       <use xlink:href="#DejaVuSans-30" x="254.492188"/>
       <use xlink:href="#DejaVuSans-30" x="318.115234"/>
      </g>
     </g>
    </g>
   </g>
   <g id="line2d_24">
    <path d="M 308.481664 132.640921 
L 310.497696 157.927964 
L 312.513728 160.832615 
L 314.529761 163.177785 
L 316.545793 160.328367 
L 318.561825 149.794333 
L 320.577858 163.054675 
L 322.59389 162.381817 
L 324.609922 157.916364 
L 326.625954 159.013749 
L 327.487123 -1 
M 329.782965 -1 
L 330.658019 163.572258 
L 332.674051 156.36686 
L 334.690083 162.714665 
L 336.706116 151.280565 
L 338.722148 156.914655 
L 340.73818 161.620081 
L 342.754212 161.952452 
L 344.770245 158.783042 
L 346.786277 158.855162 
L 348.802309 163.900542 
L 350.818341 163.929954 
L 352.834374 158.824216 
L 354.850406 150.0176 
L 356.866438 161.962691 
L 358.882471 78.601156 
L 360.898503 156.354327 
L 362.914535 160.672833 
L 364.930567 152.564534 
L 366.9466 163.41672 
L 368.962632 159.774512 
L 370.978664 160.789221 
L 372.994696 161.440649 
L 375.010729 161.393675 
L 377.026761 154.536084 
L 379.042793 158.887423 
L 381.058825 157.749502 
L 383.074858 158.67707 
L 385.09089 162.894764 
L 387.106922 112.625383 
L 389.122954 156.235246 
L 391.138987 156.500167 
L 393.155019 157.755889 
L 395.171051 155.731924 
L 397.187084 157.740462 
L 399.203116 152.144826 
L 401.219148 146.957079 
L 403.23518 160.116178 
L 405.251213 160.479427 
L 407.267245 138.557133 
L 409.283277 164.218523 
L 411.299309 162.143139 
L 413.315342 162.138217 
L 415.331374 164.030311 
L 417.347406 155.515597 
L 419.363438 161.611453 
L 421.379471 156.244631 
L 423.395503 155.244721 
L 423.462189 -1 
M 427.367853 -1 
L 427.427567 138.411912 
L 429.4436 149.693095 
L 431.459632 157.65118 
L 433.475664 157.281617 
L 435.491696 147.15698 
L 437.507729 151.805312 
L 439.523761 150.777279 
L 441.539793 164.263851 
L 443.555826 132.963804 
L 445.571858 150.457287 
L 447.58789 146.674437 
L 449.603922 159.733556 
L 451.619955 159.763809 
L 453.635987 160.05084 
L 455.652019 161.901516 
L 457.668051 132.612423 
L 459.684084 151.491867 
L 461.700116 162.347699 
L 463.716148 156.231892 
L 465.73218 157.63284 
L 467.748213 157.796544 
L 469.764245 142.806135 
L 471.780277 159.735595 
L 473.796309 158.665431 
L 475.812342 131.757755 
L 477.828374 160.609154 
L 479.844406 160.733709 
L 481.860439 160.628365 
L 483.876471 158.446573 
L 485.892503 142.260835 
L 487.908535 158.44523 
L 488.327912 -1 
M 491.524931 -1 
L 491.9406 156.669489 
L 493.956632 153.914023 
L 495.972664 153.884405 
L 497.988697 158.335856 
L 500.004729 154.155254 
L 502.020761 148.023188 
L 504.036793 157.273659 
L 506.052826 62.131917 
L 508.068858 143.94994 
" clip-path="url(#p538fb8b355)" style="fill: none; stroke: #1f77b4"/>
   </g>
   <g id="line2d_25">
    <path d="M 308.481664 148.792433 
L 310.497696 156.487468 
L 312.513728 159.331267 
L 314.529761 160.793808 
L 316.545793 161.574258 
L 318.561825 160.695177 
L 320.577858 163.267614 
L 322.59389 163.728336 
L 324.609922 163.535778 
L 326.625954 161.792551 
L 328.641987 143.745182 
L 330.658019 165.199128 
L 332.674051 163.897483 
L 334.690083 165.509324 
L 336.706116 164.23617 
L 338.722148 163.165179 
L 340.73818 165.379554 
L 342.754212 162.477884 
L 344.770245 164.543262 
L 346.786277 163.78239 
L 348.802309 164.521493 
L 350.818341 166.318513 
L 352.834374 164.624625 
L 354.850406 163.99866 
L 356.866438 165.355158 
L 358.882471 164.672559 
L 360.898503 164.743632 
L 362.914535 165.114091 
L 364.930567 155.268677 
L 366.9466 164.713712 
L 368.962632 165.846783 
L 370.978664 165.755505 
L 372.994696 165.496353 
L 375.010729 164.438457 
L 377.026761 166.570125 
L 379.042793 166.049257 
L 381.058825 166.99864 
L 383.074858 166.623624 
L 385.09089 156.516741 
L 387.106922 165.290942 
L 389.122954 166.980837 
L 391.138987 167.455804 
L 393.155019 167.532252 
L 395.171051 167.004909 
L 397.187084 166.411671 
L 399.203116 165.715345 
L 401.219148 166.653663 
L 403.23518 165.155458 
L 405.251213 166.906855 
L 407.267245 165.540592 
L 409.283277 166.480841 
L 411.299309 167.577209 
L 413.315342 167.068319 
L 415.331374 167.642304 
L 417.347406 166.976749 
L 419.363438 164.913652 
L 421.379471 167.032999 
L 423.395503 167.852654 
L 425.411535 132.418915 
L 427.427567 167.237732 
L 429.4436 163.785685 
L 431.459632 166.913533 
L 433.475664 166.859661 
L 435.491696 165.703287 
L 437.507729 154.672268 
L 439.523761 166.199794 
L 441.539793 165.341309 
L 443.555826 161.762451 
L 445.571858 163.9274 
L 447.58789 166.92141 
L 449.603922 166.31946 
L 451.619955 156.390755 
L 453.635987 165.78946 
L 455.652019 167.263969 
L 457.668051 163.381566 
L 459.684084 167.834032 
L 461.700116 167.339521 
L 463.716148 166.632357 
L 465.73218 167.028318 
L 467.748213 168.121432 
L 469.764245 141.754049 
L 471.780277 163.533463 
L 473.796309 164.26828 
L 475.812342 166.125351 
L 477.828374 167.209466 
L 479.844406 167.008779 
L 481.860439 166.053789 
L 483.876471 167.426961 
L 485.892503 160.368775 
L 487.908535 165.07656 
L 489.351923 -1 
M 490.495476 -1 
L 491.9406 165.781985 
L 493.956632 165.211182 
L 495.972664 161.861718 
L 497.988697 167.440717 
L 500.004729 151.893841 
L 502.020761 143.628397 
L 504.036793 166.085862 
L 506.052826 8.007271 
L 508.068858 153.878341 
" clip-path="url(#p538fb8b355)" style="fill: none; stroke: #ff7f0e"/>
   </g>
   <g id="line2d_26">
    <path d="M 308.481664 110.67223 
L 310.497696 124.747691 
L 312.513728 132.444202 
L 314.529761 137.634487 
L 316.545793 140.544262 
L 318.561825 144.688331 
L 320.577858 147.356493 
L 322.59389 148.994509 
L 324.609922 151.356494 
L 326.625954 152.129538 
L 328.641987 153.915707 
L 330.658019 154.997949 
L 332.674051 155.52706 
L 334.690083 155.69055 
L 336.706116 155.221666 
L 338.722148 157.548063 
L 340.73818 157.090767 
L 342.754212 147.821869 
L 344.770245 151.70085 
L 346.786277 158.989828 
L 348.802309 158.939375 
L 350.818341 158.942858 
L 352.834374 151.984447 
L 354.850406 146.920197 
L 356.866438 160.668357 
L 358.882471 117.181539 
L 360.898503 150.611613 
L 362.914535 158.313485 
L 364.930567 71.386725 
L 366.9466 138.095725 
L 368.962632 158.385732 
L 370.978664 161.019308 
L 372.994696 161.128563 
L 375.010729 96.956807 
L 377.026761 160.893829 
L 379.042793 160.047339 
L 381.058825 161.671659 
L 383.074858 161.667099 
L 385.09089 130.226263 
L 387.106922 66.85307 
L 389.122954 148.528661 
L 391.138987 163.419783 
L 393.155019 163.242866 
L 395.171051 161.578165 
L 397.187084 141.103492 
L 399.203116 163.222675 
L 401.219148 155.145465 
L 403.23518 137.044519 
L 405.251213 163.851138 
L 407.267245 161.026963 
L 409.283277 163.545631 
L 411.299309 164.161511 
L 413.315342 164.189709 
L 415.331374 164.254756 
L 417.347406 164.26754 
L 419.363438 164.487943 
L 421.379471 164.427235 
L 423.395503 164.558521 
L 425.411535 163.522312 
L 427.427567 164.354494 
L 429.4436 164.556867 
L 431.459632 164.782614 
L 433.475664 164.925881 
L 435.491696 164.801752 
L 437.507729 164.689851 
L 439.523761 163.830181 
L 441.539793 164.830815 
L 443.555826 164.843039 
L 445.571858 164.980635 
L 447.58789 165.160172 
L 449.603922 164.231873 
L 451.619955 164.943762 
L 453.635987 165.007132 
L 455.652019 165.358923 
L 457.668051 164.995246 
L 459.684084 165.190506 
L 461.700116 165.089084 
L 463.716148 165.33866 
L 465.73218 165.330288 
L 467.748213 165.52214 
L 469.764245 164.598328 
L 471.780277 165.569405 
L 473.796309 165.590227 
L 475.812342 165.179136 
L 477.828374 165.369179 
L 479.844406 165.558193 
L 481.860439 165.644403 
L 483.876471 165.641074 
L 485.892503 165.22635 
L 487.908535 165.406945 
L 489.924568 161.816209 
L 491.9406 165.427202 
L 493.956632 165.346752 
L 495.972664 164.671682 
L 497.988697 164.663906 
L 500.004729 165.842108 
L 502.020761 165.807459 
L 504.036793 165.971423 
L 506.052826 164.020742 
L 508.068858 165.945096 
" clip-path="url(#p538fb8b355)" style="fill: none; stroke: #2ca02c"/>
   </g>
   <g id="patch_8">
    <path d="M 308.481664 182.64351 
L 308.481664 27.79649 
" style="fill: none; stroke: #000000; stroke-width: 0.8; stroke-linejoin: miter; stroke-linecap: square"/>
   </g>
   <g id="patch_9">
    <path d="M 508.068858 182.64351 
L 508.068858 27.79649 
" style="fill: none; stroke: #000000; stroke-width: 0.8; stroke-linejoin: miter; stroke-linecap: square"/>
   </g>
   <g id="patch_10">
    <path d="M 308.481664 182.64351 
L 508.068858 182.64351 
" style="fill: none; stroke: #000000; stroke-width: 0.8; stroke-linejoin: miter; stroke-linecap: square"/>
   </g>
   <g id="patch_11">
    <path d="M 308.481664 27.79649 
L 508.068858 27.79649 
" style="fill: none; stroke: #000000; stroke-width: 0.8; stroke-linejoin: miter; stroke-linecap: square"/>
   </g>
   <g id="text_24">
    <!-- Validation Loss -->
    <g transform="translate(371.028386 21.79649) scale(0.1 -0.1)">
     <defs>
      <path id="DejaVuSans-56" d="M 1831 0 
L 50 4666 
L 709 4666 
L 2188 738 
L 3669 4666 
L 4325 4666 
L 2547 0 
L 1831 0 
z
" transform="scale(0.015625)"/>
      <path id="DejaVuSans-6c" d="M 603 4863 
L 1178 4863 
L 1178 0 
L 603 0 
L 603 4863 
z
" transform="scale(0.015625)"/>
      <path id="DejaVuSans-64" d="M 2906 2969 
L 2906 4863 
L 3481 4863 
L 3481 0 
L 2906 0 
L 2906 525 
Q 2725 213 2448 61 
Q 2172 -91 1784 -91 
Q 1150 -91 751 415 
Q 353 922 353 1747 
Q 353 2572 751 3078 
Q 1150 3584 1784 3584 
Q 2172 3584 2448 3432 
Q 2725 3281 2906 2969 
z
M 947 1747 
Q 947 1113 1208 752 
Q 1469 391 1925 391 
Q 2381 391 2643 752 
Q 2906 1113 2906 1747 
Q 2906 2381 2643 2742 
Q 2381 3103 1925 3103 
Q 1469 3103 1208 2742 
Q 947 2381 947 1747 
z
" transform="scale(0.015625)"/>
      <path id="DejaVuSans-74" d="M 1172 4494 
L 1172 3500 
L 2356 3500 
L 2356 3053 
L 1172 3053 
L 1172 1153 
Q 1172 725 1289 603 
Q 1406 481 1766 481 
L 2356 481 
L 2356 0 
L 1766 0 
Q 1100 0 847 248 
Q 594 497 594 1153 
L 594 3053 
L 172 3053 
L 172 3500 
L 594 3500 
L 594 4494 
L 1172 4494 
z
" transform="scale(0.015625)"/>
     </defs>
     <use xlink:href="#DejaVuSans-56"/>
     <use xlink:href="#DejaVuSans-61" x="60.658203"/>
     <use xlink:href="#DejaVuSans-6c" x="121.9375"/>
     <use xlink:href="#DejaVuSans-69" x="149.720703"/>
     <use xlink:href="#DejaVuSans-64" x="177.503906"/>
     <use xlink:href="#DejaVuSans-61" x="240.980469"/>
     <use xlink:href="#DejaVuSans-74" x="302.259766"/>
     <use xlink:href="#DejaVuSans-69" x="341.46875"/>
     <use xlink:href="#DejaVuSans-6f" x="369.251953"/>
     <use xlink:href="#DejaVuSans-6e" x="430.433594"/>
     <use xlink:href="#DejaVuSans-20" x="493.8125"/>
     <use xlink:href="#DejaVuSans-4c" x="525.599609"/>
     <use xlink:href="#DejaVuSans-6f" x="579.5625"/>
     <use xlink:href="#DejaVuSans-73" x="640.744141"/>
     <use xlink:href="#DejaVuSans-73" x="692.84375"/>
    </g>
   </g>
  </g>
  <g id="axes_3">
   <g id="patch_12">
    <path d="M 546.516213 182.64351 
L 746.103407 182.64351 
L 746.103407 27.79649 
L 546.516213 27.79649 
z
" style="fill: #ffffff"/>
   </g>
   <g id="matplotlib.axis_5">
    <g id="xtick_11">
     <g id="line2d_27">
      <g>
       <use xlink:href="#m9e07796bb9" x="584.820826" y="182.64351" style="stroke: #000000; stroke-width: 0.8"/>
      </g>
     </g>
     <g id="text_25">
      <!-- 20 -->
      <g transform="translate(578.458326 197.241948) scale(0.1 -0.1)">
       <use xlink:href="#DejaVuSans-32"/>
       <use xlink:href="#DejaVuSans-30" x="63.623047"/>
      </g>
     </g>
    </g>
    <g id="xtick_12">
     <g id="line2d_28">
      <g>
       <use xlink:href="#m9e07796bb9" x="625.141471" y="182.64351" style="stroke: #000000; stroke-width: 0.8"/>
      </g>
     </g>
     <g id="text_26">
      <!-- 40 -->
      <g transform="translate(618.778971 197.241948) scale(0.1 -0.1)">
       <use xlink:href="#DejaVuSans-34"/>
       <use xlink:href="#DejaVuSans-30" x="63.623047"/>
      </g>
     </g>
    </g>
    <g id="xtick_13">
     <g id="line2d_29">
      <g>
       <use xlink:href="#m9e07796bb9" x="665.462116" y="182.64351" style="stroke: #000000; stroke-width: 0.8"/>
      </g>
     </g>
     <g id="text_27">
      <!-- 60 -->
      <g transform="translate(659.099616 197.241948) scale(0.1 -0.1)">
       <use xlink:href="#DejaVuSans-36"/>
       <use xlink:href="#DejaVuSans-30" x="63.623047"/>
      </g>
     </g>
    </g>
    <g id="xtick_14">
     <g id="line2d_30">
      <g>
       <use xlink:href="#m9e07796bb9" x="705.782762" y="182.64351" style="stroke: #000000; stroke-width: 0.8"/>
      </g>
     </g>
     <g id="text_28">
      <!-- 80 -->
      <g transform="translate(699.420262 197.241948) scale(0.1 -0.1)">
       <use xlink:href="#DejaVuSans-38"/>
       <use xlink:href="#DejaVuSans-30" x="63.623047"/>
      </g>
     </g>
    </g>
    <g id="xtick_15">
     <g id="line2d_31">
      <g>
       <use xlink:href="#m9e07796bb9" x="746.103407" y="182.64351" style="stroke: #000000; stroke-width: 0.8"/>
      </g>
     </g>
     <g id="text_29">
      <!-- 100 -->
      <g transform="translate(736.559657 197.241948) scale(0.1 -0.1)">
       <use xlink:href="#DejaVuSans-31"/>
       <use xlink:href="#DejaVuSans-30" x="63.623047"/>
       <use xlink:href="#DejaVuSans-30" x="127.246094"/>
      </g>
     </g>
    </g>
    <g id="text_30">
     <!-- epochs -->
     <g transform="translate(628.476997 210.920073) scale(0.1 -0.1)">
      <use xlink:href="#DejaVuSans-65"/>
      <use xlink:href="#DejaVuSans-70" x="61.523438"/>
      <use xlink:href="#DejaVuSans-6f" x="125"/>
      <use xlink:href="#DejaVuSans-63" x="186.181641"/>
      <use xlink:href="#DejaVuSans-68" x="241.162109"/>
      <use xlink:href="#DejaVuSans-73" x="304.541016"/>
     </g>
    </g>
   </g>
   <g id="matplotlib.axis_6">
    <g id="ytick_11">
     <g id="line2d_32">
      <g>
       <use xlink:href="#m020f870965" x="546.516213" y="182.64351" style="stroke: #000000; stroke-width: 0.8"/>
      </g>
     </g>
     <g id="text_31">
      <!-- 0.0 -->
      <g transform="translate(523.613088 186.442729) scale(0.1 -0.1)">
       <defs>
        <path id="DejaVuSans-2e" d="M 684 794 
L 1344 794 
L 1344 0 
L 684 0 
L 684 794 
z
" transform="scale(0.015625)"/>
       </defs>
       <use xlink:href="#DejaVuSans-30"/>
       <use xlink:href="#DejaVuSans-2e" x="63.623047"/>
       <use xlink:href="#DejaVuSans-30" x="95.410156"/>
      </g>
     </g>
    </g>
    <g id="ytick_12">
     <g id="line2d_33">
      <g>
       <use xlink:href="#m020f870965" x="546.516213" y="151.674106" style="stroke: #000000; stroke-width: 0.8"/>
      </g>
     </g>
     <g id="text_32">
      <!-- 0.2 -->
      <g transform="translate(523.613088 155.473325) scale(0.1 -0.1)">
       <use xlink:href="#DejaVuSans-30"/>
       <use xlink:href="#DejaVuSans-2e" x="63.623047"/>
       <use xlink:href="#DejaVuSans-32" x="95.410156"/>
      </g>
     </g>
    </g>
    <g id="ytick_13">
     <g id="line2d_34">
      <g>
       <use xlink:href="#m020f870965" x="546.516213" y="120.704702" style="stroke: #000000; stroke-width: 0.8"/>
      </g>
     </g>
     <g id="text_33">
      <!-- 0.4 -->
      <g transform="translate(523.613088 124.503921) scale(0.1 -0.1)">
       <use xlink:href="#DejaVuSans-30"/>
       <use xlink:href="#DejaVuSans-2e" x="63.623047"/>
       <use xlink:href="#DejaVuSans-34" x="95.410156"/>
      </g>
     </g>
    </g>
    <g id="ytick_14">
     <g id="line2d_35">
      <g>
       <use xlink:href="#m020f870965" x="546.516213" y="89.735298" style="stroke: #000000; stroke-width: 0.8"/>
      </g>
     </g>
     <g id="text_34">
      <!-- 0.6 -->
      <g transform="translate(523.613088 93.534517) scale(0.1 -0.1)">
       <use xlink:href="#DejaVuSans-30"/>
       <use xlink:href="#DejaVuSans-2e" x="63.623047"/>
       <use xlink:href="#DejaVuSans-36" x="95.410156"/>
      </g>
     </g>
    </g>
    <g id="ytick_15">
     <g id="line2d_36">
      <g>
       <use xlink:href="#m020f870965" x="546.516213" y="58.765894" style="stroke: #000000; stroke-width: 0.8"/>
      </g>
     </g>
     <g id="text_35">
      <!-- 0.8 -->
      <g transform="translate(523.613088 62.565113) scale(0.1 -0.1)">
       <use xlink:href="#DejaVuSans-30"/>
       <use xlink:href="#DejaVuSans-2e" x="63.623047"/>
       <use xlink:href="#DejaVuSans-38" x="95.410156"/>
      </g>
     </g>
    </g>
    <g id="ytick_16">
     <g id="line2d_37">
      <g>
       <use xlink:href="#m020f870965" x="546.516213" y="27.79649" style="stroke: #000000; stroke-width: 0.8"/>
      </g>
     </g>
     <g id="text_36">
      <!-- 1.0 -->
      <g transform="translate(523.613088 31.595709) scale(0.1 -0.1)">
       <use xlink:href="#DejaVuSans-31"/>
       <use xlink:href="#DejaVuSans-2e" x="63.623047"/>
       <use xlink:href="#DejaVuSans-30" x="95.410156"/>
      </g>
     </g>
    </g>
   </g>
   <g id="line2d_38">
    <path d="M 546.516213 155.827555 
L 548.532245 152.601574 
L 550.548277 157.238921 
L 552.56431 106.832993 
L 554.580342 148.468289 
L 556.596374 129.314037 
L 558.612407 137.580608 
L 560.628439 148.165853 
L 562.644471 146.855301 
L 564.660503 153.004823 
L 566.676536 154.920249 
L 568.692568 122.458828 
L 570.7086 147.460169 
L 572.724632 126.289676 
L 574.740665 142.923633 
L 576.756697 134.153006 
L 578.772729 128.205105 
L 580.788761 127.398603 
L 582.804794 151.492645 
L 584.820826 129.112411 
L 586.836858 142.419577 
L 588.85289 131.935142 
L 590.868923 128.003484 
L 592.884955 132.540018 
L 594.900987 91.408769 
L 596.917019 147.157734 
L 598.933052 136.27005 
L 600.949084 151.089399 
L 602.965116 111.974393 
L 604.981149 138.891165 
L 606.997181 103.808628 
L 609.013213 128.003479 
L 611.029245 117.519049 
L 613.045278 149.476408 
L 615.06131 141.411455 
L 617.077342 128.50754 
L 619.093374 144.435814 
L 621.109407 55.822185 
L 623.125439 154.617813 
L 625.141471 119.232847 
L 627.157503 128.709165 
L 629.173536 152.500762 
L 631.189568 153.912129 
L 633.2056 149.476406 
L 635.221632 131.935147 
L 637.237665 148.065041 
L 639.253697 156.230804 
L 641.269729 140.604964 
L 643.285762 138.185479 
L 645.301794 146.653675 
L 647.317826 133.144884 
L 649.333858 155.525118 
L 651.349891 151.895891 
L 653.365923 149.879656 
L 655.381955 95.239626 
L 657.397987 139.294406 
L 659.41402 139.395221 
L 661.430052 89.69497 
L 663.446084 150.887773 
L 665.462116 144.435811 
L 667.478149 123.265325 
L 669.494181 95.844497 
L 671.510213 87.073865 
L 673.526245 141.915516 
L 675.542278 148.065041 
L 677.55831 143.83094 
L 679.574342 144.738247 
L 681.590375 154.617811 
L 683.606407 157.944602 
L 685.622439 152.904012 
L 687.638471 145.847181 
L 689.654504 140.201718 
L 691.670536 126.088055 
L 693.686568 123.870201 
L 695.7026 154.920249 
L 697.718633 138.084669 
L 699.734665 133.951381 
L 701.750697 141.008214 
L 703.766729 148.871535 
L 705.782762 128.104294 
L 707.798794 157.13811 
L 709.814826 146.452055 
L 711.830858 151.895891 
L 713.846891 141.209835 
L 715.862923 154.214565 
L 717.878955 109.252473 
L 719.894987 153.710504 
L 721.91102 147.056921 
L 723.927052 150.988586 
L 725.943084 149.375596 
L 727.959117 152.803197 
L 729.975149 155.525118 
L 731.991181 137.681418 
L 734.007213 139.496032 
L 736.023246 110.966276 
L 738.039278 139.798472 
L 740.05531 127.801859 
L 742.071342 122.761264 
L 744.087375 171.85664 
L 746.103407 158.851911 
" clip-path="url(#p9fc806fdb5)" style="fill: none; stroke: #1f77b4"/>
   </g>
   <g id="line2d_39">
    <path d="M 546.516213 151.996703 
L 548.532245 156.432424 
L 550.548277 159.25516 
L 552.56431 146.149617 
L 554.580342 150.282905 
L 556.596374 142.923633 
L 558.612407 141.51227 
L 560.628439 139.496032 
L 562.644471 153.307258 
L 564.660503 148.770724 
L 566.676536 138.79035 
L 568.692568 145.544746 
L 570.7086 145.24231 
L 572.724632 139.596842 
L 574.740665 152.399951 
L 576.756697 135.665184 
L 578.772729 130.422969 
L 580.788761 119.132037 
L 582.804794 128.003484 
L 584.820826 128.709161 
L 586.836858 137.983854 
L 588.85289 122.156393 
L 590.868923 118.426351 
L 592.884955 129.414847 
L 594.900987 127.096177 
L 596.917019 127.096177 
L 598.933052 121.954772 
L 600.949084 117.720674 
L 602.965116 129.314032 
L 604.981149 127.801859 
L 606.997181 116.309306 
L 609.013213 139.697657 
L 611.029245 132.741638 
L 613.045278 118.627981 
L 615.06131 127.902669 
L 617.077342 120.845836 
L 619.093374 134.757877 
L 621.109407 120.745025 
L 623.125439 130.523774 
L 625.141471 123.769381 
L 627.157503 111.571152 
L 629.173536 130.927025 
L 631.189568 132.640828 
L 633.2056 140.705774 
L 635.221632 120.745025 
L 637.237665 136.975737 
L 639.253697 120.94665 
L 641.269729 123.366135 
L 643.285762 128.709165 
L 645.301794 136.471676 
L 647.317826 148.065043 
L 649.333858 135.866805 
L 651.349891 134.253816 
L 653.365923 137.983858 
L 655.381955 131.431081 
L 657.397987 128.709161 
L 659.41402 144.435816 
L 661.430052 129.717282 
L 663.446084 131.02784 
L 665.462116 122.358013 
L 667.478149 117.317423 
L 669.494181 120.442594 
L 671.510213 120.039348 
L 673.526245 113.08333 
L 675.542278 121.148271 
L 677.55831 119.736908 
L 679.574342 136.06843 
L 681.590375 119.535287 
L 683.606407 129.414847 
L 685.622439 107.337049 
L 687.638471 129.818097 
L 689.654504 120.341779 
L 691.670536 118.930416 
L 693.686568 120.644215 
L 695.7026 133.144884 
L 697.718633 137.883043 
L 699.734665 125.68481 
L 701.750697 128.10429 
L 703.766729 121.753142 
L 705.782762 119.535283 
L 707.798794 118.527166 
L 709.814826 129.314032 
L 711.830858 128.003484 
L 713.846891 121.148271 
L 715.862923 134.959498 
L 717.878955 121.652332 
L 719.894987 121.249086 
L 721.91102 131.330275 
L 723.927052 108.042735 
L 725.943084 139.496032 
L 727.959117 115.60362 
L 729.975149 123.870196 
L 731.991181 119.031222 
L 734.007213 120.341784 
L 736.023246 121.954763 
L 738.039278 112.680075 
L 740.05531 122.358013 
L 742.071342 123.769386 
L 744.087375 115.50281 
L 746.103407 111.873583 
" clip-path="url(#p9fc806fdb5)" style="fill: none; stroke: #ff7f0e"/>
   </g>
   <g id="line2d_40">
    <path d="M 546.516213 141.713891 
L 548.532245 146.653675 
L 550.548277 150.282905 
L 552.56431 149.778841 
L 554.580342 146.552865 
L 556.596374 148.065041 
L 558.612407 150.786963 
L 560.628439 154.315378 
L 562.644471 150.081277 
L 564.660503 153.408071 
L 566.676536 150.383713 
L 568.692568 148.468291 
L 570.7086 141.10902 
L 572.724632 155.726743 
L 574.740665 156.533237 
L 576.756697 149.778844 
L 578.772729 149.274783 
L 580.788761 153.912129 
L 582.804794 158.347853 
L 584.820826 153.508881 
L 586.836858 158.751099 
L 588.85289 155.021061 
L 590.868923 148.972347 
L 592.884955 157.742982 
L 594.900987 139.899277 
L 596.917019 148.871537 
L 598.933052 146.956113 
L 600.949084 147.863418 
L 602.965116 145.242312 
L 604.981149 143.73013 
L 606.997181 143.226074 
L 609.013213 144.133378 
L 611.029245 146.653675 
L 613.045278 151.694268 
L 615.06131 144.032565 
L 617.077342 142.722013 
L 619.093374 132.338388 
L 621.109407 143.629319 
L 623.125439 146.048804 
L 625.141471 149.375596 
L 627.157503 143.931755 
L 629.173536 148.569099 
L 631.189568 140.302528 
L 633.2056 150.484528 
L 635.221632 140.907399 
L 637.237665 133.447324 
L 639.253697 145.24231 
L 641.269729 137.479797 
L 643.285762 142.621198 
L 645.301794 144.335001 
L 647.317826 142.016331 
L 649.333858 143.024448 
L 651.349891 149.274785 
L 653.365923 146.35124 
L 655.381955 136.572486 
L 657.397987 141.51227 
L 659.41402 139.395221 
L 661.430052 137.983858 
L 663.446084 132.035957 
L 665.462116 129.011596 
L 667.478149 131.330275 
L 669.494181 133.447324 
L 671.510213 132.741638 
L 673.526245 133.044074 
L 675.542278 135.261938 
L 677.55831 129.818093 
L 679.574342 138.689535 
L 681.590375 128.205105 
L 683.606407 138.185479 
L 685.622439 138.79035 
L 687.638471 133.951381 
L 689.654504 136.06843 
L 691.670536 133.548135 
L 693.686568 127.600233 
L 695.7026 139.294406 
L 697.718633 146.855298 
L 699.734665 133.044074 
L 701.750697 141.613085 
L 703.766729 135.463559 
L 705.782762 136.572486 
L 707.798794 131.632711 
L 709.814826 139.899277 
L 711.830858 140.604964 
L 713.846891 133.951381 
L 715.862923 132.640823 
L 717.878955 129.011601 
L 719.894987 132.338388 
L 721.91102 126.692927 
L 723.927052 130.7254 
L 725.943084 135.866809 
L 727.959117 129.213226 
L 729.975149 135.866805 
L 731.991181 136.270055 
L 734.007213 130.624589 
L 736.023246 132.439203 
L 738.039278 129.616472 
L 740.05531 135.362744 
L 742.071342 134.153001 
L 744.087375 135.665184 
L 746.103407 126.390491 
" clip-path="url(#p9fc806fdb5)" style="fill: none; stroke: #2ca02c"/>
   </g>
   <g id="patch_13">
    <path d="M 546.516213 182.64351 
L 546.516213 27.79649 
" style="fill: none; stroke: #000000; stroke-width: 0.8; stroke-linejoin: miter; stroke-linecap: square"/>
   </g>
   <g id="patch_14">
    <path d="M 746.103407 182.64351 
L 746.103407 27.79649 
" style="fill: none; stroke: #000000; stroke-width: 0.8; stroke-linejoin: miter; stroke-linecap: square"/>
   </g>
   <g id="patch_15">
    <path d="M 546.516213 182.64351 
L 746.103407 182.64351 
" style="fill: none; stroke: #000000; stroke-width: 0.8; stroke-linejoin: miter; stroke-linecap: square"/>
   </g>
   <g id="patch_16">
    <path d="M 546.516213 27.79649 
L 746.103407 27.79649 
" style="fill: none; stroke: #000000; stroke-width: 0.8; stroke-linejoin: miter; stroke-linecap: square"/>
   </g>
   <g id="text_37">
    <!-- 384 Generated Images -->
    <g transform="translate(588.796529 10.598677) scale(0.1 -0.1)">
     <defs>
      <path id="DejaVuSans-33" d="M 2597 2516 
Q 3050 2419 3304 2112 
Q 3559 1806 3559 1356 
Q 3559 666 3084 287 
Q 2609 -91 1734 -91 
Q 1441 -91 1130 -33 
Q 819 25 488 141 
L 488 750 
Q 750 597 1062 519 
Q 1375 441 1716 441 
Q 2309 441 2620 675 
Q 2931 909 2931 1356 
Q 2931 1769 2642 2001 
Q 2353 2234 1838 2234 
L 1294 2234 
L 1294 2753 
L 1863 2753 
Q 2328 2753 2575 2939 
Q 2822 3125 2822 3475 
Q 2822 3834 2567 4026 
Q 2313 4219 1838 4219 
Q 1578 4219 1281 4162 
Q 984 4106 628 3988 
L 628 4550 
Q 988 4650 1302 4700 
Q 1616 4750 1894 4750 
Q 2613 4750 3031 4423 
Q 3450 4097 3450 3541 
Q 3450 3153 3228 2886 
Q 3006 2619 2597 2516 
z
" transform="scale(0.015625)"/>
      <path id="DejaVuSans-47" d="M 3809 666 
L 3809 1919 
L 2778 1919 
L 2778 2438 
L 4434 2438 
L 4434 434 
Q 4069 175 3628 42 
Q 3188 -91 2688 -91 
Q 1594 -91 976 548 
Q 359 1188 359 2328 
Q 359 3472 976 4111 
Q 1594 4750 2688 4750 
Q 3144 4750 3555 4637 
Q 3966 4525 4313 4306 
L 4313 3634 
Q 3963 3931 3569 4081 
Q 3175 4231 2741 4231 
Q 1884 4231 1454 3753 
Q 1025 3275 1025 2328 
Q 1025 1384 1454 906 
Q 1884 428 2741 428 
Q 3075 428 3337 486 
Q 3600 544 3809 666 
z
" transform="scale(0.015625)"/>
      <path id="DejaVuSans-49" d="M 628 4666 
L 1259 4666 
L 1259 0 
L 628 0 
L 628 4666 
z
" transform="scale(0.015625)"/>
      <path id="DejaVuSans-6d" d="M 3328 2828 
Q 3544 3216 3844 3400 
Q 4144 3584 4550 3584 
Q 5097 3584 5394 3201 
Q 5691 2819 5691 2113 
L 5691 0 
L 5113 0 
L 5113 2094 
Q 5113 2597 4934 2840 
Q 4756 3084 4391 3084 
Q 3944 3084 3684 2787 
Q 3425 2491 3425 1978 
L 3425 0 
L 2847 0 
L 2847 2094 
Q 2847 2600 2669 2842 
Q 2491 3084 2119 3084 
Q 1678 3084 1418 2786 
Q 1159 2488 1159 1978 
L 1159 0 
L 581 0 
L 581 3500 
L 1159 3500 
L 1159 2956 
Q 1356 3278 1631 3431 
Q 1906 3584 2284 3584 
Q 2666 3584 2933 3390 
Q 3200 3197 3328 2828 
z
" transform="scale(0.015625)"/>
     </defs>
     <use xlink:href="#DejaVuSans-33"/>
     <use xlink:href="#DejaVuSans-38" x="63.623047"/>
     <use xlink:href="#DejaVuSans-34" x="127.246094"/>
     <use xlink:href="#DejaVuSans-20" x="190.869141"/>
     <use xlink:href="#DejaVuSans-47" x="222.65625"/>
     <use xlink:href="#DejaVuSans-65" x="300.146484"/>
     <use xlink:href="#DejaVuSans-6e" x="361.669922"/>
     <use xlink:href="#DejaVuSans-65" x="425.048828"/>
     <use xlink:href="#DejaVuSans-72" x="486.572266"/>
     <use xlink:href="#DejaVuSans-61" x="527.685547"/>
     <use xlink:href="#DejaVuSans-74" x="588.964844"/>
     <use xlink:href="#DejaVuSans-65" x="628.173828"/>
     <use xlink:href="#DejaVuSans-64" x="689.697266"/>
     <use xlink:href="#DejaVuSans-20" x="753.173828"/>
     <use xlink:href="#DejaVuSans-49" x="784.960938"/>
     <use xlink:href="#DejaVuSans-6d" x="814.453125"/>
     <use xlink:href="#DejaVuSans-61" x="911.865234"/>
     <use xlink:href="#DejaVuSans-67" x="973.144531"/>
     <use xlink:href="#DejaVuSans-65" x="1036.621094"/>
     <use xlink:href="#DejaVuSans-73" x="1098.144531"/>
    </g>
    <!-- Accuracy -->
    <g transform="translate(623.481685 21.79649) scale(0.1 -0.1)">
     <defs>
      <path id="DejaVuSans-41" d="M 2188 4044 
L 1331 1722 
L 3047 1722 
L 2188 4044 
z
M 1831 4666 
L 2547 4666 
L 4325 0 
L 3669 0 
L 3244 1197 
L 1141 1197 
L 716 0 
L 50 0 
L 1831 4666 
z
" transform="scale(0.015625)"/>
      <path id="DejaVuSans-75" d="M 544 1381 
L 544 3500 
L 1119 3500 
L 1119 1403 
Q 1119 906 1312 657 
Q 1506 409 1894 409 
Q 2359 409 2629 706 
Q 2900 1003 2900 1516 
L 2900 3500 
L 3475 3500 
L 3475 0 
L 2900 0 
L 2900 538 
Q 2691 219 2414 64 
Q 2138 -91 1772 -91 
Q 1169 -91 856 284 
Q 544 659 544 1381 
z
M 1991 3584 
L 1991 3584 
z
" transform="scale(0.015625)"/>
      <path id="DejaVuSans-79" d="M 2059 -325 
Q 1816 -950 1584 -1140 
Q 1353 -1331 966 -1331 
L 506 -1331 
L 506 -850 
L 844 -850 
Q 1081 -850 1212 -737 
Q 1344 -625 1503 -206 
L 1606 56 
L 191 3500 
L 800 3500 
L 1894 763 
L 2988 3500 
L 3597 3500 
L 2059 -325 
z
" transform="scale(0.015625)"/>
     </defs>
     <use xlink:href="#DejaVuSans-41"/>
     <use xlink:href="#DejaVuSans-63" x="66.658203"/>
     <use xlink:href="#DejaVuSans-63" x="121.638672"/>
     <use xlink:href="#DejaVuSans-75" x="176.619141"/>
     <use xlink:href="#DejaVuSans-72" x="239.998047"/>
     <use xlink:href="#DejaVuSans-61" x="281.111328"/>
     <use xlink:href="#DejaVuSans-63" x="342.390625"/>
     <use xlink:href="#DejaVuSans-79" x="397.371094"/>
    </g>
   </g>
  </g>
  <g id="axes_4">
   <g id="patch_17">
    <path d="M 787.735137 182.64351 
L 987.322331 182.64351 
L 987.322331 27.79649 
L 787.735137 27.79649 
z
" style="fill: #ffffff"/>
   </g>
   <g id="matplotlib.axis_7">
    <g id="xtick_16">
     <g id="line2d_41">
      <g>
       <use xlink:href="#m9e07796bb9" x="826.03975" y="182.64351" style="stroke: #000000; stroke-width: 0.8"/>
      </g>
     </g>
     <g id="text_38">
      <!-- 20 -->
      <g transform="translate(819.67725 197.241948) scale(0.1 -0.1)">
       <use xlink:href="#DejaVuSans-32"/>
       <use xlink:href="#DejaVuSans-30" x="63.623047"/>
      </g>
     </g>
    </g>
    <g id="xtick_17">
     <g id="line2d_42">
      <g>
       <use xlink:href="#m9e07796bb9" x="866.360395" y="182.64351" style="stroke: #000000; stroke-width: 0.8"/>
      </g>
     </g>
     <g id="text_39">
      <!-- 40 -->
      <g transform="translate(859.997895 197.241948) scale(0.1 -0.1)">
       <use xlink:href="#DejaVuSans-34"/>
       <use xlink:href="#DejaVuSans-30" x="63.623047"/>
      </g>
     </g>
    </g>
    <g id="xtick_18">
     <g id="line2d_43">
      <g>
       <use xlink:href="#m9e07796bb9" x="906.68104" y="182.64351" style="stroke: #000000; stroke-width: 0.8"/>
      </g>
     </g>
     <g id="text_40">
      <!-- 60 -->
      <g transform="translate(900.31854 197.241948) scale(0.1 -0.1)">
       <use xlink:href="#DejaVuSans-36"/>
       <use xlink:href="#DejaVuSans-30" x="63.623047"/>
      </g>
     </g>
    </g>
    <g id="xtick_19">
     <g id="line2d_44">
      <g>
       <use xlink:href="#m9e07796bb9" x="947.001686" y="182.64351" style="stroke: #000000; stroke-width: 0.8"/>
      </g>
     </g>
     <g id="text_41">
      <!-- 80 -->
      <g transform="translate(940.639186 197.241948) scale(0.1 -0.1)">
       <use xlink:href="#DejaVuSans-38"/>
       <use xlink:href="#DejaVuSans-30" x="63.623047"/>
      </g>
     </g>
    </g>
    <g id="xtick_20">
     <g id="line2d_45">
      <g>
       <use xlink:href="#m9e07796bb9" x="987.322331" y="182.64351" style="stroke: #000000; stroke-width: 0.8"/>
      </g>
     </g>
     <g id="text_42">
      <!-- 100 -->
      <g transform="translate(977.778581 197.241948) scale(0.1 -0.1)">
       <use xlink:href="#DejaVuSans-31"/>
       <use xlink:href="#DejaVuSans-30" x="63.623047"/>
       <use xlink:href="#DejaVuSans-30" x="127.246094"/>
      </g>
     </g>
    </g>
    <g id="text_43">
     <!-- epochs -->
     <g transform="translate(869.695921 210.920073) scale(0.1 -0.1)">
      <use xlink:href="#DejaVuSans-65"/>
      <use xlink:href="#DejaVuSans-70" x="61.523438"/>
      <use xlink:href="#DejaVuSans-6f" x="125"/>
      <use xlink:href="#DejaVuSans-63" x="186.181641"/>
      <use xlink:href="#DejaVuSans-68" x="241.162109"/>
      <use xlink:href="#DejaVuSans-73" x="304.541016"/>
     </g>
    </g>
   </g>
   <g id="matplotlib.axis_8">
    <g id="ytick_17">
     <g id="line2d_46">
      <g>
       <use xlink:href="#m020f870965" x="787.735137" y="182.64351" style="stroke: #000000; stroke-width: 0.8"/>
      </g>
     </g>
     <g id="text_44">
      <!-- 0 -->
      <g transform="translate(774.372637 186.442729) scale(0.1 -0.1)">
       <use xlink:href="#DejaVuSans-30"/>
      </g>
     </g>
    </g>
    <g id="ytick_18">
     <g id="line2d_47">
      <g>
       <use xlink:href="#m020f870965" x="787.735137" y="143.931755" style="stroke: #000000; stroke-width: 0.8"/>
      </g>
     </g>
     <g id="text_45">
      <!-- 50 -->
      <g transform="translate(768.010137 147.730974) scale(0.1 -0.1)">
       <use xlink:href="#DejaVuSans-35"/>
       <use xlink:href="#DejaVuSans-30" x="63.623047"/>
      </g>
     </g>
    </g>
    <g id="ytick_19">
     <g id="line2d_48">
      <g>
       <use xlink:href="#m020f870965" x="787.735137" y="105.22" style="stroke: #000000; stroke-width: 0.8"/>
      </g>
     </g>
     <g id="text_46">
      <!-- 100 -->
      <g transform="translate(761.647637 109.019219) scale(0.1 -0.1)">
       <use xlink:href="#DejaVuSans-31"/>
       <use xlink:href="#DejaVuSans-30" x="63.623047"/>
       <use xlink:href="#DejaVuSans-30" x="127.246094"/>
      </g>
     </g>
    </g>
    <g id="ytick_20">
     <g id="line2d_49">
      <g>
       <use xlink:href="#m020f870965" x="787.735137" y="66.508245" style="stroke: #000000; stroke-width: 0.8"/>
      </g>
     </g>
     <g id="text_47">
      <!-- 150 -->
      <g transform="translate(761.647637 70.307464) scale(0.1 -0.1)">
       <use xlink:href="#DejaVuSans-31"/>
       <use xlink:href="#DejaVuSans-35" x="63.623047"/>
       <use xlink:href="#DejaVuSans-30" x="127.246094"/>
      </g>
     </g>
    </g>
    <g id="ytick_21">
     <g id="line2d_50">
      <g>
       <use xlink:href="#m020f870965" x="787.735137" y="27.79649" style="stroke: #000000; stroke-width: 0.8"/>
      </g>
     </g>
     <g id="text_48">
      <!-- 200 -->
      <g transform="translate(761.647637 31.595709) scale(0.1 -0.1)">
       <use xlink:href="#DejaVuSans-32"/>
       <use xlink:href="#DejaVuSans-30" x="63.623047"/>
       <use xlink:href="#DejaVuSans-30" x="127.246094"/>
      </g>
     </g>
    </g>
   </g>
   <g id="line2d_51">
    <path d="M 787.735137 88.268816 
L 789.751169 97.930322 
L 791.767201 91.356518 
L 793.783234 129.905879 
L 795.799266 127.891493 
L 797.815298 125.597259 
L 799.83133 130.160173 
L 801.847363 126.672985 
L 803.863395 122.502752 
L 805.879427 127.594067 
L 807.425464 -1 
M 808.347864 -1 
L 809.911492 134.114318 
L 811.927524 122.459325 
L 813.943556 141.519181 
L 815.959589 132.745041 
L 817.975621 132.934217 
L 819.991653 118.768358 
L 822.007685 134.462792 
L 824.023718 121.568191 
L 826.03975 118.41354 
L 828.055782 132.924021 
L 830.071814 133.961541 
L 832.087847 129.67278 
L 834.103879 127.25294 
L 836.119911 136.601614 
L 838.135943 127.974403 
L 840.151976 120.762342 
L 842.168008 128.949758 
L 844.18404 107.236655 
L 846.200073 137.87677 
L 848.216105 118.432985 
L 850.232137 132.047513 
L 852.248169 138.50508 
L 854.264202 79.754829 
L 856.280234 133.818852 
L 858.296266 134.594931 
L 860.312298 130.741299 
L 862.328331 89.37065 
L 864.344363 107.378209 
L 866.360395 106.072809 
L 868.376427 116.086735 
L 870.39246 81.024267 
L 872.408492 102.068763 
L 874.424524 111.609058 
L 876.440556 87.276804 
L 878.456589 134.438692 
L 880.472621 98.357288 
L 882.488653 130.963317 
L 884.504685 130.9733 
L 886.520718 120.437141 
L 888.53675 135.292281 
L 890.552782 117.621147 
L 892.568815 124.572711 
L 894.584847 127.112745 
L 896.600879 128.949013 
L 898.616911 123.68296 
L 900.632944 134.502085 
L 902.648976 110.807852 
L 904.665008 47.389094 
L 906.68104 110.350111 
L 908.697073 129.672768 
L 910.713105 128.869541 
L 912.729137 136.246052 
L 914.745169 116.411097 
L 916.761202 130.315573 
L 918.777234 117.714855 
L 920.793266 116.406076 
L 922.809298 83.617392 
L 924.825331 85.400983 
L 926.841363 32.08238 
L 928.857395 135.403166 
L 930.873428 111.165765 
L 932.88946 136.228851 
L 934.905492 136.000524 
L 936.921524 97.256895 
L 938.937557 115.608308 
L 940.953589 100.653849 
L 942.969621 114.354996 
L 944.985653 125.739309 
L 947.001686 135.035081 
L 949.017718 66.829087 
L 951.03375 102.602349 
L 953.049782 108.68753 
L 955.065815 87.751628 
L 957.081847 111.177957 
L 959.097879 135.420154 
L 961.113911 15.692404 
L 963.129944 125.692148 
L 965.145976 70.755858 
L 967.162008 83.798487 
L 968.987405 -1 
M 969.345037 -1 
L 971.194073 97.055799 
L 973.210105 127.544247 
L 975.226137 110.115629 
L 977.24217 125.053253 
L 979.258202 131.419298 
L 981.274234 128.642951 
L 983.290266 98.997955 
L 984.808307 -1 
M 986.56746 -1 
L 987.322331 18.635055 
" clip-path="url(#p581d1003fb)" style="fill: none; stroke: #1f77b4"/>
   </g>
   <g id="line2d_52">
    <path d="M 787.735137 102.280787 
L 789.751169 95.015067 
L 791.767201 102.615592 
L 793.783234 126.287521 
L 795.799266 120.271321 
L 797.815298 122.318562 
L 799.83133 128.607568 
L 801.847363 131.159534 
L 803.863395 111.591467 
L 805.879427 120.699811 
L 807.89546 114.501169 
L 809.911492 119.440214 
L 811.927524 119.273981 
L 813.943556 129.148857 
L 815.959589 117.559844 
L 817.975621 134.156352 
L 819.991653 137.265815 
L 822.007685 138.609905 
L 824.023718 135.354859 
L 826.03975 136.837963 
L 828.055782 132.248054 
L 830.071814 140.027406 
L 832.087847 141.909914 
L 834.103879 138.07509 
L 836.119911 139.701579 
L 838.135943 138.450287 
L 840.151976 140.753204 
L 842.168008 139.384033 
L 844.18404 136.024612 
L 846.200073 136.309504 
L 848.216105 139.501452 
L 850.232137 133.724164 
L 852.248169 134.801366 
L 854.264202 137.001916 
L 856.280234 140.611249 
L 858.296266 139.611439 
L 860.312298 136.98742 
L 862.328331 141.511408 
L 864.344363 134.532045 
L 866.360395 142.436471 
L 868.376427 135.116537 
L 870.39246 137.444878 
L 872.408492 140.97944 
L 874.424524 132.962629 
L 876.440556 141.01526 
L 878.456589 134.813795 
L 880.472621 137.660103 
L 882.488653 138.673936 
L 884.504685 140.04508 
L 886.520718 130.077405 
L 888.53675 125.052745 
L 890.552782 137.280901 
L 892.568815 139.574568 
L 894.584847 136.181914 
L 896.600879 143.772787 
L 898.616911 140.288812 
L 900.632944 129.164558 
L 902.648976 143.852519 
L 904.665008 139.102402 
L 906.68104 136.750741 
L 908.697073 142.303919 
L 910.713105 145.073957 
L 912.729137 143.803752 
L 914.745169 140.471325 
L 916.761202 136.479317 
L 918.777234 143.240702 
L 920.793266 129.176183 
L 922.809298 138.822744 
L 924.825331 139.657667 
L 926.841363 135.935476 
L 928.857395 142.787804 
L 930.873428 141.308374 
L 932.88946 142.17803 
L 934.905492 145.04558 
L 936.921524 137.895117 
L 938.937557 135.642634 
L 940.953589 145.070555 
L 942.969621 137.673713 
L 944.985653 146.57418 
L 947.001686 142.559536 
L 949.017718 135.084971 
L 951.03375 126.636267 
L 953.049782 141.005832 
L 955.065815 144.749134 
L 957.081847 138.36427 
L 959.097879 139.552771 
L 961.113911 141.102435 
L 963.129944 141.008786 
L 965.145976 133.893906 
L 967.162008 122.681993 
L 969.178041 139.042187 
L 971.194073 136.215359 
L 973.210105 142.545915 
L 975.226137 143.50154 
L 977.24217 143.000159 
L 979.258202 138.570375 
L 981.274234 139.180161 
L 983.290266 140.992743 
L 985.306299 140.371108 
L 987.322331 139.121281 
" clip-path="url(#p581d1003fb)" style="fill: none; stroke: #ff7f0e"/>
   </g>
   <g id="line2d_53">
    <path d="M 787.735137 94.841628 
L 789.751169 101.315698 
L 791.767201 96.59547 
L 793.783234 108.128367 
L 795.799266 97.118637 
L 797.815298 110.623449 
L 799.83133 107.383537 
L 801.847363 108.293502 
L 803.863395 107.675044 
L 805.879427 99.956286 
L 807.89546 102.869946 
L 809.911492 100.295427 
L 811.927524 99.301619 
L 813.943556 103.670915 
L 815.959589 105.144651 
L 817.975621 109.99964 
L 819.991653 113.269004 
L 822.007685 110.511193 
L 824.023718 110.469053 
L 826.03975 108.668664 
L 828.055782 109.06157 
L 830.071814 115.53863 
L 832.087847 118.945047 
L 834.103879 106.714823 
L 836.119911 127.039901 
L 838.135943 115.972979 
L 840.151976 117.371826 
L 842.168008 124.75852 
L 844.18404 121.526523 
L 846.200073 101.011361 
L 848.216105 122.27641 
L 850.232137 124.083876 
L 852.248169 122.689695 
L 854.264202 111.061851 
L 856.280234 126.756651 
L 858.296266 126.514655 
L 860.312298 132.91776 
L 862.328331 131.660112 
L 864.344363 122.858705 
L 866.360395 122.486225 
L 868.376427 127.802239 
L 870.39246 127.738409 
L 872.408492 132.811612 
L 874.424524 118.790108 
L 876.440556 122.377667 
L 878.456589 131.56644 
L 880.472621 131.591603 
L 882.488653 130.77335 
L 884.504685 126.169347 
L 886.520718 129.49029 
L 888.53675 133.087691 
L 890.552782 133.568233 
L 892.568815 126.872557 
L 894.584847 129.82434 
L 896.600879 134.346532 
L 898.616911 133.567394 
L 900.632944 136.467952 
L 902.648976 135.951709 
L 904.665008 136.35598 
L 906.68104 137.036862 
L 908.697073 137.206013 
L 910.713105 125.07818 
L 912.729137 138.584198 
L 914.745169 139.30364 
L 916.761202 133.539029 
L 918.777234 136.700402 
L 920.793266 133.811658 
L 922.809298 137.518679 
L 924.825331 133.771963 
L 926.841363 135.754771 
L 928.857395 142.134413 
L 930.873428 133.737537 
L 932.88946 140.24907 
L 934.905492 136.845004 
L 936.921524 132.238508 
L 938.937557 131.949257 
L 940.953589 135.440522 
L 942.969621 133.952066 
L 944.985653 137.297582 
L 947.001686 135.970374 
L 949.017718 135.168861 
L 951.03375 134.971888 
L 953.049782 136.778586 
L 955.065815 136.499826 
L 957.081847 141.954086 
L 959.097879 137.326574 
L 961.113911 136.239967 
L 963.129944 134.922813 
L 965.145976 137.98658 
L 967.162008 137.077537 
L 969.178041 136.695062 
L 971.194073 134.853867 
L 973.210105 106.941626 
L 975.226137 133.810677 
L 977.24217 145.063431 
L 979.258202 136.676656 
L 981.274234 137.148704 
L 983.290266 139.0693 
L 985.306299 139.600996 
L 987.322331 139.843369 
" clip-path="url(#p581d1003fb)" style="fill: none; stroke: #2ca02c"/>
   </g>
   <g id="patch_18">
    <path d="M 787.735137 182.64351 
L 787.735137 27.79649 
" style="fill: none; stroke: #000000; stroke-width: 0.8; stroke-linejoin: miter; stroke-linecap: square"/>
   </g>
   <g id="patch_19">
    <path d="M 987.322331 182.64351 
L 987.322331 27.79649 
" style="fill: none; stroke: #000000; stroke-width: 0.8; stroke-linejoin: miter; stroke-linecap: square"/>
   </g>
   <g id="patch_20">
    <path d="M 787.735137 182.64351 
L 987.322331 182.64351 
" style="fill: none; stroke: #000000; stroke-width: 0.8; stroke-linejoin: miter; stroke-linecap: square"/>
   </g>
   <g id="patch_21">
    <path d="M 787.735137 27.79649 
L 987.322331 27.79649 
" style="fill: none; stroke: #000000; stroke-width: 0.8; stroke-linejoin: miter; stroke-linecap: square"/>
   </g>
   <g id="text_49">
    <!-- 384 Generated Images -->
    <g transform="translate(830.015453 10.598677) scale(0.1 -0.1)">
     <use xlink:href="#DejaVuSans-33"/>
     <use xlink:href="#DejaVuSans-38" x="63.623047"/>
     <use xlink:href="#DejaVuSans-34" x="127.246094"/>
     <use xlink:href="#DejaVuSans-20" x="190.869141"/>
     <use xlink:href="#DejaVuSans-47" x="222.65625"/>
     <use xlink:href="#DejaVuSans-65" x="300.146484"/>
     <use xlink:href="#DejaVuSans-6e" x="361.669922"/>
     <use xlink:href="#DejaVuSans-65" x="425.048828"/>
     <use xlink:href="#DejaVuSans-72" x="486.572266"/>
     <use xlink:href="#DejaVuSans-61" x="527.685547"/>
     <use xlink:href="#DejaVuSans-74" x="588.964844"/>
     <use xlink:href="#DejaVuSans-65" x="628.173828"/>
     <use xlink:href="#DejaVuSans-64" x="689.697266"/>
     <use xlink:href="#DejaVuSans-20" x="753.173828"/>
     <use xlink:href="#DejaVuSans-49" x="784.960938"/>
     <use xlink:href="#DejaVuSans-6d" x="814.453125"/>
     <use xlink:href="#DejaVuSans-61" x="911.865234"/>
     <use xlink:href="#DejaVuSans-67" x="973.144531"/>
     <use xlink:href="#DejaVuSans-65" x="1036.621094"/>
     <use xlink:href="#DejaVuSans-73" x="1098.144531"/>
    </g>
    <!-- Frchet Distance -->
    <g transform="translate(845.589671 21.79649) scale(0.1 -0.1)">
     <defs>
      <path id="DejaVuSans-46" d="M 628 4666 
L 3309 4666 
L 3309 4134 
L 1259 4134 
L 1259 2759 
L 3109 2759 
L 3109 2228 
L 1259 2228 
L 1259 0 
L 628 0 
L 628 4666 
z
" transform="scale(0.015625)"/>
      <path id="DejaVuSans-e9" d="M 3597 1894 
L 3597 1613 
L 953 1613 
Q 991 1019 1311 708 
Q 1631 397 2203 397 
Q 2534 397 2845 478 
Q 3156 559 3463 722 
L 3463 178 
Q 3153 47 2828 -22 
Q 2503 -91 2169 -91 
Q 1331 -91 842 396 
Q 353 884 353 1716 
Q 353 2575 817 3079 
Q 1281 3584 2069 3584 
Q 2775 3584 3186 3129 
Q 3597 2675 3597 1894 
z
M 3022 2063 
Q 3016 2534 2758 2815 
Q 2500 3097 2075 3097 
Q 1594 3097 1305 2825 
Q 1016 2553 972 2059 
L 3022 2063 
z
M 2466 5119 
L 3088 5119 
L 2070 3944 
L 1591 3944 
L 2466 5119 
z
" transform="scale(0.015625)"/>
      <path id="DejaVuSans-44" d="M 1259 4147 
L 1259 519 
L 2022 519 
Q 2988 519 3436 956 
Q 3884 1394 3884 2338 
Q 3884 3275 3436 3711 
Q 2988 4147 2022 4147 
L 1259 4147 
z
M 628 4666 
L 1925 4666 
Q 3281 4666 3915 4102 
Q 4550 3538 4550 2338 
Q 4550 1131 3912 565 
Q 3275 0 1925 0 
L 628 0 
L 628 4666 
z
" transform="scale(0.015625)"/>
     </defs>
     <use xlink:href="#DejaVuSans-46"/>
     <use xlink:href="#DejaVuSans-72" x="50.269531"/>
     <use xlink:href="#DejaVuSans-e9" x="89.132812"/>
     <use xlink:href="#DejaVuSans-63" x="150.65625"/>
     <use xlink:href="#DejaVuSans-68" x="205.636719"/>
     <use xlink:href="#DejaVuSans-65" x="269.015625"/>
     <use xlink:href="#DejaVuSans-74" x="330.539062"/>
     <use xlink:href="#DejaVuSans-20" x="369.748047"/>
     <use xlink:href="#DejaVuSans-44" x="401.535156"/>
     <use xlink:href="#DejaVuSans-69" x="478.537109"/>
     <use xlink:href="#DejaVuSans-73" x="506.320312"/>
     <use xlink:href="#DejaVuSans-74" x="558.419922"/>
     <use xlink:href="#DejaVuSans-61" x="597.628906"/>
     <use xlink:href="#DejaVuSans-6e" x="658.908203"/>
     <use xlink:href="#DejaVuSans-63" x="722.287109"/>
     <use xlink:href="#DejaVuSans-65" x="777.267578"/>
    </g>
   </g>
  </g>
  <g id="axes_5">
   <g id="legend_1">
    <g id="text_50">
     <!-- learning_rate -->
     <g transform="translate(1006.866561 85.823125) scale(0.1 -0.1)">
      <defs>
       <path id="DejaVuSans-5f" d="M 3263 -1063 
L 3263 -1509 
L -63 -1509 
L -63 -1063 
L 3263 -1063 
z
" transform="scale(0.015625)"/>
      </defs>
      <use xlink:href="#DejaVuSans-6c"/>
      <use xlink:href="#DejaVuSans-65" x="27.783203"/>
      <use xlink:href="#DejaVuSans-61" x="89.306641"/>
      <use xlink:href="#DejaVuSans-72" x="150.585938"/>
      <use xlink:href="#DejaVuSans-6e" x="189.949219"/>
      <use xlink:href="#DejaVuSans-69" x="253.328125"/>
      <use xlink:href="#DejaVuSans-6e" x="281.111328"/>
      <use xlink:href="#DejaVuSans-67" x="344.490234"/>
      <use xlink:href="#DejaVuSans-5f" x="407.966797"/>
      <use xlink:href="#DejaVuSans-72" x="457.966797"/>
      <use xlink:href="#DejaVuSans-61" x="499.080078"/>
      <use xlink:href="#DejaVuSans-74" x="560.359375"/>
      <use xlink:href="#DejaVuSans-65" x="599.568359"/>
     </g>
    </g>
    <g id="line2d_54">
     <path d="M 1006.866561 97.279375 
L 1016.866561 97.279375 
L 1026.866561 97.279375 
" style="fill: none; stroke: #1f77b4"/>
    </g>
    <g id="text_51">
     <!-- 1e-03 -->
     <g transform="translate(1034.866561 100.779375) scale(0.1 -0.1)">
      <defs>
       <path id="DejaVuSans-2d" d="M 313 2009 
L 1997 2009 
L 1997 1497 
L 313 1497 
L 313 2009 
z
" transform="scale(0.015625)"/>
      </defs>
      <use xlink:href="#DejaVuSans-31"/>
      <use xlink:href="#DejaVuSans-65" x="63.623047"/>
      <use xlink:href="#DejaVuSans-2d" x="125.146484"/>
      <use xlink:href="#DejaVuSans-30" x="161.230469"/>
      <use xlink:href="#DejaVuSans-33" x="224.853516"/>
     </g>
    </g>
    <g id="line2d_55">
     <path d="M 1006.866561 111.9575 
L 1016.866561 111.9575 
L 1026.866561 111.9575 
" style="fill: none; stroke: #ff7f0e"/>
    </g>
    <g id="text_52">
     <!-- 1e-04 -->
     <g transform="translate(1034.866561 115.4575) scale(0.1 -0.1)">
      <use xlink:href="#DejaVuSans-31"/>
      <use xlink:href="#DejaVuSans-65" x="63.623047"/>
      <use xlink:href="#DejaVuSans-2d" x="125.146484"/>
      <use xlink:href="#DejaVuSans-30" x="161.230469"/>
      <use xlink:href="#DejaVuSans-34" x="224.853516"/>
     </g>
    </g>
    <g id="line2d_56">
     <path d="M 1006.866561 126.635625 
L 1016.866561 126.635625 
L 1026.866561 126.635625 
" style="fill: none; stroke: #2ca02c"/>
    </g>
    <g id="text_53">
     <!-- 1e-05 -->
     <g transform="translate(1034.866561 130.135625) scale(0.1 -0.1)">
      <use xlink:href="#DejaVuSans-31"/>
      <use xlink:href="#DejaVuSans-65" x="63.623047"/>
      <use xlink:href="#DejaVuSans-2d" x="125.146484"/>
      <use xlink:href="#DejaVuSans-30" x="161.230469"/>
      <use xlink:href="#DejaVuSans-35" x="224.853516"/>
     </g>
    </g>
   </g>
  </g>
 </g>
 <defs>
  <clipPath id="p813974ff7e">
   <rect x="48.17524" y="27.79649" width="199.587194" height="154.84702"/>
  </clipPath>
  <clipPath id="p538fb8b355">
   <rect x="308.481664" y="27.79649" width="199.587194" height="154.84702"/>
  </clipPath>
  <clipPath id="p9fc806fdb5">
   <rect x="546.516213" y="27.79649" width="199.587194" height="154.84702"/>
  </clipPath>
  <clipPath id="p581d1003fb">
   <rect x="787.735137" y="27.79649" width="199.587194" height="154.84702"/>
  </clipPath>
 </defs>
</svg>
