<?xml version="1.0" encoding="utf-8" standalone="no"?>
<!DOCTYPE svg PUBLIC "-//W3C//DTD SVG 1.1//EN"
  "http://www.w3.org/Graphics/SVG/1.1/DTD/svg11.dtd">
<svg xmlns:xlink="http://www.w3.org/1999/xlink" width="875.25pt" height="720pt" viewBox="0 0 875.25 720" xmlns="http://www.w3.org/2000/svg" version="1.1">
 <metadata>
  <rdf:RDF xmlns:dc="http://purl.org/dc/elements/1.1/" xmlns:cc="http://creativecommons.org/ns#" xmlns:rdf="http://www.w3.org/1999/02/22-rdf-syntax-ns#">
   <cc:Work>
    <dc:type rdf:resource="http://purl.org/dc/dcmitype/StillImage"/>
    <dc:date>2023-12-06T16:57:30.854107</dc:date>
    <dc:format>image/svg+xml</dc:format>
    <dc:creator>
     <cc:Agent>
      <dc:title>Matplotlib v3.7.1, https://matplotlib.org/</dc:title>
     </cc:Agent>
    </dc:creator>
   </cc:Work>
  </rdf:RDF>
 </metadata>
 <defs>
  <style type="text/css">*{stroke-linejoin: round; stroke-linecap: butt}</style>
 </defs>
 <g id="figure_1">
  <g id="patch_1">
   <path d="M 0 720 
L 875.25 720 
L 875.25 0 
L 0 0 
L 0 720 
z
" style="fill: none"/>
  </g>
  <g id="axes_1">
   <g id="patch_2">
    <path d="M 54.180406 335.96 
L 374.04716 335.96 
L 374.04716 24.72 
L 54.180406 24.72 
z
" style="fill: #ffffff"/>
   </g>
   <g id="matplotlib.axis_1">
    <g id="xtick_1">
     <g id="line2d_1">
      <defs>
       <path id="madbab46046" d="M 0 0 
L 0 3.5 
" style="stroke: #000000; stroke-width: 0.8"/>
      </defs>
      <g>
       <use xlink:href="#madbab46046" x="54.180406" y="335.96" style="stroke: #000000; stroke-width: 0.8"/>
      </g>
     </g>
    </g>
    <g id="xtick_2">
     <g id="line2d_2">
      <g>
       <use xlink:href="#madbab46046" x="134.147095" y="335.96" style="stroke: #000000; stroke-width: 0.8"/>
      </g>
     </g>
    </g>
    <g id="xtick_3">
     <g id="line2d_3">
      <g>
       <use xlink:href="#madbab46046" x="214.113783" y="335.96" style="stroke: #000000; stroke-width: 0.8"/>
      </g>
     </g>
    </g>
    <g id="xtick_4">
     <g id="line2d_4">
      <g>
       <use xlink:href="#madbab46046" x="294.080471" y="335.96" style="stroke: #000000; stroke-width: 0.8"/>
      </g>
     </g>
    </g>
    <g id="xtick_5">
     <g id="line2d_5">
      <g>
       <use xlink:href="#madbab46046" x="374.04716" y="335.96" style="stroke: #000000; stroke-width: 0.8"/>
      </g>
     </g>
    </g>
   </g>
   <g id="matplotlib.axis_2">
    <g id="ytick_1">
     <g id="line2d_6">
      <defs>
       <path id="m50d47fb36b" d="M 0 0 
L -3.5 0 
" style="stroke: #000000; stroke-width: 0.8"/>
      </defs>
      <g>
       <use xlink:href="#m50d47fb36b" x="54.180406" y="335.96" style="stroke: #000000; stroke-width: 0.8"/>
      </g>
     </g>
     <g id="text_1">
      <!-- 3 -->
      <g transform="translate(40.817906 339.759219) scale(0.1 -0.1)">
       <defs>
        <path id="DejaVuSans-33" d="M 2597 2516 
Q 3050 2419 3304 2112 
Q 3559 1806 3559 1356 
Q 3559 666 3084 287 
Q 2609 -91 1734 -91 
Q 1441 -91 1130 -33 
Q 819 25 488 141 
L 488 750 
Q 750 597 1062 519 
Q 1375 441 1716 441 
Q 2309 441 2620 675 
Q 2931 909 2931 1356 
Q 2931 1769 2642 2001 
Q 2353 2234 1838 2234 
L 1294 2234 
L 1294 2753 
L 1863 2753 
Q 2328 2753 2575 2939 
Q 2822 3125 2822 3475 
Q 2822 3834 2567 4026 
Q 2313 4219 1838 4219 
Q 1578 4219 1281 4162 
Q 984 4106 628 3988 
L 628 4550 
Q 988 4650 1302 4700 
Q 1616 4750 1894 4750 
Q 2613 4750 3031 4423 
Q 3450 4097 3450 3541 
Q 3450 3153 3228 2886 
Q 3006 2619 2597 2516 
z
" transform="scale(0.015625)"/>
       </defs>
       <use xlink:href="#DejaVuSans-33"/>
      </g>
     </g>
    </g>
    <g id="ytick_2">
     <g id="line2d_7">
      <g>
       <use xlink:href="#m50d47fb36b" x="54.180406" y="291.497143" style="stroke: #000000; stroke-width: 0.8"/>
      </g>
     </g>
     <g id="text_2">
      <!-- 4 -->
      <g transform="translate(40.817906 295.296362) scale(0.1 -0.1)">
       <defs>
        <path id="DejaVuSans-34" d="M 2419 4116 
L 825 1625 
L 2419 1625 
L 2419 4116 
z
M 2253 4666 
L 3047 4666 
L 3047 1625 
L 3713 1625 
L 3713 1100 
L 3047 1100 
L 3047 0 
L 2419 0 
L 2419 1100 
L 313 1100 
L 313 1709 
L 2253 4666 
z
" transform="scale(0.015625)"/>
       </defs>
       <use xlink:href="#DejaVuSans-34"/>
      </g>
     </g>
    </g>
    <g id="ytick_3">
     <g id="line2d_8">
      <g>
       <use xlink:href="#m50d47fb36b" x="54.180406" y="247.034286" style="stroke: #000000; stroke-width: 0.8"/>
      </g>
     </g>
     <g id="text_3">
      <!-- 5 -->
      <g transform="translate(40.817906 250.833504) scale(0.1 -0.1)">
       <defs>
        <path id="DejaVuSans-35" d="M 691 4666 
L 3169 4666 
L 3169 4134 
L 1269 4134 
L 1269 2991 
Q 1406 3038 1543 3061 
Q 1681 3084 1819 3084 
Q 2600 3084 3056 2656 
Q 3513 2228 3513 1497 
Q 3513 744 3044 326 
Q 2575 -91 1722 -91 
Q 1428 -91 1123 -41 
Q 819 9 494 109 
L 494 744 
Q 775 591 1075 516 
Q 1375 441 1709 441 
Q 2250 441 2565 725 
Q 2881 1009 2881 1497 
Q 2881 1984 2565 2268 
Q 2250 2553 1709 2553 
Q 1456 2553 1204 2497 
Q 953 2441 691 2322 
L 691 4666 
z
" transform="scale(0.015625)"/>
       </defs>
       <use xlink:href="#DejaVuSans-35"/>
      </g>
     </g>
    </g>
    <g id="ytick_4">
     <g id="line2d_9">
      <g>
       <use xlink:href="#m50d47fb36b" x="54.180406" y="202.571429" style="stroke: #000000; stroke-width: 0.8"/>
      </g>
     </g>
     <g id="text_4">
      <!-- 6 -->
      <g transform="translate(40.817906 206.370647) scale(0.1 -0.1)">
       <defs>
        <path id="DejaVuSans-36" d="M 2113 2584 
Q 1688 2584 1439 2293 
Q 1191 2003 1191 1497 
Q 1191 994 1439 701 
Q 1688 409 2113 409 
Q 2538 409 2786 701 
Q 3034 994 3034 1497 
Q 3034 2003 2786 2293 
Q 2538 2584 2113 2584 
z
M 3366 4563 
L 3366 3988 
Q 3128 4100 2886 4159 
Q 2644 4219 2406 4219 
Q 1781 4219 1451 3797 
Q 1122 3375 1075 2522 
Q 1259 2794 1537 2939 
Q 1816 3084 2150 3084 
Q 2853 3084 3261 2657 
Q 3669 2231 3669 1497 
Q 3669 778 3244 343 
Q 2819 -91 2113 -91 
Q 1303 -91 875 529 
Q 447 1150 447 2328 
Q 447 3434 972 4092 
Q 1497 4750 2381 4750 
Q 2619 4750 2861 4703 
Q 3103 4656 3366 4563 
z
" transform="scale(0.015625)"/>
       </defs>
       <use xlink:href="#DejaVuSans-36"/>
      </g>
     </g>
    </g>
    <g id="ytick_5">
     <g id="line2d_10">
      <g>
       <use xlink:href="#m50d47fb36b" x="54.180406" y="158.108571" style="stroke: #000000; stroke-width: 0.8"/>
      </g>
     </g>
     <g id="text_5">
      <!-- 7 -->
      <g transform="translate(40.817906 161.90779) scale(0.1 -0.1)">
       <defs>
        <path id="DejaVuSans-37" d="M 525 4666 
L 3525 4666 
L 3525 4397 
L 1831 0 
L 1172 0 
L 2766 4134 
L 525 4134 
L 525 4666 
z
" transform="scale(0.015625)"/>
       </defs>
       <use xlink:href="#DejaVuSans-37"/>
      </g>
     </g>
    </g>
    <g id="ytick_6">
     <g id="line2d_11">
      <g>
       <use xlink:href="#m50d47fb36b" x="54.180406" y="113.645714" style="stroke: #000000; stroke-width: 0.8"/>
      </g>
     </g>
     <g id="text_6">
      <!-- 8 -->
      <g transform="translate(40.817906 117.444933) scale(0.1 -0.1)">
       <defs>
        <path id="DejaVuSans-38" d="M 2034 2216 
Q 1584 2216 1326 1975 
Q 1069 1734 1069 1313 
Q 1069 891 1326 650 
Q 1584 409 2034 409 
Q 2484 409 2743 651 
Q 3003 894 3003 1313 
Q 3003 1734 2745 1975 
Q 2488 2216 2034 2216 
z
M 1403 2484 
Q 997 2584 770 2862 
Q 544 3141 544 3541 
Q 544 4100 942 4425 
Q 1341 4750 2034 4750 
Q 2731 4750 3128 4425 
Q 3525 4100 3525 3541 
Q 3525 3141 3298 2862 
Q 3072 2584 2669 2484 
Q 3125 2378 3379 2068 
Q 3634 1759 3634 1313 
Q 3634 634 3220 271 
Q 2806 -91 2034 -91 
Q 1263 -91 848 271 
Q 434 634 434 1313 
Q 434 1759 690 2068 
Q 947 2378 1403 2484 
z
M 1172 3481 
Q 1172 3119 1398 2916 
Q 1625 2713 2034 2713 
Q 2441 2713 2670 2916 
Q 2900 3119 2900 3481 
Q 2900 3844 2670 4047 
Q 2441 4250 2034 4250 
Q 1625 4250 1398 4047 
Q 1172 3844 1172 3481 
z
" transform="scale(0.015625)"/>
       </defs>
       <use xlink:href="#DejaVuSans-38"/>
      </g>
     </g>
    </g>
    <g id="ytick_7">
     <g id="line2d_12">
      <g>
       <use xlink:href="#m50d47fb36b" x="54.180406" y="69.182857" style="stroke: #000000; stroke-width: 0.8"/>
      </g>
     </g>
     <g id="text_7">
      <!-- 9 -->
      <g transform="translate(40.817906 72.982076) scale(0.1 -0.1)">
       <defs>
        <path id="DejaVuSans-39" d="M 703 97 
L 703 672 
Q 941 559 1184 500 
Q 1428 441 1663 441 
Q 2288 441 2617 861 
Q 2947 1281 2994 2138 
Q 2813 1869 2534 1725 
Q 2256 1581 1919 1581 
Q 1219 1581 811 2004 
Q 403 2428 403 3163 
Q 403 3881 828 4315 
Q 1253 4750 1959 4750 
Q 2769 4750 3195 4129 
Q 3622 3509 3622 2328 
Q 3622 1225 3098 567 
Q 2575 -91 1691 -91 
Q 1453 -91 1209 -44 
Q 966 3 703 97 
z
M 1959 2075 
Q 2384 2075 2632 2365 
Q 2881 2656 2881 3163 
Q 2881 3666 2632 3958 
Q 2384 4250 1959 4250 
Q 1534 4250 1286 3958 
Q 1038 3666 1038 3163 
Q 1038 2656 1286 2365 
Q 1534 2075 1959 2075 
z
" transform="scale(0.015625)"/>
       </defs>
       <use xlink:href="#DejaVuSans-39"/>
      </g>
     </g>
    </g>
    <g id="ytick_8">
     <g id="line2d_13">
      <g>
       <use xlink:href="#m50d47fb36b" x="54.180406" y="24.72" style="stroke: #000000; stroke-width: 0.8"/>
      </g>
     </g>
     <g id="text_8">
      <!-- 10 -->
      <g transform="translate(34.455406 28.519219) scale(0.1 -0.1)">
       <defs>
        <path id="DejaVuSans-31" d="M 794 531 
L 1825 531 
L 1825 4091 
L 703 3866 
L 703 4441 
L 1819 4666 
L 2450 4666 
L 2450 531 
L 3481 531 
L 3481 0 
L 794 0 
L 794 531 
z
" transform="scale(0.015625)"/>
        <path id="DejaVuSans-30" d="M 2034 4250 
Q 1547 4250 1301 3770 
Q 1056 3291 1056 2328 
Q 1056 1369 1301 889 
Q 1547 409 2034 409 
Q 2525 409 2770 889 
Q 3016 1369 3016 2328 
Q 3016 3291 2770 3770 
Q 2525 4250 2034 4250 
z
M 2034 4750 
Q 2819 4750 3233 4129 
Q 3647 3509 3647 2328 
Q 3647 1150 3233 529 
Q 2819 -91 2034 -91 
Q 1250 -91 836 529 
Q 422 1150 422 2328 
Q 422 3509 836 4129 
Q 1250 4750 2034 4750 
z
" transform="scale(0.015625)"/>
       </defs>
       <use xlink:href="#DejaVuSans-31"/>
       <use xlink:href="#DejaVuSans-30" x="63.623047"/>
      </g>
     </g>
    </g>
    <g id="text_9">
     <!-- y_hat -->
     <g transform="translate(28.097594 193.992344) rotate(-90) scale(0.1 -0.1)">
      <defs>
       <path id="DejaVuSans-79" d="M 2059 -325 
Q 1816 -950 1584 -1140 
Q 1353 -1331 966 -1331 
L 506 -1331 
L 506 -850 
L 844 -850 
Q 1081 -850 1212 -737 
Q 1344 -625 1503 -206 
L 1606 56 
L 191 3500 
L 800 3500 
L 1894 763 
L 2988 3500 
L 3597 3500 
L 2059 -325 
z
" transform="scale(0.015625)"/>
       <path id="DejaVuSans-5f" d="M 3263 -1063 
L 3263 -1509 
L -63 -1509 
L -63 -1063 
L 3263 -1063 
z
" transform="scale(0.015625)"/>
       <path id="DejaVuSans-68" d="M 3513 2113 
L 3513 0 
L 2938 0 
L 2938 2094 
Q 2938 2591 2744 2837 
Q 2550 3084 2163 3084 
Q 1697 3084 1428 2787 
Q 1159 2491 1159 1978 
L 1159 0 
L 581 0 
L 581 4863 
L 1159 4863 
L 1159 2956 
Q 1366 3272 1645 3428 
Q 1925 3584 2291 3584 
Q 2894 3584 3203 3211 
Q 3513 2838 3513 2113 
z
" transform="scale(0.015625)"/>
       <path id="DejaVuSans-61" d="M 2194 1759 
Q 1497 1759 1228 1600 
Q 959 1441 959 1056 
Q 959 750 1161 570 
Q 1363 391 1709 391 
Q 2188 391 2477 730 
Q 2766 1069 2766 1631 
L 2766 1759 
L 2194 1759 
z
M 3341 1997 
L 3341 0 
L 2766 0 
L 2766 531 
Q 2569 213 2275 61 
Q 1981 -91 1556 -91 
Q 1019 -91 701 211 
Q 384 513 384 1019 
Q 384 1609 779 1909 
Q 1175 2209 1959 2209 
L 2766 2209 
L 2766 2266 
Q 2766 2663 2505 2880 
Q 2244 3097 1772 3097 
Q 1472 3097 1187 3025 
Q 903 2953 641 2809 
L 641 3341 
Q 956 3463 1253 3523 
Q 1550 3584 1831 3584 
Q 2591 3584 2966 3190 
Q 3341 2797 3341 1997 
z
" transform="scale(0.015625)"/>
       <path id="DejaVuSans-74" d="M 1172 4494 
L 1172 3500 
L 2356 3500 
L 2356 3053 
L 1172 3053 
L 1172 1153 
Q 1172 725 1289 603 
Q 1406 481 1766 481 
L 2356 481 
L 2356 0 
L 1766 0 
Q 1100 0 847 248 
Q 594 497 594 1153 
L 594 3053 
L 172 3053 
L 172 3500 
L 594 3500 
L 594 4494 
L 1172 4494 
z
" transform="scale(0.015625)"/>
      </defs>
      <use xlink:href="#DejaVuSans-79"/>
      <use xlink:href="#DejaVuSans-5f" x="59.179688"/>
      <use xlink:href="#DejaVuSans-68" x="109.179688"/>
      <use xlink:href="#DejaVuSans-61" x="172.558594"/>
      <use xlink:href="#DejaVuSans-74" x="233.837891"/>
     </g>
    </g>
   </g>
   <g id="line2d_14">
    <path d="M 54.180406 249.358738 
L 60.708299 252.114027 
L 67.236192 247.792347 
L 73.764085 244.138515 
L 80.291978 243.528929 
L 86.819871 233.596578 
L 93.347764 223.796441 
L 99.875657 237.841403 
L 106.40355 243.316574 
L 112.931443 253.251002 
L 119.459336 252.602383 
L 125.987228 252.839204 
L 132.515121 250.964013 
L 139.043014 249.29155 
L 145.570907 247.738304 
L 152.0988 245.909862 
L 158.626693 244.997242 
L 165.154586 237.114487 
L 171.682479 225.967521 
L 178.210372 230.705218 
L 184.738265 240.810128 
L 191.266158 251.085625 
L 197.794051 253.474657 
L 204.321944 252.137476 
L 210.849837 251.169965 
L 217.37773 247.171099 
L 223.905622 249.54811 
L 230.433515 248.75884 
L 236.961408 245.510891 
L 243.489301 239.671478 
L 250.017194 228.294539 
L 256.545087 224.450488 
L 263.07298 242.010898 
L 269.600873 249.879469 
L 276.128766 253.606912 
L 282.656659 249.454421 
L 289.184552 251.321132 
L 295.712445 247.24963 
L 302.240338 251.873432 
L 308.768231 249.064418 
L 315.296124 244.326997 
L 321.824016 241.759787 
L 328.351909 230.805629 
L 334.879802 222.581762 
L 341.407695 241.853689 
L 347.935588 247.614318 
L 354.463481 254.544063 
L 360.991374 249.741956 
L 367.519267 251.867029 
L 374.04716 249.358717 
" clip-path="url(#pc4c04770ab)" style="fill: none; stroke: #1f77b4"/>
   </g>
   <g id="line2d_15">
    <path d="M 54.180406 203.21392 
L 60.708299 190.914948 
L 67.236192 198.949696 
L 73.764085 202.108938 
L 80.291978 208.803664 
L 86.819871 219.841251 
L 93.347764 206.299953 
L 99.875657 210.624983 
L 106.40355 201.78413 
L 112.931443 203.018951 
L 119.459336 209.551718 
L 125.987228 206.927794 
L 132.515121 204.580656 
L 139.043014 189.297291 
L 145.570907 199.327762 
L 152.0988 198.935873 
L 158.626693 211.160788 
L 165.154586 221.806104 
L 171.682479 207.127046 
L 178.210372 206.031817 
L 184.738265 200.812803 
L 191.266158 200.211951 
L 197.794051 208.034578 
L 204.321944 205.918092 
L 210.849837 205.212908 
L 217.37773 188.416918 
L 223.905622 191.711659 
L 230.433515 197.814926 
L 236.961408 210.548445 
L 243.489301 217.816249 
L 250.017194 210.669315 
L 256.545087 205.324491 
L 263.07298 204.001303 
L 269.600873 201.745628 
L 276.128766 208.764187 
L 282.656659 210.269497 
L 289.184552 204.86005 
L 295.712445 195.376134 
L 302.240338 190.197445 
L 308.768231 198.601779 
L 315.296124 207.348687 
L 321.824016 212.458895 
L 328.351909 215.381634 
L 334.879802 204.46144 
L 341.407695 211.098095 
L 347.935588 202.680511 
L 354.463481 203.573244 
L 360.991374 209.452559 
L 367.519267 209.697543 
L 374.04716 203.213941 
" clip-path="url(#pc4c04770ab)" style="fill: none; stroke: #ff7f0e"/>
   </g>
   <g id="line2d_16">
    <path d="M 54.180406 240.783901 
L 60.708299 249.501424 
L 67.236192 241.202165 
L 73.764085 234.216045 
L 80.291978 256.343883 
L 86.819871 264.096312 
L 93.347764 245.652539 
L 99.875657 261.473808 
L 106.40355 255.564217 
L 112.931443 251.039066 
L 119.459336 251.646257 
L 125.987228 245.953495 
L 132.515121 240.450528 
L 139.043014 245.531584 
L 145.570907 251.572645 
L 152.0988 226.179452 
L 158.626693 248.069281 
L 165.154586 261.430175 
L 171.682479 248.998863 
L 178.210372 240.555412 
L 184.738265 247.647646 
L 191.266158 252.288643 
L 197.794051 258.111328 
L 204.321944 245.129582 
L 210.849837 245.588574 
L 217.37773 240.058893 
L 223.905622 248.539722 
L 230.433515 239.380699 
L 236.961408 252.617988 
L 243.489301 250.614611 
L 250.017194 248.43399 
L 256.545087 233.362938 
L 263.07298 245.123136 
L 269.600873 258.927991 
L 276.128766 244.80064 
L 282.656659 254.210647 
L 289.184552 243.572413 
L 295.712445 249.802847 
L 302.240338 247.719774 
L 308.768231 232.97726 
L 315.296124 247.68176 
L 321.824016 246.680983 
L 328.351909 251.527868 
L 334.879802 235.285133 
L 341.407695 254.794644 
L 347.935588 255.280074 
L 354.463481 240.944694 
L 360.991374 256.663433 
L 367.519267 242.934734 
L 374.04716 240.78388 
" clip-path="url(#pc4c04770ab)" style="fill: none; stroke: #2ca02c"/>
   </g>
   <g id="line2d_17">
    <path d="M 54.180406 261.749471 
L 60.708299 243.789856 
L 67.236192 257.020827 
L 73.764085 247.081078 
L 80.291978 242.742097 
L 86.819871 238.764221 
L 93.347764 236.193513 
L 99.875657 230.72502 
L 106.40355 234.160009 
L 112.931443 247.926086 
L 119.459336 251.822082 
L 125.987228 231.214818 
L 132.515121 221.981419 
L 139.043014 225.17823 
L 145.570907 230.296156 
L 152.0988 225.84256 
L 158.626693 219.109247 
L 165.154586 214.746626 
L 171.682479 227.999096 
L 178.210372 228.655071 
L 184.738265 219.605914 
L 191.266158 224.455724 
L 197.794051 218.85275 
L 204.321944 224.045623 
L 210.849837 226.618833 
L 217.37773 216.774872 
L 223.905622 211.754368 
L 230.433515 210.219313 
L 236.961408 212.442379 
L 243.489301 220.291339 
L 250.017194 216.874307 
L 256.545087 223.623034 
L 263.07298 236.757686 
L 269.600873 249.595114 
L 276.128766 250.484794 
L 282.656659 253.970985 
L 289.184552 236.607516 
L 295.712445 234.960135 
L 302.240338 232.373419 
L 308.768231 222.967334 
L 315.296124 219.281594 
L 321.824016 226.426959 
L 328.351909 228.810055 
L 334.879802 240.304259 
L 341.407695 240.855266 
L 347.935588 247.297588 
L 354.463481 248.650713 
L 360.991374 244.821778 
L 367.519267 257.163492 
L 374.04716 261.749492 
" clip-path="url(#pc4c04770ab)" style="fill: none; stroke: #d62728"/>
   </g>
   <g id="line2d_18">
    <path d="M 54.180406 222.238955 
L 60.708299 231.781599 
L 67.236192 253.991635 
L 73.764085 247.93709 
L 80.291978 231.074676 
L 86.819871 234.085634 
L 93.347764 224.40024 
L 99.875657 222.904174 
L 106.40355 239.573823 
L 112.931443 230.750123 
L 119.459336 238.656411 
L 125.987228 254.858948 
L 132.515121 229.413196 
L 139.043014 218.391659 
L 145.570907 225.896093 
L 152.0988 219.674225 
L 158.626693 207.537063 
L 165.154586 198.182943 
L 171.682479 199.472039 
L 178.210372 183.418125 
L 184.738265 181.685747 
L 191.266158 180.375173 
L 197.794051 190.411623 
L 204.321944 192.265846 
L 210.849837 188.355498 
L 217.37773 182.386988 
L 223.905622 200.678873 
L 230.433515 200.577572 
L 236.961408 195.53364 
L 243.489301 210.394353 
L 250.017194 219.806502 
L 256.545087 217.884985 
L 263.07298 236.843998 
L 269.600873 254.059947 
L 276.128766 253.751443 
L 282.656659 255.915739 
L 289.184552 242.230377 
L 295.712445 230.7483 
L 302.240338 224.991233 
L 308.768231 246.221355 
L 315.296124 239.390621 
L 321.824016 219.808558 
L 328.351909 251.353167 
L 334.879802 258.352496 
L 341.407695 246.63805 
L 347.935588 251.784428 
L 354.463481 258.426532 
L 360.991374 254.898722 
L 367.519267 254.468988 
L 374.04716 222.238955 
" clip-path="url(#pc4c04770ab)" style="fill: none; stroke: #9467bd"/>
   </g>
   <g id="line2d_19">
    <path d="M 54.180406 216.454029 
L 60.708299 226.19936 
L 67.236192 220.437926 
L 73.764085 233.079579 
L 80.291978 226.186936 
L 86.819871 215.388249 
L 93.347764 227.578266 
L 99.875657 234.758635 
L 106.40355 239.777719 
L 112.931443 240.656841 
L 119.459336 230.807749 
L 125.987228 225.434896 
L 132.515121 239.193404 
L 139.043014 214.260581 
L 145.570907 232.023933 
L 152.0988 218.927316 
L 158.626693 217.373858 
L 165.154586 221.054912 
L 171.682479 189.980893 
L 178.210372 200.331104 
L 184.738265 209.981156 
L 191.266158 211.675413 
L 197.794051 213.995668 
L 204.321944 208.148791 
L 210.849837 209.491612 
L 217.37773 192.362674 
L 223.905622 188.765154 
L 230.433515 188.362918 
L 236.961408 202.259087 
L 243.489301 227.194561 
L 250.017194 235.848649 
L 256.545087 232.484176 
L 263.07298 211.019204 
L 269.600873 240.961252 
L 276.128766 240.889019 
L 282.656659 220.323904 
L 289.184552 227.868621 
L 295.712445 209.210246 
L 302.240338 212.437185 
L 308.768231 219.43645 
L 315.296124 226.360471 
L 321.824016 205.271827 
L 328.351909 228.596364 
L 334.879802 229.922139 
L 341.407695 239.180853 
L 347.935588 251.057575 
L 354.463481 268.397384 
L 360.991374 239.270175 
L 367.519267 235.237917 
L 374.04716 216.454029 
" clip-path="url(#pc4c04770ab)" style="fill: none; stroke: #8c564b"/>
   </g>
   <g id="line2d_20"/>
   <g id="line2d_21"/>
   <g id="line2d_22"/>
   <g id="line2d_23"/>
   <g id="line2d_24"/>
   <g id="line2d_25"/>
   <g id="line2d_26">
    <path d="M 54.180406 260.373143 
L 374.04716 260.373143 
" clip-path="url(#pc4c04770ab)" style="fill: none; stroke-dasharray: 3.7,1.6; stroke-dashoffset: 0; stroke: #a9a9a9"/>
   </g>
   <g id="patch_3">
    <path d="M 54.180406 335.96 
L 54.180406 24.72 
" style="fill: none; stroke: #000000; stroke-width: 0.8; stroke-linejoin: miter; stroke-linecap: square"/>
   </g>
   <g id="patch_4">
    <path d="M 54.180406 335.96 
L 374.04716 335.96 
" style="fill: none; stroke: #000000; stroke-width: 0.8; stroke-linejoin: miter; stroke-linecap: square"/>
   </g>
   <g id="text_10">
    <!-- x = 0 -->
    <g transform="translate(200.605189 18.72) scale(0.1 -0.1)">
     <defs>
      <path id="DejaVuSans-78" d="M 3513 3500 
L 2247 1797 
L 3578 0 
L 2900 0 
L 1881 1375 
L 863 0 
L 184 0 
L 1544 1831 
L 300 3500 
L 978 3500 
L 1906 2253 
L 2834 3500 
L 3513 3500 
z
" transform="scale(0.015625)"/>
      <path id="DejaVuSans-20" transform="scale(0.015625)"/>
      <path id="DejaVuSans-3d" d="M 678 2906 
L 4684 2906 
L 4684 2381 
L 678 2381 
L 678 2906 
z
M 678 1631 
L 4684 1631 
L 4684 1100 
L 678 1100 
L 678 1631 
z
" transform="scale(0.015625)"/>
     </defs>
     <use xlink:href="#DejaVuSans-78"/>
     <use xlink:href="#DejaVuSans-20" x="59.179688"/>
     <use xlink:href="#DejaVuSans-3d" x="90.966797"/>
     <use xlink:href="#DejaVuSans-20" x="174.755859"/>
     <use xlink:href="#DejaVuSans-30" x="206.542969"/>
    </g>
   </g>
  </g>
  <g id="axes_2">
   <g id="patch_5">
    <path d="M 391.380746 335.96 
L 711.2475 335.96 
L 711.2475 24.72 
L 391.380746 24.72 
z
" style="fill: #ffffff"/>
   </g>
   <g id="matplotlib.axis_3">
    <g id="xtick_6">
     <g id="line2d_27">
      <g>
       <use xlink:href="#madbab46046" x="391.380746" y="335.96" style="stroke: #000000; stroke-width: 0.8"/>
      </g>
     </g>
    </g>
    <g id="xtick_7">
     <g id="line2d_28">
      <g>
       <use xlink:href="#madbab46046" x="471.347435" y="335.96" style="stroke: #000000; stroke-width: 0.8"/>
      </g>
     </g>
    </g>
    <g id="xtick_8">
     <g id="line2d_29">
      <g>
       <use xlink:href="#madbab46046" x="551.314123" y="335.96" style="stroke: #000000; stroke-width: 0.8"/>
      </g>
     </g>
    </g>
    <g id="xtick_9">
     <g id="line2d_30">
      <g>
       <use xlink:href="#madbab46046" x="631.280812" y="335.96" style="stroke: #000000; stroke-width: 0.8"/>
      </g>
     </g>
    </g>
    <g id="xtick_10">
     <g id="line2d_31">
      <g>
       <use xlink:href="#madbab46046" x="711.2475" y="335.96" style="stroke: #000000; stroke-width: 0.8"/>
      </g>
     </g>
    </g>
   </g>
   <g id="matplotlib.axis_4">
    <g id="ytick_9">
     <g id="line2d_32">
      <g>
       <use xlink:href="#m50d47fb36b" x="391.380746" y="335.96" style="stroke: #000000; stroke-width: 0.8"/>
      </g>
     </g>
    </g>
    <g id="ytick_10">
     <g id="line2d_33">
      <g>
       <use xlink:href="#m50d47fb36b" x="391.380746" y="291.497143" style="stroke: #000000; stroke-width: 0.8"/>
      </g>
     </g>
    </g>
    <g id="ytick_11">
     <g id="line2d_34">
      <g>
       <use xlink:href="#m50d47fb36b" x="391.380746" y="247.034286" style="stroke: #000000; stroke-width: 0.8"/>
      </g>
     </g>
    </g>
    <g id="ytick_12">
     <g id="line2d_35">
      <g>
       <use xlink:href="#m50d47fb36b" x="391.380746" y="202.571429" style="stroke: #000000; stroke-width: 0.8"/>
      </g>
     </g>
    </g>
    <g id="ytick_13">
     <g id="line2d_36">
      <g>
       <use xlink:href="#m50d47fb36b" x="391.380746" y="158.108571" style="stroke: #000000; stroke-width: 0.8"/>
      </g>
     </g>
    </g>
    <g id="ytick_14">
     <g id="line2d_37">
      <g>
       <use xlink:href="#m50d47fb36b" x="391.380746" y="113.645714" style="stroke: #000000; stroke-width: 0.8"/>
      </g>
     </g>
    </g>
    <g id="ytick_15">
     <g id="line2d_38">
      <g>
       <use xlink:href="#m50d47fb36b" x="391.380746" y="69.182857" style="stroke: #000000; stroke-width: 0.8"/>
      </g>
     </g>
    </g>
    <g id="ytick_16">
     <g id="line2d_39">
      <g>
       <use xlink:href="#m50d47fb36b" x="391.380746" y="24.72" style="stroke: #000000; stroke-width: 0.8"/>
      </g>
     </g>
    </g>
   </g>
   <g id="line2d_40">
    <path d="M 391.380746 203.260373 
L 397.908639 219.486825 
L 404.436532 229.94527 
L 410.964425 206.412279 
L 417.492318 226.118349 
L 424.020211 196.802574 
L 430.548104 209.652765 
L 437.075997 193.493734 
L 443.60389 217.666821 
L 450.131783 211.88692 
L 456.659676 218.392804 
L 463.187569 215.93775 
L 469.715462 203.694283 
L 476.243354 214.150587 
L 482.771247 217.83249 
L 489.29914 219.005083 
L 495.827033 222.416051 
L 502.354926 201.151498 
L 508.882819 213.176843 
L 515.410712 194.509054 
L 521.938605 205.87041 
L 528.466498 221.065322 
L 534.994391 213.207628 
L 541.522284 214.268956 
L 548.050177 209.053906 
L 554.57807 208.973319 
L 561.105963 214.823482 
L 567.633856 233.702099 
L 574.161748 212.171529 
L 580.689641 207.120856 
L 587.217534 206.578584 
L 593.745427 197.965669 
L 600.27332 197.825951 
L 606.801213 227.414315 
L 613.329106 208.018168 
L 619.856999 214.087576 
L 626.384892 215.129653 
L 632.912785 205.514415 
L 639.440678 219.732317 
L 645.968571 238.567641 
L 652.496464 204.342648 
L 659.024357 217.978632 
L 665.552249 197.834962 
L 672.080142 202.016733 
L 678.608035 194.483189 
L 685.135928 225.948737 
L 691.663821 206.243451 
L 698.191714 217.593082 
L 704.719607 216.713154 
L 711.2475 203.260373 
" clip-path="url(#p63452e8247)" style="fill: none; stroke: #1f77b4"/>
   </g>
   <g id="line2d_41">
    <path d="M 391.380746 184.968127 
L 397.908639 210.775959 
L 404.436532 187.915057 
L 410.964425 184.884296 
L 417.492318 209.970194 
L 424.020211 196.468649 
L 430.548104 179.242884 
L 437.075997 183.257629 
L 443.60389 177.655333 
L 450.131783 184.055952 
L 456.659676 206.055775 
L 463.187569 206.574598 
L 469.715462 187.261159 
L 476.243354 207.92344 
L 482.771247 191.618161 
L 489.29914 186.620066 
L 495.827033 207.669127 
L 502.354926 202.992958 
L 508.882819 175.471087 
L 515.410712 190.626755 
L 521.938605 172.388362 
L 528.466498 181.394162 
L 534.994391 200.315054 
L 541.522284 206.002644 
L 548.050177 192.951568 
L 554.57807 201.503592 
L 561.105963 198.663306 
L 567.633856 183.121833 
L 574.161748 199.942437 
L 580.689641 205.332717 
L 587.217534 176.601617 
L 593.745427 189.39997 
L 600.27332 168.730714 
L 606.801213 180.599443 
L 613.329106 196.724849 
L 619.856999 210.267037 
L 626.384892 198.512096 
L 632.912785 193.402991 
L 639.440678 205.243332 
L 645.968571 182.020137 
L 652.496464 192.696217 
L 659.024357 205.434442 
L 665.552249 183.535284 
L 672.080142 186.770046 
L 678.608035 172.145159 
L 685.135928 181.498367 
L 691.663821 190.056921 
L 698.191714 210.740977 
L 704.719607 206.122008 
L 711.2475 184.968106 
" clip-path="url(#p63452e8247)" style="fill: none; stroke: #ff7f0e"/>
   </g>
   <g id="line2d_42">
    <path d="M 391.380746 208.297393 
L 397.908639 236.522858 
L 404.436532 236.640018 
L 410.964425 229.54401 
L 417.492318 216.889678 
L 424.020211 199.597446 
L 430.548104 226.928121 
L 437.075997 234.272102 
L 443.60389 241.196526 
L 450.131783 248.728035 
L 456.659676 237.261986 
L 463.187569 229.673212 
L 469.715462 214.24309 
L 476.243354 246.061156 
L 482.771247 242.38307 
L 489.29914 226.255036 
L 495.827033 220.956516 
L 502.354926 194.145681 
L 508.882819 220.034121 
L 515.410712 225.055049 
L 521.938605 230.890159 
L 528.466498 248.962969 
L 534.994391 238.196508 
L 541.522284 230.665338 
L 548.050177 205.700479 
L 554.57807 226.475892 
L 561.105963 241.882268 
L 567.633856 241.443715 
L 574.161748 226.663208 
L 580.689641 210.805959 
L 587.217534 217.626983 
L 593.745427 220.494916 
L 600.27332 232.969734 
L 606.801213 246.343794 
L 613.329106 244.740024 
L 619.856999 239.970356 
L 626.384892 225.524091 
L 632.912785 208.923283 
L 639.440678 237.855078 
L 645.968571 232.473215 
L 652.496464 237.447521 
L 659.024357 220.692959 
L 665.552249 210.597039 
L 672.080142 230.364764 
L 678.608035 234.213119 
L 685.135928 234.499637 
L 691.663821 245.228572 
L 698.191714 241.619369 
L 704.719607 224.017573 
L 711.2475 208.297393 
" clip-path="url(#p63452e8247)" style="fill: none; stroke: #2ca02c"/>
   </g>
   <g id="line2d_43">
    <path d="M 391.380746 197.030766 
L 397.908639 202.549782 
L 404.436532 207.457154 
L 410.964425 209.854264 
L 417.492318 218.671011 
L 424.020211 207.830641 
L 430.548104 204.412295 
L 437.075997 195.079249 
L 443.60389 184.712755 
L 450.131783 183.195106 
L 456.659676 177.147196 
L 463.187569 180.360375 
L 469.715462 186.571706 
L 476.243354 173.113051 
L 482.771247 186.383903 
L 489.29914 174.430494 
L 495.827033 189.893839 
L 502.354926 185.529671 
L 508.882819 195.220642 
L 515.410712 186.521501 
L 521.938605 176.546111 
L 528.466498 190.799739 
L 534.994391 179.662717 
L 541.522284 188.259836 
L 548.050177 187.861692 
L 554.57807 183.86058 
L 561.105963 201.390651 
L 567.633856 206.67556 
L 574.161748 221.065386 
L 580.689641 223.94358 
L 587.217534 220.992028 
L 593.745427 216.137045 
L 600.27332 206.352787 
L 606.801213 223.156515 
L 613.329106 208.397846 
L 619.856999 214.467593 
L 626.384892 204.182513 
L 632.912785 202.63056 
L 639.440678 199.789511 
L 645.968571 192.00634 
L 652.496464 193.319351 
L 659.024357 200.654661 
L 665.552249 190.409482 
L 672.080142 201.801049 
L 678.608035 199.841412 
L 685.135928 203.280133 
L 691.663821 203.14951 
L 698.191714 206.886006 
L 704.719607 210.083283 
L 711.2475 197.030766 
" clip-path="url(#p63452e8247)" style="fill: none; stroke: #d62728"/>
   </g>
   <g id="line2d_44">
    <path d="M 391.380746 209.307095 
L 397.908639 201.926032 
L 404.436532 175.104385 
L 410.964425 181.189652 
L 417.492318 185.988155 
L 424.020211 207.414667 
L 430.548104 203.280048 
L 437.075997 203.879627 
L 443.60389 205.08343 
L 450.131783 204.411786 
L 456.659676 197.057183 
L 463.187569 204.737124 
L 469.715462 204.345298 
L 476.243354 212.194936 
L 482.771247 197.580988 
L 489.29914 200.409062 
L 495.827033 207.98344 
L 502.354926 217.458897 
L 508.882819 209.875508 
L 515.410712 228.359416 
L 521.938605 215.442737 
L 528.466498 222.80794 
L 534.994391 207.388228 
L 541.522284 215.773057 
L 548.050177 210.135397 
L 554.57807 208.69471 
L 561.105963 201.062939 
L 567.633856 193.026473 
L 574.161748 198.89701 
L 580.689641 187.336106 
L 587.217534 178.48143 
L 593.745427 178.270899 
L 600.27332 169.262979 
L 606.801213 189.277849 
L 613.329106 196.306818 
L 619.856999 209.723493 
L 626.384892 202.921869 
L 632.912785 224.534721 
L 639.440678 209.422643 
L 645.968571 218.110972 
L 652.496464 224.651923 
L 659.024357 229.703721 
L 665.552249 202.490545 
L 672.080142 229.102594 
L 678.608035 237.250049 
L 685.135928 244.052755 
L 691.663821 227.542775 
L 698.191714 214.082827 
L 704.719607 209.025411 
L 711.2475 209.307095 
" clip-path="url(#p63452e8247)" style="fill: none; stroke: #9467bd"/>
   </g>
   <g id="line2d_45">
    <path d="M 391.380746 216.096147 
L 397.908639 218.186195 
L 404.436532 209.933155 
L 410.964425 210.101623 
L 417.492318 219.22736 
L 424.020211 222.754831 
L 430.548104 213.229147 
L 437.075997 219.673017 
L 443.60389 213.636832 
L 450.131783 232.740715 
L 456.659676 208.197597 
L 463.187569 217.454933 
L 469.715462 216.455004 
L 476.243354 240.395595 
L 482.771247 226.855739 
L 489.29914 215.393973 
L 495.827033 204.762099 
L 502.354926 226.040603 
L 508.882819 211.627307 
L 515.410712 208.979171 
L 521.938605 224.827069 
L 528.466498 208.286516 
L 534.994391 219.978743 
L 541.522284 217.948632 
L 548.050177 210.776616 
L 554.57807 225.417447 
L 561.105963 215.253025 
L 567.633856 216.868053 
L 574.161748 219.096165 
L 580.689641 200.67406 
L 587.217534 194.700928 
L 593.745427 187.974251 
L 600.27332 198.907166 
L 606.801213 207.769029 
L 613.329106 201.684017 
L 619.856999 202.90213 
L 626.384892 176.310223 
L 632.912785 204.772764 
L 639.440678 209.46316 
L 645.968571 233.756057 
L 652.496464 226.845859 
L 659.024357 215.272001 
L 665.552249 211.703018 
L 672.080142 215.933828 
L 678.608035 229.773114 
L 685.135928 217.430572 
L 691.663821 227.364555 
L 698.191714 229.341874 
L 704.719607 217.173206 
L 711.2475 216.096147 
" clip-path="url(#p63452e8247)" style="fill: none; stroke: #8c564b"/>
   </g>
   <g id="line2d_46">
    <path d="M 391.380746 303.057486 
L 711.2475 303.057486 
" clip-path="url(#p63452e8247)" style="fill: none; stroke-dasharray: 3.7,1.6; stroke-dashoffset: 0; stroke: #a9a9a9"/>
   </g>
   <g id="patch_6">
    <path d="M 391.380746 335.96 
L 391.380746 24.72 
" style="fill: none; stroke: #000000; stroke-width: 0.8; stroke-linejoin: miter; stroke-linecap: square"/>
   </g>
   <g id="patch_7">
    <path d="M 391.380746 335.96 
L 711.2475 335.96 
" style="fill: none; stroke: #000000; stroke-width: 0.8; stroke-linejoin: miter; stroke-linecap: square"/>
   </g>
   <g id="text_11">
    <!-- x = 1 -->
    <g transform="translate(537.805529 18.72) scale(0.1 -0.1)">
     <use xlink:href="#DejaVuSans-78"/>
     <use xlink:href="#DejaVuSans-20" x="59.179688"/>
     <use xlink:href="#DejaVuSans-3d" x="90.966797"/>
     <use xlink:href="#DejaVuSans-20" x="174.755859"/>
     <use xlink:href="#DejaVuSans-31" x="206.542969"/>
    </g>
   </g>
  </g>
  <g id="axes_3">
   <g id="patch_8">
    <path d="M 54.180406 678.04 
L 374.04716 678.04 
L 374.04716 366.8 
L 54.180406 366.8 
z
" style="fill: #ffffff"/>
   </g>
   <g id="matplotlib.axis_5">
    <g id="xtick_11">
     <g id="line2d_47">
      <g>
       <use xlink:href="#madbab46046" x="54.180406" y="678.04" style="stroke: #000000; stroke-width: 0.8"/>
      </g>
     </g>
     <g id="text_12">
      <!-- 0 -->
      <g transform="translate(50.999156 692.638438) scale(0.1 -0.1)">
       <use xlink:href="#DejaVuSans-30"/>
      </g>
     </g>
    </g>
    <g id="xtick_12">
     <g id="line2d_48">
      <g>
       <use xlink:href="#madbab46046" x="134.147095" y="678.04" style="stroke: #000000; stroke-width: 0.8"/>
      </g>
     </g>
     <g id="text_13">
      <!-- $\frac{\pi}{2}$ -->
      <g transform="translate(131.247095 693.44) scale(0.1 -0.1)">
       <defs>
        <path id="DejaVuSans-Oblique-3c0" d="M 584 3500 
L 3938 3500 
L 3825 2925 
L 3384 2925 
L 2966 775 
Q 2922 550 2981 450 
Q 3038 353 3209 353 
Q 3256 353 3325 363 
Q 3397 369 3419 372 
L 3338 -44 
Q 3222 -84 3103 -103 
Q 2981 -122 2866 -122 
Q 2491 -122 2388 81 
Q 2284 288 2391 838 
L 2797 2925 
L 1506 2925 
L 938 0 
L 350 0 
L 919 2925 
L 472 2925 
L 584 3500 
z
" transform="scale(0.015625)"/>
        <path id="DejaVuSans-32" d="M 1228 531 
L 3431 531 
L 3431 0 
L 469 0 
L 469 531 
Q 828 903 1448 1529 
Q 2069 2156 2228 2338 
Q 2531 2678 2651 2914 
Q 2772 3150 2772 3378 
Q 2772 3750 2511 3984 
Q 2250 4219 1831 4219 
Q 1534 4219 1204 4116 
Q 875 4013 500 3803 
L 500 4441 
Q 881 4594 1212 4672 
Q 1544 4750 1819 4750 
Q 2544 4750 2975 4387 
Q 3406 4025 3406 3419 
Q 3406 3131 3298 2873 
Q 3191 2616 2906 2266 
Q 2828 2175 2409 1742 
Q 1991 1309 1228 531 
z
" transform="scale(0.015625)"/>
       </defs>
       <use xlink:href="#DejaVuSans-Oblique-3c0" transform="translate(1 45.71875) scale(0.7)"/>
       <use xlink:href="#DejaVuSans-32" transform="translate(0 -38.81875) scale(0.7)"/>
       <path d="M 0 19.384375 
L 0 25.634375 
L 44.536133 25.634375 
L 44.536133 19.384375 
L 0 19.384375 
z
"/>
      </g>
     </g>
    </g>
    <g id="xtick_13">
     <g id="line2d_49">
      <g>
       <use xlink:href="#madbab46046" x="214.113783" y="678.04" style="stroke: #000000; stroke-width: 0.8"/>
      </g>
     </g>
     <g id="text_14">
      <!-- $\pi$ -->
      <g transform="translate(211.063783 692.638438) scale(0.1 -0.1)">
       <use xlink:href="#DejaVuSans-Oblique-3c0" transform="translate(0 0.3125)"/>
      </g>
     </g>
    </g>
    <g id="xtick_14">
     <g id="line2d_50">
      <g>
       <use xlink:href="#madbab46046" x="294.080471" y="678.04" style="stroke: #000000; stroke-width: 0.8"/>
      </g>
     </g>
     <g id="text_15">
      <!-- $\frac{3\pi}{2}$ -->
      <g transform="translate(289.080471 694.84) scale(0.1 -0.1)">
       <use xlink:href="#DejaVuSans-33" transform="translate(0 46.046875) scale(0.7)"/>
       <use xlink:href="#DejaVuSans-Oblique-3c0" transform="translate(44.536133 46.046875) scale(0.7)"/>
       <use xlink:href="#DejaVuSans-32" transform="translate(21 -38.490625) scale(0.7)"/>
       <path d="M 0 19.7125 
L 0 25.9625 
L 86.679688 25.9625 
L 86.679688 19.7125 
L 0 19.7125 
z
"/>
      </g>
     </g>
    </g>
    <g id="xtick_15">
     <g id="line2d_51">
      <g>
       <use xlink:href="#madbab46046" x="374.04716" y="678.04" style="stroke: #000000; stroke-width: 0.8"/>
      </g>
     </g>
     <g id="text_16">
      <!-- $2\pi$ -->
      <g transform="translate(367.84716 692.638438) scale(0.1 -0.1)">
       <use xlink:href="#DejaVuSans-32" transform="translate(0 0.78125)"/>
       <use xlink:href="#DejaVuSans-Oblique-3c0" transform="translate(63.623047 0.78125)"/>
      </g>
     </g>
    </g>
    <g id="text_17">
     <!-- theta -->
     <g transform="translate(200.884096 710.438437) scale(0.1 -0.1)">
      <defs>
       <path id="DejaVuSans-65" d="M 3597 1894 
L 3597 1613 
L 953 1613 
Q 991 1019 1311 708 
Q 1631 397 2203 397 
Q 2534 397 2845 478 
Q 3156 559 3463 722 
L 3463 178 
Q 3153 47 2828 -22 
Q 2503 -91 2169 -91 
Q 1331 -91 842 396 
Q 353 884 353 1716 
Q 353 2575 817 3079 
Q 1281 3584 2069 3584 
Q 2775 3584 3186 3129 
Q 3597 2675 3597 1894 
z
M 3022 2063 
Q 3016 2534 2758 2815 
Q 2500 3097 2075 3097 
Q 1594 3097 1305 2825 
Q 1016 2553 972 2059 
L 3022 2063 
z
" transform="scale(0.015625)"/>
      </defs>
      <use xlink:href="#DejaVuSans-74"/>
      <use xlink:href="#DejaVuSans-68" x="39.208984"/>
      <use xlink:href="#DejaVuSans-65" x="102.587891"/>
      <use xlink:href="#DejaVuSans-74" x="164.111328"/>
      <use xlink:href="#DejaVuSans-61" x="203.320312"/>
     </g>
    </g>
   </g>
   <g id="matplotlib.axis_6">
    <g id="ytick_17">
     <g id="line2d_52">
      <g>
       <use xlink:href="#m50d47fb36b" x="54.180406" y="678.04" style="stroke: #000000; stroke-width: 0.8"/>
      </g>
     </g>
     <g id="text_18">
      <!-- 3 -->
      <g transform="translate(40.817906 681.839219) scale(0.1 -0.1)">
       <use xlink:href="#DejaVuSans-33"/>
      </g>
     </g>
    </g>
    <g id="ytick_18">
     <g id="line2d_53">
      <g>
       <use xlink:href="#m50d47fb36b" x="54.180406" y="633.577143" style="stroke: #000000; stroke-width: 0.8"/>
      </g>
     </g>
     <g id="text_19">
      <!-- 4 -->
      <g transform="translate(40.817906 637.376362) scale(0.1 -0.1)">
       <use xlink:href="#DejaVuSans-34"/>
      </g>
     </g>
    </g>
    <g id="ytick_19">
     <g id="line2d_54">
      <g>
       <use xlink:href="#m50d47fb36b" x="54.180406" y="589.114286" style="stroke: #000000; stroke-width: 0.8"/>
      </g>
     </g>
     <g id="text_20">
      <!-- 5 -->
      <g transform="translate(40.817906 592.913504) scale(0.1 -0.1)">
       <use xlink:href="#DejaVuSans-35"/>
      </g>
     </g>
    </g>
    <g id="ytick_20">
     <g id="line2d_55">
      <g>
       <use xlink:href="#m50d47fb36b" x="54.180406" y="544.651429" style="stroke: #000000; stroke-width: 0.8"/>
      </g>
     </g>
     <g id="text_21">
      <!-- 6 -->
      <g transform="translate(40.817906 548.450647) scale(0.1 -0.1)">
       <use xlink:href="#DejaVuSans-36"/>
      </g>
     </g>
    </g>
    <g id="ytick_21">
     <g id="line2d_56">
      <g>
       <use xlink:href="#m50d47fb36b" x="54.180406" y="500.188571" style="stroke: #000000; stroke-width: 0.8"/>
      </g>
     </g>
     <g id="text_22">
      <!-- 7 -->
      <g transform="translate(40.817906 503.98779) scale(0.1 -0.1)">
       <use xlink:href="#DejaVuSans-37"/>
      </g>
     </g>
    </g>
    <g id="ytick_22">
     <g id="line2d_57">
      <g>
       <use xlink:href="#m50d47fb36b" x="54.180406" y="455.725714" style="stroke: #000000; stroke-width: 0.8"/>
      </g>
     </g>
     <g id="text_23">
      <!-- 8 -->
      <g transform="translate(40.817906 459.524933) scale(0.1 -0.1)">
       <use xlink:href="#DejaVuSans-38"/>
      </g>
     </g>
    </g>
    <g id="ytick_23">
     <g id="line2d_58">
      <g>
       <use xlink:href="#m50d47fb36b" x="54.180406" y="411.262857" style="stroke: #000000; stroke-width: 0.8"/>
      </g>
     </g>
     <g id="text_24">
      <!-- 9 -->
      <g transform="translate(40.817906 415.062076) scale(0.1 -0.1)">
       <use xlink:href="#DejaVuSans-39"/>
      </g>
     </g>
    </g>
    <g id="ytick_24">
     <g id="line2d_59">
      <g>
       <use xlink:href="#m50d47fb36b" x="54.180406" y="366.8" style="stroke: #000000; stroke-width: 0.8"/>
      </g>
     </g>
     <g id="text_25">
      <!-- 10 -->
      <g transform="translate(34.455406 370.599219) scale(0.1 -0.1)">
       <use xlink:href="#DejaVuSans-31"/>
       <use xlink:href="#DejaVuSans-30" x="63.623047"/>
      </g>
     </g>
    </g>
    <g id="text_26">
     <!-- y_hat -->
     <g transform="translate(28.097594 536.072344) rotate(-90) scale(0.1 -0.1)">
      <use xlink:href="#DejaVuSans-79"/>
      <use xlink:href="#DejaVuSans-5f" x="59.179688"/>
      <use xlink:href="#DejaVuSans-68" x="109.179688"/>
      <use xlink:href="#DejaVuSans-61" x="172.558594"/>
      <use xlink:href="#DejaVuSans-74" x="233.837891"/>
     </g>
    </g>
   </g>
   <g id="line2d_60">
    <path d="M 54.180406 413.947736 
L 60.708299 422.766644 
L 67.236192 424.066172 
L 73.764085 418.365204 
L 80.291978 433.040233 
L 86.819871 421.539414 
L 93.347764 434.794704 
L 99.875657 427.476101 
L 106.40355 418.771171 
L 112.931443 422.662121 
L 119.459336 416.450154 
L 125.987228 420.04055 
L 132.515121 418.159931 
L 139.043014 424.076857 
L 145.570907 420.62673 
L 152.0988 418.976318 
L 158.626693 437.400415 
L 165.154586 421.44511 
L 171.682479 440.555035 
L 178.210372 417.26688 
L 184.738265 424.544012 
L 191.266158 425.009471 
L 197.794051 422.307589 
L 204.321944 413.279251 
L 210.849837 423.715922 
L 217.37773 422.224733 
L 223.905622 418.806069 
L 230.433515 422.471943 
L 236.961408 432.269091 
L 243.489301 421.71403 
L 250.017194 433.851998 
L 256.545087 413.298544 
L 263.07298 430.500119 
L 269.600873 422.224139 
L 276.128766 423.647441 
L 282.656659 407.91471 
L 289.184552 426.369847 
L 295.712445 414.980293 
L 302.240338 419.470822 
L 308.768231 424.997259 
L 315.296124 421.979643 
L 321.824016 425.285345 
L 328.351909 424.202837 
L 334.879802 420.402672 
L 341.407695 433.073308 
L 347.935588 417.998163 
L 354.463481 422.554205 
L 360.991374 409.811654 
L 367.519267 424.988609 
L 374.04716 413.947693 
" clip-path="url(#pe64503a421)" style="fill: none; stroke: #1f77b4"/>
   </g>
   <g id="line2d_61">
    <path d="M 54.180406 445.893499 
L 60.708299 447.484548 
L 67.236192 440.423967 
L 73.764085 462.671361 
L 80.291978 461.745193 
L 86.819871 451.354804 
L 93.347764 444.831683 
L 99.875657 444.112061 
L 106.40355 436.225511 
L 112.931443 432.793278 
L 119.459336 434.225866 
L 125.987228 456.426171 
L 132.515121 454.634598 
L 139.043014 450.055362 
L 145.570907 436.151009 
L 152.0988 458.366515 
L 158.626693 468.343812 
L 165.154586 450.745726 
L 171.682479 439.033443 
L 178.210372 438.238894 
L 184.738265 442.991389 
L 191.266158 437.170336 
L 197.794051 433.871631 
L 204.321944 444.699683 
L 210.849837 458.336281 
L 217.37773 441.814789 
L 223.905622 438.937612 
L 230.433515 453.22813 
L 236.961408 475.510697 
L 243.489301 453.508881 
L 250.017194 446.123493 
L 256.545087 436.672058 
L 263.07298 446.940304 
L 269.600873 440.722867 
L 276.128766 427.960641 
L 282.656659 443.200055 
L 289.184552 463.165463 
L 295.712445 441.488709 
L 302.240338 442.41352 
L 308.768231 448.487296 
L 315.296124 470.477133 
L 321.824016 459.222018 
L 328.351909 450.915212 
L 334.879802 443.748836 
L 341.407695 448.311365 
L 347.935588 435.597521 
L 354.463481 428.850257 
L 360.991374 439.584471 
L 367.519267 465.708927 
L 374.04716 445.893541 
" clip-path="url(#pe64503a421)" style="fill: none; stroke: #ff7f0e"/>
   </g>
   <g id="line2d_62">
    <path d="M 54.180406 487.519335 
L 60.708299 497.91583 
L 67.236192 494.53236 
L 73.764085 502.25216 
L 80.291978 478.168607 
L 86.819871 499.936231 
L 93.347764 489.370124 
L 99.875657 485.824314 
L 106.40355 484.324835 
L 112.931443 464.996131 
L 119.459336 480.356945 
L 125.987228 459.232322 
L 132.515121 489.014617 
L 139.043014 493.453605 
L 145.570907 484.207018 
L 152.0988 505.125351 
L 158.626693 476.110637 
L 165.154586 497.473396 
L 171.682479 498.353514 
L 178.210372 486.672843 
L 184.738265 473.880171 
L 191.266158 459.75388 
L 197.794051 477.47485 
L 204.321944 463.955051 
L 210.849837 496.221275 
L 217.37773 475.732592 
L 223.905622 488.6406 
L 230.433515 501.016237 
L 236.961408 485.947771 
L 243.489301 483.595269 
L 250.017194 483.768274 
L 256.545087 475.922812 
L 263.07298 465.009106 
L 269.600873 470.360418 
L 276.128766 478.687239 
L 282.656659 464.83483 
L 289.184552 491.842245 
L 295.712445 473.381087 
L 302.240338 486.216607 
L 308.768231 483.227041 
L 315.296124 498.494695 
L 321.824016 469.912006 
L 328.351909 487.203856 
L 334.879802 482.926276 
L 341.407695 480.707619 
L 347.935588 484.148841 
L 354.463481 477.130664 
L 360.991374 482.278632 
L 367.519267 478.502277 
L 374.04716 487.519335 
" clip-path="url(#pe64503a421)" style="fill: none; stroke: #2ca02c"/>
   </g>
   <g id="line2d_63">
    <path d="M 54.180406 464.586666 
L 60.708299 469.284779 
L 67.236192 479.310204 
L 73.764085 484.055449 
L 80.291978 482.435778 
L 86.819871 488.1917 
L 93.347764 470.15911 
L 99.875657 469.534724 
L 106.40355 473.492586 
L 112.931443 484.694781 
L 119.459336 487.600177 
L 125.987228 481.029034 
L 132.515121 489.501065 
L 139.043014 489.1943 
L 145.570907 489.690246 
L 152.0988 503.976566 
L 158.626693 503.881202 
L 165.154586 500.416043 
L 171.682479 492.811389 
L 178.210372 478.184911 
L 184.738265 483.475904 
L 191.266158 484.20581 
L 197.794051 501.942469 
L 204.321944 499.943142 
L 210.849837 499.967545 
L 217.37773 492.36834 
L 223.905622 495.420239 
L 230.433515 499.229944 
L 236.961408 496.07297 
L 243.489301 495.714961 
L 250.017194 497.745709 
L 256.545087 482.812953 
L 263.07298 479.773691 
L 269.600873 496.053698 
L 276.128766 498.450575 
L 282.656659 490.4743 
L 289.184552 492.073617 
L 295.712445 495.167855 
L 302.240338 496.06432 
L 308.768231 501.850878 
L 315.296124 496.503425 
L 321.824016 488.43626 
L 328.351909 490.614379 
L 334.879802 478.011991 
L 341.407695 481.26611 
L 347.935588 467.499461 
L 354.463481 481.317948 
L 360.991374 478.596815 
L 367.519267 478.10002 
L 374.04716 464.586666 
" clip-path="url(#pe64503a421)" style="fill: none; stroke: #d62728"/>
   </g>
   <g id="line2d_64">
    <path d="M 54.180406 486.454827 
L 60.708299 504.620648 
L 67.236192 479.178564 
L 73.764085 491.845913 
L 80.291978 492.428362 
L 86.819871 495.945422 
L 93.347764 480.014986 
L 99.875657 482.75626 
L 106.40355 471.595514 
L 112.931443 484.81546 
L 119.459336 488.166428 
L 125.987228 489.805413 
L 132.515121 495.21963 
L 139.043014 499.31263 
L 145.570907 491.101018 
L 152.0988 515.593633 
L 158.626693 503.679851 
L 165.154586 499.130572 
L 171.682479 493.948851 
L 178.210372 492.162791 
L 184.738265 501.035721 
L 191.266158 501.386692 
L 197.794051 498.967426 
L 204.321944 488.810594 
L 210.849837 483.7938 
L 217.37773 485.640942 
L 223.905622 490.067209 
L 230.433515 486.80126 
L 236.961408 471.547047 
L 243.489301 505.668598 
L 250.017194 479.979579 
L 256.545087 474.857032 
L 263.07298 472.384169 
L 269.600873 481.798884 
L 276.128766 487.82538 
L 282.656659 489.198434 
L 289.184552 479.391448 
L 295.712445 480.711965 
L 302.240338 481.368492 
L 308.768231 472.314501 
L 315.296124 449.899997 
L 321.824016 462.251591 
L 328.351909 476.180305 
L 334.879802 462.094085 
L 341.407695 483.364575 
L 347.935588 487.045226 
L 354.463481 493.537202 
L 360.991374 489.227204 
L 367.519267 487.911776 
L 374.04716 486.454827 
" clip-path="url(#pe64503a421)" style="fill: none; stroke: #9467bd"/>
   </g>
   <g id="line2d_65">
    <path d="M 54.180406 500.997453 
L 60.708299 494.313285 
L 67.236192 490.998402 
L 73.764085 495.969846 
L 80.291978 491.539508 
L 86.819871 493.306636 
L 93.347764 488.781484 
L 99.875657 483.05764 
L 106.40355 469.17027 
L 112.931443 476.718019 
L 119.459336 471.350891 
L 125.987228 477.081858 
L 132.515121 473.23204 
L 139.043014 475.271586 
L 145.570907 495.627102 
L 152.0988 488.408104 
L 158.626693 504.125804 
L 165.154586 492.467415 
L 171.682479 492.644723 
L 178.210372 494.412593 
L 184.738265 502.145919 
L 191.266158 492.599225 
L 197.794051 506.524038 
L 204.321944 490.183564 
L 210.849837 487.749499 
L 217.37773 477.540193 
L 223.905622 494.885451 
L 230.433515 502.411214 
L 236.961408 488.78388 
L 243.489301 484.374214 
L 250.017194 499.961376 
L 256.545087 497.641588 
L 263.07298 496.078504 
L 269.600873 493.618786 
L 276.128766 495.60113 
L 282.656659 478.582716 
L 289.184552 497.432371 
L 295.712445 477.704484 
L 302.240338 493.28501 
L 308.768231 486.514637 
L 315.296124 493.996894 
L 321.824016 485.529359 
L 328.351909 478.555366 
L 334.879802 481.066264 
L 341.407695 506.601487 
L 347.935588 515.399024 
L 354.463481 501.18551 
L 360.991374 494.164492 
L 367.519267 507.762738 
L 374.04716 500.997431 
" clip-path="url(#pe64503a421)" style="fill: none; stroke: #8c564b"/>
   </g>
   <g id="line2d_66">
    <path d="M 54.180406 366.8 
L 374.04716 366.8 
" clip-path="url(#pe64503a421)" style="fill: none; stroke-dasharray: 3.7,1.6; stroke-dashoffset: 0; stroke: #a9a9a9"/>
   </g>
   <g id="patch_9">
    <path d="M 54.180406 678.04 
L 54.180406 366.8 
" style="fill: none; stroke: #000000; stroke-width: 0.8; stroke-linejoin: miter; stroke-linecap: square"/>
   </g>
   <g id="patch_10">
    <path d="M 54.180406 678.04 
L 374.04716 678.04 
" style="fill: none; stroke: #000000; stroke-width: 0.8; stroke-linejoin: miter; stroke-linecap: square"/>
   </g>
   <g id="text_27">
    <!-- x = 2 -->
    <g transform="translate(200.605189 360.8) scale(0.1 -0.1)">
     <use xlink:href="#DejaVuSans-78"/>
     <use xlink:href="#DejaVuSans-20" x="59.179688"/>
     <use xlink:href="#DejaVuSans-3d" x="90.966797"/>
     <use xlink:href="#DejaVuSans-20" x="174.755859"/>
     <use xlink:href="#DejaVuSans-32" x="206.542969"/>
    </g>
   </g>
  </g>
  <g id="axes_4">
   <g id="patch_11">
    <path d="M 391.380746 678.04 
L 711.2475 678.04 
L 711.2475 366.8 
L 391.380746 366.8 
z
" style="fill: #ffffff"/>
   </g>
   <g id="matplotlib.axis_7">
    <g id="xtick_16">
     <g id="line2d_67">
      <g>
       <use xlink:href="#madbab46046" x="391.380746" y="678.04" style="stroke: #000000; stroke-width: 0.8"/>
      </g>
     </g>
     <g id="text_28">
      <!-- 0 -->
      <g transform="translate(388.199496 692.638438) scale(0.1 -0.1)">
       <use xlink:href="#DejaVuSans-30"/>
      </g>
     </g>
    </g>
    <g id="xtick_17">
     <g id="line2d_68">
      <g>
       <use xlink:href="#madbab46046" x="471.347435" y="678.04" style="stroke: #000000; stroke-width: 0.8"/>
      </g>
     </g>
     <g id="text_29">
      <!-- $\frac{\pi}{2}$ -->
      <g transform="translate(468.447435 693.44) scale(0.1 -0.1)">
       <use xlink:href="#DejaVuSans-Oblique-3c0" transform="translate(1 45.71875) scale(0.7)"/>
       <use xlink:href="#DejaVuSans-32" transform="translate(0 -38.81875) scale(0.7)"/>
       <path d="M 0 19.384375 
L 0 25.634375 
L 44.536133 25.634375 
L 44.536133 19.384375 
L 0 19.384375 
z
"/>
      </g>
     </g>
    </g>
    <g id="xtick_18">
     <g id="line2d_69">
      <g>
       <use xlink:href="#madbab46046" x="551.314123" y="678.04" style="stroke: #000000; stroke-width: 0.8"/>
      </g>
     </g>
     <g id="text_30">
      <!-- $\pi$ -->
      <g transform="translate(548.264123 692.638438) scale(0.1 -0.1)">
       <use xlink:href="#DejaVuSans-Oblique-3c0" transform="translate(0 0.3125)"/>
      </g>
     </g>
    </g>
    <g id="xtick_19">
     <g id="line2d_70">
      <g>
       <use xlink:href="#madbab46046" x="631.280812" y="678.04" style="stroke: #000000; stroke-width: 0.8"/>
      </g>
     </g>
     <g id="text_31">
      <!-- $\frac{3\pi}{2}$ -->
      <g transform="translate(626.280812 694.84) scale(0.1 -0.1)">
       <use xlink:href="#DejaVuSans-33" transform="translate(0 46.046875) scale(0.7)"/>
       <use xlink:href="#DejaVuSans-Oblique-3c0" transform="translate(44.536133 46.046875) scale(0.7)"/>
       <use xlink:href="#DejaVuSans-32" transform="translate(21 -38.490625) scale(0.7)"/>
       <path d="M 0 19.7125 
L 0 25.9625 
L 86.679688 25.9625 
L 86.679688 19.7125 
L 0 19.7125 
z
"/>
      </g>
     </g>
    </g>
    <g id="xtick_20">
     <g id="line2d_71">
      <g>
       <use xlink:href="#madbab46046" x="711.2475" y="678.04" style="stroke: #000000; stroke-width: 0.8"/>
      </g>
     </g>
     <g id="text_32">
      <!-- $2\pi$ -->
      <g transform="translate(705.0475 692.638438) scale(0.1 -0.1)">
       <use xlink:href="#DejaVuSans-32" transform="translate(0 0.78125)"/>
       <use xlink:href="#DejaVuSans-Oblique-3c0" transform="translate(63.623047 0.78125)"/>
      </g>
     </g>
    </g>
    <g id="text_33">
     <!-- theta -->
     <g transform="translate(538.084436 710.438437) scale(0.1 -0.1)">
      <use xlink:href="#DejaVuSans-74"/>
      <use xlink:href="#DejaVuSans-68" x="39.208984"/>
      <use xlink:href="#DejaVuSans-65" x="102.587891"/>
      <use xlink:href="#DejaVuSans-74" x="164.111328"/>
      <use xlink:href="#DejaVuSans-61" x="203.320312"/>
     </g>
    </g>
   </g>
   <g id="matplotlib.axis_8">
    <g id="ytick_25">
     <g id="line2d_72">
      <g>
       <use xlink:href="#m50d47fb36b" x="391.380746" y="678.04" style="stroke: #000000; stroke-width: 0.8"/>
      </g>
     </g>
    </g>
    <g id="ytick_26">
     <g id="line2d_73">
      <g>
       <use xlink:href="#m50d47fb36b" x="391.380746" y="633.577143" style="stroke: #000000; stroke-width: 0.8"/>
      </g>
     </g>
    </g>
    <g id="ytick_27">
     <g id="line2d_74">
      <g>
       <use xlink:href="#m50d47fb36b" x="391.380746" y="589.114286" style="stroke: #000000; stroke-width: 0.8"/>
      </g>
     </g>
    </g>
    <g id="ytick_28">
     <g id="line2d_75">
      <g>
       <use xlink:href="#m50d47fb36b" x="391.380746" y="544.651429" style="stroke: #000000; stroke-width: 0.8"/>
      </g>
     </g>
    </g>
    <g id="ytick_29">
     <g id="line2d_76">
      <g>
       <use xlink:href="#m50d47fb36b" x="391.380746" y="500.188571" style="stroke: #000000; stroke-width: 0.8"/>
      </g>
     </g>
    </g>
    <g id="ytick_30">
     <g id="line2d_77">
      <g>
       <use xlink:href="#m50d47fb36b" x="391.380746" y="455.725714" style="stroke: #000000; stroke-width: 0.8"/>
      </g>
     </g>
    </g>
    <g id="ytick_31">
     <g id="line2d_78">
      <g>
       <use xlink:href="#m50d47fb36b" x="391.380746" y="411.262857" style="stroke: #000000; stroke-width: 0.8"/>
      </g>
     </g>
    </g>
    <g id="ytick_32">
     <g id="line2d_79">
      <g>
       <use xlink:href="#m50d47fb36b" x="391.380746" y="366.8" style="stroke: #000000; stroke-width: 0.8"/>
      </g>
     </g>
    </g>
   </g>
   <g id="line2d_80">
    <path d="M 391.380746 626.102348 
L 397.908639 627.148242 
L 404.436532 630.569004 
L 410.964425 627.562689 
L 417.492318 623.632559 
L 424.020211 635.027975 
L 430.548104 616.699485 
L 437.075997 620.808026 
L 443.60389 618.88034 
L 450.131783 621.268757 
L 456.659676 620.587551 
L 463.187569 620.788754 
L 469.715462 622.877806 
L 476.243354 622.535655 
L 482.771247 630.627796 
L 489.29914 627.536442 
L 495.827033 624.033756 
L 502.354926 631.622191 
L 508.882819 623.670659 
L 515.410712 622.162699 
L 521.938605 616.741655 
L 528.466498 621.516942 
L 534.994391 626.375276 
L 541.522284 613.476872 
L 548.050177 619.425304 
L 554.57807 622.116501 
L 561.105963 631.066287 
L 567.633856 628.178658 
L 574.161748 625.019501 
L 580.689641 626.397262 
L 587.217534 630.693245 
L 593.745427 621.088841 
L 600.27332 615.969962 
L 606.801213 621.296446 
L 613.329106 625.938736 
L 619.856999 609.527873 
L 626.384892 619.490668 
L 632.912785 625.106067 
L 639.440678 630.563089 
L 645.968571 630.123094 
L 652.496464 626.950495 
L 659.024357 623.517287 
L 665.552249 635.08594 
L 672.080142 616.921105 
L 678.608035 618.659186 
L 685.135928 621.056063 
L 691.663821 623.357024 
L 698.191714 613.060092 
L 704.719607 623.14009 
L 711.2475 626.102348 
" clip-path="url(#p306e7b09c6)" style="fill: none; stroke: #1f77b4"/>
   </g>
   <g id="line2d_81">
    <path d="M 391.380746 508.198387 
L 397.908639 518.913986 
L 404.436532 526.550039 
L 410.964425 522.529294 
L 417.492318 516.176146 
L 424.020211 515.132563 
L 430.548104 517.892368 
L 437.075997 512.412745 
L 443.60389 521.451302 
L 450.131783 550.044465 
L 456.659676 531.057593 
L 463.187569 520.95421 
L 469.715462 509.75458 
L 476.243354 515.98071 
L 482.771247 526.227288 
L 489.29914 525.86665 
L 495.827033 515.948144 
L 502.354926 511.387523 
L 508.882819 512.927773 
L 515.410712 511.468004 
L 521.938605 518.045062 
L 528.466498 541.375833 
L 534.994391 538.717371 
L 541.522284 524.64207 
L 548.050177 511.400816 
L 554.57807 519.11998 
L 561.105963 524.594388 
L 567.633856 528.811459 
L 574.161748 518.484421 
L 580.689641 511.920996 
L 587.217534 513.088735 
L 593.745427 513.351316 
L 600.27332 517.494373 
L 606.801213 531.537999 
L 613.329106 547.251353 
L 619.856999 525.595631 
L 626.384892 512.034361 
L 632.912785 512.878797 
L 639.440678 520.328171 
L 645.968571 527.59871 
L 652.496464 522.160896 
L 659.024357 515.74639 
L 665.552249 514.57314 
L 672.080142 521.284445 
L 678.608035 516.351801 
L 685.135928 524.763788 
L 691.663821 554.400534 
L 698.191714 525.173147 
L 704.719607 515.472657 
L 711.2475 508.198366 
" clip-path="url(#p306e7b09c6)" style="fill: none; stroke: #ff7f0e"/>
   </g>
   <g id="line2d_82">
    <path d="M 391.380746 514.955721 
L 397.908639 518.619305 
L 404.436532 527.326079 
L 410.964425 510.565624 
L 417.492318 501.771139 
L 424.020211 508.802758 
L 430.548104 502.653548 
L 437.075997 506.552808 
L 443.60389 509.191764 
L 450.131783 514.96963 
L 456.659676 515.885875 
L 463.187569 516.118223 
L 469.715462 512.894656 
L 476.243354 518.054136 
L 482.771247 528.392708 
L 489.29914 510.765258 
L 495.827033 501.980441 
L 502.354926 507.742427 
L 508.882819 505.023265 
L 515.410712 508.555336 
L 521.938605 507.101546 
L 528.466498 511.811554 
L 534.994391 512.739673 
L 541.522284 508.759698 
L 548.050177 509.184004 
L 554.57807 512.329677 
L 561.105963 537.081715 
L 567.633856 518.022228 
L 574.161748 508.666093 
L 580.689641 508.726963 
L 587.217534 510.348775 
L 593.745427 510.669745 
L 600.27332 505.247556 
L 606.801213 507.921516 
L 613.329106 515.140705 
L 619.856999 506.695961 
L 626.384892 507.89406 
L 632.912785 513.192877 
L 639.440678 519.701899 
L 645.968571 525.008454 
L 652.496464 510.045656 
L 659.024357 506.102487 
L 665.552249 512.465791 
L 672.080142 499.75835 
L 678.608035 506.155873 
L 685.135928 510.105678 
L 691.663821 515.532615 
L 698.191714 511.313678 
L 704.719607 506.901467 
L 711.2475 514.955743 
" clip-path="url(#p306e7b09c6)" style="fill: none; stroke: #2ca02c"/>
   </g>
   <g id="line2d_83">
    <path d="M 391.380746 530.550728 
L 397.908639 523.631159 
L 404.436532 525.922558 
L 410.964425 535.05014 
L 417.492318 539.939407 
L 424.020211 539.887251 
L 430.548104 540.915696 
L 437.075997 530.413215 
L 443.60389 529.559937 
L 450.131783 528.155335 
L 456.659676 530.912553 
L 463.187569 541.56336 
L 469.715462 547.976615 
L 476.243354 548.978621 
L 482.771247 562.32442 
L 489.29914 561.709808 
L 495.827033 556.518038 
L 502.354926 563.068085 
L 508.882819 553.518062 
L 515.410712 556.572653 
L 521.938605 562.881554 
L 528.466498 554.645878 
L 534.994391 558.908766 
L 541.522284 552.114774 
L 548.050177 553.493701 
L 554.57807 548.97173 
L 561.105963 553.182781 
L 567.633856 560.88564 
L 574.161748 571.902386 
L 580.689641 569.815709 
L 587.217534 563.821227 
L 593.745427 566.468749 
L 600.27332 560.838743 
L 606.801213 556.082495 
L 613.329106 571.051398 
L 619.856999 560.764325 
L 626.384892 551.87613 
L 632.912785 546.937018 
L 639.440678 554.93829 
L 645.968571 534.431077 
L 652.496464 542.094374 
L 659.024357 530.233934 
L 665.552249 538.084272 
L 672.080142 542.477571 
L 678.608035 538.292726 
L 685.135928 539.757879 
L 691.663821 538.117686 
L 698.191714 531.549745 
L 704.719607 537.493533 
L 711.2475 530.550749 
" clip-path="url(#p306e7b09c6)" style="fill: none; stroke: #d62728"/>
   </g>
   <g id="line2d_84">
    <path d="M 391.380746 543.974103 
L 397.908639 533.258101 
L 404.436532 538.103841 
L 410.964425 537.9923 
L 417.492318 544.839931 
L 424.020211 551.628051 
L 430.548104 555.794811 
L 437.075997 539.209777 
L 443.60389 539.113289 
L 450.131783 555.827334 
L 456.659676 552.973013 
L 463.187569 547.451537 
L 469.715462 535.150996 
L 476.243354 546.643377 
L 482.771247 541.052594 
L 489.29914 537.433045 
L 495.827033 535.806315 
L 502.354926 534.103046 
L 508.882819 550.217067 
L 515.410712 535.166219 
L 521.938605 520.431083 
L 528.466498 539.091409 
L 534.994391 547.937752 
L 541.522284 527.823149 
L 548.050177 538.254605 
L 554.57807 533.960848 
L 561.105963 518.469114 
L 567.633856 531.457772 
L 574.161748 519.252108 
L 580.689641 533.226808 
L 587.217534 528.869022 
L 593.745427 531.664254 
L 600.27332 542.884662 
L 606.801213 534.983356 
L 613.329106 524.491412 
L 619.856999 541.898302 
L 626.384892 544.130146 
L 632.912785 537.2452 
L 639.440678 529.733239 
L 645.968571 533.517417 
L 652.496464 534.096474 
L 659.024357 523.521357 
L 665.552249 541.292277 
L 672.080142 538.631145 
L 678.608035 555.71098 
L 685.135928 539.118377 
L 691.663821 551.533195 
L 698.191714 551.953727 
L 704.719607 544.128938 
L 711.2475 543.974082 
" clip-path="url(#p306e7b09c6)" style="fill: none; stroke: #9467bd"/>
   </g>
   <g id="line2d_85">
    <path d="M 391.380746 533.522485 
L 397.908639 525.691186 
L 404.436532 521.233604 
L 410.964425 522.512078 
L 417.492318 524.698297 
L 424.020211 546.462888 
L 430.548104 537.085277 
L 437.075997 528.761254 
L 443.60389 535.570638 
L 450.131783 535.521239 
L 456.659676 528.711812 
L 463.187569 523.880956 
L 469.715462 524.397171 
L 476.243354 534.967709 
L 482.771247 517.236626 
L 489.29914 515.50588 
L 495.827033 525.119338 
L 502.354926 526.099676 
L 508.882819 539.144794 
L 515.410712 519.639333 
L 521.938605 524.399885 
L 528.466498 528.049942 
L 534.994391 525.156356 
L 541.522284 525.423729 
L 548.050177 505.994423 
L 554.57807 512.865228 
L 561.105963 512.691799 
L 567.633856 504.972233 
L 574.161748 525.995937 
L 580.689641 514.158607 
L 587.217534 539.563016 
L 593.745427 525.487439 
L 600.27332 502.739838 
L 606.801213 509.305277 
L 613.329106 506.617982 
L 619.856999 508.993742 
L 626.384892 516.193976 
L 632.912785 510.010737 
L 639.440678 513.676399 
L 645.968571 519.960918 
L 652.496464 524.410507 
L 659.024357 529.259194 
L 665.552249 533.335445 
L 672.080142 542.141124 
L 678.608035 541.837984 
L 685.135928 532.788784 
L 691.663821 540.458654 
L 698.191714 534.345168 
L 704.719607 535.892859 
L 711.2475 533.522506 
" clip-path="url(#p306e7b09c6)" style="fill: none; stroke: #8c564b"/>
   </g>
   <g id="line2d_86">
    <path d="M 391.380746 469.953829 
L 711.2475 469.953829 
" clip-path="url(#p306e7b09c6)" style="fill: none; stroke-dasharray: 3.7,1.6; stroke-dashoffset: 0; stroke: #a9a9a9"/>
   </g>
   <g id="patch_12">
    <path d="M 391.380746 678.04 
L 391.380746 366.8 
" style="fill: none; stroke: #000000; stroke-width: 0.8; stroke-linejoin: miter; stroke-linecap: square"/>
   </g>
   <g id="patch_13">
    <path d="M 391.380746 678.04 
L 711.2475 678.04 
" style="fill: none; stroke: #000000; stroke-width: 0.8; stroke-linejoin: miter; stroke-linecap: square"/>
   </g>
   <g id="text_34">
    <!-- x = 3 -->
    <g transform="translate(537.805529 360.8) scale(0.1 -0.1)">
     <use xlink:href="#DejaVuSans-78"/>
     <use xlink:href="#DejaVuSans-20" x="59.179688"/>
     <use xlink:href="#DejaVuSans-3d" x="90.966797"/>
     <use xlink:href="#DejaVuSans-20" x="174.755859"/>
     <use xlink:href="#DejaVuSans-33" x="206.542969"/>
    </g>
   </g>
  </g>
  <g id="legend_1">
   <g id="text_35">
    <!-- name -->
    <g transform="translate(778.404688 317.890625) scale(0.1 -0.1)">
     <defs>
      <path id="DejaVuSans-6e" d="M 3513 2113 
L 3513 0 
L 2938 0 
L 2938 2094 
Q 2938 2591 2744 2837 
Q 2550 3084 2163 3084 
Q 1697 3084 1428 2787 
Q 1159 2491 1159 1978 
L 1159 0 
L 581 0 
L 581 3500 
L 1159 3500 
L 1159 2956 
Q 1366 3272 1645 3428 
Q 1925 3584 2291 3584 
Q 2894 3584 3203 3211 
Q 3513 2838 3513 2113 
z
" transform="scale(0.015625)"/>
      <path id="DejaVuSans-6d" d="M 3328 2828 
Q 3544 3216 3844 3400 
Q 4144 3584 4550 3584 
Q 5097 3584 5394 3201 
Q 5691 2819 5691 2113 
L 5691 0 
L 5113 0 
L 5113 2094 
Q 5113 2597 4934 2840 
Q 4756 3084 4391 3084 
Q 3944 3084 3684 2787 
Q 3425 2491 3425 1978 
L 3425 0 
L 2847 0 
L 2847 2094 
Q 2847 2600 2669 2842 
Q 2491 3084 2119 3084 
Q 1678 3084 1418 2786 
Q 1159 2488 1159 1978 
L 1159 0 
L 581 0 
L 581 3500 
L 1159 3500 
L 1159 2956 
Q 1356 3278 1631 3431 
Q 1906 3584 2284 3584 
Q 2666 3584 2933 3390 
Q 3200 3197 3328 2828 
z
" transform="scale(0.015625)"/>
     </defs>
     <use xlink:href="#DejaVuSans-6e"/>
     <use xlink:href="#DejaVuSans-61" x="63.378906"/>
     <use xlink:href="#DejaVuSans-6d" x="124.658203"/>
     <use xlink:href="#DejaVuSans-65" x="222.070312"/>
    </g>
   </g>
   <g id="line2d_87">
    <path d="M 718.91875 329.06875 
L 728.91875 329.06875 
L 738.91875 329.06875 
" style="fill: none; stroke: #1f77b4"/>
   </g>
   <g id="text_36">
    <!-- lba_escnn_radius_0.5 -->
    <g transform="translate(746.91875 332.56875) scale(0.1 -0.1)">
     <defs>
      <path id="DejaVuSans-6c" d="M 603 4863 
L 1178 4863 
L 1178 0 
L 603 0 
L 603 4863 
z
" transform="scale(0.015625)"/>
      <path id="DejaVuSans-62" d="M 3116 1747 
Q 3116 2381 2855 2742 
Q 2594 3103 2138 3103 
Q 1681 3103 1420 2742 
Q 1159 2381 1159 1747 
Q 1159 1113 1420 752 
Q 1681 391 2138 391 
Q 2594 391 2855 752 
Q 3116 1113 3116 1747 
z
M 1159 2969 
Q 1341 3281 1617 3432 
Q 1894 3584 2278 3584 
Q 2916 3584 3314 3078 
Q 3713 2572 3713 1747 
Q 3713 922 3314 415 
Q 2916 -91 2278 -91 
Q 1894 -91 1617 61 
Q 1341 213 1159 525 
L 1159 0 
L 581 0 
L 581 4863 
L 1159 4863 
L 1159 2969 
z
" transform="scale(0.015625)"/>
      <path id="DejaVuSans-73" d="M 2834 3397 
L 2834 2853 
Q 2591 2978 2328 3040 
Q 2066 3103 1784 3103 
Q 1356 3103 1142 2972 
Q 928 2841 928 2578 
Q 928 2378 1081 2264 
Q 1234 2150 1697 2047 
L 1894 2003 
Q 2506 1872 2764 1633 
Q 3022 1394 3022 966 
Q 3022 478 2636 193 
Q 2250 -91 1575 -91 
Q 1294 -91 989 -36 
Q 684 19 347 128 
L 347 722 
Q 666 556 975 473 
Q 1284 391 1588 391 
Q 1994 391 2212 530 
Q 2431 669 2431 922 
Q 2431 1156 2273 1281 
Q 2116 1406 1581 1522 
L 1381 1569 
Q 847 1681 609 1914 
Q 372 2147 372 2553 
Q 372 3047 722 3315 
Q 1072 3584 1716 3584 
Q 2034 3584 2315 3537 
Q 2597 3491 2834 3397 
z
" transform="scale(0.015625)"/>
      <path id="DejaVuSans-63" d="M 3122 3366 
L 3122 2828 
Q 2878 2963 2633 3030 
Q 2388 3097 2138 3097 
Q 1578 3097 1268 2742 
Q 959 2388 959 1747 
Q 959 1106 1268 751 
Q 1578 397 2138 397 
Q 2388 397 2633 464 
Q 2878 531 3122 666 
L 3122 134 
Q 2881 22 2623 -34 
Q 2366 -91 2075 -91 
Q 1284 -91 818 406 
Q 353 903 353 1747 
Q 353 2603 823 3093 
Q 1294 3584 2113 3584 
Q 2378 3584 2631 3529 
Q 2884 3475 3122 3366 
z
" transform="scale(0.015625)"/>
      <path id="DejaVuSans-72" d="M 2631 2963 
Q 2534 3019 2420 3045 
Q 2306 3072 2169 3072 
Q 1681 3072 1420 2755 
Q 1159 2438 1159 1844 
L 1159 0 
L 581 0 
L 581 3500 
L 1159 3500 
L 1159 2956 
Q 1341 3275 1631 3429 
Q 1922 3584 2338 3584 
Q 2397 3584 2469 3576 
Q 2541 3569 2628 3553 
L 2631 2963 
z
" transform="scale(0.015625)"/>
      <path id="DejaVuSans-64" d="M 2906 2969 
L 2906 4863 
L 3481 4863 
L 3481 0 
L 2906 0 
L 2906 525 
Q 2725 213 2448 61 
Q 2172 -91 1784 -91 
Q 1150 -91 751 415 
Q 353 922 353 1747 
Q 353 2572 751 3078 
Q 1150 3584 1784 3584 
Q 2172 3584 2448 3432 
Q 2725 3281 2906 2969 
z
M 947 1747 
Q 947 1113 1208 752 
Q 1469 391 1925 391 
Q 2381 391 2643 752 
Q 2906 1113 2906 1747 
Q 2906 2381 2643 2742 
Q 2381 3103 1925 3103 
Q 1469 3103 1208 2742 
Q 947 2381 947 1747 
z
" transform="scale(0.015625)"/>
      <path id="DejaVuSans-69" d="M 603 3500 
L 1178 3500 
L 1178 0 
L 603 0 
L 603 3500 
z
M 603 4863 
L 1178 4863 
L 1178 4134 
L 603 4134 
L 603 4863 
z
" transform="scale(0.015625)"/>
      <path id="DejaVuSans-75" d="M 544 1381 
L 544 3500 
L 1119 3500 
L 1119 1403 
Q 1119 906 1312 657 
Q 1506 409 1894 409 
Q 2359 409 2629 706 
Q 2900 1003 2900 1516 
L 2900 3500 
L 3475 3500 
L 3475 0 
L 2900 0 
L 2900 538 
Q 2691 219 2414 64 
Q 2138 -91 1772 -91 
Q 1169 -91 856 284 
Q 544 659 544 1381 
z
M 1991 3584 
L 1991 3584 
z
" transform="scale(0.015625)"/>
      <path id="DejaVuSans-2e" d="M 684 794 
L 1344 794 
L 1344 0 
L 684 0 
L 684 794 
z
" transform="scale(0.015625)"/>
     </defs>
     <use xlink:href="#DejaVuSans-6c"/>
     <use xlink:href="#DejaVuSans-62" x="27.783203"/>
     <use xlink:href="#DejaVuSans-61" x="91.259766"/>
     <use xlink:href="#DejaVuSans-5f" x="152.539062"/>
     <use xlink:href="#DejaVuSans-65" x="202.539062"/>
     <use xlink:href="#DejaVuSans-73" x="264.0625"/>
     <use xlink:href="#DejaVuSans-63" x="316.162109"/>
     <use xlink:href="#DejaVuSans-6e" x="371.142578"/>
     <use xlink:href="#DejaVuSans-6e" x="434.521484"/>
     <use xlink:href="#DejaVuSans-5f" x="497.900391"/>
     <use xlink:href="#DejaVuSans-72" x="547.900391"/>
     <use xlink:href="#DejaVuSans-61" x="589.013672"/>
     <use xlink:href="#DejaVuSans-64" x="650.292969"/>
     <use xlink:href="#DejaVuSans-69" x="713.769531"/>
     <use xlink:href="#DejaVuSans-75" x="741.552734"/>
     <use xlink:href="#DejaVuSans-73" x="804.931641"/>
     <use xlink:href="#DejaVuSans-5f" x="857.03125"/>
     <use xlink:href="#DejaVuSans-30" x="907.03125"/>
     <use xlink:href="#DejaVuSans-2e" x="970.654297"/>
     <use xlink:href="#DejaVuSans-35" x="1002.441406"/>
    </g>
   </g>
   <g id="line2d_88">
    <path d="M 718.91875 344.025 
L 728.91875 344.025 
L 738.91875 344.025 
" style="fill: none; stroke: #ff7f0e"/>
   </g>
   <g id="text_37">
    <!-- lba_escnn_radius_0.25 -->
    <g transform="translate(746.91875 347.525) scale(0.1 -0.1)">
     <use xlink:href="#DejaVuSans-6c"/>
     <use xlink:href="#DejaVuSans-62" x="27.783203"/>
     <use xlink:href="#DejaVuSans-61" x="91.259766"/>
     <use xlink:href="#DejaVuSans-5f" x="152.539062"/>
     <use xlink:href="#DejaVuSans-65" x="202.539062"/>
     <use xlink:href="#DejaVuSans-73" x="264.0625"/>
     <use xlink:href="#DejaVuSans-63" x="316.162109"/>
     <use xlink:href="#DejaVuSans-6e" x="371.142578"/>
     <use xlink:href="#DejaVuSans-6e" x="434.521484"/>
     <use xlink:href="#DejaVuSans-5f" x="497.900391"/>
     <use xlink:href="#DejaVuSans-72" x="547.900391"/>
     <use xlink:href="#DejaVuSans-61" x="589.013672"/>
     <use xlink:href="#DejaVuSans-64" x="650.292969"/>
     <use xlink:href="#DejaVuSans-69" x="713.769531"/>
     <use xlink:href="#DejaVuSans-75" x="741.552734"/>
     <use xlink:href="#DejaVuSans-73" x="804.931641"/>
     <use xlink:href="#DejaVuSans-5f" x="857.03125"/>
     <use xlink:href="#DejaVuSans-30" x="907.03125"/>
     <use xlink:href="#DejaVuSans-2e" x="970.654297"/>
     <use xlink:href="#DejaVuSans-32" x="1002.441406"/>
     <use xlink:href="#DejaVuSans-35" x="1066.064453"/>
    </g>
   </g>
   <g id="line2d_89">
    <path d="M 718.91875 358.98125 
L 728.91875 358.98125 
L 738.91875 358.98125 
" style="fill: none; stroke: #2ca02c"/>
   </g>
   <g id="text_38">
    <!-- lba_escnn_radius_0.001 -->
    <g transform="translate(746.91875 362.48125) scale(0.1 -0.1)">
     <use xlink:href="#DejaVuSans-6c"/>
     <use xlink:href="#DejaVuSans-62" x="27.783203"/>
     <use xlink:href="#DejaVuSans-61" x="91.259766"/>
     <use xlink:href="#DejaVuSans-5f" x="152.539062"/>
     <use xlink:href="#DejaVuSans-65" x="202.539062"/>
     <use xlink:href="#DejaVuSans-73" x="264.0625"/>
     <use xlink:href="#DejaVuSans-63" x="316.162109"/>
     <use xlink:href="#DejaVuSans-6e" x="371.142578"/>
     <use xlink:href="#DejaVuSans-6e" x="434.521484"/>
     <use xlink:href="#DejaVuSans-5f" x="497.900391"/>
     <use xlink:href="#DejaVuSans-72" x="547.900391"/>
     <use xlink:href="#DejaVuSans-61" x="589.013672"/>
     <use xlink:href="#DejaVuSans-64" x="650.292969"/>
     <use xlink:href="#DejaVuSans-69" x="713.769531"/>
     <use xlink:href="#DejaVuSans-75" x="741.552734"/>
     <use xlink:href="#DejaVuSans-73" x="804.931641"/>
     <use xlink:href="#DejaVuSans-5f" x="857.03125"/>
     <use xlink:href="#DejaVuSans-30" x="907.03125"/>
     <use xlink:href="#DejaVuSans-2e" x="970.654297"/>
     <use xlink:href="#DejaVuSans-30" x="1002.441406"/>
     <use xlink:href="#DejaVuSans-30" x="1066.064453"/>
     <use xlink:href="#DejaVuSans-31" x="1129.6875"/>
    </g>
   </g>
   <g id="line2d_90">
    <path d="M 718.91875 373.9375 
L 728.91875 373.9375 
L 738.91875 373.9375 
" style="fill: none; stroke: #d62728"/>
   </g>
   <g id="text_39">
    <!-- lba_cnn_radius_0.5 -->
    <g transform="translate(746.91875 377.4375) scale(0.1 -0.1)">
     <use xlink:href="#DejaVuSans-6c"/>
     <use xlink:href="#DejaVuSans-62" x="27.783203"/>
     <use xlink:href="#DejaVuSans-61" x="91.259766"/>
     <use xlink:href="#DejaVuSans-5f" x="152.539062"/>
     <use xlink:href="#DejaVuSans-63" x="202.539062"/>
     <use xlink:href="#DejaVuSans-6e" x="257.519531"/>
     <use xlink:href="#DejaVuSans-6e" x="320.898438"/>
     <use xlink:href="#DejaVuSans-5f" x="384.277344"/>
     <use xlink:href="#DejaVuSans-72" x="434.277344"/>
     <use xlink:href="#DejaVuSans-61" x="475.390625"/>
     <use xlink:href="#DejaVuSans-64" x="536.669922"/>
     <use xlink:href="#DejaVuSans-69" x="600.146484"/>
     <use xlink:href="#DejaVuSans-75" x="627.929688"/>
     <use xlink:href="#DejaVuSans-73" x="691.308594"/>
     <use xlink:href="#DejaVuSans-5f" x="743.408203"/>
     <use xlink:href="#DejaVuSans-30" x="793.408203"/>
     <use xlink:href="#DejaVuSans-2e" x="857.03125"/>
     <use xlink:href="#DejaVuSans-35" x="888.818359"/>
    </g>
   </g>
   <g id="line2d_91">
    <path d="M 718.91875 388.89375 
L 728.91875 388.89375 
L 738.91875 388.89375 
" style="fill: none; stroke: #9467bd"/>
   </g>
   <g id="text_40">
    <!-- lba_cnn_radius_0.25 -->
    <g transform="translate(746.91875 392.39375) scale(0.1 -0.1)">
     <use xlink:href="#DejaVuSans-6c"/>
     <use xlink:href="#DejaVuSans-62" x="27.783203"/>
     <use xlink:href="#DejaVuSans-61" x="91.259766"/>
     <use xlink:href="#DejaVuSans-5f" x="152.539062"/>
     <use xlink:href="#DejaVuSans-63" x="202.539062"/>
     <use xlink:href="#DejaVuSans-6e" x="257.519531"/>
     <use xlink:href="#DejaVuSans-6e" x="320.898438"/>
     <use xlink:href="#DejaVuSans-5f" x="384.277344"/>
     <use xlink:href="#DejaVuSans-72" x="434.277344"/>
     <use xlink:href="#DejaVuSans-61" x="475.390625"/>
     <use xlink:href="#DejaVuSans-64" x="536.669922"/>
     <use xlink:href="#DejaVuSans-69" x="600.146484"/>
     <use xlink:href="#DejaVuSans-75" x="627.929688"/>
     <use xlink:href="#DejaVuSans-73" x="691.308594"/>
     <use xlink:href="#DejaVuSans-5f" x="743.408203"/>
     <use xlink:href="#DejaVuSans-30" x="793.408203"/>
     <use xlink:href="#DejaVuSans-2e" x="857.03125"/>
     <use xlink:href="#DejaVuSans-32" x="888.818359"/>
     <use xlink:href="#DejaVuSans-35" x="952.441406"/>
    </g>
   </g>
   <g id="line2d_92">
    <path d="M 718.91875 403.85 
L 728.91875 403.85 
L 738.91875 403.85 
" style="fill: none; stroke: #8c564b"/>
   </g>
   <g id="text_41">
    <!-- lba_cnn_radius_0.001 -->
    <g transform="translate(746.91875 407.35) scale(0.1 -0.1)">
     <use xlink:href="#DejaVuSans-6c"/>
     <use xlink:href="#DejaVuSans-62" x="27.783203"/>
     <use xlink:href="#DejaVuSans-61" x="91.259766"/>
     <use xlink:href="#DejaVuSans-5f" x="152.539062"/>
     <use xlink:href="#DejaVuSans-63" x="202.539062"/>
     <use xlink:href="#DejaVuSans-6e" x="257.519531"/>
     <use xlink:href="#DejaVuSans-6e" x="320.898438"/>
     <use xlink:href="#DejaVuSans-5f" x="384.277344"/>
     <use xlink:href="#DejaVuSans-72" x="434.277344"/>
     <use xlink:href="#DejaVuSans-61" x="475.390625"/>
     <use xlink:href="#DejaVuSans-64" x="536.669922"/>
     <use xlink:href="#DejaVuSans-69" x="600.146484"/>
     <use xlink:href="#DejaVuSans-75" x="627.929688"/>
     <use xlink:href="#DejaVuSans-73" x="691.308594"/>
     <use xlink:href="#DejaVuSans-5f" x="743.408203"/>
     <use xlink:href="#DejaVuSans-30" x="793.408203"/>
     <use xlink:href="#DejaVuSans-2e" x="857.03125"/>
     <use xlink:href="#DejaVuSans-30" x="888.818359"/>
     <use xlink:href="#DejaVuSans-30" x="952.441406"/>
     <use xlink:href="#DejaVuSans-31" x="1016.064453"/>
    </g>
   </g>
  </g>
 </g>
 <defs>
  <clipPath id="pc4c04770ab">
   <rect x="54.180406" y="24.72" width="319.866754" height="311.24"/>
  </clipPath>
  <clipPath id="p63452e8247">
   <rect x="391.380746" y="24.72" width="319.866754" height="311.24"/>
  </clipPath>
  <clipPath id="pe64503a421">
   <rect x="54.180406" y="366.8" width="319.866754" height="311.24"/>
  </clipPath>
  <clipPath id="p306e7b09c6">
   <rect x="391.380746" y="366.8" width="319.866754" height="311.24"/>
  </clipPath>
 </defs>
</svg>
