<?xml version="1.0" encoding="utf-8" standalone="no"?>
<!DOCTYPE svg PUBLIC "-//W3C//DTD SVG 1.1//EN"
  "http://www.w3.org/Graphics/SVG/1.1/DTD/svg11.dtd">
<svg xmlns:xlink="http://www.w3.org/1999/xlink" width="519.03pt" height="360pt" viewBox="0 0 519.03 360" xmlns="http://www.w3.org/2000/svg" version="1.1">
 <metadata>
  <rdf:RDF xmlns:dc="http://purl.org/dc/elements/1.1/" xmlns:cc="http://creativecommons.org/ns#" xmlns:rdf="http://www.w3.org/1999/02/22-rdf-syntax-ns#">
   <cc:Work>
    <dc:type rdf:resource="http://purl.org/dc/dcmitype/StillImage"/>
    <dc:date>2024-02-22T14:39:53.012310</dc:date>
    <dc:format>image/svg+xml</dc:format>
    <dc:creator>
     <cc:Agent>
      <dc:title>Matplotlib v3.7.1, https://matplotlib.org/</dc:title>
     </cc:Agent>
    </dc:creator>
   </cc:Work>
  </rdf:RDF>
 </metadata>
 <defs>
  <style type="text/css">*{stroke-linejoin: round; stroke-linecap: butt}</style>
 </defs>
 <g id="figure_1">
  <g id="patch_1">
   <path d="M 0 360 
L 519.03 360 
L 519.03 0 
L 0 0 
L 0 360 
z
" style="fill: none"/>
  </g>
  <g id="axes_1">
   <g id="patch_2">
    <path d="M 47.72 317.93875 
L 337.7097 317.93875 
L 337.7097 14.76 
L 47.72 14.76 
z
" style="fill: #ffffff"/>
   </g>
   <g id="matplotlib.axis_1">
    <g id="xtick_1">
     <g id="line2d_1">
      <defs>
       <path id="m22e7bea3dd" d="M 0 0 
L 0 3.5 
" style="stroke: #000000; stroke-width: 0.8"/>
      </defs>
      <g>
       <use xlink:href="#m22e7bea3dd" x="47.72" y="317.93875" style="stroke: #000000; stroke-width: 0.8"/>
      </g>
     </g>
     <g id="text_1">
      <!-- 0 -->
      <g transform="translate(44.53875 332.537188) scale(0.1 -0.1)">
       <defs>
        <path id="DejaVuSans-30" d="M 2034 4250 
Q 1547 4250 1301 3770 
Q 1056 3291 1056 2328 
Q 1056 1369 1301 889 
Q 1547 409 2034 409 
Q 2525 409 2770 889 
Q 3016 1369 3016 2328 
Q 3016 3291 2770 3770 
Q 2525 4250 2034 4250 
z
M 2034 4750 
Q 2819 4750 3233 4129 
Q 3647 3509 3647 2328 
Q 3647 1150 3233 529 
Q 2819 -91 2034 -91 
Q 1250 -91 836 529 
Q 422 1150 422 2328 
Q 422 3509 836 4129 
Q 1250 4750 2034 4750 
z
" transform="scale(0.015625)"/>
       </defs>
       <use xlink:href="#DejaVuSans-30"/>
      </g>
     </g>
    </g>
    <g id="xtick_2">
     <g id="line2d_2">
      <g>
       <use xlink:href="#m22e7bea3dd" x="105.71794" y="317.93875" style="stroke: #000000; stroke-width: 0.8"/>
      </g>
     </g>
     <g id="text_2">
      <!-- 2 -->
      <g transform="translate(102.53669 332.537188) scale(0.1 -0.1)">
       <defs>
        <path id="DejaVuSans-32" d="M 1228 531 
L 3431 531 
L 3431 0 
L 469 0 
L 469 531 
Q 828 903 1448 1529 
Q 2069 2156 2228 2338 
Q 2531 2678 2651 2914 
Q 2772 3150 2772 3378 
Q 2772 3750 2511 3984 
Q 2250 4219 1831 4219 
Q 1534 4219 1204 4116 
Q 875 4013 500 3803 
L 500 4441 
Q 881 4594 1212 4672 
Q 1544 4750 1819 4750 
Q 2544 4750 2975 4387 
Q 3406 4025 3406 3419 
Q 3406 3131 3298 2873 
Q 3191 2616 2906 2266 
Q 2828 2175 2409 1742 
Q 1991 1309 1228 531 
z
" transform="scale(0.015625)"/>
       </defs>
       <use xlink:href="#DejaVuSans-32"/>
      </g>
     </g>
    </g>
    <g id="xtick_3">
     <g id="line2d_3">
      <g>
       <use xlink:href="#m22e7bea3dd" x="163.71588" y="317.93875" style="stroke: #000000; stroke-width: 0.8"/>
      </g>
     </g>
     <g id="text_3">
      <!-- 4 -->
      <g transform="translate(160.53463 332.537188) scale(0.1 -0.1)">
       <defs>
        <path id="DejaVuSans-34" d="M 2419 4116 
L 825 1625 
L 2419 1625 
L 2419 4116 
z
M 2253 4666 
L 3047 4666 
L 3047 1625 
L 3713 1625 
L 3713 1100 
L 3047 1100 
L 3047 0 
L 2419 0 
L 2419 1100 
L 313 1100 
L 313 1709 
L 2253 4666 
z
" transform="scale(0.015625)"/>
       </defs>
       <use xlink:href="#DejaVuSans-34"/>
      </g>
     </g>
    </g>
    <g id="xtick_4">
     <g id="line2d_4">
      <g>
       <use xlink:href="#m22e7bea3dd" x="221.71382" y="317.93875" style="stroke: #000000; stroke-width: 0.8"/>
      </g>
     </g>
     <g id="text_4">
      <!-- 6 -->
      <g transform="translate(218.53257 332.537188) scale(0.1 -0.1)">
       <defs>
        <path id="DejaVuSans-36" d="M 2113 2584 
Q 1688 2584 1439 2293 
Q 1191 2003 1191 1497 
Q 1191 994 1439 701 
Q 1688 409 2113 409 
Q 2538 409 2786 701 
Q 3034 994 3034 1497 
Q 3034 2003 2786 2293 
Q 2538 2584 2113 2584 
z
M 3366 4563 
L 3366 3988 
Q 3128 4100 2886 4159 
Q 2644 4219 2406 4219 
Q 1781 4219 1451 3797 
Q 1122 3375 1075 2522 
Q 1259 2794 1537 2939 
Q 1816 3084 2150 3084 
Q 2853 3084 3261 2657 
Q 3669 2231 3669 1497 
Q 3669 778 3244 343 
Q 2819 -91 2113 -91 
Q 1303 -91 875 529 
Q 447 1150 447 2328 
Q 447 3434 972 4092 
Q 1497 4750 2381 4750 
Q 2619 4750 2861 4703 
Q 3103 4656 3366 4563 
z
" transform="scale(0.015625)"/>
       </defs>
       <use xlink:href="#DejaVuSans-36"/>
      </g>
     </g>
    </g>
    <g id="xtick_5">
     <g id="line2d_5">
      <g>
       <use xlink:href="#m22e7bea3dd" x="279.71176" y="317.93875" style="stroke: #000000; stroke-width: 0.8"/>
      </g>
     </g>
     <g id="text_5">
      <!-- 8 -->
      <g transform="translate(276.53051 332.537188) scale(0.1 -0.1)">
       <defs>
        <path id="DejaVuSans-38" d="M 2034 2216 
Q 1584 2216 1326 1975 
Q 1069 1734 1069 1313 
Q 1069 891 1326 650 
Q 1584 409 2034 409 
Q 2484 409 2743 651 
Q 3003 894 3003 1313 
Q 3003 1734 2745 1975 
Q 2488 2216 2034 2216 
z
M 1403 2484 
Q 997 2584 770 2862 
Q 544 3141 544 3541 
Q 544 4100 942 4425 
Q 1341 4750 2034 4750 
Q 2731 4750 3128 4425 
Q 3525 4100 3525 3541 
Q 3525 3141 3298 2862 
Q 3072 2584 2669 2484 
Q 3125 2378 3379 2068 
Q 3634 1759 3634 1313 
Q 3634 634 3220 271 
Q 2806 -91 2034 -91 
Q 1263 -91 848 271 
Q 434 634 434 1313 
Q 434 1759 690 2068 
Q 947 2378 1403 2484 
z
M 1172 3481 
Q 1172 3119 1398 2916 
Q 1625 2713 2034 2713 
Q 2441 2713 2670 2916 
Q 2900 3119 2900 3481 
Q 2900 3844 2670 4047 
Q 2441 4250 2034 4250 
Q 1625 4250 1398 4047 
Q 1172 3844 1172 3481 
z
" transform="scale(0.015625)"/>
       </defs>
       <use xlink:href="#DejaVuSans-38"/>
      </g>
     </g>
    </g>
    <g id="xtick_6">
     <g id="line2d_6">
      <g>
       <use xlink:href="#m22e7bea3dd" x="337.7097" y="317.93875" style="stroke: #000000; stroke-width: 0.8"/>
      </g>
     </g>
     <g id="text_6">
      <!-- 10 -->
      <g transform="translate(331.3472 332.537188) scale(0.1 -0.1)">
       <defs>
        <path id="DejaVuSans-31" d="M 794 531 
L 1825 531 
L 1825 4091 
L 703 3866 
L 703 4441 
L 1819 4666 
L 2450 4666 
L 2450 531 
L 3481 531 
L 3481 0 
L 794 0 
L 794 531 
z
" transform="scale(0.015625)"/>
       </defs>
       <use xlink:href="#DejaVuSans-31"/>
       <use xlink:href="#DejaVuSans-30" x="63.623047"/>
      </g>
     </g>
    </g>
    <g id="text_7">
     <!-- resolution_A -->
     <g transform="translate(161.975787 346.215312) scale(0.1 -0.1)">
      <defs>
       <path id="DejaVuSans-72" d="M 2631 2963 
Q 2534 3019 2420 3045 
Q 2306 3072 2169 3072 
Q 1681 3072 1420 2755 
Q 1159 2438 1159 1844 
L 1159 0 
L 581 0 
L 581 3500 
L 1159 3500 
L 1159 2956 
Q 1341 3275 1631 3429 
Q 1922 3584 2338 3584 
Q 2397 3584 2469 3576 
Q 2541 3569 2628 3553 
L 2631 2963 
z
" transform="scale(0.015625)"/>
       <path id="DejaVuSans-65" d="M 3597 1894 
L 3597 1613 
L 953 1613 
Q 991 1019 1311 708 
Q 1631 397 2203 397 
Q 2534 397 2845 478 
Q 3156 559 3463 722 
L 3463 178 
Q 3153 47 2828 -22 
Q 2503 -91 2169 -91 
Q 1331 -91 842 396 
Q 353 884 353 1716 
Q 353 2575 817 3079 
Q 1281 3584 2069 3584 
Q 2775 3584 3186 3129 
Q 3597 2675 3597 1894 
z
M 3022 2063 
Q 3016 2534 2758 2815 
Q 2500 3097 2075 3097 
Q 1594 3097 1305 2825 
Q 1016 2553 972 2059 
L 3022 2063 
z
" transform="scale(0.015625)"/>
       <path id="DejaVuSans-73" d="M 2834 3397 
L 2834 2853 
Q 2591 2978 2328 3040 
Q 2066 3103 1784 3103 
Q 1356 3103 1142 2972 
Q 928 2841 928 2578 
Q 928 2378 1081 2264 
Q 1234 2150 1697 2047 
L 1894 2003 
Q 2506 1872 2764 1633 
Q 3022 1394 3022 966 
Q 3022 478 2636 193 
Q 2250 -91 1575 -91 
Q 1294 -91 989 -36 
Q 684 19 347 128 
L 347 722 
Q 666 556 975 473 
Q 1284 391 1588 391 
Q 1994 391 2212 530 
Q 2431 669 2431 922 
Q 2431 1156 2273 1281 
Q 2116 1406 1581 1522 
L 1381 1569 
Q 847 1681 609 1914 
Q 372 2147 372 2553 
Q 372 3047 722 3315 
Q 1072 3584 1716 3584 
Q 2034 3584 2315 3537 
Q 2597 3491 2834 3397 
z
" transform="scale(0.015625)"/>
       <path id="DejaVuSans-6f" d="M 1959 3097 
Q 1497 3097 1228 2736 
Q 959 2375 959 1747 
Q 959 1119 1226 758 
Q 1494 397 1959 397 
Q 2419 397 2687 759 
Q 2956 1122 2956 1747 
Q 2956 2369 2687 2733 
Q 2419 3097 1959 3097 
z
M 1959 3584 
Q 2709 3584 3137 3096 
Q 3566 2609 3566 1747 
Q 3566 888 3137 398 
Q 2709 -91 1959 -91 
Q 1206 -91 779 398 
Q 353 888 353 1747 
Q 353 2609 779 3096 
Q 1206 3584 1959 3584 
z
" transform="scale(0.015625)"/>
       <path id="DejaVuSans-6c" d="M 603 4863 
L 1178 4863 
L 1178 0 
L 603 0 
L 603 4863 
z
" transform="scale(0.015625)"/>
       <path id="DejaVuSans-75" d="M 544 1381 
L 544 3500 
L 1119 3500 
L 1119 1403 
Q 1119 906 1312 657 
Q 1506 409 1894 409 
Q 2359 409 2629 706 
Q 2900 1003 2900 1516 
L 2900 3500 
L 3475 3500 
L 3475 0 
L 2900 0 
L 2900 538 
Q 2691 219 2414 64 
Q 2138 -91 1772 -91 
Q 1169 -91 856 284 
Q 544 659 544 1381 
z
M 1991 3584 
L 1991 3584 
z
" transform="scale(0.015625)"/>
       <path id="DejaVuSans-74" d="M 1172 4494 
L 1172 3500 
L 2356 3500 
L 2356 3053 
L 1172 3053 
L 1172 1153 
Q 1172 725 1289 603 
Q 1406 481 1766 481 
L 2356 481 
L 2356 0 
L 1766 0 
Q 1100 0 847 248 
Q 594 497 594 1153 
L 594 3053 
L 172 3053 
L 172 3500 
L 594 3500 
L 594 4494 
L 1172 4494 
z
" transform="scale(0.015625)"/>
       <path id="DejaVuSans-69" d="M 603 3500 
L 1178 3500 
L 1178 0 
L 603 0 
L 603 3500 
z
M 603 4863 
L 1178 4863 
L 1178 4134 
L 603 4134 
L 603 4863 
z
" transform="scale(0.015625)"/>
       <path id="DejaVuSans-6e" d="M 3513 2113 
L 3513 0 
L 2938 0 
L 2938 2094 
Q 2938 2591 2744 2837 
Q 2550 3084 2163 3084 
Q 1697 3084 1428 2787 
Q 1159 2491 1159 1978 
L 1159 0 
L 581 0 
L 581 3500 
L 1159 3500 
L 1159 2956 
Q 1366 3272 1645 3428 
Q 1925 3584 2291 3584 
Q 2894 3584 3203 3211 
Q 3513 2838 3513 2113 
z
" transform="scale(0.015625)"/>
       <path id="DejaVuSans-5f" d="M 3263 -1063 
L 3263 -1509 
L -63 -1509 
L -63 -1063 
L 3263 -1063 
z
" transform="scale(0.015625)"/>
       <path id="DejaVuSans-41" d="M 2188 4044 
L 1331 1722 
L 3047 1722 
L 2188 4044 
z
M 1831 4666 
L 2547 4666 
L 4325 0 
L 3669 0 
L 3244 1197 
L 1141 1197 
L 716 0 
L 50 0 
L 1831 4666 
z
" transform="scale(0.015625)"/>
      </defs>
      <use xlink:href="#DejaVuSans-72"/>
      <use xlink:href="#DejaVuSans-65" x="38.863281"/>
      <use xlink:href="#DejaVuSans-73" x="100.386719"/>
      <use xlink:href="#DejaVuSans-6f" x="152.486328"/>
      <use xlink:href="#DejaVuSans-6c" x="213.667969"/>
      <use xlink:href="#DejaVuSans-75" x="241.451172"/>
      <use xlink:href="#DejaVuSans-74" x="304.830078"/>
      <use xlink:href="#DejaVuSans-69" x="344.039062"/>
      <use xlink:href="#DejaVuSans-6f" x="371.822266"/>
      <use xlink:href="#DejaVuSans-6e" x="433.003906"/>
      <use xlink:href="#DejaVuSans-5f" x="496.382812"/>
      <use xlink:href="#DejaVuSans-41" x="546.382812"/>
     </g>
    </g>
   </g>
   <g id="matplotlib.axis_2">
    <g id="ytick_1">
     <g id="line2d_7">
      <defs>
       <path id="m5dfcd1b8bb" d="M 0 0 
L -3.5 0 
" style="stroke: #000000; stroke-width: 0.8"/>
      </defs>
      <g>
       <use xlink:href="#m5dfcd1b8bb" x="47.72" y="317.93875" style="stroke: #000000; stroke-width: 0.8"/>
      </g>
     </g>
     <g id="text_8">
      <!-- 0.0 -->
      <g transform="translate(24.816875 321.737969) scale(0.1 -0.1)">
       <defs>
        <path id="DejaVuSans-2e" d="M 684 794 
L 1344 794 
L 1344 0 
L 684 0 
L 684 794 
z
" transform="scale(0.015625)"/>
       </defs>
       <use xlink:href="#DejaVuSans-30"/>
       <use xlink:href="#DejaVuSans-2e" x="63.623047"/>
       <use xlink:href="#DejaVuSans-30" x="95.410156"/>
      </g>
     </g>
    </g>
    <g id="ytick_2">
     <g id="line2d_8">
      <g>
       <use xlink:href="#m5dfcd1b8bb" x="47.72" y="257.303" style="stroke: #000000; stroke-width: 0.8"/>
      </g>
     </g>
     <g id="text_9">
      <!-- 0.2 -->
      <g transform="translate(24.816875 261.102219) scale(0.1 -0.1)">
       <use xlink:href="#DejaVuSans-30"/>
       <use xlink:href="#DejaVuSans-2e" x="63.623047"/>
       <use xlink:href="#DejaVuSans-32" x="95.410156"/>
      </g>
     </g>
    </g>
    <g id="ytick_3">
     <g id="line2d_9">
      <g>
       <use xlink:href="#m5dfcd1b8bb" x="47.72" y="196.66725" style="stroke: #000000; stroke-width: 0.8"/>
      </g>
     </g>
     <g id="text_10">
      <!-- 0.4 -->
      <g transform="translate(24.816875 200.466469) scale(0.1 -0.1)">
       <use xlink:href="#DejaVuSans-30"/>
       <use xlink:href="#DejaVuSans-2e" x="63.623047"/>
       <use xlink:href="#DejaVuSans-34" x="95.410156"/>
      </g>
     </g>
    </g>
    <g id="ytick_4">
     <g id="line2d_10">
      <g>
       <use xlink:href="#m5dfcd1b8bb" x="47.72" y="136.0315" style="stroke: #000000; stroke-width: 0.8"/>
      </g>
     </g>
     <g id="text_11">
      <!-- 0.6 -->
      <g transform="translate(24.816875 139.830719) scale(0.1 -0.1)">
       <use xlink:href="#DejaVuSans-30"/>
       <use xlink:href="#DejaVuSans-2e" x="63.623047"/>
       <use xlink:href="#DejaVuSans-36" x="95.410156"/>
      </g>
     </g>
    </g>
    <g id="ytick_5">
     <g id="line2d_11">
      <g>
       <use xlink:href="#m5dfcd1b8bb" x="47.72" y="75.39575" style="stroke: #000000; stroke-width: 0.8"/>
      </g>
     </g>
     <g id="text_12">
      <!-- 0.8 -->
      <g transform="translate(24.816875 79.194969) scale(0.1 -0.1)">
       <use xlink:href="#DejaVuSans-30"/>
       <use xlink:href="#DejaVuSans-2e" x="63.623047"/>
       <use xlink:href="#DejaVuSans-38" x="95.410156"/>
      </g>
     </g>
    </g>
    <g id="ytick_6">
     <g id="line2d_12">
      <g>
       <use xlink:href="#m5dfcd1b8bb" x="47.72" y="14.76" style="stroke: #000000; stroke-width: 0.8"/>
      </g>
     </g>
     <g id="text_13">
      <!-- 1.0 -->
      <g transform="translate(24.816875 18.559219) scale(0.1 -0.1)">
       <use xlink:href="#DejaVuSans-31"/>
       <use xlink:href="#DejaVuSans-2e" x="63.623047"/>
       <use xlink:href="#DejaVuSans-30" x="95.410156"/>
      </g>
     </g>
    </g>
    <g id="text_14">
     <!-- Proportion -->
     <g transform="translate(18.737187 192.145469) rotate(-90) scale(0.1 -0.1)">
      <defs>
       <path id="DejaVuSans-50" d="M 1259 4147 
L 1259 2394 
L 2053 2394 
Q 2494 2394 2734 2622 
Q 2975 2850 2975 3272 
Q 2975 3691 2734 3919 
Q 2494 4147 2053 4147 
L 1259 4147 
z
M 628 4666 
L 2053 4666 
Q 2838 4666 3239 4311 
Q 3641 3956 3641 3272 
Q 3641 2581 3239 2228 
Q 2838 1875 2053 1875 
L 1259 1875 
L 1259 0 
L 628 0 
L 628 4666 
z
" transform="scale(0.015625)"/>
       <path id="DejaVuSans-70" d="M 1159 525 
L 1159 -1331 
L 581 -1331 
L 581 3500 
L 1159 3500 
L 1159 2969 
Q 1341 3281 1617 3432 
Q 1894 3584 2278 3584 
Q 2916 3584 3314 3078 
Q 3713 2572 3713 1747 
Q 3713 922 3314 415 
Q 2916 -91 2278 -91 
Q 1894 -91 1617 61 
Q 1341 213 1159 525 
z
M 3116 1747 
Q 3116 2381 2855 2742 
Q 2594 3103 2138 3103 
Q 1681 3103 1420 2742 
Q 1159 2381 1159 1747 
Q 1159 1113 1420 752 
Q 1681 391 2138 391 
Q 2594 391 2855 752 
Q 3116 1113 3116 1747 
z
" transform="scale(0.015625)"/>
      </defs>
      <use xlink:href="#DejaVuSans-50"/>
      <use xlink:href="#DejaVuSans-72" x="58.552734"/>
      <use xlink:href="#DejaVuSans-6f" x="97.416016"/>
      <use xlink:href="#DejaVuSans-70" x="158.597656"/>
      <use xlink:href="#DejaVuSans-6f" x="222.074219"/>
      <use xlink:href="#DejaVuSans-72" x="283.255859"/>
      <use xlink:href="#DejaVuSans-74" x="324.369141"/>
      <use xlink:href="#DejaVuSans-69" x="363.578125"/>
      <use xlink:href="#DejaVuSans-6f" x="391.361328"/>
      <use xlink:href="#DejaVuSans-6e" x="452.542969"/>
     </g>
    </g>
   </g>
   <g id="line2d_13">
    <path d="M 81.068815 317.93875 
L 81.068815 317.922465 
L 87.1586 317.824755 
L 87.1586 317.80847 
L 95.27831 317.710759 
L 95.27831 317.678189 
L 96.438268 317.580479 
L 96.438268 317.564194 
L 98.758187 317.499054 
L 98.758187 317.466484 
L 98.758187 317.433913 
L 99.918145 317.336203 
L 99.918145 317.287348 
L 101.078106 317.189638 
L 101.078106 317.173353 
L 102.238063 317.091927 
L 102.238063 317.075642 
L 102.238063 317.059357 
L 102.818042 316.994217 
L 102.818042 316.961647 
L 102.818042 316.798797 
L 103.398021 316.717371 
L 103.398021 316.701086 
L 103.398021 316.603376 
L 103.978003 316.538236 
L 103.978003 316.505666 
L 103.978003 316.473096 
L 104.847972 316.375385 
L 104.847972 316.32653 
L 105.137961 316.32653 
L 105.137961 316.22882 
L 105.137961 316.19625 
L 105.71794 316.179965 
L 105.71794 316.09854 
L 105.71794 315.805409 
L 106.877898 315.707698 
L 106.877898 315.544848 
L 107.457877 315.463423 
L 107.457877 315.447138 
L 107.457877 315.381997 
L 107.747866 315.381997 
L 107.747866 315.284287 
L 107.747866 315.251717 
L 108.327845 315.170292 
L 108.327845 315.154007 
L 108.327845 315.088866 
L 108.617834 315.088866 
L 108.617834 314.991156 
L 108.617834 314.567745 
L 108.907824 314.567745 
L 108.907824 314.470035 
L 108.907824 314.437465 
L 109.197813 314.437465 
L 109.197813 314.339754 
L 109.197813 314.323469 
L 109.777799 314.225759 
L 109.777799 314.111764 
L 110.067788 314.111764 
L 110.067788 314.014053 
L 110.067788 313.981483 
L 110.647767 313.916343 
L 110.647767 313.883773 
L 110.647767 313.720923 
L 111.227746 313.639497 
L 111.227746 313.623212 
L 111.227746 313.492932 
L 111.517735 313.492932 
L 111.517735 313.395221 
L 111.517735 312.418119 
L 111.807725 312.418119 
L 111.807725 312.320408 
L 111.807725 312.271553 
L 112.387704 312.222698 
L 112.387704 312.173843 
L 112.387704 312.141273 
L 112.677693 312.141273 
L 112.677693 312.043562 
L 112.677693 311.978422 
L 112.967682 311.978422 
L 112.967682 311.880712 
L 112.967682 311.831857 
L 113.257672 311.831857 
L 113.257672 311.734147 
L 113.296238 311.603866 
L 113.547661 311.603866 
L 113.547661 311.506156 
L 113.547661 311.408445 
L 113.837651 311.408445 
L 113.837651 311.310735 
L 113.837651 311.22931 
L 114.12764 311.22931 
L 114.12764 311.1316 
L 114.12764 311.001319 
L 114.41763 311.001319 
L 114.41763 310.903609 
L 114.41763 309.845081 
L 114.707619 309.845081 
L 114.707619 309.747371 
L 114.707619 309.731085 
L 114.997608 309.731085 
L 114.997608 309.633375 
L 114.997608 309.568235 
L 115.287598 309.568235 
L 115.287598 309.470525 
L 115.287598 309.437955 
L 115.577587 309.437955 
L 115.577587 309.340244 
L 115.577587 309.275104 
L 115.867577 309.275104 
L 115.867577 309.177394 
L 115.867577 308.998258 
L 116.157566 308.998258 
L 116.157566 308.900548 
L 116.157566 308.835408 
L 116.447556 308.819123 
L 116.447556 308.737697 
L 116.447556 308.688842 
L 116.737552 308.688842 
L 116.737552 308.591132 
L 116.737552 308.493422 
L 117.027541 308.493422 
L 117.027541 308.395712 
L 117.027541 308.232861 
L 117.317531 308.232861 
L 117.317531 308.135151 
L 117.317531 306.718352 
L 117.60752 306.718352 
L 117.60752 306.620641 
L 117.60752 306.506646 
L 117.89751 306.506646 
L 117.89751 306.408936 
L 117.89751 306.32751 
L 118.187499 306.311226 
L 118.187499 306.2298 
L 118.187499 305.985524 
L 118.477488 305.985524 
L 118.477488 305.887814 
L 118.477488 305.741248 
L 118.767478 305.741248 
L 118.767478 305.643538 
L 118.767478 305.480688 
L 119.057467 305.480688 
L 119.057467 305.382978 
L 119.057467 305.268982 
L 119.347457 305.268982 
L 119.347457 305.171272 
L 119.347457 305.073561 
L 119.637446 305.073561 
L 119.637446 304.975851 
L 119.637446 304.796716 
L 119.927436 304.796716 
L 119.927436 304.699006 
L 119.927436 304.4873 
L 120.217425 304.4873 
L 120.217425 304.389589 
L 120.217425 301.621131 
L 120.507414 301.621131 
L 120.507414 301.523421 
L 120.507414 301.29543 
L 120.797404 301.29543 
L 120.797404 301.19772 
L 120.797404 301.03487 
L 121.087393 301.03487 
L 121.087393 300.937159 
L 121.087393 300.676599 
L 121.377383 300.676599 
L 121.377383 300.578889 
L 121.377383 300.188048 
L 121.667372 300.188048 
L 121.667372 300.090337 
L 121.667372 299.797206 
L 121.957362 299.797206 
L 121.957362 299.699496 
L 121.957362 299.324939 
L 122.247351 299.324939 
L 122.247351 299.227229 
L 122.247351 298.934099 
L 122.53734 298.934099 
L 122.53734 298.836388 
L 122.548942 298.543258 
L 122.82733 298.526972 
L 122.82733 298.445547 
L 122.82733 298.087276 
L 123.117319 298.07099 
L 123.117319 297.989565 
L 123.117319 294.781411 
L 123.407309 294.781411 
L 123.407309 294.683701 
L 123.407309 294.390569 
L 123.697298 294.390569 
L 123.697298 294.29286 
L 123.697298 293.999728 
L 123.987294 293.999728 
L 123.987294 293.902019 
L 123.987294 293.625171 
L 124.277284 293.625171 
L 124.277284 293.527462 
L 124.277284 293.120337 
L 124.567273 293.120337 
L 124.567273 293.022626 
L 124.613382 292.648069 
L 124.857263 292.648069 
L 124.857263 292.550359 
L 124.857263 292.078093 
L 125.147252 292.078093 
L 125.147252 291.980382 
L 125.147252 291.736107 
L 125.437242 291.736107 
L 125.437242 291.638398 
L 125.437242 291.166129 
L 125.727231 291.166129 
L 125.727231 291.06842 
L 125.797697 290.759004 
L 126.01722 290.74272 
L 126.01722 290.661293 
L 126.075214 285.564074 
L 126.30721 285.564074 
L 126.30721 285.466363 
L 126.30721 285.108092 
L 126.597199 285.091808 
L 126.597199 285.010383 
L 126.597199 284.668396 
L 126.887189 284.668396 
L 126.887189 284.570685 
L 126.887189 284.179844 
L 127.177178 284.179844 
L 127.177178 284.082135 
L 127.177178 283.658723 
L 127.467168 283.658723 
L 127.467168 283.561012 
L 127.467168 282.925895 
L 127.757157 282.925895 
L 127.757157 282.828186 
L 127.757157 281.981363 
L 128.047146 281.981363 
L 128.047146 281.883652 
L 128.047146 281.411385 
L 128.337136 281.411385 
L 128.337136 281.313676 
L 128.337136 281.00426 
L 128.627125 280.97169 
L 128.627125 280.906549 
L 128.627125 280.352858 
L 128.917115 280.336573 
L 128.917115 280.255148 
L 128.917115 273.464281 
L 129.207104 273.464281 
L 129.207104 273.366572 
L 129.207104 272.878022 
L 129.497093 272.878022 
L 129.497093 272.780308 
L 129.497093 272.373185 
L 129.787083 272.373185 
L 129.787083 272.275472 
L 129.787083 271.477507 
L 130.077072 271.477507 
L 130.077072 271.379794 
L 130.077072 270.679539 
L 130.367062 270.679539 
L 130.367062 270.58183 
L 130.367062 269.71872 
L 130.657051 269.71872 
L 130.657051 269.621011 
L 130.657051 268.920752 
L 130.947041 268.920752 
L 130.947041 268.823042 
L 130.947041 268.36706 
L 131.237037 268.350779 
L 131.237037 268.269351 
L 131.237037 267.748228 
L 131.527026 267.748228 
L 131.527026 267.650519 
L 131.527026 266.966546 
L 131.817016 266.966546 
L 131.817016 266.868837 
L 131.834702 258.335473 
L 132.107005 258.335473 
L 132.107005 258.23776 
L 132.107005 257.618932 
L 132.396995 257.618932 
L 132.396995 257.521218 
L 132.396995 256.967527 
L 132.686984 256.967527 
L 132.686984 256.869818 
L 132.686984 256.234699 
L 132.976973 256.234699 
L 132.976973 256.13699 
L 132.976973 255.436735 
L 133.266963 255.436735 
L 133.266963 255.339022 
L 133.266963 254.45963 
L 133.556952 254.45963 
L 133.556952 254.361921 
L 133.556952 253.677948 
L 133.846942 253.677948 
L 133.846942 253.580239 
L 133.846942 252.765984 
L 134.136931 252.765984 
L 134.136931 252.668275 
L 134.136931 251.935447 
L 134.426921 251.935447 
L 134.426921 251.837738 
L 134.426921 251.218906 
L 134.71691 251.218906 
L 134.71691 251.121197 
L 134.745907 240.959328 
L 135.006899 240.959328 
L 135.006899 240.861619 
L 135.006899 240.356782 
L 135.296889 240.356782 
L 135.296889 240.259064 
L 135.296889 239.737945 
L 135.586878 239.737945 
L 135.586878 239.640236 
L 135.586878 238.858554 
L 135.876868 238.842272 
L 135.876868 238.760845 
L 135.876868 237.897735 
L 136.166857 237.897735 
L 136.166857 237.800026 
L 136.166857 237.018344 
L 136.456847 237.018344 
L 136.456847 236.920635 
L 136.456847 236.171525 
L 136.746836 236.171525 
L 136.746836 236.073807 
L 136.746836 235.438698 
L 137.036825 235.438698 
L 137.036825 235.340979 
L 137.036825 234.559297 
L 137.326815 234.559297 
L 137.326815 234.461588 
L 137.326815 233.712479 
L 137.616804 233.712479 
L 137.616804 233.614769 
L 137.616804 221.9221 
L 137.906794 221.9221 
L 137.906794 221.82439 
L 137.906794 221.352127 
L 138.196783 221.352127 
L 138.196783 221.254417 
L 138.196783 220.40759 
L 138.486779 220.391308 
L 138.486779 220.309881 
L 138.486779 219.511917 
L 138.776769 219.511917 
L 138.776769 219.414207 
L 138.829543 218.599952 
L 139.066758 218.599952 
L 139.066758 218.502243 
L 139.066758 217.687988 
L 139.356748 217.687988 
L 139.356748 217.590279 
L 139.356748 216.808597 
L 139.646737 216.808597 
L 139.646737 216.710888 
L 139.646737 216.140915 
L 139.936727 216.140915 
L 139.936727 216.043197 
L 139.936727 215.342942 
L 140.226716 215.342942 
L 140.226716 215.245232 
L 140.226716 214.821823 
L 140.516705 214.821823 
L 140.516705 214.724114 
L 140.603703 201.940353 
L 140.806695 201.940353 
L 140.806695 201.842635 
L 140.806695 201.207525 
L 141.096684 201.207525 
L 141.096684 201.109807 
L 141.096684 200.409552 
L 141.386674 200.409552 
L 141.386674 200.311843 
L 141.386674 199.725579 
L 141.676663 199.725579 
L 141.676663 199.62787 
L 141.676663 198.911333 
L 141.966653 198.911333 
L 141.966653 198.813624 
L 141.966653 197.78766 
L 142.256642 197.78766 
L 142.256642 197.689951 
L 142.256642 197.087405 
L 142.546631 197.054832 
L 142.546631 196.989696 
L 142.546631 196.322004 
L 142.836621 196.289441 
L 142.836621 196.224295 
L 142.836621 195.52404 
L 143.12661 195.52404 
L 143.12661 195.426331 
L 143.12661 194.954067 
L 143.4166 194.954067 
L 143.4166 194.856349 
L 143.4166 182.740279 
L 143.706589 182.740279 
L 143.706589 182.64257 
L 143.706589 182.349433 
L 143.996578 182.349433 
L 143.996578 182.251724 
L 143.996578 181.600324 
L 144.286568 181.600324 
L 144.286568 181.502615 
L 144.286568 180.948924 
L 144.576557 180.948924 
L 144.576557 180.851214 
L 144.576557 180.313805 
L 144.866547 180.313805 
L 144.866547 180.216096 
L 144.866547 179.28785 
L 145.156536 179.271559 
L 145.156536 179.190132 
L 145.156536 178.40845 
L 145.446526 178.40845 
L 145.446526 178.31074 
L 145.446526 177.822195 
L 145.736522 177.805904 
L 145.736522 177.724485 
L 145.736522 177.138222 
L 146.026511 177.138222 
L 146.026511 177.040512 
L 146.026511 176.535676 
L 146.316501 176.519385 
L 146.316501 176.437967 
L 146.316501 164.843006 
L 146.60649 164.843006 
L 146.60649 164.745297 
L 146.60649 164.305597 
L 146.89648 164.305597 
L 146.89648 164.207888 
L 146.89648 163.589051 
L 147.186469 163.589051 
L 147.186469 163.491342 
L 147.186469 163.03536 
L 147.476458 163.03536 
L 147.476458 162.937651 
L 147.476458 162.383959 
L 147.766448 162.367677 
L 147.766448 162.28625 
L 147.795445 161.553423 
L 148.056437 161.553423 
L 148.056437 161.455713 
L 148.056437 160.771749 
L 148.346427 160.771749 
L 148.346427 160.67404 
L 148.346427 159.957494 
L 148.636416 159.957494 
L 148.636416 159.859785 
L 148.636416 159.387521 
L 148.926406 159.387521 
L 148.926406 159.289812 
L 148.926406 158.622112 
L 149.216395 158.622112 
L 149.216395 158.524403 
L 149.216395 147.939124 
L 149.506384 147.939124 
L 149.506384 147.841415 
L 149.506384 147.532006 
L 149.796374 147.532006 
L 149.796374 147.434297 
L 149.796374 146.799178 
L 150.086363 146.799178 
L 150.086363 146.701469 
L 150.086363 146.180342 
L 150.376353 146.180342 
L 150.376353 146.082633 
L 150.376353 145.480078 
L 150.666342 145.480078 
L 150.666342 145.382369 
L 150.666342 144.926387 
L 150.956332 144.926387 
L 150.956332 144.828677 
L 150.956332 144.502986 
L 151.246321 144.502986 
L 151.246321 144.405277 
L 151.246321 143.933013 
L 151.53631 143.933013 
L 151.53631 143.835304 
L 151.53631 143.330458 
L 151.8263 143.330458 
L 151.8263 143.232749 
L 151.8263 142.760485 
L 152.116289 142.760485 
L 152.116289 142.662776 
L 152.116289 133.136017 
L 152.406279 133.136017 
L 152.406279 133.038308 
L 152.406279 132.761462 
L 152.696268 132.761462 
L 152.696268 132.663753 
L 152.696268 132.142625 
L 152.986264 132.142625 
L 152.986264 132.044916 
L 152.986264 131.751789 
L 153.276254 131.751789 
L 153.276254 131.65408 
L 153.276254 131.230661 
L 153.566243 131.214379 
L 153.566243 131.132952 
L 153.566243 130.562979 
L 153.856233 130.562979 
L 153.856233 130.46527 
L 153.856233 129.993006 
L 154.146222 129.993006 
L 154.146222 129.895297 
L 154.146222 129.406751 
L 154.436212 129.406751 
L 154.436212 129.309024 
L 154.436212 128.934469 
L 154.726201 128.918187 
L 154.726201 128.83676 
L 154.726201 128.527351 
L 155.01619 128.527351 
L 155.01619 128.429641 
L 155.01619 120.254546 
L 155.30618 120.254546 
L 155.30618 120.156837 
L 155.30618 119.798564 
L 155.596169 119.798564 
L 155.596169 119.700855 
L 155.596169 119.261155 
L 155.886159 119.261155 
L 155.886159 119.163446 
L 155.886159 118.6749 
L 156.176148 118.6749 
L 156.176148 118.577191 
L 156.176148 118.316627 
L 156.466138 118.316627 
L 156.466138 118.218918 
L 156.466138 117.762936 
L 156.756127 117.746654 
L 156.756127 117.665227 
L 156.756127 117.355799 
L 157.046116 117.355799 
L 157.046116 117.25809 
L 157.046116 116.981245 
L 157.336106 116.981245 
L 157.336106 116.883535 
L 157.336106 116.443835 
L 157.626095 116.443835 
L 157.626095 116.346126 
L 157.626095 116.150708 
L 157.916085 116.150708 
L 157.916085 116.052999 
L 157.945088 106.770521 
L 158.206074 106.770521 
L 158.206074 106.672812 
L 158.206074 106.44483 
L 158.496063 106.44483 
L 158.496063 106.347121 
L 158.496063 106.151684 
L 158.786053 106.151684 
L 158.786053 106.053975 
L 158.786053 106.021412 
L 159.076042 106.021412 
L 159.076042 105.923702 
L 159.076042 105.532866 
L 159.366032 105.532866 
L 159.366032 105.435157 
L 159.366032 105.142011 
L 159.656021 105.142011 
L 159.656021 105.044302 
L 159.656021 104.767456 
L 159.946011 104.767456 
L 159.946011 104.669747 
L 159.946011 104.327774 
L 160.236007 104.327774 
L 160.236007 104.230065 
L 160.236007 103.920638 
L 160.525996 103.920638 
L 160.525996 103.822929 
L 160.525996 103.546083 
L 160.815986 103.546083 
L 160.815986 103.448374 
L 160.815986 95.631552 
L 161.105975 95.631552 
L 161.105975 95.533842 
L 161.105975 95.256997 
L 161.395965 95.256997 
L 161.395965 95.159288 
L 161.395965 94.882442 
L 161.685954 94.882442 
L 161.685954 94.784733 
L 161.685954 94.573015 
L 161.975943 94.573015 
L 161.975943 94.475306 
L 161.975943 94.296169 
L 162.265933 94.296169 
L 162.265933 94.19846 
L 162.265933 94.003042 
L 162.555922 94.003042 
L 162.555922 93.905332 
L 162.555922 93.54706 
L 162.845912 93.54706 
L 162.845912 93.44935 
L 162.845912 93.270214 
L 163.135901 93.253932 
L 163.135901 93.172505 
L 163.135901 92.911941 
L 163.425891 92.911941 
L 163.425891 92.814232 
L 163.425891 92.667677 
L 163.71588 92.667677 
L 163.71588 92.569968 
L 163.744877 86.788774 
L 164.266862 86.691065 
L 164.295859 86.446783 
L 164.585855 86.446783 
L 164.585855 86.349074 
L 164.585855 86.218801 
L 164.875838 86.218801 
L 164.875838 86.121092 
L 164.875838 85.958237 
L 165.165834 85.958237 
L 165.165834 85.860528 
L 165.165834 85.64881 
L 165.455817 85.64881 
L 165.455817 85.551101 
L 165.455817 85.404546 
L 165.745813 85.404546 
L 165.745813 85.306837 
L 165.745813 85.176546 
L 166.035795 85.176546 
L 166.035795 85.078837 
L 166.035795 85.046273 
L 166.615774 84.948564 
L 166.615774 80.519034 
L 166.905771 80.519034 
L 166.905771 80.421307 
L 166.905771 80.388744 
L 167.195753 80.388744 
L 167.195753 80.291034 
L 167.195753 80.160762 
L 167.485749 80.160762 
L 167.485749 80.063052 
L 167.485749 80.014189 
L 167.775732 80.014189 
L 167.775732 79.91648 
L 167.775732 79.753625 
L 168.065728 79.753625 
L 168.065728 79.655916 
L 168.065728 79.541925 
L 168.355711 79.541925 
L 168.355711 79.444216 
L 168.355711 79.297643 
L 168.645707 79.297643 
L 168.645707 79.199934 
L 168.645707 79.102225 
L 168.93569 79.085943 
L 168.93569 79.004516 
L 168.93569 78.809097 
L 169.225686 78.809097 
L 169.225686 78.711388 
L 169.225686 78.662524 
L 169.515668 78.662524 
L 169.515668 78.564815 
L 169.515668 73.842158 
L 170.095647 73.760731 
L 170.095647 73.744449 
L 170.095647 73.630458 
L 170.385644 73.630458 
L 170.385644 73.532749 
L 170.385644 73.467604 
L 170.675626 73.467604 
L 170.675626 73.369894 
L 170.675626 73.272185 
L 170.965622 73.272185 
L 170.965622 73.174476 
L 170.965622 72.979058 
L 171.545601 72.89763 
L 171.545601 72.881331 
L 171.545601 72.653349 
L 171.835598 72.653349 
L 171.835598 72.555639 
L 171.835598 72.539358 
L 172.12558 72.539358 
L 172.12558 72.441648 
L 172.154577 72.392785 
L 172.415577 72.392785 
L 172.415577 72.295076 
L 172.415577 68.891501 
L 172.705559 68.891501 
L 172.705559 68.793792 
L 172.705559 68.77751 
L 172.995555 68.77751 
L 172.995555 68.679801 
L 172.995555 68.598374 
L 173.285538 68.598374 
L 173.285538 68.500665 
L 173.285538 68.435519 
L 173.575534 68.435519 
L 173.575534 68.33781 
L 173.575534 68.240101 
L 173.865517 68.240101 
L 173.865517 68.142392 
L 173.865517 68.060964 
L 174.155513 68.060964 
L 174.155513 67.963255 
L 174.155513 67.914392 
L 174.735492 67.849264 
L 174.735492 67.816682 
L 174.735492 67.735255 
L 175.025474 67.735255 
L 175.025474 67.637546 
L 175.025474 67.572419 
L 175.315471 67.572419 
L 175.315471 67.474709 
L 175.315471 64.820244 
L 175.89545 64.787663 
L 175.89545 64.722535 
L 175.89545 64.673672 
L 176.185432 64.673672 
L 176.185432 64.575963 
L 176.185432 64.527117 
L 176.765411 64.478253 
L 176.765411 64.42939 
L 176.765411 64.364262 
L 177.055407 64.364262 
L 177.055407 64.266553 
L 177.055407 64.233971 
L 177.635386 64.136262 
L 177.635386 64.022271 
L 178.215365 64.022271 
L 178.215365 63.924562 
L 178.215365 60.879261 
L 178.795344 60.830397 
L 178.795344 60.781551 
L 178.795344 60.76527 
L 179.375323 60.683842 
L 179.375323 60.66756 
L 179.375323 60.569833 
L 179.665319 60.569833 
L 179.665319 60.472124 
L 179.665319 60.406997 
L 180.245298 60.358133 
L 180.245298 60.309287 
L 180.245298 60.292988 
L 181.115259 60.244142 
L 181.115259 60.195278 
L 181.115259 58.273641 
L 181.985234 58.208514 
L 181.985234 58.175932 
L 182.014231 58.127086 
L 182.565213 58.045659 
L 182.565213 58.029377 
L 182.565213 57.980514 
L 183.725171 57.899086 
L 183.725171 57.882804 
L 183.725171 57.817677 
L 184.015153 57.817677 
L 184.015153 57.71995 
L 184.015153 56.221731 
L 184.885129 56.172885 
L 184.885129 56.124022 
L 184.885129 56.075176 
L 185.465107 56.026313 
L 185.465107 55.977467 
L 185.465107 55.912322 
L 186.915062 55.814612 
L 186.915062 53.958121 
L 188.654998 53.876693 
L 188.654998 53.860393 
L 188.654998 53.811548 
L 189.814956 53.762684 
L 189.814956 53.713839 
L 189.814956 52.63902 
L 191.554892 52.557593 
L 191.554892 52.541311 
L 191.554892 52.525029 
L 192.71485 52.443602 
L 192.71485 52.42732 
L 192.743847 51.661928 
L 193.584825 51.596783 
L 193.584825 51.564201 
L 193.584825 51.547919 
L 195.614744 51.499074 
L 195.614744 51.45021 
L 195.614744 51.02681 
L 196.774702 50.961664 
L 196.774702 50.929101 
L 196.774702 50.896519 
L 197.354681 50.847673 
L 197.354681 50.79881 
L 197.354681 50.782528 
L 198.514638 50.717383 
L 198.514638 50.684819 
L 198.514638 50.212555 
L 201.414547 50.114846 
L 201.414547 49.772855 
L 202.574504 49.707709 
L 202.574504 49.675146 
L 202.574504 49.658864 
L 204.314441 49.561155 
L 204.314441 49.137736 
L 207.214335 49.040027 
L 207.214335 48.535199 
L 210.114229 48.502618 
L 210.114229 48.437472 
L 210.114229 48.030354 
L 212.144162 47.932645 
L 212.144162 47.900081 
L 213.014123 47.883781 
L 213.014123 47.802372 
L 213.014123 47.281244 
L 215.914032 47.216099 
L 215.914032 47.183535 
L 215.914032 46.548417 
L 218.813926 46.450708 
L 218.813926 45.962162 
L 221.133841 45.864435 
L 221.133841 45.848153 
L 221.71382 45.848153 
L 221.71382 45.750444 
L 221.71382 45.082761 
L 223.743753 44.985052 
L 223.743753 44.96877 
L 224.613714 44.887343 
L 224.613714 44.871061 
L 224.642711 44.333652 
L 227.513608 44.268506 
L 227.513608 44.235943 
L 227.513608 43.600824 
L 230.12352 43.503115 
L 230.12352 43.486833 
L 230.413517 43.486833 
L 230.413517 43.389124 
L 230.413517 42.90056 
L 231.863457 42.819133 
L 231.863457 42.802851 
L 231.863457 42.786569 
L 233.313411 42.705142 
L 233.313411 42.68886 
L 233.313411 42.216596 
L 235.34333 42.118887 
L 235.34333 42.102605 
L 236.213305 42.053742 
L 236.213305 42.004878 
L 236.213305 41.369778 
L 239.113199 41.28835 
L 239.113199 41.27205 
L 239.113199 40.669514 
L 242.013093 40.571804 
L 242.013093 40.034395 
L 243.463047 39.952968 
L 243.463047 39.936686 
L 243.463047 39.920404 
L 244.913002 39.855259 
L 244.913002 39.822695 
L 244.913002 39.252722 
L 247.232917 39.171295 
L 247.232917 39.154995 
L 247.232917 39.138713 
L 247.812896 39.138713 
L 247.812896 39.041004 
L 247.812896 38.650167 
L 250.71279 38.585022 
L 250.71279 38.552458 
L 250.71279 37.81963 
L 253.032705 37.721921 
L 253.032705 37.705639 
L 253.612684 37.689357 
L 253.612684 37.60793 
L 253.612684 37.151948 
L 256.512578 37.103084 
L 256.512578 37.054239 
L 256.512578 36.630821 
L 259.412487 36.581957 
L 259.412487 36.533111 
L 259.412487 36.207402 
L 262.312381 36.19112 
L 262.312381 36.109693 
L 262.312381 35.718856 
L 265.212275 35.670011 
L 265.212275 35.621147 
L 265.212275 35.051174 
L 268.112169 34.969747 
L 268.112169 34.953465 
L 268.141166 34.432338 
L 271.012063 34.416056 
L 271.012063 34.334628 
L 271.012063 33.943792 
L 273.911972 33.894928 
L 273.911972 33.846083 
L 273.911972 33.357519 
L 276.811866 33.308673 
L 276.811866 33.25981 
L 276.811866 32.917837 
L 279.71176 32.868973 
L 279.71176 32.820128 
L 279.71176 31.957009 
L 282.611668 31.940727 
L 282.611668 31.8593 
L 282.611668 31.6476 
L 285.511548 31.6476 
L 285.511548 31.549891 
L 285.540559 31.2079 
L 288.411457 31.126472 
L 288.411457 31.11019 
L 288.411457 30.849627 
L 291.311337 30.817063 
L 291.311337 30.751917 
L 291.311337 30.523935 
L 294.211245 30.475072 
L 294.211245 30.426208 
L 294.211245 30.116799 
L 297.111153 30.051654 
L 297.111153 30.01909 
L 297.111153 29.791108 
L 300.011033 29.758526 
L 300.011033 29.693381 
L 300.011033 29.400253 
L 302.910942 29.367689 
L 302.910942 29.302544 
L 302.910942 29.139689 
L 305.810822 29.139689 
L 305.810822 29.04198 
L 305.810822 28.797716 
L 308.71073 28.748853 
L 308.71073 28.700007 
L 308.71073 27.788043 
L 311.610638 27.788043 
L 311.610638 27.690334 
L 311.610638 27.462334 
L 314.510518 27.462334 
L 314.510518 27.364625 
L 314.510518 27.250634 
L 317.410427 27.20177 
L 317.410427 27.152925 
L 317.410427 26.957506 
L 320.310307 26.957506 
L 320.310307 26.859797 
L 320.310307 26.77837 
L 323.210215 26.77837 
L 323.210215 26.680661 
L 323.210215 26.420097 
L 326.110123 26.387533 
L 326.110123 26.322388 
L 326.110123 26.240961 
L 329.010003 26.192097 
L 329.010003 26.143251 
L 329.010003 25.947833 
L 331.909912 25.931551 
L 331.909912 25.850124 
L 331.909912 25.654706 
L 334.809792 25.622124 
L 334.809792 25.556978 
L 334.809792 25.508133 
L 337.7097 25.508133 
L 337.7097 25.410424 
L 337.7097 24.807869 
L 340.609608 24.807869 
L 340.609608 24.791587 
" clip-path="url(#pe48fe714a8)" style="fill: none; stroke: #ff7f0e"/>
   </g>
   <g id="line2d_14">
    <path d="M 61.639505 317.93875 
L 61.639505 317.935428 
L 70.687184 317.825808 
L 70.687184 317.824147 
L 71.789145 317.741102 
L 71.789145 317.714527 
L 71.876142 317.711206 
L 72.398124 317.606568 
L 72.398124 317.601586 
L 72.398124 317.599925 
L 73.529083 317.50027 
L 73.529083 317.490305 
L 73.558081 317.442139 
L 73.819072 317.442139 
L 73.819072 317.332519 
L 73.819072 317.309266 
L 74.399053 317.256117 
L 74.399053 317.199646 
L 74.486049 317.191342 
L 74.979032 317.116601 
L 74.979032 317.081722 
L 74.979032 317.053486 
L 75.269021 317.046843 
L 75.269021 316.943866 
L 75.32412 316.82262 
L 75.849002 316.726288 
L 75.849002 316.713 
L 75.935998 316.56684 
L 76.138991 316.553553 
L 76.138991 316.45722 
L 76.225987 316.409054 
L 76.428981 316.397428 
L 76.428981 316.299434 
L 76.486978 316.281164 
L 76.71897 316.257912 
L 76.71897 316.171544 
L 76.776967 315.565313 
L 77.008959 315.545382 
L 77.008959 315.455693 
L 77.03796 315.439084 
L 77.298949 315.424136 
L 77.298949 315.329464 
L 77.385946 315.263028 
L 77.588938 315.24808 
L 77.588938 315.153408 
L 77.675936 315.050432 
L 77.878928 315.018875 
L 77.878928 314.940812 
L 77.965925 314.796313 
L 78.168917 314.761434 
L 78.168917 314.686693 
L 78.255915 314.062192 
L 78.458907 314.043922 
L 78.458907 313.952572 
L 78.545904 313.867865 
L 78.748899 313.83963 
L 78.748899 313.758246 
L 78.835893 313.661913 
L 79.038889 313.623712 
L 79.038889 313.552293 
L 79.125883 313.359628 
L 79.328878 313.324749 
L 79.328878 313.250008 
L 79.415876 313.142049 
L 79.618868 313.085578 
L 79.618868 313.032429 
L 79.705865 312.02758 
L 79.908857 311.994362 
L 79.908857 311.91796 
L 79.995855 311.871455 
L 80.198847 311.836576 
L 80.198847 311.761835 
L 80.303243 311.491107 
L 80.488836 311.452906 
L 80.488836 311.381487 
L 80.575833 311.215396 
L 80.778825 311.190483 
L 80.778825 311.105776 
L 80.865823 310.954634 
L 81.068815 310.913111 
L 81.068815 310.845013 
L 81.155812 310.180651 
L 81.358804 310.157398 
L 81.358804 310.071031 
L 81.416801 309.938158 
L 81.648794 309.908262 
L 81.648794 309.828538 
L 81.735791 309.675735 
L 81.938783 309.63089 
L 81.938783 309.566115 
L 82.025781 309.365145 
L 82.228776 309.3203 
L 82.228776 309.255525 
L 82.31577 309.064521 
L 82.518765 308.961545 
L 82.518765 308.954901 
L 82.605759 307.38036 
L 82.808755 307.338838 
L 82.808755 307.270741 
L 82.895752 307.107971 
L 83.098744 307.079737 
L 83.098744 306.998352 
L 83.185742 306.807348 
L 83.388734 306.774129 
L 83.388734 306.697728 
L 83.417731 306.558211 
L 83.678723 306.523332 
L 83.678723 306.448591 
L 83.765721 306.204438 
L 83.968712 306.147967 
L 83.968712 306.094818 
L 84.05571 305.141457 
L 84.258702 305.106578 
L 84.258702 305.031837 
L 84.345699 304.860763 
L 84.548691 304.812598 
L 84.548691 304.751143 
L 84.635689 304.560139 
L 84.838681 304.502007 
L 84.838681 304.45052 
L 84.925678 304.184774 
L 85.12867 304.143252 
L 85.12867 304.075154 
L 85.215668 303.857575 
L 85.41866 303.761243 
L 85.41866 303.747955 
L 85.505657 301.7067 
L 85.708649 301.640264 
L 85.708649 301.59708 
L 85.795647 301.366215 
L 85.998642 301.321369 
L 85.998642 301.256594 
L 86.085636 301.009119 
L 86.288631 300.97424 
L 86.288631 300.899498 
L 86.375625 300.660328 
L 86.578621 300.605518 
L 86.578621 300.550708 
L 86.665618 300.236797 
L 86.86861 300.158734 
L 86.86861 300.127177 
L 86.955608 298.678866 
L 87.1586 298.647308 
L 87.1586 298.569246 
L 87.262996 298.263639 
L 87.448589 298.225437 
L 87.448589 298.154018 
L 87.541387 297.833464 
L 87.738578 297.776992 
L 87.738578 297.723844 
L 87.825576 297.306956 
L 88.028568 297.25879 
L 88.028568 297.197336 
L 88.121366 296.853529 
L 88.28956 296.745569 
L 88.28956 296.743908 
L 88.376555 293.189566 
L 88.608547 293.098216 
L 88.608547 293.079946 
L 88.695544 292.736139 
L 88.898536 292.668041 
L 88.898536 292.626519 
L 88.985534 292.043539 
L 89.188526 291.982087 
L 89.188526 291.933919 
L 89.275523 291.463883 
L 89.478518 291.397447 
L 89.478518 291.354263 
L 89.565513 290.953984 
L 89.739508 290.875922 
L 89.739508 290.844364 
L 89.826505 288.690168 
L 90.058497 288.607121 
L 90.058497 288.580548 
L 90.145495 288.105528 
L 90.348487 288.039091 
L 90.348487 287.995908 
L 90.435484 287.406285 
L 90.638476 287.311614 
L 90.638476 287.296665 
L 90.725474 286.590781 
L 90.928466 286.496108 
L 90.928466 286.481161 
L 91.015463 285.851676 
L 91.160458 285.747039 
L 91.160458 285.742056 
L 91.256153 279.91393 
L 91.334449 279.812616 
L 91.334449 279.804312 
L 91.421447 279.76279 
L 91.508444 279.739537 
L 91.508444 279.653167 
L 91.595442 279.208046 
L 91.798434 279.144933 
L 91.798434 279.098428 
L 91.885431 278.490533 
L 92.088423 278.425758 
L 92.088423 278.380915 
L 92.175421 277.797936 
L 92.378413 277.718212 
L 92.378413 277.688314 
L 92.468311 276.990733 
L 92.639405 276.906026 
L 92.639405 276.881115 
L 92.726403 274.140615 
L 92.958392 274.044284 
L 92.958392 274.030997 
L 93.058038 273.426427 
L 93.248384 273.374939 
L 93.248384 273.316805 
L 93.335378 272.725522 
L 93.538374 272.645802 
L 93.538374 272.615904 
L 93.625368 271.737285 
L 93.828363 271.649257 
L 93.828363 271.627663 
L 93.929859 270.958318 
L 94.059851 270.8487 
L 94.168914 264.027352 
L 94.20535 263.944307 
L 94.20535 263.91773 
L 94.292344 263.823061 
L 94.408342 263.764927 
L 94.408342 263.713439 
L 94.49534 263.213504 
L 94.698332 263.138767 
L 94.698332 263.103886 
L 94.785329 262.426237 
L 94.988321 262.356479 
L 94.988321 262.316615 
L 95.075318 261.559243 
L 95.27831 261.469553 
L 95.27831 261.44962 
L 95.365308 260.703877 
L 95.510303 260.614186 
L 95.510303 260.594254 
L 95.5973 257.254167 
L 95.713295 257.152853 
L 95.713295 257.144549 
L 95.800292 257.083095 
L 95.858289 257.064825 
L 95.858289 256.973477 
L 95.945287 256.370565 
L 96.148279 256.30247 
L 96.148279 256.260947 
L 96.246878 255.51852 
L 96.438268 255.447104 
L 96.438268 255.408902 
L 96.525266 254.709659 
L 96.728261 254.610002 
L 96.728261 254.600041 
L 96.838731 253.81277 
L 96.902253 253.743012 
L 96.902253 253.703148 
L 97.01245 253.447368 
L 97.01825 253.447368 
L 97.01825 253.337751 
L 97.121433 245.285668 
L 97.250239 245.186016 
L 97.250239 245.17605 
L 97.348838 244.548228 
L 97.569229 244.455217 
L 97.569229 244.438606 
L 97.656226 243.631407 
L 97.888219 243.536734 
L 97.888219 243.521785 
L 97.975216 242.737835 
L 98.178208 242.636521 
L 98.178208 242.628217 
L 98.265206 241.849254 
L 98.398599 241.739628 
L 98.497198 237.786672 
L 98.584192 237.693661 
L 98.584192 237.677054 
L 98.671189 237.594009 
L 98.758187 237.542516 
L 98.758187 237.484382 
L 98.845184 236.590814 
L 99.019179 236.504454 
L 99.019179 236.481197 
L 99.126473 235.622505 
L 99.280169 235.526179 
L 99.280169 235.512888 
L 99.367166 234.481466 
L 99.512161 234.375164 
L 99.512161 234.371848 
L 99.61719 234.29877 
L 99.628155 234.29877 
L 99.628155 234.189143 
L 99.715153 233.278968 
L 99.80215 233.184294 
L 99.80215 233.16935 
L 99.909004 232.822218 
L 99.918145 232.818892 
L 99.918145 232.7126 
L 100.005142 220.830466 
L 100.12114 220.73413 
L 100.12114 220.720848 
L 100.208134 219.990044 
L 100.411129 219.883752 
L 100.411129 219.880427 
L 100.498127 219.035026 
L 100.643122 218.933712 
L 100.643122 218.925409 
L 100.730116 218.875578 
L 100.788116 218.860634 
L 100.788116 218.76596 
L 100.886712 218.016887 
L 101.049105 217.93883 
L 101.049105 217.907269 
L 101.136103 217.033633 
L 101.281098 216.927332 
L 101.281098 216.924016 
L 101.384132 212.567447 
L 101.426092 212.469458 
L 101.426092 212.457829 
L 101.533842 212.33492 
L 101.658085 212.245235 
L 101.658085 212.225302 
L 101.745082 211.233745 
L 101.948074 211.124118 
L 102.035072 210.333527 
L 102.238063 210.243841 
L 102.238063 210.223909 
L 102.325061 209.313734 
L 102.499056 209.214082 
L 102.499056 209.204116 
L 102.58605 208.224179 
L 102.673048 208.156079 
L 102.673048 208.114561 
L 102.777192 207.870405 
L 102.789045 207.868743 
L 102.789045 207.760788 
L 102.87604 195.925159 
L 102.93404 195.833811 
L 102.93404 195.815532 
L 103.021034 195.685982 
L 103.108032 195.642802 
L 103.108032 195.576364 
L 103.195029 194.885425 
L 103.398021 194.787436 
L 103.398021 194.775807 
L 103.485019 193.898846 
L 103.659014 193.805836 
L 103.659014 193.789229 
L 103.746011 192.820919 
L 103.920003 192.71628 
L 103.920003 192.711302 
L 104.016237 191.736352 
L 104.122998 191.643341 
L 104.122998 191.626725 
L 104.221594 191.507141 
L 104.267993 191.439041 
L 104.267993 191.397523 
L 104.354987 186.919717 
L 104.470985 186.821719 
L 104.470985 186.810099 
L 104.560883 185.923172 
L 104.702977 185.820195 
L 104.702977 185.813554 
L 104.789975 185.742129 
L 104.847972 185.710578 
L 104.847972 185.632511 
L 104.934969 184.727315 
L 105.079964 184.642608 
L 105.079964 184.617697 
L 105.166958 183.498243 
L 105.282956 183.398591 
L 105.282956 183.388625 
L 105.369953 183.315547 
L 105.427951 183.288974 
L 105.427951 183.205929 
L 105.536481 182.23097 
L 105.601946 182.123015 
L 105.601946 182.121352 
L 105.712139 181.702804 
L 105.71794 181.697825 
L 105.71794 181.593186 
L 105.819318 166.517127 
L 105.862938 166.435745 
L 105.862938 166.407509 
L 105.949929 166.253039 
L 106.007929 166.218162 
L 106.007929 166.143421 
L 106.094927 165.268123 
L 106.297919 165.196707 
L 106.297919 165.158505 
L 106.39965 164.538982 
L 106.587908 164.490823 
L 106.587908 164.429364 
L 106.674906 163.690266 
L 106.877898 163.580648 
L 106.964895 162.848182 
L 107.109893 162.750183 
L 107.109893 162.738564 
L 107.212129 159.971481 
L 107.283882 159.866851 
L 107.283882 159.861863 
L 107.370879 159.788785 
L 107.457877 159.765546 
L 107.457877 159.679167 
L 107.544874 159.164292 
L 107.747866 159.10117 
L 107.747866 159.054674 
L 107.85835 158.46007 
L 108.037855 158.370367 
L 108.037855 158.350453 
L 108.137208 157.735917 
L 108.298848 157.634594 
L 108.298848 157.626281 
L 108.409042 156.772577 
L 108.472843 156.691204 
L 108.472843 156.662959 
L 108.571442 156.440399 
L 108.588837 156.440399 
L 108.588837 156.330781 
L 108.675835 146.342076 
L 108.733836 146.260703 
L 108.733836 146.232458 
L 108.820833 146.114546 
L 108.907824 146.079651 
L 108.907824 146.00491 
L 108.994821 145.478415 
L 109.197813 145.378754 
L 109.197813 145.368797 
L 109.290058 144.840622 
L 109.487809 144.779163 
L 109.487809 144.731004 
L 109.582219 144.307478 
L 109.777799 144.239369 
L 109.777799 144.197842 
L 109.879786 143.659709 
L 110.009788 143.575011 
L 110.009788 143.550092 
L 110.096785 140.736513 
L 110.21278 140.640195 
L 110.21278 140.626895 
L 110.299777 140.597006 
L 110.357778 140.590356 
L 110.357778 140.487388 
L 110.444775 140.110357 
L 110.647767 140.060536 
L 110.647767 140.000739 
L 110.734765 139.578875 
L 110.937757 139.497484 
L 110.937757 139.469239 
L 111.024754 138.93277 
L 111.227746 138.844746 
L 111.227746 138.823152 
L 111.314743 138.172077 
L 111.401741 138.062459 
L 111.509038 137.785089 
L 111.517735 137.778439 
L 111.517735 137.675471 
L 111.604733 127.954179 
L 111.69173 127.846224 
L 111.69173 127.844561 
L 111.778728 127.7449 
L 111.807725 127.7449 
L 111.807725 127.635283 
L 111.911295 127.120408 
L 112.097714 127.062274 
L 112.097714 127.010772 
L 112.184712 126.577288 
L 112.387704 126.510841 
L 112.387704 126.46767 
L 112.474701 126.014236 
L 112.677693 125.962752 
L 112.677693 125.904618 
L 112.764691 125.454509 
L 112.909682 125.359836 
L 112.909682 125.344891 
L 113.020124 122.825289 
L 113.141678 122.730616 
L 113.141678 122.715671 
L 113.228675 122.684119 
L 113.257672 122.684119 
L 113.257672 122.574502 
L 113.344669 122.119405 
L 113.547661 122.062934 
L 113.547661 122.009787 
L 113.634659 121.531451 
L 113.837651 121.45671 
L 113.837651 121.421834 
L 113.924648 120.805635 
L 114.098643 120.705974 
L 114.098643 120.695999 
L 114.207102 120.084789 
L 114.272638 120.008385 
L 114.272638 119.975171 
L 114.382832 119.817394 
L 114.41763 119.736003 
L 114.41763 119.707776 
L 114.504627 109.679207 
L 114.591625 109.581209 
L 114.591625 109.569589 
L 114.678622 109.501498 
L 114.707619 109.501498 
L 114.707619 109.391862 
L 114.794617 108.872 
L 114.997608 108.800584 
L 114.997608 108.762382 
L 115.084606 108.345505 
L 115.287598 108.274089 
L 115.287598 108.235887 
L 115.374595 107.828949 
L 115.577587 107.757533 
L 115.577587 107.719332 
L 115.681987 107.3174 
L 115.83858 107.239333 
L 115.83858 107.207782 
L 115.931378 105.075167 
L 116.157566 104.977187 
L 116.157566 104.965549 
L 116.264863 104.608451 
L 116.447556 104.560292 
L 116.447556 104.498833 
L 116.534553 104.184924 
L 116.737552 104.120158 
L 116.737552 104.075306 
L 116.824543 103.591983 
L 117.027541 103.510592 
L 117.027541 103.482365 
L 117.137735 102.952527 
L 117.201529 102.871154 
L 117.201529 102.84291 
L 117.305929 102.665201 
L 117.317531 102.665201 
L 117.317531 102.555583 
L 117.418674 94.948618 
L 117.520523 94.840662 
L 117.520523 94.839 
L 117.626879 94.383903 
L 117.868506 94.280935 
L 117.868506 94.274285 
L 117.955503 93.918849 
L 118.187499 93.835814 
L 118.187499 93.809232 
L 118.274497 93.465433 
L 118.477488 93.415594 
L 118.477488 93.355816 
L 118.564486 93.071796 
L 118.738474 92.978785 
L 118.738474 92.962178 
L 118.825472 91.488951 
L 119.057467 91.387628 
L 119.057467 91.379333 
L 119.144465 91.022235 
L 119.347457 90.982371 
L 119.347457 90.912617 
L 119.434454 90.686731 
L 119.637446 90.643542 
L 119.637446 90.577113 
L 119.724444 90.196758 
L 119.927436 90.092128 
L 119.927436 90.08714 
L 120.014433 89.510806 
L 120.101431 89.429415 
L 120.101431 89.401188 
L 120.205823 89.216829 
L 120.217425 89.213504 
L 120.217425 89.107211 
L 120.321818 80.214703 
L 120.39142 80.134993 
L 120.39142 80.105085 
L 120.478418 80.050276 
L 120.507414 80.050276 
L 120.507414 79.940658 
L 120.594412 79.566953 
L 120.797404 79.510482 
L 120.797404 79.457335 
L 120.884401 79.17664 
L 121.087393 79.141764 
L 121.087393 79.067023 
L 121.174391 78.826192 
L 121.377383 78.778015 
L 121.377383 78.716574 
L 121.46438 78.440849 
L 121.667372 78.352826 
L 121.667372 78.331231 
L 121.765971 77.000855 
L 121.957362 76.93607 
L 121.957362 76.891237 
L 122.044359 76.618837 
L 122.247351 76.577328 
L 122.247351 76.509219 
L 122.334348 76.278363 
L 122.53734 76.236837 
L 122.53734 76.168727 
L 122.624338 75.93621 
L 122.82733 75.861469 
L 122.82733 75.826592 
L 122.93173 75.376483 
L 123.030322 75.276822 
L 123.030322 75.266865 
L 123.140522 69.294246 
L 123.146323 69.290921 
L 123.146323 69.184629 
L 123.233321 68.958743 
L 123.407309 68.857419 
L 123.407309 68.849125 
L 123.494306 68.430568 
L 123.697298 68.380746 
L 123.697298 68.32095 
L 123.784296 68.073469 
L 123.987294 68.045243 
L 123.987294 67.963852 
L 124.045288 67.827651 
L 124.277284 67.77783 
L 124.277284 67.718034 
L 124.364274 67.470571 
L 124.538269 67.372573 
L 124.538269 67.360935 
L 124.628171 65.917616 
L 124.857263 65.839549 
L 124.857263 65.807998 
L 124.961656 65.590425 
L 125.147252 65.557192 
L 125.147252 65.480789 
L 125.23425 65.319687 
L 125.437242 65.273191 
L 125.437242 65.210069 
L 125.524239 64.964251 
L 125.727231 64.904455 
L 125.727231 64.854633 
L 125.819995 64.510817 
L 125.95922 64.409512 
L 125.95922 64.401199 
L 126.057819 58.99662 
L 126.104218 58.926849 
L 126.104218 58.886984 
L 126.191215 58.745815 
L 126.30721 58.702625 
L 126.30721 58.636197 
L 126.394207 58.362152 
L 126.597199 58.3173 
L 126.597199 58.252534 
L 126.684197 58.056538 
L 126.887189 58.023323 
L 126.887189 57.94692 
L 126.974186 57.802425 
L 127.177178 57.752586 
L 127.177178 57.692807 
L 127.264176 57.503461 
L 127.467168 57.42207 
L 127.467168 57.393843 
L 127.554165 56.078393 
L 127.757157 56.015289 
L 127.757157 55.968775 
L 127.852852 55.801023 
L 128.047146 55.766146 
L 128.047146 55.691405 
L 128.134144 55.545248 
L 128.337136 55.513696 
L 128.337136 55.43563 
L 128.424133 55.252934 
L 128.627125 55.17653 
L 128.627125 55.143316 
L 128.714123 54.827727 
L 128.830117 54.734716 
L 128.830117 54.718109 
L 128.93191 48.690681 
L 128.975115 48.581063 
L 129.062113 48.33857 
L 129.207104 48.255517 
L 129.207104 48.228953 
L 129.294102 47.906731 
L 129.497093 47.865204 
L 129.497093 47.797113 
L 129.584091 47.657588 
L 129.787083 47.627699 
L 129.787083 47.54797 
L 129.87408 47.456622 
L 130.077072 47.42507 
L 130.077072 47.347004 
L 130.16407 47.185902 
L 130.367062 47.109499 
L 130.367062 47.076285 
L 130.454059 46.053167 
L 130.657051 46.016627 
L 130.657051 45.943549 
L 130.744049 45.827281 
L 130.947041 45.804024 
L 130.947041 45.717663 
L 131.034038 45.637934 
L 131.237037 45.606383 
L 131.237037 45.528317 
L 131.324028 45.402092 
L 131.527026 45.353915 
L 131.527026 45.292456 
L 131.614017 45.056613 
L 131.788012 44.958615 
L 131.788012 44.946995 
L 131.87501 41.15515 
L 132.049005 41.057152 
L 132.049005 41.045532 
L 132.136002 40.803039 
L 132.396995 40.746568 
L 132.396995 40.693403 
L 132.483992 40.588773 
L 132.686984 40.568841 
L 132.686984 40.479155 
L 132.773982 40.445941 
L 132.976973 40.424346 
L 132.976973 40.336323 
L 133.063971 40.254932 
L 133.266963 40.213405 
L 133.266963 40.145314 
L 133.37426 39.372983 
L 133.556952 39.316512 
L 133.556952 39.263366 
L 133.64395 39.157073 
L 133.846942 39.142128 
L 133.846942 39.047455 
L 133.933939 39.015903 
L 134.136931 38.990984 
L 134.136931 38.906267 
L 134.223929 38.783367 
L 134.426921 38.721908 
L 134.426921 38.67375 
L 134.513918 38.447864 
L 134.687913 38.343233 
L 134.687913 38.338246 
L 134.783608 34.07636 
L 134.861908 33.991643 
L 134.861908 33.966742 
L 134.948899 33.911933 
L 135.006899 33.900295 
L 135.006899 33.802297 
L 135.114196 33.647845 
L 135.296889 33.612969 
L 135.296889 33.538228 
L 135.383886 33.470118 
L 135.586878 33.445217 
L 135.586878 33.360501 
L 135.615875 33.332274 
L 135.876868 33.314004 
L 135.876868 33.222656 
L 135.963865 33.197736 
L 136.166857 33.167847 
L 136.166857 33.088118 
L 136.253855 32.752615 
L 136.456847 32.709426 
L 136.456847 32.642997 
L 136.543844 32.586526 
L 136.86283 32.480215 
L 136.86283 32.476908 
L 136.949828 32.460301 
L 137.094826 32.350665 
L 137.181824 32.330733 
L 137.326815 32.297518 
L 137.326815 32.221115 
L 137.413812 32.141404 
L 137.616804 32.045068 
L 137.616804 32.031786 
L 137.703802 29.915779 
L 137.906794 29.822768 
L 137.906794 29.806161 
L 137.993791 29.635084 
L 138.196783 29.615152 
L 138.196783 29.525466 
L 138.283781 29.503871 
L 138.718768 29.394254 
L 138.805766 29.286298 
L 139.066758 29.253084 
L 139.066758 29.17668 
L 139.153756 28.783043 
L 139.356748 28.753154 
L 139.356748 28.673425 
L 139.443745 28.65183 
L 139.791728 28.542213 
L 139.878726 28.527268 
L 140.139718 28.424282 
L 140.139718 28.41765 
L 140.226716 28.264843 
L 140.487702 28.160194 
L 140.487702 28.155225 
L 140.597868 25.976114 
L 140.777698 25.878116 
L 140.777698 25.866496 
L 140.864689 25.731959 
L 141.096684 25.705376 
L 141.096684 25.622341 
L 141.183682 25.605734 
L 141.676663 25.509398 
L 141.676663 25.496098 
L 141.763661 25.413062 
L 141.966653 25.378185 
L 141.966653 25.303444 
L 142.05365 24.99783 
L 142.546631 24.921426 
L 142.546631 24.888212 
L 142.633629 24.85001 
L 143.12661 24.742055 
L 143.12661 24.740392 
L 143.213608 24.639087 
L 143.4166 24.546076 
L 143.4166 24.529451 
L 143.503597 23.247233 
L 143.706589 23.212356 
L 143.706589 23.137615 
L 143.793587 23.102739 
L 144.286568 23.003078 
L 144.286568 22.993121 
L 144.373565 22.949931 
L 144.866547 22.848626 
L 144.866547 22.840314 
L 144.953544 22.606133 
L 145.446526 22.533055 
L 145.446526 22.496515 
L 145.504526 22.481553 
L 146.026511 22.398517 
L 146.026511 22.371935 
L 146.113502 22.338721 
L 146.316501 22.297194 
L 146.316501 22.229103 
L 146.403498 21.478367 
L 146.693488 21.368749 
L 146.780478 21.358792 
L 147.476458 21.259131 
L 147.476458 21.249174 
L 147.563456 21.224254 
L 147.766448 21.210972 
L 147.766448 21.114637 
L 147.853445 21.041558 
L 148.636416 20.941897 
L 148.636416 20.93194 
L 148.723414 20.903695 
L 149.013403 20.800728 
L 149.013403 20.794078 
L 149.100401 20.775808 
L 149.216395 20.762526 
L 149.216395 20.66619 
L 149.323692 19.676286 
L 149.564385 19.569994 
L 149.564385 19.566669 
L 149.651383 19.550061 
L 150.376353 19.450401 
L 150.376353 19.440444 
L 150.434353 19.418849 
L 150.956332 19.317526 
L 150.956332 19.309231 
L 151.014332 19.284311 
L 151.8263 19.196288 
L 151.8263 19.174693 
L 151.8843 19.148111 
L 152.116289 19.126535 
L 152.116289 19.038493 
L 152.203287 18.646518 
L 152.986264 18.540225 
L 152.986264 18.5369 
L 153.015261 18.521956 
L 153.566243 18.470472 
L 153.566243 18.412338 
L 153.59524 18.377461 
L 155.01619 18.279463 
L 155.01619 18.267843 
L 155.103188 18.003756 
L 156.466138 17.894138 
L 156.553135 17.836004 
L 157.887088 17.726386 
L 157.974085 17.349356 
L 159.366032 17.258007 
L 159.366032 17.239738 
L 159.453029 17.223131 
L 160.815986 17.135089 
L 160.815986 17.113513 
L 160.902983 16.947424 
L 162.265933 16.854413 
L 162.265933 16.837788 
L 162.29493 16.817856 
L 163.71588 16.7232 
L 163.71588 16.708238 
L 163.773874 16.440843 
L 166.325792 16.334532 
L 166.325792 16.331225 
L 166.383785 16.324575 
L 166.731776 16.214957 
L 166.789769 16.20997 
L 169.370684 16.103677 
L 169.370684 16.100352 
L 169.457675 16.097027 
L 169.515668 16.097027 
L 169.515668 15.987409 
L 169.573676 15.962489 
L 172.415577 15.892736 
L 172.415577 15.852872 
L 172.502567 15.816332 
L 175.315471 15.744916 
L 175.315471 15.706714 
L 175.402461 15.696757 
L 178.215365 15.64858 
L 178.215365 15.587139 
L 178.273359 15.540625 
L 183.725171 15.434332 
L 183.725171 15.431007 
L 183.725171 15.429345 
L 192.71485 15.334671 
L 192.71485 15.319727 
L 192.723548 15.29647 
L 207.649316 15.186852 
L 207.649316 15.185189 
L 222.583795 15.075571 
L 222.583795 15.073909 
L 243.753044 14.964291 
L 243.753044 14.960966 
L 266.111247 14.851348 
L 266.111247 14.849686 
L 381.208155 14.763325 
L 381.208155 14.761663 
" clip-path="url(#pe48fe714a8)" style="fill: none; stroke: #1f77b4"/>
   </g>
   <g id="line2d_15">
    <path d="M 163.71588 317.93875 
L 163.71588 14.76 
" clip-path="url(#pe48fe714a8)" style="fill: none; stroke-dasharray: 3.7,1.6; stroke-dashoffset: 0; stroke: #808080"/>
   </g>
   <g id="patch_3">
    <path d="M 47.72 317.93875 
L 47.72 14.76 
" style="fill: none; stroke: #000000; stroke-width: 0.8; stroke-linejoin: miter; stroke-linecap: square"/>
   </g>
   <g id="patch_4">
    <path d="M 47.72 317.93875 
L 337.7097 317.93875 
" style="fill: none; stroke: #000000; stroke-width: 0.8; stroke-linejoin: miter; stroke-linecap: square"/>
   </g>
  </g>
  <g id="legend_1">
   <g id="text_15">
    <!-- exptl_methods -->
    <g transform="translate(397.505781 167.942187) scale(0.1 -0.1)">
     <defs>
      <path id="DejaVuSans-78" d="M 3513 3500 
L 2247 1797 
L 3578 0 
L 2900 0 
L 1881 1375 
L 863 0 
L 184 0 
L 1544 1831 
L 300 3500 
L 978 3500 
L 1906 2253 
L 2834 3500 
L 3513 3500 
z
" transform="scale(0.015625)"/>
      <path id="DejaVuSans-6d" d="M 3328 2828 
Q 3544 3216 3844 3400 
Q 4144 3584 4550 3584 
Q 5097 3584 5394 3201 
Q 5691 2819 5691 2113 
L 5691 0 
L 5113 0 
L 5113 2094 
Q 5113 2597 4934 2840 
Q 4756 3084 4391 3084 
Q 3944 3084 3684 2787 
Q 3425 2491 3425 1978 
L 3425 0 
L 2847 0 
L 2847 2094 
Q 2847 2600 2669 2842 
Q 2491 3084 2119 3084 
Q 1678 3084 1418 2786 
Q 1159 2488 1159 1978 
L 1159 0 
L 581 0 
L 581 3500 
L 1159 3500 
L 1159 2956 
Q 1356 3278 1631 3431 
Q 1906 3584 2284 3584 
Q 2666 3584 2933 3390 
Q 3200 3197 3328 2828 
z
" transform="scale(0.015625)"/>
      <path id="DejaVuSans-68" d="M 3513 2113 
L 3513 0 
L 2938 0 
L 2938 2094 
Q 2938 2591 2744 2837 
Q 2550 3084 2163 3084 
Q 1697 3084 1428 2787 
Q 1159 2491 1159 1978 
L 1159 0 
L 581 0 
L 581 4863 
L 1159 4863 
L 1159 2956 
Q 1366 3272 1645 3428 
Q 1925 3584 2291 3584 
Q 2894 3584 3203 3211 
Q 3513 2838 3513 2113 
z
" transform="scale(0.015625)"/>
      <path id="DejaVuSans-64" d="M 2906 2969 
L 2906 4863 
L 3481 4863 
L 3481 0 
L 2906 0 
L 2906 525 
Q 2725 213 2448 61 
Q 2172 -91 1784 -91 
Q 1150 -91 751 415 
Q 353 922 353 1747 
Q 353 2572 751 3078 
Q 1150 3584 1784 3584 
Q 2172 3584 2448 3432 
Q 2725 3281 2906 2969 
z
M 947 1747 
Q 947 1113 1208 752 
Q 1469 391 1925 391 
Q 2381 391 2643 752 
Q 2906 1113 2906 1747 
Q 2906 2381 2643 2742 
Q 2381 3103 1925 3103 
Q 1469 3103 1208 2742 
Q 947 2381 947 1747 
z
" transform="scale(0.015625)"/>
     </defs>
     <use xlink:href="#DejaVuSans-65"/>
     <use xlink:href="#DejaVuSans-78" x="59.773438"/>
     <use xlink:href="#DejaVuSans-70" x="118.953125"/>
     <use xlink:href="#DejaVuSans-74" x="182.429688"/>
     <use xlink:href="#DejaVuSans-6c" x="221.638672"/>
     <use xlink:href="#DejaVuSans-5f" x="249.421875"/>
     <use xlink:href="#DejaVuSans-6d" x="299.421875"/>
     <use xlink:href="#DejaVuSans-65" x="396.833984"/>
     <use xlink:href="#DejaVuSans-74" x="458.357422"/>
     <use xlink:href="#DejaVuSans-68" x="497.566406"/>
     <use xlink:href="#DejaVuSans-6f" x="560.945312"/>
     <use xlink:href="#DejaVuSans-64" x="622.126953"/>
     <use xlink:href="#DejaVuSans-73" x="685.603516"/>
    </g>
   </g>
   <g id="line2d_16">
    <path d="M 358.753437 179.398438 
L 368.753437 179.398438 
L 368.753437 179.398438 
L 378.753437 179.398438 
L 378.753437 179.398438 
" style="fill: none; stroke: #1f77b4"/>
   </g>
   <g id="text_16">
    <!-- X-RAY DIFFRACTION -->
    <g transform="translate(386.753437 182.898438) scale(0.1 -0.1)">
     <defs>
      <path id="DejaVuSans-58" d="M 403 4666 
L 1081 4666 
L 2241 2931 
L 3406 4666 
L 4084 4666 
L 2584 2425 
L 4184 0 
L 3506 0 
L 2194 1984 
L 872 0 
L 191 0 
L 1856 2491 
L 403 4666 
z
" transform="scale(0.015625)"/>
      <path id="DejaVuSans-2d" d="M 313 2009 
L 1997 2009 
L 1997 1497 
L 313 1497 
L 313 2009 
z
" transform="scale(0.015625)"/>
      <path id="DejaVuSans-52" d="M 2841 2188 
Q 3044 2119 3236 1894 
Q 3428 1669 3622 1275 
L 4263 0 
L 3584 0 
L 2988 1197 
Q 2756 1666 2539 1819 
Q 2322 1972 1947 1972 
L 1259 1972 
L 1259 0 
L 628 0 
L 628 4666 
L 2053 4666 
Q 2853 4666 3247 4331 
Q 3641 3997 3641 3322 
Q 3641 2881 3436 2590 
Q 3231 2300 2841 2188 
z
M 1259 4147 
L 1259 2491 
L 2053 2491 
Q 2509 2491 2742 2702 
Q 2975 2913 2975 3322 
Q 2975 3731 2742 3939 
Q 2509 4147 2053 4147 
L 1259 4147 
z
" transform="scale(0.015625)"/>
      <path id="DejaVuSans-59" d="M -13 4666 
L 666 4666 
L 1959 2747 
L 3244 4666 
L 3922 4666 
L 2272 2222 
L 2272 0 
L 1638 0 
L 1638 2222 
L -13 4666 
z
" transform="scale(0.015625)"/>
      <path id="DejaVuSans-20" transform="scale(0.015625)"/>
      <path id="DejaVuSans-44" d="M 1259 4147 
L 1259 519 
L 2022 519 
Q 2988 519 3436 956 
Q 3884 1394 3884 2338 
Q 3884 3275 3436 3711 
Q 2988 4147 2022 4147 
L 1259 4147 
z
M 628 4666 
L 1925 4666 
Q 3281 4666 3915 4102 
Q 4550 3538 4550 2338 
Q 4550 1131 3912 565 
Q 3275 0 1925 0 
L 628 0 
L 628 4666 
z
" transform="scale(0.015625)"/>
      <path id="DejaVuSans-49" d="M 628 4666 
L 1259 4666 
L 1259 0 
L 628 0 
L 628 4666 
z
" transform="scale(0.015625)"/>
      <path id="DejaVuSans-46" d="M 628 4666 
L 3309 4666 
L 3309 4134 
L 1259 4134 
L 1259 2759 
L 3109 2759 
L 3109 2228 
L 1259 2228 
L 1259 0 
L 628 0 
L 628 4666 
z
" transform="scale(0.015625)"/>
      <path id="DejaVuSans-43" d="M 4122 4306 
L 4122 3641 
Q 3803 3938 3442 4084 
Q 3081 4231 2675 4231 
Q 1875 4231 1450 3742 
Q 1025 3253 1025 2328 
Q 1025 1406 1450 917 
Q 1875 428 2675 428 
Q 3081 428 3442 575 
Q 3803 722 4122 1019 
L 4122 359 
Q 3791 134 3420 21 
Q 3050 -91 2638 -91 
Q 1578 -91 968 557 
Q 359 1206 359 2328 
Q 359 3453 968 4101 
Q 1578 4750 2638 4750 
Q 3056 4750 3426 4639 
Q 3797 4528 4122 4306 
z
" transform="scale(0.015625)"/>
      <path id="DejaVuSans-54" d="M -19 4666 
L 3928 4666 
L 3928 4134 
L 2272 4134 
L 2272 0 
L 1638 0 
L 1638 4134 
L -19 4134 
L -19 4666 
z
" transform="scale(0.015625)"/>
      <path id="DejaVuSans-4f" d="M 2522 4238 
Q 1834 4238 1429 3725 
Q 1025 3213 1025 2328 
Q 1025 1447 1429 934 
Q 1834 422 2522 422 
Q 3209 422 3611 934 
Q 4013 1447 4013 2328 
Q 4013 3213 3611 3725 
Q 3209 4238 2522 4238 
z
M 2522 4750 
Q 3503 4750 4090 4092 
Q 4678 3434 4678 2328 
Q 4678 1225 4090 567 
Q 3503 -91 2522 -91 
Q 1538 -91 948 565 
Q 359 1222 359 2328 
Q 359 3434 948 4092 
Q 1538 4750 2522 4750 
z
" transform="scale(0.015625)"/>
      <path id="DejaVuSans-4e" d="M 628 4666 
L 1478 4666 
L 3547 763 
L 3547 4666 
L 4159 4666 
L 4159 0 
L 3309 0 
L 1241 3903 
L 1241 0 
L 628 0 
L 628 4666 
z
" transform="scale(0.015625)"/>
     </defs>
     <use xlink:href="#DejaVuSans-58"/>
     <use xlink:href="#DejaVuSans-2d" x="63.505859"/>
     <use xlink:href="#DejaVuSans-52" x="99.589844"/>
     <use xlink:href="#DejaVuSans-41" x="165.072266"/>
     <use xlink:href="#DejaVuSans-59" x="225.730469"/>
     <use xlink:href="#DejaVuSans-20" x="286.814453"/>
     <use xlink:href="#DejaVuSans-44" x="318.601562"/>
     <use xlink:href="#DejaVuSans-49" x="395.603516"/>
     <use xlink:href="#DejaVuSans-46" x="425.095703"/>
     <use xlink:href="#DejaVuSans-46" x="482.615234"/>
     <use xlink:href="#DejaVuSans-52" x="540.134766"/>
     <use xlink:href="#DejaVuSans-41" x="605.617188"/>
     <use xlink:href="#DejaVuSans-43" x="672.275391"/>
     <use xlink:href="#DejaVuSans-54" x="742.099609"/>
     <use xlink:href="#DejaVuSans-49" x="803.183594"/>
     <use xlink:href="#DejaVuSans-4f" x="832.675781"/>
     <use xlink:href="#DejaVuSans-4e" x="911.386719"/>
    </g>
   </g>
   <g id="line2d_17">
    <path d="M 358.753437 194.076562 
L 368.753437 194.076562 
L 368.753437 194.076562 
L 378.753437 194.076562 
L 378.753437 194.076562 
" style="fill: none; stroke: #ff7f0e"/>
   </g>
   <g id="text_17">
    <!-- ELECTRON MICROSCOPY -->
    <g transform="translate(386.753437 197.576562) scale(0.1 -0.1)">
     <defs>
      <path id="DejaVuSans-45" d="M 628 4666 
L 3578 4666 
L 3578 4134 
L 1259 4134 
L 1259 2753 
L 3481 2753 
L 3481 2222 
L 1259 2222 
L 1259 531 
L 3634 531 
L 3634 0 
L 628 0 
L 628 4666 
z
" transform="scale(0.015625)"/>
      <path id="DejaVuSans-4c" d="M 628 4666 
L 1259 4666 
L 1259 531 
L 3531 531 
L 3531 0 
L 628 0 
L 628 4666 
z
" transform="scale(0.015625)"/>
      <path id="DejaVuSans-4d" d="M 628 4666 
L 1569 4666 
L 2759 1491 
L 3956 4666 
L 4897 4666 
L 4897 0 
L 4281 0 
L 4281 4097 
L 3078 897 
L 2444 897 
L 1241 4097 
L 1241 0 
L 628 0 
L 628 4666 
z
" transform="scale(0.015625)"/>
      <path id="DejaVuSans-53" d="M 3425 4513 
L 3425 3897 
Q 3066 4069 2747 4153 
Q 2428 4238 2131 4238 
Q 1616 4238 1336 4038 
Q 1056 3838 1056 3469 
Q 1056 3159 1242 3001 
Q 1428 2844 1947 2747 
L 2328 2669 
Q 3034 2534 3370 2195 
Q 3706 1856 3706 1288 
Q 3706 609 3251 259 
Q 2797 -91 1919 -91 
Q 1588 -91 1214 -16 
Q 841 59 441 206 
L 441 856 
Q 825 641 1194 531 
Q 1563 422 1919 422 
Q 2459 422 2753 634 
Q 3047 847 3047 1241 
Q 3047 1584 2836 1778 
Q 2625 1972 2144 2069 
L 1759 2144 
Q 1053 2284 737 2584 
Q 422 2884 422 3419 
Q 422 4038 858 4394 
Q 1294 4750 2059 4750 
Q 2388 4750 2728 4690 
Q 3069 4631 3425 4513 
z
" transform="scale(0.015625)"/>
     </defs>
     <use xlink:href="#DejaVuSans-45"/>
     <use xlink:href="#DejaVuSans-4c" x="63.183594"/>
     <use xlink:href="#DejaVuSans-45" x="118.896484"/>
     <use xlink:href="#DejaVuSans-43" x="182.080078"/>
     <use xlink:href="#DejaVuSans-54" x="251.904297"/>
     <use xlink:href="#DejaVuSans-52" x="312.988281"/>
     <use xlink:href="#DejaVuSans-4f" x="382.470703"/>
     <use xlink:href="#DejaVuSans-4e" x="461.181641"/>
     <use xlink:href="#DejaVuSans-20" x="535.986328"/>
     <use xlink:href="#DejaVuSans-4d" x="567.773438"/>
     <use xlink:href="#DejaVuSans-49" x="654.052734"/>
     <use xlink:href="#DejaVuSans-43" x="683.544922"/>
     <use xlink:href="#DejaVuSans-52" x="753.369141"/>
     <use xlink:href="#DejaVuSans-4f" x="822.851562"/>
     <use xlink:href="#DejaVuSans-53" x="901.5625"/>
     <use xlink:href="#DejaVuSans-43" x="965.039062"/>
     <use xlink:href="#DejaVuSans-4f" x="1034.863281"/>
     <use xlink:href="#DejaVuSans-50" x="1113.574219"/>
     <use xlink:href="#DejaVuSans-59" x="1171.626953"/>
    </g>
   </g>
  </g>
 </g>
 <defs>
  <clipPath id="pe48fe714a8">
   <rect x="47.72" y="14.76" width="289.9897" height="303.17875"/>
  </clipPath>
 </defs>
</svg>
