<?xml version="1.0" encoding="utf-8" standalone="no"?>
<!DOCTYPE svg PUBLIC "-//W3C//DTD SVG 1.1//EN"
  "http://www.w3.org/Graphics/SVG/1.1/DTD/svg11.dtd">
<svg xmlns:xlink="http://www.w3.org/1999/xlink" width="360pt" height="360pt" viewBox="0 0 360 360" xmlns="http://www.w3.org/2000/svg" version="1.1">
 <metadata>
  <rdf:RDF xmlns:dc="http://purl.org/dc/elements/1.1/" xmlns:cc="http://creativecommons.org/ns#" xmlns:rdf="http://www.w3.org/1999/02/22-rdf-syntax-ns#">
   <cc:Work>
    <dc:type rdf:resource="http://purl.org/dc/dcmitype/StillImage"/>
    <dc:date>2024-02-22T16:16:24.583416</dc:date>
    <dc:format>image/svg+xml</dc:format>
    <dc:creator>
     <cc:Agent>
      <dc:title>Matplotlib v3.7.1, https://matplotlib.org/</dc:title>
     </cc:Agent>
    </dc:creator>
   </cc:Work>
  </rdf:RDF>
 </metadata>
 <defs>
  <style type="text/css">*{stroke-linejoin: round; stroke-linecap: butt}</style>
 </defs>
 <g id="figure_1">
  <g id="patch_1">
   <path d="M 0 360 
L 360 360 
L 360 0 
L 0 0 
L 0 360 
z
" style="fill: none"/>
  </g>
  <g id="axes_1">
   <g id="patch_2">
    <path d="M 47.72 318.04 
L 339.705 318.04 
L 339.705 14.76 
L 47.72 14.76 
z
" style="fill: #ffffff"/>
   </g>
   <g id="matplotlib.axis_1">
    <g id="xtick_1">
     <g id="line2d_1">
      <defs>
       <path id="m9b523a9c8e" d="M 0 0 
L 0 3.5 
" style="stroke: #000000; stroke-width: 0.8"/>
      </defs>
      <g>
       <use xlink:href="#m9b523a9c8e" x="47.72" y="318.04" style="stroke: #000000; stroke-width: 0.8"/>
      </g>
     </g>
     <g id="text_1">
      <!-- 0 -->
      <g transform="translate(44.53875 332.638438) scale(0.1 -0.1)">
       <defs>
        <path id="DejaVuSans-30" d="M 2034 4250 
Q 1547 4250 1301 3770 
Q 1056 3291 1056 2328 
Q 1056 1369 1301 889 
Q 1547 409 2034 409 
Q 2525 409 2770 889 
Q 3016 1369 3016 2328 
Q 3016 3291 2770 3770 
Q 2525 4250 2034 4250 
z
M 2034 4750 
Q 2819 4750 3233 4129 
Q 3647 3509 3647 2328 
Q 3647 1150 3233 529 
Q 2819 -91 2034 -91 
Q 1250 -91 836 529 
Q 422 1150 422 2328 
Q 422 3509 836 4129 
Q 1250 4750 2034 4750 
z
" transform="scale(0.015625)"/>
       </defs>
       <use xlink:href="#DejaVuSans-30"/>
      </g>
     </g>
    </g>
    <g id="xtick_2">
     <g id="line2d_2">
      <g>
       <use xlink:href="#m9b523a9c8e" x="106.117" y="318.04" style="stroke: #000000; stroke-width: 0.8"/>
      </g>
     </g>
     <g id="text_2">
      <!-- 20 -->
      <g transform="translate(99.7545 332.638438) scale(0.1 -0.1)">
       <defs>
        <path id="DejaVuSans-32" d="M 1228 531 
L 3431 531 
L 3431 0 
L 469 0 
L 469 531 
Q 828 903 1448 1529 
Q 2069 2156 2228 2338 
Q 2531 2678 2651 2914 
Q 2772 3150 2772 3378 
Q 2772 3750 2511 3984 
Q 2250 4219 1831 4219 
Q 1534 4219 1204 4116 
Q 875 4013 500 3803 
L 500 4441 
Q 881 4594 1212 4672 
Q 1544 4750 1819 4750 
Q 2544 4750 2975 4387 
Q 3406 4025 3406 3419 
Q 3406 3131 3298 2873 
Q 3191 2616 2906 2266 
Q 2828 2175 2409 1742 
Q 1991 1309 1228 531 
z
" transform="scale(0.015625)"/>
       </defs>
       <use xlink:href="#DejaVuSans-32"/>
       <use xlink:href="#DejaVuSans-30" x="63.623047"/>
      </g>
     </g>
    </g>
    <g id="xtick_3">
     <g id="line2d_3">
      <g>
       <use xlink:href="#m9b523a9c8e" x="164.514" y="318.04" style="stroke: #000000; stroke-width: 0.8"/>
      </g>
     </g>
     <g id="text_3">
      <!-- 40 -->
      <g transform="translate(158.1515 332.638438) scale(0.1 -0.1)">
       <defs>
        <path id="DejaVuSans-34" d="M 2419 4116 
L 825 1625 
L 2419 1625 
L 2419 4116 
z
M 2253 4666 
L 3047 4666 
L 3047 1625 
L 3713 1625 
L 3713 1100 
L 3047 1100 
L 3047 0 
L 2419 0 
L 2419 1100 
L 313 1100 
L 313 1709 
L 2253 4666 
z
" transform="scale(0.015625)"/>
       </defs>
       <use xlink:href="#DejaVuSans-34"/>
       <use xlink:href="#DejaVuSans-30" x="63.623047"/>
      </g>
     </g>
    </g>
    <g id="xtick_4">
     <g id="line2d_4">
      <g>
       <use xlink:href="#m9b523a9c8e" x="222.911" y="318.04" style="stroke: #000000; stroke-width: 0.8"/>
      </g>
     </g>
     <g id="text_4">
      <!-- 60 -->
      <g transform="translate(216.5485 332.638438) scale(0.1 -0.1)">
       <defs>
        <path id="DejaVuSans-36" d="M 2113 2584 
Q 1688 2584 1439 2293 
Q 1191 2003 1191 1497 
Q 1191 994 1439 701 
Q 1688 409 2113 409 
Q 2538 409 2786 701 
Q 3034 994 3034 1497 
Q 3034 2003 2786 2293 
Q 2538 2584 2113 2584 
z
M 3366 4563 
L 3366 3988 
Q 3128 4100 2886 4159 
Q 2644 4219 2406 4219 
Q 1781 4219 1451 3797 
Q 1122 3375 1075 2522 
Q 1259 2794 1537 2939 
Q 1816 3084 2150 3084 
Q 2853 3084 3261 2657 
Q 3669 2231 3669 1497 
Q 3669 778 3244 343 
Q 2819 -91 2113 -91 
Q 1303 -91 875 529 
Q 447 1150 447 2328 
Q 447 3434 972 4092 
Q 1497 4750 2381 4750 
Q 2619 4750 2861 4703 
Q 3103 4656 3366 4563 
z
" transform="scale(0.015625)"/>
       </defs>
       <use xlink:href="#DejaVuSans-36"/>
       <use xlink:href="#DejaVuSans-30" x="63.623047"/>
      </g>
     </g>
    </g>
    <g id="xtick_5">
     <g id="line2d_5">
      <g>
       <use xlink:href="#m9b523a9c8e" x="281.308" y="318.04" style="stroke: #000000; stroke-width: 0.8"/>
      </g>
     </g>
     <g id="text_5">
      <!-- 80 -->
      <g transform="translate(274.9455 332.638438) scale(0.1 -0.1)">
       <defs>
        <path id="DejaVuSans-38" d="M 2034 2216 
Q 1584 2216 1326 1975 
Q 1069 1734 1069 1313 
Q 1069 891 1326 650 
Q 1584 409 2034 409 
Q 2484 409 2743 651 
Q 3003 894 3003 1313 
Q 3003 1734 2745 1975 
Q 2488 2216 2034 2216 
z
M 1403 2484 
Q 997 2584 770 2862 
Q 544 3141 544 3541 
Q 544 4100 942 4425 
Q 1341 4750 2034 4750 
Q 2731 4750 3128 4425 
Q 3525 4100 3525 3541 
Q 3525 3141 3298 2862 
Q 3072 2584 2669 2484 
Q 3125 2378 3379 2068 
Q 3634 1759 3634 1313 
Q 3634 634 3220 271 
Q 2806 -91 2034 -91 
Q 1263 -91 848 271 
Q 434 634 434 1313 
Q 434 1759 690 2068 
Q 947 2378 1403 2484 
z
M 1172 3481 
Q 1172 3119 1398 2916 
Q 1625 2713 2034 2713 
Q 2441 2713 2670 2916 
Q 2900 3119 2900 3481 
Q 2900 3844 2670 4047 
Q 2441 4250 2034 4250 
Q 1625 4250 1398 4047 
Q 1172 3844 1172 3481 
z
" transform="scale(0.015625)"/>
       </defs>
       <use xlink:href="#DejaVuSans-38"/>
       <use xlink:href="#DejaVuSans-30" x="63.623047"/>
      </g>
     </g>
    </g>
    <g id="xtick_6">
     <g id="line2d_6">
      <g>
       <use xlink:href="#m9b523a9c8e" x="339.705" y="318.04" style="stroke: #000000; stroke-width: 0.8"/>
      </g>
     </g>
     <g id="text_6">
      <!-- 100 -->
      <g transform="translate(330.16125 332.638438) scale(0.1 -0.1)">
       <defs>
        <path id="DejaVuSans-31" d="M 794 531 
L 1825 531 
L 1825 4091 
L 703 3866 
L 703 4441 
L 1819 4666 
L 2450 4666 
L 2450 531 
L 3481 531 
L 3481 0 
L 794 0 
L 794 531 
z
" transform="scale(0.015625)"/>
       </defs>
       <use xlink:href="#DejaVuSans-31"/>
       <use xlink:href="#DejaVuSans-30" x="63.623047"/>
       <use xlink:href="#DejaVuSans-30" x="127.246094"/>
      </g>
     </g>
    </g>
    <g id="text_7">
     <!-- clashscore -->
     <g transform="translate(167.303906 346.316563) scale(0.1 -0.1)">
      <defs>
       <path id="DejaVuSans-63" d="M 3122 3366 
L 3122 2828 
Q 2878 2963 2633 3030 
Q 2388 3097 2138 3097 
Q 1578 3097 1268 2742 
Q 959 2388 959 1747 
Q 959 1106 1268 751 
Q 1578 397 2138 397 
Q 2388 397 2633 464 
Q 2878 531 3122 666 
L 3122 134 
Q 2881 22 2623 -34 
Q 2366 -91 2075 -91 
Q 1284 -91 818 406 
Q 353 903 353 1747 
Q 353 2603 823 3093 
Q 1294 3584 2113 3584 
Q 2378 3584 2631 3529 
Q 2884 3475 3122 3366 
z
" transform="scale(0.015625)"/>
       <path id="DejaVuSans-6c" d="M 603 4863 
L 1178 4863 
L 1178 0 
L 603 0 
L 603 4863 
z
" transform="scale(0.015625)"/>
       <path id="DejaVuSans-61" d="M 2194 1759 
Q 1497 1759 1228 1600 
Q 959 1441 959 1056 
Q 959 750 1161 570 
Q 1363 391 1709 391 
Q 2188 391 2477 730 
Q 2766 1069 2766 1631 
L 2766 1759 
L 2194 1759 
z
M 3341 1997 
L 3341 0 
L 2766 0 
L 2766 531 
Q 2569 213 2275 61 
Q 1981 -91 1556 -91 
Q 1019 -91 701 211 
Q 384 513 384 1019 
Q 384 1609 779 1909 
Q 1175 2209 1959 2209 
L 2766 2209 
L 2766 2266 
Q 2766 2663 2505 2880 
Q 2244 3097 1772 3097 
Q 1472 3097 1187 3025 
Q 903 2953 641 2809 
L 641 3341 
Q 956 3463 1253 3523 
Q 1550 3584 1831 3584 
Q 2591 3584 2966 3190 
Q 3341 2797 3341 1997 
z
" transform="scale(0.015625)"/>
       <path id="DejaVuSans-73" d="M 2834 3397 
L 2834 2853 
Q 2591 2978 2328 3040 
Q 2066 3103 1784 3103 
Q 1356 3103 1142 2972 
Q 928 2841 928 2578 
Q 928 2378 1081 2264 
Q 1234 2150 1697 2047 
L 1894 2003 
Q 2506 1872 2764 1633 
Q 3022 1394 3022 966 
Q 3022 478 2636 193 
Q 2250 -91 1575 -91 
Q 1294 -91 989 -36 
Q 684 19 347 128 
L 347 722 
Q 666 556 975 473 
Q 1284 391 1588 391 
Q 1994 391 2212 530 
Q 2431 669 2431 922 
Q 2431 1156 2273 1281 
Q 2116 1406 1581 1522 
L 1381 1569 
Q 847 1681 609 1914 
Q 372 2147 372 2553 
Q 372 3047 722 3315 
Q 1072 3584 1716 3584 
Q 2034 3584 2315 3537 
Q 2597 3491 2834 3397 
z
" transform="scale(0.015625)"/>
       <path id="DejaVuSans-68" d="M 3513 2113 
L 3513 0 
L 2938 0 
L 2938 2094 
Q 2938 2591 2744 2837 
Q 2550 3084 2163 3084 
Q 1697 3084 1428 2787 
Q 1159 2491 1159 1978 
L 1159 0 
L 581 0 
L 581 4863 
L 1159 4863 
L 1159 2956 
Q 1366 3272 1645 3428 
Q 1925 3584 2291 3584 
Q 2894 3584 3203 3211 
Q 3513 2838 3513 2113 
z
" transform="scale(0.015625)"/>
       <path id="DejaVuSans-6f" d="M 1959 3097 
Q 1497 3097 1228 2736 
Q 959 2375 959 1747 
Q 959 1119 1226 758 
Q 1494 397 1959 397 
Q 2419 397 2687 759 
Q 2956 1122 2956 1747 
Q 2956 2369 2687 2733 
Q 2419 3097 1959 3097 
z
M 1959 3584 
Q 2709 3584 3137 3096 
Q 3566 2609 3566 1747 
Q 3566 888 3137 398 
Q 2709 -91 1959 -91 
Q 1206 -91 779 398 
Q 353 888 353 1747 
Q 353 2609 779 3096 
Q 1206 3584 1959 3584 
z
" transform="scale(0.015625)"/>
       <path id="DejaVuSans-72" d="M 2631 2963 
Q 2534 3019 2420 3045 
Q 2306 3072 2169 3072 
Q 1681 3072 1420 2755 
Q 1159 2438 1159 1844 
L 1159 0 
L 581 0 
L 581 3500 
L 1159 3500 
L 1159 2956 
Q 1341 3275 1631 3429 
Q 1922 3584 2338 3584 
Q 2397 3584 2469 3576 
Q 2541 3569 2628 3553 
L 2631 2963 
z
" transform="scale(0.015625)"/>
       <path id="DejaVuSans-65" d="M 3597 1894 
L 3597 1613 
L 953 1613 
Q 991 1019 1311 708 
Q 1631 397 2203 397 
Q 2534 397 2845 478 
Q 3156 559 3463 722 
L 3463 178 
Q 3153 47 2828 -22 
Q 2503 -91 2169 -91 
Q 1331 -91 842 396 
Q 353 884 353 1716 
Q 353 2575 817 3079 
Q 1281 3584 2069 3584 
Q 2775 3584 3186 3129 
Q 3597 2675 3597 1894 
z
M 3022 2063 
Q 3016 2534 2758 2815 
Q 2500 3097 2075 3097 
Q 1594 3097 1305 2825 
Q 1016 2553 972 2059 
L 3022 2063 
z
" transform="scale(0.015625)"/>
      </defs>
      <use xlink:href="#DejaVuSans-63"/>
      <use xlink:href="#DejaVuSans-6c" x="54.980469"/>
      <use xlink:href="#DejaVuSans-61" x="82.763672"/>
      <use xlink:href="#DejaVuSans-73" x="144.042969"/>
      <use xlink:href="#DejaVuSans-68" x="196.142578"/>
      <use xlink:href="#DejaVuSans-73" x="259.521484"/>
      <use xlink:href="#DejaVuSans-63" x="311.621094"/>
      <use xlink:href="#DejaVuSans-6f" x="366.601562"/>
      <use xlink:href="#DejaVuSans-72" x="427.783203"/>
      <use xlink:href="#DejaVuSans-65" x="466.646484"/>
     </g>
    </g>
   </g>
   <g id="matplotlib.axis_2">
    <g id="ytick_1">
     <g id="line2d_7">
      <defs>
       <path id="mc14571f950" d="M 0 0 
L -3.5 0 
" style="stroke: #000000; stroke-width: 0.8"/>
      </defs>
      <g>
       <use xlink:href="#mc14571f950" x="47.72" y="318.04" style="stroke: #000000; stroke-width: 0.8"/>
      </g>
     </g>
     <g id="text_8">
      <!-- 0.0 -->
      <g transform="translate(24.816875 321.839219) scale(0.1 -0.1)">
       <defs>
        <path id="DejaVuSans-2e" d="M 684 794 
L 1344 794 
L 1344 0 
L 684 0 
L 684 794 
z
" transform="scale(0.015625)"/>
       </defs>
       <use xlink:href="#DejaVuSans-30"/>
       <use xlink:href="#DejaVuSans-2e" x="63.623047"/>
       <use xlink:href="#DejaVuSans-30" x="95.410156"/>
      </g>
     </g>
    </g>
    <g id="ytick_2">
     <g id="line2d_8">
      <g>
       <use xlink:href="#mc14571f950" x="47.72" y="257.384" style="stroke: #000000; stroke-width: 0.8"/>
      </g>
     </g>
     <g id="text_9">
      <!-- 0.2 -->
      <g transform="translate(24.816875 261.183219) scale(0.1 -0.1)">
       <use xlink:href="#DejaVuSans-30"/>
       <use xlink:href="#DejaVuSans-2e" x="63.623047"/>
       <use xlink:href="#DejaVuSans-32" x="95.410156"/>
      </g>
     </g>
    </g>
    <g id="ytick_3">
     <g id="line2d_9">
      <g>
       <use xlink:href="#mc14571f950" x="47.72" y="196.728" style="stroke: #000000; stroke-width: 0.8"/>
      </g>
     </g>
     <g id="text_10">
      <!-- 0.4 -->
      <g transform="translate(24.816875 200.527219) scale(0.1 -0.1)">
       <use xlink:href="#DejaVuSans-30"/>
       <use xlink:href="#DejaVuSans-2e" x="63.623047"/>
       <use xlink:href="#DejaVuSans-34" x="95.410156"/>
      </g>
     </g>
    </g>
    <g id="ytick_4">
     <g id="line2d_10">
      <g>
       <use xlink:href="#mc14571f950" x="47.72" y="136.072" style="stroke: #000000; stroke-width: 0.8"/>
      </g>
     </g>
     <g id="text_11">
      <!-- 0.6 -->
      <g transform="translate(24.816875 139.871219) scale(0.1 -0.1)">
       <use xlink:href="#DejaVuSans-30"/>
       <use xlink:href="#DejaVuSans-2e" x="63.623047"/>
       <use xlink:href="#DejaVuSans-36" x="95.410156"/>
      </g>
     </g>
    </g>
    <g id="ytick_5">
     <g id="line2d_11">
      <g>
       <use xlink:href="#mc14571f950" x="47.72" y="75.416" style="stroke: #000000; stroke-width: 0.8"/>
      </g>
     </g>
     <g id="text_12">
      <!-- 0.8 -->
      <g transform="translate(24.816875 79.215219) scale(0.1 -0.1)">
       <use xlink:href="#DejaVuSans-30"/>
       <use xlink:href="#DejaVuSans-2e" x="63.623047"/>
       <use xlink:href="#DejaVuSans-38" x="95.410156"/>
      </g>
     </g>
    </g>
    <g id="ytick_6">
     <g id="line2d_12">
      <g>
       <use xlink:href="#mc14571f950" x="47.72" y="14.76" style="stroke: #000000; stroke-width: 0.8"/>
      </g>
     </g>
     <g id="text_13">
      <!-- 1.0 -->
      <g transform="translate(24.816875 18.559219) scale(0.1 -0.1)">
       <use xlink:href="#DejaVuSans-31"/>
       <use xlink:href="#DejaVuSans-2e" x="63.623047"/>
       <use xlink:href="#DejaVuSans-30" x="95.410156"/>
      </g>
     </g>
    </g>
    <g id="text_14">
     <!-- Proportion -->
     <g transform="translate(18.737188 192.196094) rotate(-90) scale(0.1 -0.1)">
      <defs>
       <path id="DejaVuSans-50" d="M 1259 4147 
L 1259 2394 
L 2053 2394 
Q 2494 2394 2734 2622 
Q 2975 2850 2975 3272 
Q 2975 3691 2734 3919 
Q 2494 4147 2053 4147 
L 1259 4147 
z
M 628 4666 
L 2053 4666 
Q 2838 4666 3239 4311 
Q 3641 3956 3641 3272 
Q 3641 2581 3239 2228 
Q 2838 1875 2053 1875 
L 1259 1875 
L 1259 0 
L 628 0 
L 628 4666 
z
" transform="scale(0.015625)"/>
       <path id="DejaVuSans-70" d="M 1159 525 
L 1159 -1331 
L 581 -1331 
L 581 3500 
L 1159 3500 
L 1159 2969 
Q 1341 3281 1617 3432 
Q 1894 3584 2278 3584 
Q 2916 3584 3314 3078 
Q 3713 2572 3713 1747 
Q 3713 922 3314 415 
Q 2916 -91 2278 -91 
Q 1894 -91 1617 61 
Q 1341 213 1159 525 
z
M 3116 1747 
Q 3116 2381 2855 2742 
Q 2594 3103 2138 3103 
Q 1681 3103 1420 2742 
Q 1159 2381 1159 1747 
Q 1159 1113 1420 752 
Q 1681 391 2138 391 
Q 2594 391 2855 752 
Q 3116 1113 3116 1747 
z
" transform="scale(0.015625)"/>
       <path id="DejaVuSans-74" d="M 1172 4494 
L 1172 3500 
L 2356 3500 
L 2356 3053 
L 1172 3053 
L 1172 1153 
Q 1172 725 1289 603 
Q 1406 481 1766 481 
L 2356 481 
L 2356 0 
L 1766 0 
Q 1100 0 847 248 
Q 594 497 594 1153 
L 594 3053 
L 172 3053 
L 172 3500 
L 594 3500 
L 594 4494 
L 1172 4494 
z
" transform="scale(0.015625)"/>
       <path id="DejaVuSans-69" d="M 603 3500 
L 1178 3500 
L 1178 0 
L 603 0 
L 603 3500 
z
M 603 4863 
L 1178 4863 
L 1178 4134 
L 603 4134 
L 603 4863 
z
" transform="scale(0.015625)"/>
       <path id="DejaVuSans-6e" d="M 3513 2113 
L 3513 0 
L 2938 0 
L 2938 2094 
Q 2938 2591 2744 2837 
Q 2550 3084 2163 3084 
Q 1697 3084 1428 2787 
Q 1159 2491 1159 1978 
L 1159 0 
L 581 0 
L 581 3500 
L 1159 3500 
L 1159 2956 
Q 1366 3272 1645 3428 
Q 1925 3584 2291 3584 
Q 2894 3584 3203 3211 
Q 3513 2838 3513 2113 
z
" transform="scale(0.015625)"/>
      </defs>
      <use xlink:href="#DejaVuSans-50"/>
      <use xlink:href="#DejaVuSans-72" x="58.552734"/>
      <use xlink:href="#DejaVuSans-6f" x="97.416016"/>
      <use xlink:href="#DejaVuSans-70" x="158.597656"/>
      <use xlink:href="#DejaVuSans-6f" x="222.074219"/>
      <use xlink:href="#DejaVuSans-72" x="283.255859"/>
      <use xlink:href="#DejaVuSans-74" x="324.369141"/>
      <use xlink:href="#DejaVuSans-69" x="363.578125"/>
      <use xlink:href="#DejaVuSans-6f" x="391.361328"/>
      <use xlink:href="#DejaVuSans-6e" x="452.542969"/>
     </g>
    </g>
   </g>
   <g id="line2d_13">
    <path d="M 44.80015 317.830272 
L 47.836794 317.726467 
L 47.836794 317.720111 
L 47.92439 317.451066 
L 47.982787 317.385393 
L 47.982787 317.340905 
L 48.070382 317.152362 
L 48.128779 317.086689 
L 48.128779 317.042201 
L 48.216375 316.792222 
L 48.274771 316.728668 
L 48.274771 316.682061 
L 48.362367 316.224472 
L 48.420764 316.148207 
L 48.420764 316.114312 
L 48.50836 315.809252 
L 48.566756 315.713921 
L 48.566756 315.699092 
L 48.654352 315.368611 
L 48.712749 315.275398 
L 48.712749 315.25845 
L 48.800345 314.860178 
L 48.858741 314.781795 
L 48.858741 314.750018 
L 48.946337 314.364457 
L 49.004734 314.264888 
L 49.004734 314.254296 
L 49.092329 313.76493 
L 49.150727 313.654769 
L 49.238322 313.139981 
L 49.296719 313.029821 
L 49.384314 312.555284 
L 49.442711 312.451479 
L 49.442711 312.445124 
L 49.530307 311.934573 
L 49.559505 311.934573 
L 49.559505 311.824412 
L 49.647101 311.335046 
L 49.6763 311.335046 
L 49.6763 311.224886 
L 49.763895 310.771533 
L 49.793093 310.771533 
L 49.793093 310.661373 
L 49.880689 310.244034 
L 49.909888 310.244034 
L 49.909888 310.133874 
L 49.997483 309.610613 
L 50.026682 309.610613 
L 50.026682 309.500452 
L 50.114277 308.928466 
L 50.143475 308.928466 
L 50.143475 308.818305 
L 50.231071 308.163699 
L 50.26027 308.163699 
L 50.26027 308.053538 
L 50.347865 307.426471 
L 50.377064 307.426471 
L 50.377064 307.31631 
L 50.464659 306.627809 
L 50.493857 306.627809 
L 50.493857 306.517648 
L 50.581453 305.827027 
L 50.610652 305.827027 
L 50.610652 305.716867 
L 50.698247 304.943625 
L 50.727445 304.943625 
L 50.727445 304.833466 
L 50.815041 304.026329 
L 50.84424 304.026329 
L 50.84424 303.916168 
L 50.931835 303.24885 
L 50.961034 303.24885 
L 50.961034 303.13869 
L 51.048629 302.4057 
L 51.077827 302.4057 
L 51.077827 302.295539 
L 51.165423 301.439678 
L 51.194622 301.439678 
L 51.194622 301.329518 
L 51.282217 300.547803 
L 51.311416 300.547803 
L 51.311416 300.437642 
L 51.399011 299.662282 
L 51.428209 299.662282 
L 51.428209 299.552123 
L 51.515805 298.594574 
L 51.545003 298.594574 
L 51.545003 298.484413 
L 51.632599 297.488733 
L 51.661798 297.488733 
L 51.661798 297.378573 
L 51.749393 296.507883 
L 51.778591 296.507883 
L 51.778591 296.397722 
L 51.866187 295.518557 
L 51.895385 295.518557 
L 51.895385 295.408396 
L 51.982981 294.455086 
L 52.01218 294.455086 
L 52.01218 294.344926 
L 52.099775 293.38314 
L 52.128973 293.38314 
L 52.128973 293.272982 
L 52.216569 292.169258 
L 52.245767 292.169258 
L 52.245767 292.059098 
L 52.333363 291.023167 
L 52.362562 291.023167 
L 52.362562 290.913007 
L 52.450157 289.961814 
L 52.479355 289.961814 
L 52.479355 289.851653 
L 52.566951 288.788183 
L 52.596149 288.788183 
L 52.596149 288.678022 
L 52.683745 287.529812 
L 52.712944 287.529812 
L 52.712944 287.419651 
L 52.800539 286.290507 
L 52.829738 286.290507 
L 52.829738 286.180346 
L 52.917333 285.082979 
L 52.946531 285.082979 
L 52.946531 284.972819 
L 53.034127 283.786477 
L 53.063326 283.786477 
L 53.063326 283.676317 
L 53.150921 282.481501 
L 53.18012 282.481501 
L 53.18012 282.371341 
L 53.267715 281.093903 
L 53.296913 281.093903 
L 53.296913 280.983742 
L 53.384509 279.666056 
L 53.413708 279.666056 
L 53.413708 279.555896 
L 53.501303 278.380143 
L 53.530502 278.380143 
L 53.530502 278.269982 
L 53.618097 276.996786 
L 53.647295 276.996786 
L 53.647295 276.886625 
L 53.734891 275.63461 
L 53.764089 275.63461 
L 53.764089 275.52445 
L 53.851685 274.299975 
L 53.880883 274.299975 
L 53.880883 274.189814 
L 53.968479 272.952627 
L 53.997678 272.952627 
L 53.997678 272.842466 
L 54.085273 271.662479 
L 54.114472 271.662479 
L 54.114472 271.552318 
L 54.202067 270.283356 
L 54.231266 270.283356 
L 54.231266 270.173196 
L 54.318861 268.86822 
L 54.348059 268.86822 
L 54.348059 268.758059 
L 54.435655 267.465792 
L 54.464853 267.465792 
L 54.464853 267.355631 
L 54.552449 266.025235 
L 54.581647 266.025235 
L 54.581647 265.915074 
L 54.669243 264.582558 
L 54.698442 264.582558 
L 54.698442 264.472398 
L 54.786037 263.239449 
L 54.815236 263.239449 
L 54.815236 263.129289 
L 54.902831 261.811601 
L 54.93203 261.811601 
L 54.93203 261.70144 
L 55.019625 260.413411 
L 55.048823 260.413411 
L 55.048823 260.303251 
L 55.136419 258.869048 
L 55.165617 258.869048 
L 55.165617 258.758887 
L 55.253213 257.394592 
L 55.282411 257.394592 
L 55.282411 257.284432 
L 55.370007 256.045129 
L 55.399206 256.045129 
L 55.399206 255.934969 
L 55.486801 254.598214 
L 55.516 254.598214 
L 55.516 254.488053 
L 55.603595 253.140705 
L 55.632794 253.140705 
L 55.632794 253.030545 
L 55.720389 251.659896 
L 55.749588 251.659896 
L 55.749588 251.549735 
L 55.837183 250.132479 
L 55.866381 250.132479 
L 55.866381 250.022319 
L 55.953977 248.719462 
L 55.983175 248.719462 
L 55.983175 248.609302 
L 56.070771 247.342459 
L 56.099969 247.342459 
L 56.099969 247.232299 
L 56.187565 245.80233 
L 56.216764 245.80233 
L 56.216764 245.69217 
L 56.304359 244.427447 
L 56.333558 244.427447 
L 56.333558 244.317286 
L 56.421153 242.925451 
L 56.450352 242.925451 
L 56.450352 242.81529 
L 56.537947 241.531496 
L 56.567145 241.531496 
L 56.567145 241.421336 
L 56.654741 240.084585 
L 56.683939 240.084585 
L 56.683939 239.974425 
L 56.771535 238.713932 
L 56.800733 238.713932 
L 56.800733 238.603771 
L 56.888329 237.258543 
L 56.917528 237.258543 
L 56.917528 237.148382 
L 57.005123 235.815871 
L 57.034322 235.815871 
L 57.034322 235.70571 
L 57.121917 234.45581 
L 57.151116 234.45581 
L 57.151116 234.34565 
L 57.238711 232.962288 
L 57.267909 232.962288 
L 57.267909 232.852127 
L 57.355505 231.595882 
L 57.384703 231.595882 
L 57.384703 231.485722 
L 57.472299 230.172264 
L 57.501497 230.172264 
L 57.501497 230.062103 
L 57.589093 228.846106 
L 57.618292 228.846106 
L 57.618292 228.735946 
L 57.705887 227.513586 
L 57.735086 227.513586 
L 57.735086 227.403425 
L 57.822681 226.121755 
L 57.85188 226.121755 
L 57.85188 226.011595 
L 57.939475 224.736279 
L 57.968673 224.736279 
L 57.968673 224.626118 
L 58.056269 223.342324 
L 58.085467 223.342324 
L 58.085467 223.232163 
L 58.173063 221.9399 
L 58.202261 221.9399 
L 58.202261 221.82974 
L 58.289857 220.5523 
L 58.319056 220.5523 
L 58.319056 220.442139 
L 58.406651 219.173177 
L 58.43585 219.173177 
L 58.43585 219.063016 
L 58.523445 217.836427 
L 58.552644 217.836427 
L 58.552644 217.726266 
L 58.640239 216.527207 
L 58.669438 216.527207 
L 58.669438 216.417047 
L 58.757033 215.239183 
L 58.786231 215.239183 
L 58.786231 215.129023 
L 58.873827 213.851583 
L 58.903025 213.851583 
L 58.903025 213.741422 
L 58.990621 212.461867 
L 59.019819 212.461867 
L 59.019819 212.351706 
L 59.107415 211.173843 
L 59.136614 211.173843 
L 59.136614 211.063682 
L 59.224209 209.813782 
L 59.253408 209.813782 
L 59.253408 209.703622 
L 59.341003 208.468554 
L 59.370202 208.468554 
L 59.370202 208.358393 
L 59.457797 207.136034 
L 59.486996 207.136034 
L 59.486996 207.025873 
L 59.574591 205.790814 
L 59.60379 205.790814 
L 59.60379 205.680654 
L 59.691385 204.519728 
L 59.720584 204.519728 
L 59.720584 204.409568 
L 59.808179 203.199925 
L 59.837378 203.199925 
L 59.837378 203.089764 
L 59.924972 201.935193 
L 59.954172 201.933078 
L 59.954172 201.825032 
L 60.041766 200.731904 
L 60.070966 200.731904 
L 60.070966 200.621744 
L 60.158562 199.488367 
L 60.187759 199.488367 
L 60.187759 199.378207 
L 60.275356 198.318973 
L 60.304553 198.318973 
L 60.304553 198.208812 
L 60.392149 197.107206 
L 60.421347 197.107206 
L 60.421347 196.997046 
L 60.508943 195.918741 
L 60.538141 195.916626 
L 60.538141 195.80858 
L 60.625737 194.715452 
L 60.654935 194.713337 
L 60.654935 194.605291 
L 60.742531 193.505809 
L 60.771729 193.505809 
L 60.771729 193.395649 
L 60.859325 192.355477 
L 60.888524 192.355477 
L 60.888524 192.245316 
L 60.976119 191.116179 
L 61.005318 191.116179 
L 61.005318 191.006019 
L 61.092913 189.86204 
L 61.122112 189.86204 
L 61.122112 189.75188 
L 61.209707 188.775266 
L 61.238906 188.773151 
L 61.238906 188.665106 
L 61.326501 187.692731 
L 61.3557 187.692731 
L 61.3557 187.582571 
L 61.443294 186.474611 
L 61.472494 186.474611 
L 61.472494 186.36445 
L 61.560088 185.351818 
L 61.589288 185.351818 
L 61.589288 185.241658 
L 61.676884 184.269284 
L 61.706081 184.269284 
L 61.706081 184.159123 
L 61.793678 183.220643 
L 61.822875 183.218528 
L 61.822875 183.110482 
L 61.910471 182.108444 
L 61.939669 182.106329 
L 61.939669 181.998283 
L 62.027265 180.983536 
L 62.056463 180.983536 
L 62.056463 180.873376 
L 62.144059 179.864992 
L 62.173257 179.864992 
L 62.173257 179.754832 
L 62.260853 178.765501 
L 62.290051 178.765501 
L 62.290051 178.655341 
L 62.377647 177.723214 
L 62.406846 177.723214 
L 62.406846 177.613054 
L 62.494441 176.670335 
L 62.52364 176.66822 
L 62.52364 176.560174 
L 62.611235 175.594154 
L 62.640434 175.594154 
L 62.640434 175.483993 
L 62.728029 174.522212 
L 62.757228 174.522212 
L 62.757228 174.412051 
L 62.844822 173.420606 
L 62.874022 173.420606 
L 62.874022 173.310445 
L 62.961616 172.355018 
L 62.990816 172.355018 
L 62.990816 172.244857 
L 63.078412 171.331793 
L 63.107609 171.329678 
L 63.107609 171.221633 
L 63.195206 170.306454 
L 63.224403 170.304339 
L 63.224403 170.196293 
L 63.311999 169.289592 
L 63.341197 169.289592 
L 63.341197 169.179431 
L 63.428793 168.238827 
L 63.457991 168.238827 
L 63.457991 168.128667 
L 63.545587 167.260099 
L 63.574785 167.260099 
L 63.574785 167.149938 
L 63.662381 166.342805 
L 63.691579 166.34069 
L 63.691579 166.232644 
L 63.779175 165.41067 
L 63.808374 165.408555 
L 63.808374 165.300509 
L 63.895969 164.442543 
L 63.925168 164.442543 
L 63.925168 164.332383 
L 64.012763 163.510408 
L 64.041962 163.510408 
L 64.041962 163.400247 
L 64.129557 162.50837 
L 64.158756 162.50837 
L 64.158756 162.398209 
L 64.246351 161.612262 
L 64.27555 161.610147 
L 64.27555 161.502101 
L 64.363144 160.642002 
L 64.392344 160.639887 
L 64.392344 160.531842 
L 64.479938 159.743779 
L 64.509138 159.743779 
L 64.509138 159.633619 
L 64.596734 158.820122 
L 64.625931 158.820122 
L 64.625931 158.709962 
L 64.713528 157.974847 
L 64.742725 157.974847 
L 64.742725 157.864686 
L 64.830321 157.068146 
L 64.859519 157.068146 
L 64.859519 156.957985 
L 64.947115 156.201684 
L 64.976313 156.201684 
L 64.976313 156.091523 
L 65.063909 155.269567 
L 65.093107 155.269567 
L 65.093107 155.159406 
L 65.180703 154.364981 
L 65.209901 154.364981 
L 65.209901 154.25482 
L 65.297497 153.403199 
L 65.326696 153.403199 
L 65.326696 153.293039 
L 65.414291 152.462586 
L 65.44349 152.462586 
L 65.44349 152.352426 
L 65.531085 151.543177 
L 65.560284 151.541062 
L 65.560284 151.433016 
L 65.647879 150.719088 
L 65.677078 150.716973 
L 65.677078 150.608927 
L 65.764672 149.884423 
L 65.793872 149.884423 
L 65.793872 149.774262 
L 65.881466 149.060333 
L 65.910666 149.058218 
L 65.910666 148.950173 
L 65.998262 148.145154 
L 66.027459 148.145154 
L 66.027459 148.034994 
L 66.115056 147.327428 
L 66.144253 147.327428 
L 66.144253 147.217267 
L 66.231849 146.594428 
L 66.261047 146.594428 
L 66.261047 146.484267 
L 66.348643 145.734329 
L 66.377841 145.734329 
L 66.377841 145.624168 
L 66.465437 144.884823 
L 66.494635 144.884823 
L 66.494635 144.774663 
L 66.582231 143.995079 
L 66.611429 143.995079 
L 66.611429 143.884918 
L 66.699025 143.187945 
L 66.728224 143.187945 
L 66.728224 143.077784 
L 66.815819 142.357492 
L 66.845018 142.357492 
L 66.845018 142.247332 
L 66.932613 141.613917 
L 66.961812 141.611802 
L 66.961812 141.503757 
L 67.049407 140.870324 
L 67.078606 140.870324 
L 67.078606 140.760164 
L 67.166201 140.09074 
L 67.1954 140.088625 
L 67.1954 139.980579 
L 67.282994 139.279358 
L 67.312194 139.277243 
L 67.312194 139.169198 
L 67.399788 138.47434 
L 67.428988 138.47434 
L 67.428988 138.364179 
L 67.516584 137.718057 
L 67.545781 137.718057 
L 67.545781 137.607896 
L 67.633378 136.919383 
L 67.662575 136.919383 
L 67.662575 136.809223 
L 67.750171 136.146144 
L 67.779369 136.146144 
L 67.779369 136.035984 
L 67.866965 135.336896 
L 67.896163 135.336896 
L 67.896163 135.226735 
L 67.983759 134.561523 
L 68.012957 134.561523 
L 68.012957 134.451363 
L 68.100553 133.845498 
L 68.129751 133.845498 
L 68.129751 133.735337 
L 68.217347 133.120976 
L 68.246546 133.118861 
L 68.246546 133.010815 
L 68.334141 132.349851 
L 68.36334 132.349851 
L 68.36334 132.239691 
L 68.450935 131.616851 
L 68.480134 131.614736 
L 68.480134 131.506709 
L 68.567729 130.913533 
L 68.596928 130.911418 
L 68.596928 130.803373 
L 68.684522 130.239862 
L 68.713722 130.239862 
L 68.713722 130.129701 
L 68.801316 129.513225 
L 68.830516 129.51111 
L 68.830516 129.403064 
L 68.918112 128.807774 
L 68.947309 128.807774 
L 68.947309 128.697613 
L 69.034906 128.159518 
L 69.064103 128.159518 
L 69.064103 128.049358 
L 69.151699 127.473138 
L 69.180897 127.473138 
L 69.180897 127.362978 
L 69.268493 126.716837 
L 69.297691 126.716837 
L 69.297691 126.606677 
L 69.385287 126.106724 
L 69.414485 126.106724 
L 69.414485 125.996563 
L 69.502081 125.384317 
L 69.531279 125.384317 
L 69.531279 125.274156 
L 69.618875 124.712778 
L 69.648074 124.712778 
L 69.648074 124.602618 
L 69.735669 124.062408 
L 69.764868 124.060275 
L 69.764868 123.952247 
L 69.852463 123.42686 
L 69.881662 123.424745 
L 69.881662 123.316699 
L 69.969257 122.797676 
L 69.998456 122.797676 
L 69.998456 122.687515 
L 70.086051 122.170606 
L 70.11525 122.168491 
L 70.11525 122.060446 
L 70.202844 121.520236 
L 70.232044 121.520236 
L 70.232044 121.410075 
L 70.319638 120.958839 
L 70.348838 120.956724 
L 70.348838 120.848679 
L 70.436434 120.338133 
L 70.465631 120.338133 
L 70.465631 120.227972 
L 70.553228 119.715294 
L 70.582425 119.715294 
L 70.582425 119.605133 
L 70.670021 119.094587 
L 70.699219 119.094587 
L 70.699219 118.984427 
L 70.786815 118.533191 
L 70.816013 118.533191 
L 70.816013 118.42303 
L 70.903609 117.952742 
L 70.932807 117.952742 
L 70.932807 117.842581 
L 71.020403 117.321424 
L 71.049601 117.321424 
L 71.049601 117.211264 
L 71.137198 116.715559 
L 71.166395 116.715559 
L 71.166395 116.605399 
L 71.253992 116.168986 
L 71.283189 116.168986 
L 71.283189 116.058825 
L 71.370786 115.563103 
L 71.399982 115.563103 
L 71.399982 115.452942 
L 71.48758 115.001707 
L 71.516776 115.001707 
L 71.516776 114.891546 
L 71.604374 114.347106 
L 71.63357 114.347106 
L 71.63357 114.236945 
L 71.721168 113.851383 
L 71.750364 113.851383 
L 71.750364 113.741223 
L 71.837962 113.273031 
L 71.867161 113.270916 
L 71.867161 113.16287 
L 71.954756 112.656573 
L 71.983955 112.656573 
L 71.983955 112.546412 
L 72.071549 112.116363 
L 72.100749 112.11423 
L 72.100749 112.006202 
L 72.188343 111.590976 
L 72.217543 111.590976 
L 72.217543 111.480815 
L 72.305137 111.014757 
L 72.334336 111.012624 
L 72.334336 110.904596 
L 72.421931 110.514786 
L 72.45113 110.512671 
L 72.45113 110.404625 
L 72.538725 109.978824 
L 72.567924 109.978824 
L 72.567924 109.868663 
L 72.655519 109.423773 
L 72.684718 109.421658 
L 72.684718 109.313612 
L 72.772313 108.889926 
L 72.801512 108.889926 
L 72.801512 108.779765 
L 72.889107 108.311592 
L 72.918306 108.309459 
L 72.918306 108.201431 
L 73.005901 107.745948 
L 73.0351 107.745948 
L 73.0351 107.635787 
L 73.122694 107.203623 
L 73.151894 107.201508 
L 73.151894 107.093462 
L 73.239488 106.718493 
L 73.268687 106.716378 
L 73.268687 106.608332 
L 73.356282 106.237611 
L 73.414681 106.135911 
L 73.414681 106.127451 
L 73.502275 105.587241 
L 73.531474 105.587241 
L 73.531474 105.47708 
L 73.619069 105.089385 
L 73.648268 105.08727 
L 73.648268 104.979224 
L 73.735863 104.646628 
L 73.765062 104.646628 
L 73.765062 104.536467 
L 73.852657 104.178454 
L 73.881856 104.176339 
L 73.881856 104.068293 
L 73.969451 103.699669 
L 73.99865 103.697554 
L 73.99865 103.589509 
L 74.086245 103.146751 
L 74.115444 103.146751 
L 74.115444 103.036591 
L 74.203039 102.653162 
L 74.232238 102.651029 
L 74.232238 102.543001 
L 74.319832 102.191333 
L 74.349032 102.191333 
L 74.349032 102.081172 
L 74.436626 101.69984 
L 74.465826 101.697725 
L 74.465826 101.58968 
L 74.55342 101.204118 
L 74.582619 101.204118 
L 74.582619 101.093957 
L 74.670214 100.678749 
L 74.728612 100.574933 
L 74.728612 100.568588 
L 74.816207 100.100396 
L 74.845406 100.100396 
L 74.845406 99.990236 
L 74.933001 99.638568 
L 74.9622 99.638568 
L 74.9622 99.528407 
L 75.049795 99.172509 
L 75.108193 99.102606 
L 75.108193 99.062349 
L 75.195788 98.695858 
L 75.224987 98.695858 
L 75.224987 98.585697 
L 75.312582 98.259445 
L 75.37098 98.176834 
L 75.37098 98.149285 
L 75.458575 97.700182 
L 75.487774 97.700182 
L 75.487774 97.590022 
L 75.575369 97.257407 
L 75.633767 97.17268 
L 75.633767 97.147246 
L 75.721362 96.780755 
L 75.750561 96.77864 
L 75.750561 96.670595 
L 75.838156 96.280802 
L 75.896551 96.172757 
L 75.896551 96.170642 
L 75.984149 95.746937 
L 76.013345 95.746937 
L 76.013345 95.636777 
L 76.100943 95.30418 
L 76.159338 95.202497 
L 76.159338 95.194019 
L 76.246936 94.806342 
L 76.305331 94.70466 
L 76.305331 94.696182 
L 76.392926 94.302141 
L 76.451324 94.198344 
L 76.451324 94.191981 
L 76.538919 93.789481 
L 76.568118 93.787366 
L 76.568118 93.67932 
L 76.655713 93.321307 
L 76.684912 93.321307 
L 76.684912 93.211147 
L 76.772507 92.825584 
L 76.830905 92.74507 
L 76.830905 92.715424 
L 76.9185 92.323499 
L 76.976898 92.221816 
L 76.976898 92.213338 
L 77.064493 91.872263 
L 77.122889 91.772696 
L 77.122889 91.762103 
L 77.210486 91.435869 
L 77.268882 91.334168 
L 77.268882 91.325708 
L 77.356476 90.910482 
L 77.414875 90.817277 
L 77.414875 90.800321 
L 77.502469 90.446538 
L 77.560868 90.344856 
L 77.560868 90.336378 
L 77.648463 89.944452 
L 77.706861 89.844885 
L 77.706861 89.834292 
L 77.794456 89.436022 
L 77.852851 89.338569 
L 77.852851 89.325861 
L 77.940449 88.933954 
L 77.998844 88.834386 
L 77.998844 88.823793 
L 78.086439 88.465762 
L 78.144837 88.36408 
L 78.144837 88.355602 
L 78.232432 88.050554 
L 78.261631 88.048421 
L 78.261631 87.940393 
L 78.349226 87.580247 
L 78.407624 87.478565 
L 78.407624 87.470087 
L 78.495219 87.129012 
L 78.553617 87.044267 
L 78.553617 87.018851 
L 78.641212 86.622696 
L 78.699607 86.540085 
L 78.699607 86.512536 
L 78.787205 86.194762 
L 78.845601 86.088849 
L 78.845601 86.084601 
L 78.933195 85.722358 
L 78.991594 85.629136 
L 78.991594 85.612198 
L 79.079188 85.258415 
L 79.137587 85.17367 
L 79.137587 85.148254 
L 79.225181 84.838958 
L 79.28358 84.747851 
L 79.28358 84.728798 
L 79.371174 84.37713 
L 79.42957 84.298748 
L 79.42957 84.266969 
L 79.517168 83.95131 
L 79.575563 83.843265 
L 79.575563 83.84115 
L 79.663158 83.464066 
L 79.721556 83.381436 
L 79.721556 83.353905 
L 79.809151 83.000122 
L 79.867549 82.909033 
L 79.867549 82.889962 
L 79.955144 82.55948 
L 80.013542 82.491691 
L 80.013542 82.449319 
L 80.101137 82.201449 
L 80.159532 82.112474 
L 80.159532 82.091288 
L 80.24713 81.739638 
L 80.305526 81.671832 
L 80.305526 81.629478 
L 80.39312 81.307456 
L 80.451519 81.233323 
L 80.451519 81.197295 
L 80.539113 80.924027 
L 80.597512 80.845627 
L 80.597512 80.813866 
L 80.685106 80.551173 
L 80.743505 80.496092 
L 80.743505 80.441012 
L 80.831099 80.159248 
L 80.889495 80.085114 
L 80.889495 80.049087 
L 80.977093 79.737676 
L 81.035488 79.659295 
L 81.035488 79.627516 
L 81.123083 79.299149 
L 81.181481 79.222882 
L 81.181481 79.188988 
L 81.269076 78.958074 
L 81.327474 78.877577 
L 81.327474 78.847913 
L 81.415069 78.557689 
L 81.473467 78.481422 
L 81.473467 78.447528 
L 81.561062 78.193313 
L 81.619457 78.117046 
L 81.619457 78.083152 
L 81.707055 77.771741 
L 81.765451 77.69336 
L 81.765451 77.661581 
L 81.853045 77.401002 
L 81.911444 77.309913 
L 81.911444 77.290842 
L 81.999038 76.987909 
L 82.057437 76.90105 
L 82.057437 76.877748 
L 82.145031 76.576913 
L 82.20343 76.521832 
L 82.20343 76.466752 
L 82.291024 76.22313 
L 82.34942 76.13204 
L 82.34942 76.112969 
L 82.437018 75.850294 
L 82.495413 75.786735 
L 82.495413 75.740133 
L 82.583008 75.456254 
L 82.670605 75.346093 
L 82.7582 75.011381 
L 82.816598 74.924522 
L 82.816598 74.901221 
L 82.904193 74.64912 
L 82.962589 74.577084 
L 82.962589 74.53896 
L 83.050186 74.280496 
L 83.108582 74.210593 
L 83.108582 74.170336 
L 83.196176 73.954262 
L 83.254575 73.894934 
L 83.254575 73.844102 
L 83.342169 73.583523 
L 83.400568 73.503027 
L 83.400568 73.473363 
L 83.488163 73.248811 
L 83.546561 73.17043 
L 83.546561 73.138651 
L 83.634156 72.903489 
L 83.692551 72.829355 
L 83.692551 72.793328 
L 83.780149 72.566662 
L 83.838544 72.511581 
L 83.838544 72.456501 
L 83.926139 72.23618 
L 83.984537 72.159913 
L 83.984537 72.126019 
L 84.072132 71.939592 
L 84.13053 71.878149 
L 84.13053 71.829432 
L 84.218125 71.600632 
L 84.276523 71.530729 
L 84.276523 71.490472 
L 84.364118 71.282859 
L 84.422514 71.217203 
L 84.422514 71.172698 
L 84.510111 70.95874 
L 84.568507 70.895181 
L 84.568507 70.848579 
L 84.656101 70.61132 
L 84.7145 70.554107 
L 84.7145 70.501159 
L 84.802094 70.274475 
L 84.860493 70.215165 
L 84.860493 70.164314 
L 84.948088 69.954586 
L 85.006486 69.901621 
L 85.006486 69.844426 
L 85.094081 69.619874 
L 85.181675 69.509714 
L 85.26927 69.232197 
L 85.327668 69.164391 
L 85.327668 69.122037 
L 85.415263 68.903831 
L 85.473661 68.838157 
L 85.473661 68.79367 
L 85.561256 68.562756 
L 85.619652 68.51402 
L 85.619652 68.452595 
L 85.707249 68.238619 
L 85.794844 68.141184 
L 85.794844 68.128458 
L 85.882439 67.9145 
L 85.970036 67.810702 
L 85.970036 67.804339 
L 86.057631 67.594611 
L 86.116026 67.535301 
L 86.116026 67.484451 
L 86.203624 67.262014 
L 86.262019 67.200571 
L 86.262019 67.151854 
L 86.349614 66.978135 
L 86.437212 66.891275 
L 86.437212 66.867974 
L 86.524806 66.677317 
L 86.583205 66.618007 
L 86.583205 66.567157 
L 86.670799 66.387093 
L 86.729195 66.302348 
L 86.729195 66.276932 
L 86.816793 66.077797 
L 86.904387 65.982459 
L 86.904387 65.967636 
L 86.991982 65.789669 
L 87.05038 65.734589 
L 87.05038 65.679509 
L 87.137975 65.482507 
L 87.22557 65.393532 
L 87.22557 65.372346 
L 87.313167 65.128724 
L 87.371563 65.077873 
L 87.371563 65.018563 
L 87.459157 64.87449 
L 87.546755 64.772808 
L 87.546755 64.76433 
L 87.63435 64.52707 
L 87.692745 64.463512 
L 87.692745 64.41691 
L 87.780343 64.230483 
L 87.838738 64.166924 
L 87.838738 64.120322 
L 87.926336 63.948736 
L 88.013931 63.838576 
L 88.101525 63.618254 
L 88.18912 63.520802 
L 88.18912 63.508094 
L 88.276718 63.334375 
L 88.364312 63.230559 
L 88.364312 63.224214 
L 88.451907 63.014486 
L 88.510305 62.950928 
L 88.510305 62.904325 
L 88.5979 62.74543 
L 88.656298 62.686119 
L 88.656298 62.635269 
L 88.743893 62.465798 
L 88.802289 62.414948 
L 88.802289 62.355637 
L 88.889886 62.186166 
L 88.977481 62.101422 
L 88.977481 62.076006 
L 89.065076 61.900172 
L 89.15267 61.802719 
L 89.15267 61.790011 
L 89.240268 61.582398 
L 89.327863 61.472238 
L 89.415457 61.332413 
L 89.503055 61.237093 
L 89.503055 61.222252 
L 89.590649 61.052781 
L 89.678244 60.959577 
L 89.678244 60.942621 
L 89.765839 60.794336 
L 89.853436 60.696883 
L 89.853436 60.684175 
L 89.941031 60.497748 
L 89.999427 60.440535 
L 89.999427 60.387588 
L 90.087024 60.222347 
L 90.174619 60.124894 
L 90.174619 60.112186 
L 90.262214 59.927874 
L 90.349811 59.828306 
L 90.349811 59.817713 
L 90.437406 59.624941 
L 90.525001 59.533834 
L 90.525001 59.514781 
L 90.612595 59.324106 
L 90.700193 59.241494 
L 90.700193 59.213945 
L 90.787788 59.044474 
L 90.875382 58.936429 
L 90.875382 58.934314 
L 90.96298 58.735178 
L 91.050574 58.67162 
L 91.050574 58.625018 
L 91.138169 58.495786 
L 91.225764 58.389874 
L 91.225764 58.385625 
L 91.313361 58.220385 
L 91.400956 58.118702 
L 91.400956 58.110224 
L 91.488551 57.904744 
L 91.576148 57.817884 
L 91.576148 57.794583 
L 91.663743 57.64628 
L 91.751338 57.578492 
L 91.751338 57.53612 
L 91.838932 57.392065 
L 91.92653 57.296727 
L 91.92653 57.281904 
L 92.014125 57.072176 
L 92.130919 56.962016 
L 92.218513 56.801023 
L 92.335307 56.692977 
L 92.335307 56.690862 
L 92.422905 56.512895 
L 92.510499 56.428169 
L 92.510499 56.402735 
L 92.598094 56.235379 
L 92.685689 56.129466 
L 92.685689 56.125218 
L 92.773286 55.932446 
L 92.860881 55.830763 
L 92.860881 55.822285 
L 92.948476 55.663389 
L 93.036073 55.582893 
L 93.036073 55.553229 
L 93.123668 55.42613 
L 93.211263 55.354094 
L 93.211263 55.31597 
L 93.298857 55.17403 
L 93.386455 55.078692 
L 93.386455 55.063869 
L 93.47405 54.941001 
L 93.561644 54.866849 
L 93.561644 54.83084 
L 93.649239 54.680422 
L 93.766036 54.570261 
L 93.853631 54.402906 
L 93.970424 54.303338 
L 93.970424 54.292745 
L 94.058019 54.150805 
L 94.145614 54.066079 
L 94.145614 54.040645 
L 94.233211 53.941077 
L 94.320806 53.860581 
L 94.320806 53.830916 
L 94.408401 53.720756 
L 94.495998 53.638144 
L 94.495998 53.610595 
L 94.58359 53.500435 
L 94.700387 53.390274 
L 94.787984 53.252582 
L 94.904776 53.142422 
L 94.992373 53.006845 
L 95.079965 52.930578 
L 95.079965 52.896684 
L 95.167563 52.778046 
L 95.25516 52.686956 
L 95.25516 52.667885 
L 95.342752 52.555609 
L 95.459549 52.451794 
L 95.459549 52.445449 
L 95.547141 52.309854 
L 95.634738 52.231473 
L 95.634738 52.199693 
L 95.722336 52.062002 
L 95.839127 51.970912 
L 95.839127 51.951841 
L 95.926724 51.803538 
L 96.043515 51.701856 
L 96.043515 51.693378 
L 96.131113 51.562049 
L 96.247909 51.454003 
L 96.247909 51.451888 
L 96.335501 51.341728 
L 96.452298 51.252753 
L 96.452298 51.231567 
L 96.53989 51.112928 
L 96.656687 51.002768 
L 96.744284 50.867191 
L 96.861075 50.788792 
L 96.861075 50.75703 
L 96.948673 50.638392 
L 97.065464 50.532461 
L 97.065464 50.528231 
L 97.153061 50.373583 
L 97.269852 50.267653 
L 97.269852 50.263423 
L 97.35745 50.153262 
L 97.474247 50.064288 
L 97.474247 50.043102 
L 97.561839 49.905392 
L 97.678635 49.812187 
L 97.678635 49.795231 
L 97.766227 49.687204 
L 97.883024 49.585503 
L 97.883024 49.577043 
L 97.970616 49.473227 
L 98.058213 49.392731 
L 98.058213 49.363067 
L 98.145811 49.271977 
L 98.262602 49.170295 
L 98.262602 49.161817 
L 98.350199 49.03047 
L 98.49619 48.920309 
L 98.583787 48.799556 
L 98.700578 48.706351 
L 98.700578 48.689395 
L 98.788176 48.581349 
L 98.904973 48.48603 
L 98.904973 48.471189 
L 98.992564 48.346205 
L 99.109361 48.267824 
L 99.109361 48.236045 
L 99.196953 48.138592 
L 99.342949 48.045388 
L 99.342949 48.028431 
L 99.430541 47.903448 
L 99.547337 47.829296 
L 99.547337 47.793287 
L 99.634935 47.712791 
L 99.780925 47.61109 
L 99.780925 47.60263 
L 99.868523 47.479743 
L 99.985314 47.373831 
L 99.985314 47.369583 
L 100.072911 47.272148 
L 100.218902 47.174696 
L 100.218902 47.161988 
L 100.306499 47.083606 
L 100.42329 46.994614 
L 100.42329 46.973446 
L 100.510888 46.863285 
L 100.627684 46.774292 
L 100.627684 46.753124 
L 100.715276 46.659902 
L 100.802874 46.594228 
L 100.802874 46.549741 
L 100.890466 46.458652 
L 101.007262 46.367562 
L 101.007262 46.348491 
L 101.09486 46.259517 
L 101.211651 46.168427 
L 101.211651 46.149356 
L 101.299249 46.056134 
L 101.445239 45.954451 
L 101.445239 45.945973 
L 101.532836 45.856998 
L 101.649627 45.768024 
L 101.649627 45.746838 
L 101.737225 45.64304 
L 101.854022 45.53288 
L 101.941614 45.418489 
L 102.05841 45.310443 
L 102.05841 45.308328 
L 102.146002 45.181212 
L 102.262799 45.094352 
L 102.262799 45.071051 
L 102.350391 44.999033 
L 102.467187 44.90581 
L 102.467187 44.888872 
L 102.554785 44.802013 
L 102.700775 44.706675 
L 102.700775 44.691852 
L 102.788373 44.609223 
L 102.934363 44.509655 
L 102.934363 44.499062 
L 103.021961 44.374078 
L 103.138752 44.282989 
L 103.138752 44.263918 
L 103.226349 44.170695 
L 103.372339 44.069013 
L 103.372339 44.060535 
L 103.459937 43.973693 
L 103.605927 43.874126 
L 103.605927 43.863532 
L 103.693525 43.774558 
L 103.868714 43.668627 
L 103.868714 43.664397 
L 103.956312 43.547874 
L 104.1607 43.446191 
L 104.1607 43.437713 
L 104.248298 43.374155 
L 104.423487 43.263994 
L 104.511085 43.177135 
L 104.657075 43.098753 
L 104.657075 43.066974 
L 104.744673 43.005549 
L 104.890663 42.916574 
L 104.890663 42.895388 
L 104.97826 42.846653 
L 105.15345 42.738625 
L 105.15345 42.736492 
L 105.241047 42.636925 
L 105.387038 42.537357 
L 105.387038 42.526764 
L 105.474635 42.422967 
L 105.620625 42.333992 
L 105.620625 42.312806 
L 105.708223 42.221716 
L 105.883412 42.122149 
L 105.883412 42.111556 
L 105.97101 42.054361 
L 106.087801 41.965368 
L 106.087801 41.9442 
L 106.175398 41.867933 
L 106.350588 41.768366 
L 106.350588 41.757773 
L 106.438185 41.700559 
L 106.613375 41.598877 
L 106.613375 41.590417 
L 106.700972 41.488716 
L 106.876162 41.384919 
L 106.876162 41.378556 
L 106.963759 41.291696 
L 107.109749 41.190014 
L 107.109749 41.181536 
L 107.197347 41.107402 
L 107.343337 41.003587 
L 107.343337 40.997242 
L 107.430935 40.91886 
L 107.576925 40.821408 
L 107.576925 40.8087 
L 107.664523 40.732433 
L 107.839712 40.630733 
L 107.839712 40.622273 
L 107.927309 40.526935 
L 108.0733 40.416774 
L 108.160897 40.342623 
L 108.306888 40.257897 
L 108.306888 40.232462 
L 108.394485 40.158329 
L 108.540475 40.067221 
L 108.540475 40.048168 
L 108.628073 39.976132 
L 108.803262 39.872334 
L 108.803262 39.865971 
L 108.89086 39.800298 
L 109.095248 39.711324 
L 109.095248 39.690137 
L 109.18284 39.588455 
L 109.358035 39.484657 
L 109.358035 39.478294 
L 109.445627 39.406258 
L 109.591623 39.313053 
L 109.591623 39.296097 
L 109.679215 39.245265 
L 109.883609 39.145697 
L 109.883609 39.135104 
L 109.971201 39.080024 
L 110.17559 38.976208 
L 110.17559 38.969863 
L 110.263187 38.910553 
L 110.438377 38.810986 
L 110.438377 38.800393 
L 110.525974 38.728356 
L 110.730363 38.628789 
L 110.730363 38.618196 
L 110.81796 38.569478 
L 111.022349 38.474141 
L 111.022349 38.459318 
L 111.109941 38.416945 
L 111.285136 38.323723 
L 111.285136 38.306785 
L 111.372728 38.241111 
L 111.577122 38.135181 
L 111.577122 38.130951 
L 111.664714 38.050454 
L 111.869102 37.955117 
L 111.869102 37.940294 
L 111.9567 37.891559 
L 112.131889 37.789876 
L 112.131889 37.781398 
L 112.219487 37.698786 
L 112.423876 37.594971 
L 112.423876 37.588626 
L 112.511473 37.533546 
L 112.715862 37.436093 
L 112.715862 37.423385 
L 112.803459 37.372535 
L 113.007848 37.27933 
L 113.007848 37.262374 
L 113.09544 37.205179 
L 113.270635 37.122549 
L 113.270635 37.095018 
L 113.358227 37.037823 
L 113.562615 36.948848 
L 113.562615 36.927662 
L 113.650213 36.872582 
L 113.883801 36.764536 
L 113.883801 36.762421 
L 113.971398 36.717934 
L 114.204986 36.616252 
L 114.204986 36.607773 
L 114.292578 36.527259 
L 114.496972 36.423461 
L 114.496972 36.417098 
L 114.584564 36.370496 
L 114.759753 36.275177 
L 114.759753 36.260336 
L 114.847351 36.211618 
L 115.051739 36.112051 
L 115.051739 36.101458 
L 115.139337 36.042129 
L 115.372925 35.948925 
L 115.372925 35.931969 
L 115.460522 35.883251 
L 115.69411 35.775206 
L 115.69411 35.773091 
L 115.781702 35.724374 
L 116.073688 35.637514 
L 116.073688 35.614213 
L 116.161286 35.580319 
L 116.424073 35.476503 
L 116.424073 35.470158 
L 116.511664 35.415078 
L 116.745252 35.313377 
L 116.745252 35.304917 
L 116.83285 35.251952 
L 117.095637 35.152384 
L 117.095637 35.141791 
L 117.183234 35.093056 
L 117.475215 34.985029 
L 117.475215 34.982895 
L 117.562812 34.932063 
L 117.7964 34.832496 
L 117.7964 34.821903 
L 117.883998 34.777415 
L 118.146784 34.677848 
L 118.146784 34.667255 
L 118.234376 34.622768 
L 118.467964 34.518952 
L 118.467964 34.512607 
L 118.555562 34.459642 
L 118.847548 34.349481 
L 118.93514 34.298631 
L 119.139528 34.205426 
L 119.139528 34.18847 
L 119.227126 34.148231 
L 119.460714 34.052893 
L 119.460714 34.03807 
L 119.548311 33.995698 
L 119.7527 33.896131 
L 119.7527 33.885537 
L 119.840297 33.832572 
L 120.132278 33.72666 
L 120.132278 33.722412 
L 120.219875 33.675809 
L 120.511861 33.574127 
L 120.511861 33.565649 
L 120.599453 33.523276 
L 120.803848 33.423709 
L 120.803848 33.413116 
L 120.891439 33.377107 
L 121.183426 33.266946 
L 121.271023 33.201273 
L 121.563009 33.095342 
L 121.563009 33.091112 
L 121.650601 33.038147 
L 121.913388 32.944942 
L 121.913388 32.927986 
L 122.000986 32.875021 
L 122.234573 32.771223 
L 122.234573 32.76486 
L 122.322165 32.720373 
L 122.584952 32.612345 
L 122.584952 32.610212 
L 122.67255 32.561495 
L 122.964536 32.457698 
L 122.964536 32.451335 
L 123.052128 32.411077 
L 123.402512 32.303032 
L 123.402512 32.300917 
L 123.49011 32.267023 
L 123.811289 32.163225 
L 123.811289 32.156862 
L 123.898887 32.112375 
L 124.220072 32.014922 
L 124.220072 32.002214 
L 124.307664 31.959842 
L 124.628849 31.856044 
L 124.628849 31.849681 
L 124.716447 31.809442 
L 125.037627 31.701396 
L 125.037627 31.699281 
L 125.125224 31.654794 
L 125.388011 31.559457 
L 125.388011 31.544634 
L 125.475603 31.498031 
L 125.796788 31.389986 
L 125.796788 31.387871 
L 125.884386 31.349728 
L 126.176372 31.245931 
L 126.176372 31.239568 
L 126.263964 31.212037 
L 126.585149 31.101876 
L 126.672747 31.048911 
L 126.993926 30.951458 
L 126.993926 30.93875 
L 127.081524 30.913316 
L 127.5195 30.803173 
L 127.607098 30.752323 
L 127.899078 30.650641 
L 127.899078 30.642163 
L 127.986676 30.59556 
L 128.307861 30.495993 
L 128.307861 30.4854 
L 128.395453 30.447257 
L 128.687439 30.34769 
L 128.687439 30.337097 
L 128.775037 30.301088 
L 129.037824 30.19729 
L 129.037824 30.190927 
L 129.125416 30.144325 
L 129.563398 30.038394 
L 129.563398 30.034164 
L 129.650989 29.983314 
L 129.972175 29.887994 
L 129.972175 29.873153 
L 130.059772 29.847737 
L 130.410151 29.741807 
L 130.410151 29.737577 
L 130.497749 29.697319 
L 130.877327 29.597752 
L 130.877327 29.587159 
L 130.964924 29.542671 
L 131.227711 29.436759 
L 131.227711 29.432511 
L 131.315303 29.396502 
L 131.665687 29.288456 
L 131.665687 29.286341 
L 131.753285 29.243969 
L 132.132863 29.138056 
L 132.132863 29.133808 
L 132.220461 29.095684 
L 132.629238 28.987638 
L 132.629238 28.985523 
L 132.716835 28.947381 
L 133.096413 28.845699 
L 133.096413 28.837221 
L 133.184011 28.813919 
L 133.621987 28.710122 
L 133.621987 28.703759 
L 133.709585 28.67198 
L 134.205959 28.568182 
L 134.205959 28.561819 
L 134.293551 28.540633 
L 134.731528 28.430472 
L 134.819125 28.407171 
L 135.3155 28.303374 
L 135.3155 28.297011 
L 135.403098 28.269479 
L 135.841074 28.161434 
L 135.841074 28.159319 
L 135.928666 28.129655 
L 136.395847 28.025857 
L 136.395847 28.019494 
L 136.483439 27.996193 
L 136.979814 27.888147 
L 136.979814 27.886032 
L 137.067411 27.852138 
L 137.505388 27.741978 
L 137.592985 27.69326 
L 138.060161 27.5831 
L 138.147752 27.559781 
L 138.585734 27.451753 
L 138.585734 27.44962 
L 138.673326 27.415726 
L 139.05291 27.305565 
L 139.140502 27.297105 
L 139.578478 27.19329 
L 139.578478 27.186945 
L 139.666076 27.163643 
L 140.133251 27.055598 
L 140.133251 27.053483 
L 140.220849 27.032297 
L 140.775622 26.922136 
L 140.863214 26.890357 
L 141.330395 26.782311 
L 141.330395 26.780196 
L 141.417987 26.752647 
L 141.826764 26.65308 
L 141.826764 26.642486 
L 141.914356 26.61707 
L 142.410736 26.50691 
L 142.498328 26.479379 
L 142.994709 26.373448 
L 142.994709 26.369218 
L 143.082301 26.350147 
L 143.578681 26.244216 
L 143.578681 26.239986 
L 143.637068 26.22303 
L 144.162642 26.11287 
L 144.250245 26.08109 
L 144.775819 25.97093 
L 144.863411 25.947629 
L 145.388985 25.837468 
L 145.476577 25.816282 
L 146.089742 25.708254 
L 146.089742 25.706121 
L 146.177346 25.67859 
L 146.702919 25.579023 
L 146.702919 25.56843 
L 146.790511 25.549358 
L 147.403677 25.439198 
L 147.491269 25.413782 
L 148.016843 25.309966 
L 148.016843 25.303621 
L 148.104446 25.278205 
L 148.688418 25.168044 
L 148.77601 25.140495 
L 149.447574 25.030335 
L 149.535166 25.002803 
L 150.119139 24.892643 
L 150.206731 24.871457 
L 150.790703 24.761296 
L 150.878306 24.731632 
L 151.579064 24.621471 
L 151.666656 24.604533 
L 152.367424 24.494373 
L 152.455016 24.466824 
L 153.068193 24.360893 
L 153.068193 24.356663 
L 153.155785 24.348185 
L 153.856543 24.238024 
L 153.944146 24.208378 
L 154.674109 24.100333 
L 154.674109 24.098218 
L 154.761701 24.072783 
L 155.433265 23.964756 
L 155.433265 23.962623 
L 155.520857 23.935092 
L 156.367616 23.824931 
L 156.455219 23.80586 
L 157.068385 23.706292 
L 157.068385 23.695699 
L 157.155977 23.670283 
L 158.031929 23.560123 
L 158.119533 23.536821 
L 158.82029 23.426661 
L 158.907893 23.40759 
L 159.521059 23.297429 
L 159.608651 23.269898 
L 160.543002 23.163967 
L 160.543002 23.159737 
L 160.630594 23.142781 
L 161.564956 23.032621 
L 161.623344 23.022028 
L 162.382511 22.91823 
L 162.382511 22.911867 
L 162.440909 22.903389 
L 163.200065 22.797476 
L 163.200065 22.793228 
L 163.287668 22.782635 
L 164.338805 22.672475 
L 164.426408 22.661882 
L 165.273156 22.553854 
L 165.273156 22.551721 
L 165.360759 22.534783 
L 166.14912 22.424622 
L 166.236712 22.409799 
L 167.28786 22.301754 
L 167.28786 22.299639 
L 167.375452 22.286912 
L 168.309803 22.178885 
L 168.309803 22.176752 
L 168.397406 22.166159 
L 169.565339 22.058131 
L 169.565339 22.055998 
L 169.652931 22.045423 
L 170.49969 21.935263 
L 170.587293 21.922536 
L 171.755227 21.814509 
L 171.755227 21.812376 
L 171.842819 21.799668 
L 172.893966 21.693755 
L 172.893966 21.689507 
L 172.981569 21.674684 
L 174.353891 21.564524 
L 174.441494 21.5497 
L 175.580234 21.44377 
L 175.580234 21.43954 
L 175.667826 21.422584 
L 176.806566 21.312423 
L 176.864964 21.30606 
L 177.916112 21.198033 
L 177.916112 21.195899 
L 178.003704 21.172598 
L 179.142444 21.062438 
L 179.230047 21.053978 
L 180.485583 20.943817 
L 180.573175 20.935339 
L 181.536731 20.829408 
L 181.536731 20.825178 
L 181.595118 20.818815 
L 182.821461 20.710788 
L 182.821461 20.708655 
L 182.909053 20.698062 
L 184.222987 20.590034 
L 184.222987 20.587901 
L 184.310579 20.581556 
L 185.712106 20.47351 
L 185.712106 20.471396 
L 185.799709 20.458687 
L 187.172031 20.348527 
L 187.230429 20.342164 
L 188.923948 20.232003 
L 188.953141 20.22141 
L 190.267076 20.111249 
L 190.354668 20.102771 
L 192.106585 19.992611 
L 192.194177 19.982018 
L 193.946093 19.87399 
L 193.946093 19.871857 
L 194.033685 19.859149 
L 195.668794 19.748988 
L 195.756397 19.742643 
L 197.187117 19.634598 
L 197.187117 19.632483 
L 197.274721 19.624005 
L 199.172616 19.515959 
L 199.172616 19.513844 
L 199.260219 19.505366 
L 201.33331 19.397321 
L 201.33331 19.395206 
L 201.33331 19.390976 
L 203.289604 19.280815 
L 203.348003 19.272337 
L 204.837133 19.162176 
L 204.924724 19.149468 
L 206.997815 19.041423 
L 206.997815 19.039308 
L 207.056214 19.03083 
L 209.94687 18.920669 
L 210.005268 18.916439 
L 212.545535 18.806278 
L 212.603933 18.79357 
L 214.501829 18.685525 
L 214.501829 18.68341 
L 214.589432 18.677047 
L 216.954503 18.566886 
L 217.042106 18.560541 
L 219.640771 18.45038 
L 219.728363 18.439787 
L 221.830659 18.329627 
L 221.859852 18.321149 
L 224.429323 18.210988 
L 224.487722 18.204625 
L 226.911191 18.094464 
L 226.96959 18.088119 
L 229.743449 17.980074 
L 229.743449 17.977959 
L 229.831041 17.969481 
L 233.159669 17.85932 
L 233.218067 17.852957 
L 235.787549 17.744929 
L 235.787549 17.742796 
L 235.816732 17.736451 
L 239.174564 17.626291 
L 239.262156 17.619928 
L 243.583543 17.509767 
L 243.671135 17.499174 
L 247.291743 17.389013 
L 247.379335 17.384783 
L 250.67878 17.276738 
L 250.67878 17.274623 
L 250.67878 17.272508 
L 254.854166 17.164462 
L 254.854166 17.162347 
L 254.941758 17.153869 
L 259.029553 17.043709 
L 259.117144 17.037346 
L 264.197677 16.927185 
L 264.285269 16.922955 
L 268.694249 16.812794 
L 268.781841 16.804316 
L 273.716394 16.694156 
L 273.745599 16.689926 
L 279.118112 16.579765 
L 279.147317 16.575535 
L 286.038165 16.465374 
L 286.038165 16.461126 
L 292.812216 16.350966 
L 292.812216 16.346736 
L 302.447708 16.236575 
L 302.476913 16.232327 
L 311.119666 16.122166 
L 311.178075 16.115821 
L 320.0544 16.005661 
L 320.0544 16.003546 
L 328.346785 15.893385 
L 328.405172 15.889137 
L 338.420259 15.778977 
L 338.420259 15.776862 
L 339.880184 15.766269 
L 339.880184 15.764154 
" clip-path="url(#pd5e7ed93c3)" style="fill: none; stroke: #1f77b4"/>
   </g>
   <g id="patch_3">
    <path d="M 47.72 318.04 
L 47.72 14.76 
" style="fill: none; stroke: #000000; stroke-width: 0.8; stroke-linejoin: miter; stroke-linecap: square"/>
   </g>
   <g id="patch_4">
    <path d="M 47.72 318.04 
L 339.705 318.04 
" style="fill: none; stroke: #000000; stroke-width: 0.8; stroke-linejoin: miter; stroke-linecap: square"/>
   </g>
  </g>
 </g>
 <defs>
  <clipPath id="pd5e7ed93c3">
   <rect x="47.72" y="14.76" width="291.985" height="303.28"/>
  </clipPath>
 </defs>
</svg>
